<?xml version="1.0" encoding="UTF-8"?><svg id="Layer_1" xmlns="http://www.w3.org/2000/svg" viewBox="0 0 200 100"><path d="M80.46-11.72c4.94,0,9.87,0,14.81,0,.38,.52,.76,1.03,1.27,1.71,.4-.74,.67-1.23,.94-1.71,7.88,0,15.76,0,23.63,0-1.15,2.32-2.3,4.64-3.45,6.96-2.42,5.45-4.84,10.91-7.26,16.36-1.13,3.35-2.35,6.68-3.36,10.06-.63,2.13-1.77,4.14-1.61,6.48,.02,.3-.47,.63-.71,.96-.75,.99-1.49,1.98-2.24,2.96-.82,1.67-1.9,3.27-2.41,5.04-1.09,3.78-.92,7.73-.6,11.58,.26,3.11,1.16,6.16,1.77,9.24,.09,.67,.08,1.38,.28,2.02,1.54,4.9,3.03,9.81,4.71,14.66,1.48,4.25,3.18,8.43,4.78,12.64,.1,.31,.21,.63,.31,.94h0c.07,.78,.08,1.56,.22,2.33,.65,3.74,1.33,7.48,2,11.22h-43.49c-.15-1.88-.28-3.77-.44-5.65-.55-6.38-.08-12.68,1.41-18.91,.54-.94,.85-1.92,.68-3.4-.59,.68-.95,1.09-1.31,1.5h0c-.21,.21-.41,.42-.62,.63-.21,.21-.43,.42-.64,.64-.21,.21-.42,.41-.64,.62,0,0,0,0,0,0l-.6,.64h-.01c-.23,.31-.47,.61-.7,.91-.18,.11-.37,.23-.55,.34-.98,.82-1.96,1.63-2.94,2.45-.47,.39-.93,.8-1.39,1.2l-.36-.28,.88-3.06c1.57-.88,1.21-2.67,1.89-3.96,.21-.41,.54-.93,.92-1.03,.8-.22,.93-.65,.92-1.38,0-.61,.02-1.32,.33-1.81,1.33-2.12,2.83-4.13,4.12-6.26,.43-.71,.55-1.67,.58-2.52,.04-.83-.69-1.3-1.39-.88-1.01,.61-2.3,1.3-2.69,2.26-.55,1.38-1.82,1.65-2.71,2.54,.06-.8,.25-1.53,.61-2.16,.41-.72,1.09-1.29,1.44-2.03,1.22-2.55,2.17-5.26,4.34-7.24,.15-.13,.2-.36,.31-.54,.59-1.05,1.12-2.13,1.79-3.13,.7-1.04,1.94-1.88,2.23-2.99,.73-2.82,2.84-4.87,3.78-7.53,.24-.69,.29-1.62,.78-2.01,1.34-1.07,1.16-2.8,2.07-4.09,1.2-1.69,1.55-3.99,2.77-5.66,1.51-2.08,2.06-4.44,2.88-6.75,.47-1.32,.59-2.67,.29-4.09-1.89,.97-1.91,.97-2.57,2.65-.42,1.06-.7,2.18-1.19,3.21-.96,2.03-2,4.02-3.02,6.01-.65,1.28-1.26,2.59-2.02,3.8-1.46,2.34-3.02,4.62-4.54,6.92-.74,1.13-1.42,2.31-2.27,3.35-1.13,1.37-2.89,2.29-2.84,4.42,0,.22-.26,.44-.39,.67-.93,1.65-2.54,2.86-3.04,4.79-.09,.34-.34,.65-.54,.95-1.5,2.25-3.08,4.45-4.49,6.76-.73,1.19-1.13,2.57-1.74,3.84-1.03,2.17-2.17,4.28-3.11,6.48-.65,1.51-1.09,3.11-1.54,4.69-.23,.8-.22,1.65-.98,2.23-.22,.16-.32,.54-.38,.83-.46,2.24-.82,4.49-1.38,6.7-.15,.61-.83,1.15-1.39,1.54-.16,.11-.77-.43-1.18-.67-.18-.1-.4-.15-.55-.28-1.49-1.3-3.07-2.5-4.4-3.94-.93-1-1.81-1.87-3.19-2.1-1.58-1.26-3.17-2.51-4.03-4.43,.33-1.89,.66-3.79,.99-5.68,1.69-2.68,3.38-5.36,5.09-8.02,.59-.91,1.23-1.79,1.84-2.69,1.39-1.49,2.85-2.92,4.16-4.48,3.02-3.6,6.84-6.3,10.31-9.4,.59-.27,1.3-.42,1.74-.85,2.5-2.4,5.64-4.11,7.61-7.06,.48-.71,.9-1.47,1.34-2.2h0c.53-.38,1.26-.65,1.57-1.17,.75-1.28,1.32-2.66,1.91-4.03,.11-.25-.05-.62-.08-.93-.28,.18-.56,.36-.84,.53-.53,.61-1.06,1.21-1.59,1.82-.95,.84-1.91,1.68-2.86,2.52-.83,.64-1.66,1.27-2.49,1.91-.84,.53-1.67,1.07-2.51,1.6-1.47,.74-2.93,1.47-4.4,2.21-.52-.2-1.66,.41-1.29-.97h0c.11-.1,.22-.19,.33-.29h0c.52-.43,1.03-.86,1.55-1.29,0,0,0,0,0,0,.1-.11,.21-.21,.31-.32,0,0,0,0,0,0,.11-.1,.21-.21,.32-.31h0c.3-.37,1.28-.39,.64-1.25-1.99-.28-3.47,.99-5.04,1.8-1.84,.94-3.7,1.38-5.8,1.23,.89-.9,1.86-1.65,2.86-2.35,1.39-.98,2.97-1.62,4.2-2.92,1.31-1.38,3-2.4,4.39-3.72,.6-.57,.85-1.49,1.27-2.25,.01-.19,.03-.39,.04-.58l5.02-6.32c.11-.21,.22-.43,.33-.64,0,0-.02,.02-.02,.02,.09-.11,.18-.22,.28-.34,.04-.08,.07-.17,.09-.27,.57-1.06,1.15-2.12,1.82-3.35-2.07-.71-3.89-.38-5.67-.5-1.57-.41-3.15-.83-4.72-1.24-.63-.2-1.27-.41-1.9-.61-1.79-.84-3.58-1.68-5.36-2.52-.41-.22-.82-.44-1.24-.66-2.05-1.42-4.29-2.64-5.54-5.14,4.92,.08,9.64-.6,14.17-2.32,4.56-1.73,8.51-4.42,12.17-7.59,2.73-2.54,5.45-5.09,8.18-7.63Z" style="fill:#050505;"/><path d="M198-11.72h2.84V101.72h-24.58c.13-.59,.29-1.18,.4-1.78,.2-1.09,.36-2.18,.54-3.27,0,0,0,0,0,0,.1-.21,.2-.43,.31-.64,0,0,0,0,0,0,.11-.21,.21-.43,.32-.64,1.02-2.41,1.97-4.85,3.06-7.23,3.37-7.34,5.94-14.98,8.32-22.68,.18-.54,.39-1.08,.52-1.63,.94-3.7,1.87-7.39,2.78-11.1,1.17-4.73,2.38-9.45,2-14.39-.2-2.56-.45-5.12-2.16-7.24-1.04-1.74-2.31-3.24-4.35-3.83-.97-.28-1.4-.91-1.66-1.87-1.01-3.68-2.09-7.33-3.15-11-1.79-5.68-3.81-11.26-6.48-16.63,.14,4.75,1.33,9.44,.51,14.26-.33-1.09-.67-2.17-1-3.26-.23-.58-.47-1.15-.7-1.73-2.54-6.21-5.44-12.23-9.56-17.59-.28-.37-.49-.81-.73-1.21,10.61,0,21.22,0,31.83,0h.95Z" style="fill:#050505;"/><path d="M38.55-11.72c.53,0,1.05,0,1.58,0-1.66,2.34-3.4,4.63-4.96,7.03-.9,1.39-1.53,2.97-2.26,4.47-.11,.22-.22,.56-.13,.74,.77,1.44,.1,2.89,.1,4.33,0,.84-.18,1.54-.94,2.03-.71,.47-.66,1.04-.29,1.77,.31,.63,.49,1.35,.57,2.06,.16,1.35,.23,2.71,.29,4.07,.05,1.19,.32,2.47-.55,3.48-.72,.84-.61,1.66-.38,2.64,.21,.89,.2,1.85,.15,2.77-.1,1.93-.35,3.86-.4,5.79-.02,.86,.26,1.74,.42,2.61,.15,.8,.25,1.61,.5,2.38,.5,1.52,1.38,2.96,.5,4.67-.22,.43-.14,1.19,.1,1.65,.62,1.18,.68,2.4,.65,3.67-.08,3,.93,5.8,1.82,8.57,.43,1.33,.71,2.59,.7,3.95-.01,1.29-.49,2.59,.18,3.85,.1,.19-.04,.51-.07,.77-.33,2.63,.07,3.11,2.72,3.27,0,.1,0,.21,0,.31-.1,.11-.19,.22-.29,.32-.01,.2-.02,.41-.03,.61-.1,.11-.2,.22-.3,.33-1.19,2.71-2.32,5.43-2.2,8.48-3.1-3.84-5.85-7.91-8.28-12.2-.61-1.08-1.31-2.17-2.19-3.04-3.06-3.03-6.02-6.14-8.23-9.86-1.87-3.15-3.78-6.29-5.3-9.6-1.48-3.22-2.53-6.65-3.71-10.01-1.91-5.43-2.74-11.04-2.92-16.79-.14-4.71,.7-9.31,1.55-13.88,.7-3.8,1.92-7.5,2.91-11.25,8.61,0,17.23,0,25.84,0-.18,.71-.37,1.42-.63,2.45,1.71-.52,2.81-1.17,3.47-2.45Z" style="fill:#878787;"/><path d="M9.87-11.72c-.99,3.75-2.21,7.45-2.91,11.25-.85,4.57-1.69,9.16-1.55,13.88,.17,5.75,1,11.36,2.92,16.79,1.18,3.36,2.23,6.79,3.71,10.01,1.52,3.31,3.43,6.46,5.3,9.6,2.21,3.72,5.17,6.83,8.23,9.86,.88,.87,1.57,1.96,2.19,3.04,2.43,4.29,5.19,8.36,8.28,12.2,.41,.54,.82,1.08,1.23,1.62,.86,1.92,2.46,3.16,4.03,4.43,.31,.35,.6,.71,.93,1.03,2.74,2.71,5.49,5.42,8.23,8.13,.83,1.03,1.03,2.14,.77,3.47-.21,1.1-.07,2.28-.09,3.42-.13,.5-.26,1-.39,1.49-.3-.07-.66-.06-.89-.22-2.54-1.74-5.03-3.56-7.61-5.25-1.69-1.1-3.51-2.01-5.28-3-.41-.32-.78-.71-1.23-.96-3.46-1.93-6.9-3.92-10.42-5.74-4.87-2.53-9.8-4.93-14.71-7.38-3.13-1.56-6.26-3.14-9.04-5.3-.78-.6-1.61-1.13-2.42-1.69,0-16.49,0-32.98,0-49.47,.09,.24,.23,.47,.28,.72,.52,2.51,1,5.02,1.57,7.52,.22,.95,.65,1.86,.99,2.79,.14,.77,.15,1.59,.44,2.31,1.18,2.97,2.25,6.01,3.71,8.84,3.59,6.99,8.01,13.41,13.72,18.89,1.47,1.41,2.79,3,4.24,4.44,.92,.91,1.96,1.7,2.94,2.55,.08-.09,.16-.19,.23-.28-1.25-1.25-2.5-2.51-3.76-3.75-5.27-5.21-10.18-10.69-14.02-17.1-2.63-4.39-4.9-8.92-6.54-13.76-.25-.73-.64-1.42-.96-2.13-.39-2.05-.83-4.09-1.15-6.16C.34,21.16-.2,17.96-.5,14.74-.86,10.91-.14,7.13,.59,3.37,1.03,1.06,1.53-1.23,2-3.54c0,0,0,.02,0,.02,.32-1.06,.63-2.11,.95-3.17h0c.84-1.67,1.68-3.35,2.53-5.04,1.47,0,2.94,0,4.41,0ZM29.1,68.9l-.42,.45c1.48,1.37,2.96,2.73,4.44,4.1l.31-.33c-1.44-1.41-2.79-2.92-4.33-4.23Z" style="fill:#f4f4f4;"/><path d="M-.84,68.95c.81,.56,1.64,1.09,2.42,1.69,2.79,2.16,5.91,3.73,9.04,5.3,4.91,2.45,9.84,4.86,14.71,7.38,3.52,1.83,6.96,3.81,10.42,5.74,.45,.25,.82,.64,1.23,.96,1.78,1.25,3.58,2.5,5.35,3.77,1.27,.91,2.61,1.75,3.74,2.81,1.28,1.19,2.34,2.61,3.55,3.89,.13,.14,.57-.01,.87-.03,0,.42,.02,.84,.03,1.27H-.84c0-10.92,0-21.85,0-32.77Z" style="fill:#888;"/><path d="M38.86,64.85c-2.66-.17-3.05-.64-2.72-3.27,.03-.26,.17-.58,.07-.77-.67-1.27-.19-2.57-.18-3.85,.01-1.36-.27-2.62-.7-3.95-.89-2.77-1.9-5.57-1.82-8.57,.03-1.27-.03-2.49-.65-3.67-.24-.45-.32-1.22-.1-1.65,.87-1.71,0-3.14-.5-4.67-.25-.77-.35-1.58-.5-2.38-.16-.87-.44-1.74-.42-2.61,.06-1.93,.31-3.86,.4-5.79,.05-.92,.05-1.88-.15-2.77-.23-.98-.33-1.8,.38-2.64,.87-1.02,.6-2.29,.55-3.48-.06-1.36-.13-2.72-.29-4.07-.08-.7-.26-1.43-.57-2.06-.36-.73-.42-1.31,.29-1.77,.75-.49,.94-1.19,.94-2.03,0-1.44,.67-2.89-.1-4.33-.09-.18,.02-.52,.13-.74,.73-1.5,1.35-3.08,2.26-4.47,1.56-2.4,3.3-4.69,4.96-7.03,1.47,0,2.94,0,4.41,0,0,.26,0,.52,0,.78,.02,.98,.07,1.93-1.4,1.89-.25,0-.74,.62-.74,.97-.04,1.64-.66,3.54,1.81,4.31-.43,.32-.68,.49-.92,.67-.71,.55-.68,1.32-.05,1.71,.98,.6,.96,1.49,1.16,2.3,.69,.4,1.25,.92,1.84,1.41,.23,.19,.53,.28,.78,.44,.33,.21,.65,.43,.98,.65-1.26-.02-2.51,0-3.77-.06-1.19-.05-2.34-.77-3.95-.23,1.17,1.42,2.09,2.74,3.23,3.85,1.75,1.72,3.65,3.29,5.48,4.92-1.68-.08-2.94-.83-3.75-2.32-.41-.76-1.11-1.31-1.91-.97-.59,.25-1.35,.93-1.4,1.49-.38,3.78-.59,7.58-.86,11.38-.04,.62,.05,1.31-.17,1.86-.79,1.94-.38,3.91-.32,5.88,.06,1.92,.15,3.87-.03,5.78-.2,2.13,.87,3.59,3.07,3.73-2.12,.94-4.26,1.81-6.63,1.89-.36,0-.74-.06-1.08,.03-.31,.08-.57,.32-.85,.49,.22,.25,.44,.49,.66,.74h0c.32,.1,.63,.21,.95,.31,4.36,.9,8.75,1.55,13.23,1.28,.94-.06,1.88,0,2.83,.02-.66,.1-1.32,.26-1.98,.27-.79,.02-1.4,.18-1.81,.95-.24,.45-.73,.76-.97,1.21-.22,.42-.4,.95-.35,1.41,.09,.82,.35,1.63,.57,2.43,.38,1.4,.48,1.43,1.87,1.05,.35-.1,.72-.08,1.08-.11-3.98,3.51-7.76,7.21-10.71,11.67-.1,.11-.2,.21-.29,.32h0c-.11,.21-.21,.42-.32,.62h0c-.1,.11-.2,.22-.3,.33-.09,.21-.19,.43-.28,.64-.03,.1-.05,.2-.07,.3-.09,.1-.19,.21-.28,.31,0,0,0,0,0,0Z" style="fill:#979797;"/><path d="M48,3.42c-.32-.22-.64-.44-.98-.65-.26-.16-.56-.25-.78-.44-.59-.49-1.15-1.01-1.84-1.41-.19-.81-.17-1.7-1.16-2.3-.63-.39-.66-1.16,.05-1.71,.24-.19,.48-.36,.92-.67-2.47-.77-1.85-2.67-1.81-4.31,0-.35,.49-.98,.74-.97,1.47,.04,1.42-.91,1.4-1.89,0-.26,0-.52,0-.78h34.03c-1.59,2.49-3.78,4.4-6.24,5.89-3.57,2.16-7.33,4.03-11.04,5.97-4.16,2.17-8.61,3.2-13.29,3.28Z" style="fill:#9a9a9a;"/><path d="M117.67-4.76c1.15-2.32,2.3-4.64,3.45-6.96,.95,0,1.89,0,2.84,0-.25,1.66-.57,3.31-.74,4.97-.32,3.02-.56,6.05-.8,9.07-.04,.45,.13,.91,.2,1.36,.49-.34,.65-.66,.79-.98,1.61-3.76,3.21-7.52,4.82-11.27,.45-1.06,.93-2.1,1.4-3.16,1.37,0,2.73,0,4.1,0,.26,3.42,.05,6.87,.89,10.24,.06,.25,.01,.52,.02,.78-.24,.2-.51,.37-.72,.6-3.35,3.77-7.65,5.86-12.48,7-.2,.05-.36,.21-.81,.49,1.64,.19,2.89,.22,4.11-.5,.8-.47,1.73-.74,2.54-1.2,1.67-.95,3.48-1.77,4.9-3.02,.97-.86,1.83-1.46,3.11-1.46,0,.12-.01,.23-.02,.35-.51,.35-1.07,.65-1.53,1.06-2.93,2.58-6.19,4.68-9.68,6.41-.92,.46-1.96,.81-2.98,.95-4,.54-5.77-1.51-4.69-5.41,1.26-4.56,2.86-8.99,5.4-13.03,.2-.32,.31-.69,.46-1.04-.09-.06-.19-.12-.28-.18-1.43,1.64-2.87,3.29-4.3,4.93Z" style="fill:#555;"/><path d="M127.42,101.72h-1.58c-.21-.53-.41-1.08-.64-1.6-1.24-2.82-2.65-5.58-3.69-8.47-2.1-5.85-3.97-11.79-5.97-17.68-1.65-4.86-3.36-9.69-5.03-14.54-.2-.59-.31-1.21-.46-1.82-.31-.74-.62-1.47-.93-2.21h0c-.47-1.75-.89-3.53-1.43-5.26-.22-.71-.73-1.33-1.1-1.99h0c-.09-.31-.19-.63-.28-.95-.13-.61-.25-1.22-.38-1.83-.08-.23-.16-.47-.24-.7v-.02c.74,0,1.48,0,2.23,0,.72,.21,1.43,.43,2.15,.64,.93,.62,1.81,1.31,2.79,1.84,3.15,1.7,6.62,1.66,9.98,1.22,5.65-.75,11.28-1.66,16.96-2.17,4.99-.45,9.95-1.15,14.98-.56,4.47,.52,8.94,.96,13.41,1.48,3.2,.37,6.33,1.6,9.63,.77-.04,.74-.54,.84-1.15,.95-.68,.11-1.33,.4-1.99,.61-3.75-.34-7.51-.67-11.26-1.01-3.02-.28-6.04-.79-9.07-.82-5.39-.05-10.8-.45-16.18,.51-2.62,.47-5.33,.46-7.96,.9-3.36,.57-6.68,1.16-10.13,1.11-2.55-.04-4.84-.69-7.06-1.86-1.18-.62-2.39-1.17-3.58-1.75l-.25,.39c1.47,1.11,2.94,2.22,4.21,3.17-.21,.96-.36,1.71-.52,2.45-.2,.44-.4,.88-.6,1.31-.3-.55-.52-1.16-.92-1.62-.26-.29-.78-.35-1.18-.51-.08,.41-.33,.87-.23,1.24,.84,2.94,1.75,5.86,2.63,8.78,.53,1.69,1.1,3.37,1.58,5.08,.27,.96,.74,1.7,1.64,2.13-.74,.77-.8,1.61-.22,2.6,.28,.49,.6,.97,.76,1.5,.38,1.23,.66,2.49,1.03,3.73,.72,2.37,1.38,4.77,2.24,7.09,.66,1.78,1.54,3.49,2.43,5.18,.19,.37,.83,.5,1.27,.73,.02,.65-.14,1.38,.09,1.95,1.18,2.84,2.46,5.64,3.7,8.45,.1,.53,.2,1.05,.31,1.58Z" style="fill:#1d1d1d;"/><path d="M51.16,97c.02-1.14-.13-2.31,.09-3.42,.25-1.33,.06-2.44-.77-3.47,.46,.29,.92,.59,1.39,.89,.48-2.22,.81-4.33,1.4-6.38,1.01-3.55,2.18-7.06,3.28-10.58,.2-.23,.4-.45,.6-.68q-.4,2.45,1.57,2.51c-.32,.93-.65,1.86-.97,2.79-.63,1.48-1.26,2.96-1.88,4.45-.19,.74-.39,1.49-.58,2.23-.01,.1-.02,.2-.03,.3-.57,1.9-1.14,3.81-1.71,5.71,.13,.05,.27,.1,.4,.15,1.12-1.42,1.19-3.32,1.96-4.9h0c.1-.22,.2-.43,.3-.64,0,0,0,0,0,0,.1-.21,.19-.43,.29-.64,.85-1.89,1.7-3.78,2.54-5.66h0c.44-.83,.88-1.66,1.32-2.49,1.88-2.94,3.77-5.89,5.65-8.83,.09-.11,.19-.22,.28-.33h0c.1-.11,.19-.22,.29-.33h0c.12-.2,.23-.41,.35-.61h0c.1-.11,.2-.22,.3-.33,0,0,0,0,0,0,.1-.11,.2-.22,.3-.33h0c.12-.2,.23-.4,.35-.61h0c.58-.19,.59,.19,.59,.59v.02c-.09,.11-.19,.23-.28,.34h0c-.11,.21-.22,.41-.33,.62,0,0,0,0,0,0-.19,.33-.38,.65-.57,.98,0,0,0,0,0,0-.13,.3-.26,.59-.39,.89,0,0,0,.01,0,.01-.09,.12-.18,.23-.27,.35-1.06,2.09-2.11,4.19-3.17,6.28-.1,.21-.2,.42-.31,.64,0,0,0,0,0,0-.09,.22-.17,.43-.26,.65-.03,.19-.05,.37-.08,.56-.63,1.59-1.25,3.18-1.88,4.77-.21,.63-.43,1.26-.64,1.89h0c-.27,.91-.53,1.83-.8,2.74,.14,.06,.28,.12,.42,.18,.35-.55,.69-1.09,1.04-1.64,0,0,0,0,0,0,.11-.11,.21-.21,.32-.32h0c.11-.1,.21-.21,.32-.32h0c.11-.1,.21-.21,.32-.32,1.33-1.51,2.67-3,3.99-4.52,.3-.34,.51-.76,.76-1.14,.18-.11,.37-.23,.55-.34,.23-.3,.47-.6,.7-.9,0,0,.01-.01,.01-.01l.6-.64s0,0,0,0c.21,0,.41,0,.62,0,0,.1,0,.2,0,.31-.21,.41-.4,.83-.62,1.24-.63,1.17-1.27,2.33-1.91,3.49-1.27,1.68-2.54,3.36-3.81,5.04-.2,.21-.4,.43-.6,.64-.3,.43-.6,.85-.9,1.28-1.36,2.18-2.72,4.35-4.06,6.53-.44,.71-.97,1.42-.43,2.32-.33,.35-.76,.65-.98,1.06-.45,.86-.79,1.78-1.18,2.68h-3.47c.07-.51,.22-1.02,.2-1.53-.02-1.06-.13-2.13-.2-3.19Z" style="fill:#7d7d7d;"/><path d="M111.02,87.24c-1.6-4.21-3.31-8.38-4.78-12.64-1.68-4.85-3.17-9.76-4.71-14.66-.2-.64-.19-1.34-.28-2.02,0-.37-.01-.73-.01-1.1,0-3.56-.07-7.13,0-10.69,.03-1.31,.37-2.61,.56-3.92,.12,.01,.24,.03,.36,.04,.05,.46,.1,.92,.16,1.38,.43,3.49,.52,7.06,1.36,10.44,1.51,6.11,3.3,12.16,5.27,18.13,1.91,5.77,4.04,11.48,6.38,17.09,1.78,4.25,4.04,8.29,6.09,12.42h-4.73c-.84-2.14-1.67-4.29-2.52-6.42-.94-2.38-1.9-4.74-2.85-7.12h0c-.1-.32-.21-.63-.31-.94Z" style="fill:#f9f9f9;"/><path d="M189.19,65.49c-2.37,7.71-4.95,15.34-8.32,22.68-1.09,2.38-2.04,4.82-3.06,7.23-.11,.21-.21,.43-.32,.64,0,0,0,0,0,0-.1,.21-.2,.43-.31,.64,0,0,0,0,0,0-.84,1.68-1.68,3.37-2.51,5.05h-2.52c.35-.7,.63-1.44,1.05-2.1,2.91-4.61,4.56-9.76,6.28-14.87,.77-2.27,1.22-4.65,1.82-6.98,.63-.39,.99-.9,.85-1.69-.05-.29-.07-.68,.08-.9,1.3-1.86,.63-3.79,.27-5.71,.43-1.29,.83-2.59,1.28-3.87,2.39-6.77,5.05-13.45,6.8-20.43,.05-.21,.23-.39,.5-.85,.11,.59,.22,.88,.2,1.16-.23,3.19-.41,6.38-.75,9.56-.37,3.49-.89,6.96-1.35,10.44Z" style="fill:#fafafa;"/><path d="M121.43,101.72c-2.05-4.13-4.32-8.18-6.09-12.42-2.34-5.61-4.47-11.32-6.38-17.09-1.98-5.97-3.76-12.02-5.27-18.13-.84-3.39-.93-6.96-1.36-10.44-.06-.46-.1-.92-.16-1.38-.12-.01-.24-.03-.36-.04-.2,1.3-.54,2.61-.56,3.92-.07,3.56-.01,7.13,0,10.69,0,.37,0,.73,.01,1.1-.62-3.08-1.51-6.13-1.77-9.24-.32-3.85-.49-7.8,.6-11.58,.51-1.76,1.59-3.36,2.41-5.04,1.11-.45,2.34-.73,3.3-1.39,2.19-1.51,4.31-1.16,6.5-.14-1.02-.09-1.89,.25-2.5,1.03-1.69,2.18-3.42,4.34-4.97,6.62-1.09,1.61-.94,2.48,.37,3.94,.83,.92,1.83,1.69,2.76,2.52h-2.24c-1.1-.16-.74,.67-.68,1.12,.67,4.82,1.09,9.69,2.15,14.42,1.14,5.09,2.9,10.04,4.36,15.07,.15,.51,.07,1.08,.1,1.62-.02-.08-.04-.17-.04-.19,0,.02,.04,.1,.07,.17,.69,2.29,1.21,4.66,2.12,6.86,1.7,4.15,3.63,8.21,5.46,12.31,.85,1.9,1.68,3.8,2.51,5.7h-.32Zm-12.48-70.48c-.07-.1-.15-.2-.22-.29-.18,.16-.37,.32-.55,.48,.05,.06,.09,.13,.14,.19,.21-.13,.42-.25,.63-.38Z" style="fill:#505050;"/><path d="M141.91-11.72h11.66c0,2.52,0,5.04,.01,7.56,0,.21-.02,.41-.03,.62-.07,.35-.16,.69-.19,1.05-.2,2.02,.67,3.69,1.79,5.27-.01,.1-.02,.2-.03,.3l-.04,.09s.09-.04,.09-.04c.09,0,.17,0,.26-.01,0,0,.01,.02,.01,.02,.14,.19,.28,.37,.43,.56,0,0-.03-.04-.03-.04,.17,.24,.34,.48,.51,.72,.09,.03,.12,.09,.12,.18-.99,1.23-1.46-.14-2.24-.51-.11,.37-.21,.7-.31,1.02,.11,.9,.21,1.8,.32,2.69,.1,.65,.21,1.3,.31,1.95,0,0,0-.02,0-.02-.35,.13-.71,.27-1.06,.4,0,0,.03,.03,.03,.03-.1-.13-.2-.26-.3-.39-.41-.53-.82-1.05-1.23-1.58-.27-.33-.54-.66-.81-.99-.24-.3-.49-.59-.73-.89-.11-.45-.21-.89-.32-1.34-.34-.46-.76-.88-.99-1.39-1.22-2.74-3.21-5.09-4.05-8.02-.45-.92-.89-1.84-1.34-2.76-.08-.13-.16-.26-.24-.39,0,0,0,0,0,0-.57-1.34-1.58-2.52-1.58-4.08Z" style="fill:#030303;"/><path d="M121.74,101.72c-.84-1.9-1.67-3.8-2.51-5.7-1.83-4.1-3.76-8.16-5.46-12.31-.91-2.21-1.43-4.57-2.12-6.86l-.02,.02c-.03-.54,.05-1.11-.1-1.62-1.46-5.02-3.22-9.98-4.36-15.07-1.06-4.73-1.48-9.6-2.15-14.42-.06-.45-.42-1.28,.68-1.12,0,0,0,.02,0,.02,.08,.23,.16,.47,.24,.7,.13,.61,.25,1.22,.38,1.83,.09,.32,.19,.64,.28,.96h0c.54,2.51,1.09,5.03,1.63,7.55,1.19,4.34,2.22,8.72,3.6,13,1.81,5.63,3.83,11.19,5.87,16.74,2.01,5.45,4.15,10.84,6.24,16.26h-2.21Z" style="fill:#f7f7f7;"/><path d="M182.51,69.47c.36,1.92,1.03,3.85-.27,5.71-.15,.22-.13,.61-.08,.9,.14,.79-.22,1.3-.85,1.69,.19-1.28,.39-2.55,.58-3.83-.38,.3-.52,.63-.65,.97-1.18,3.14-2.32,6.29-3.56,9.41-1.95,4.92-3.96,9.81-5.93,14.73-.35,.86-.57,1.78-.85,2.67h-3.15c.06-.25,.08-.52,.18-.76,2.03-5.28,4.11-10.54,6.08-15.84,2.96-7.95,5.95-15.88,8.23-24.06,.95-2.83,1.9-5.67,2.85-8.5,.1-.33,.2-.66,.3-.99-.01-.1,0-.19,.07-.28,.09-.21,.18-.42,.26-.64h0c.1-.32,.2-.65,.31-.97-.01-.11,.02-.2,.08-.28,.08-.22,.16-.43,.23-.65,0,0,0,0,0,0l.35,.99c0,.1,0,.2-.04,.29-.09,.33-.18,.65-.27,.98-.03,.2-.07,.4-.1,.6-.07,.23-.14,.45-.21,.68,0,.09,0,.18-.05,.27-.08,.45-.17,.89-.25,1.34-2.19,7.62-4.38,15.25-6.65,23.15,1.21-2.68,2.31-5.13,3.41-7.57Z" style="fill:#f7f7f7;"/><path d="M165.23-11.72c.24,.4,.44,.84,.73,1.21,4.11,5.36,7.01,11.38,9.56,17.59,.24,.58,.47,1.15,.7,1.73-.3,0-.61,0-.91,0-.93,.02-2.01,.37-2.75,.01-2.52-1.25-4.91-2.75-7.35-4.15,.63,.2,1.39,.24,1.85,.63,1.57,1.3,3.39,.83,5.15,.9-1.07-.88-2.5-.7-3.66-1.23-1.25-.57-2.45-1.24-3.67-1.86-.07-.76-.2-1.53-.2-2.29,0-.77,.27-1.56,.19-2.32-.36-3.41-.81-6.81-1.23-10.21,.53,0,1.05,0,1.58,0Z" style="fill:#585858;"/><path d="M62.18,87.85c.2-.21,.4-.43,.6-.64,1.15-.81,2.3-1.61,3.51-2.46,.52,.73,.3,1.63,.12,2.55-.26,1.37-.64,2.74-.65,4.12-.03,3.43,.13,6.87,.21,10.3h-6.93l-2.25-3.74c-.53-.9,0-1.61,.43-2.32,1.34-2.18,2.71-4.35,4.06-6.53,.3-.43,.6-.85,.9-1.28Z" style="fill:#040404;"/><path d="M163.65-11.72c.42,3.4,.86,6.8,1.23,10.21,.08,.76-.19,1.54-.19,2.32,0,.76,.13,1.53,.2,2.29-.18,.55-.36,1.1-.54,1.66-.02,.18-.04,.36-.06,.54-.09,.65-.18,1.29-.28,1.94,.02,.1,0,.19-.06,.27-.32,.32-.63,.63-.95,.95v.02c-.11-.63-.23-1.27-.34-1.9-.39-1.49-.79-2.97-1.18-4.46-.12-.19-.24-.39-.36-.58,0,0,0,0,0,0-.09-.12-.19-.23-.28-.35,0,0,0,0,0,0-.1-.42-.2-.84-.3-1.25-.12-.22-.23-.43-.35-.65-.08-.09-.16-.19-.24-.28,.02-.62,.23-1.31,.03-1.84-.97-2.59-2.07-5.13-3.09-7.69-.14-.36-.12-.79-.17-1.19,2.31,0,4.62,0,6.93,0Z" style="fill:#050505;"/><path d="M134.63-.7c0-.26,.04-.53-.02-.78-.84-3.37-.63-6.83-.89-10.24,2,0,3.99,0,5.99,0-.29,1.8-.62,3.59-.86,5.39-.2,1.48,.29,3.06-.67,4.42-.25,1.36-.73,2.71-.25,4.4,.82-1.13,1.45-2.01,2.08-2.88,.11,.11,.23,.23,.34,.34-.03,.2-.07,.39-.1,.59-.17,.23-.33,.45-.5,.68-.74,1.27-1.48,2.53-2.22,3.8-.12,1.53-.24,3.05-.36,4.58-.43-.7-.63-1.42-.81-2.16-.2-.8-.6-.71-1.09-.27-.3,.12-.61,.24-.91,.35-.11,.09-.22,.18-.33,.28-.11,.1-.22,.2-.33,.3-.3,.13-.61,.25-.91,.38-.13-.13-.25-.27-.38-.4,0,0,0,.01,0,.01,.12-.1,.24-.2,.37-.3,0,0-.01,.01-.01,.01,.12-.09,.24-.18,.35-.28,0,0,.01,0,.01,0,.1-.1,.21-.19,.31-.29,0,0,.02-.02,.02-.02,.18-.15,.37-.29,.55-.44,.29-.3,.54-.65,.87-.89,.82-.6,1.12-1.34,.86-2.33-.17-.66-.31-1.32-.46-1.99,0-.12,.01-.23,.02-.35-.22-.64-.43-1.27-.65-1.91Z" style="fill:#050505;"/><path d="M123.95,101.72c-2.09-5.42-4.23-10.82-6.24-16.26-2.04-5.55-4.06-11.11-5.87-16.74-1.38-4.28-2.41-8.66-3.6-13,.3-.11,.6-.21,.9-.32h0c.31,.74,.62,1.47,.93,2.21,.15,.61,.26,1.23,.46,1.82,1.67,4.85,3.38,9.69,5.03,14.54,2,5.89,3.87,11.82,5.97,17.68,1.04,2.89,2.45,5.65,3.69,8.47,.23,.53,.43,1.07,.64,1.6h-1.89Z" style="fill:#595959;"/><path d="M156.09,101.72h-10.71c.11-2.1,.22-4.19,.32-6.29,.4-.1,.79-.19,1.19-.29,1.17,.1,2.33,.2,3.5,.3h.02c.21,.07,.43,.15,.64,.22,1.99,.56,3.98,1.12,5.97,1.68-.31,1.46-.61,2.92-.92,4.38Z" style="fill:#fbfbfb;"/><path d="M69.12,77.44c0-.1,0-.2,0-.31,0-.2,.01-.4,.02-.61,.21-.21,.43-.42,.64-.64l.62-.62h0c.4-.05,.86-.22,.72,.53-.09,.45-.06,.91-.08,1.37-1.49,6.23-1.95,12.53-1.41,18.91,.16,1.88,.3,3.76,.44,5.65h-3.47c0-3.35-.14-6.71,.07-10.05,.18-2.86,.77-5.69,1.18-8.54,.39-1.37,.8-2.73,1.15-4.11,.13-.5,.09-1.05,.13-1.58Z" style="fill:#8b8b8b;"/><path d="M165.86,101.72h-1.26c-.02-.19-.04-.39-.06-.58,.14-.21,.27-.42,.41-.63v-.03c.09-.12,.17-.23,.26-.35,.89-2.06,1.73-4.15,2.68-6.18,.37-.8,.32-1.47-.06-2.22-.59-1.16-1.11-2.36-1.65-3.54-.18-1.18-.11-2.48-.6-3.51-.69-1.47-1.28-3.06-2.65-4.15-.32-.25-.43-.83-.53-1.28-.2-.85-.65-1.45-1.51-1.62-1.99-.4-3.98-.98-5.99-1.07-3.86-.17-7.74-.02-11.61-.08-.67,0-1.33-.39-1.99-.6,1.46,.07,2.92,.19,4.38,.21,3.09,.03,6.21,.28,9.26-.06,5.91-.67,8.16,1.79,10.56,6.21,1.27,2.35,1.82,5.09,2.71,7.65,.13,.36,.36,.69,.61,1.16,2.04-2.01,2.51-4.62,3.56-6.89,.96-2.05,1.36-4.36,2.11-6.53,.16-.46,.76-.76,1.15-1.14,.01,.22,.02,.45,.03,.67-1.18,3.28-2.26,6.61-3.56,9.84-1.99,4.94-4.14,9.81-6.22,14.71Z" style="fill:#1b1b1b;"/><path d="M145.06,101.72h-9.77c-.11-1.27-.23-2.54-.34-3.81,.29-.2,.56-.45,.88-.6,2.52-1.18,5.17-1.8,7.95-1.92,1.02-.02,1.34,.51,1.31,1.48-.05,1.62-.02,3.24-.03,4.85Z" style="fill:#fbfbfb;"/><path d="M165.86,101.72c2.08-4.9,4.23-9.78,6.22-14.71,1.3-3.23,2.38-6.56,3.56-9.84,.82-1.98,1.72-3.94,2.44-5.95,1.1-3.05,2.05-6.16,3.13-9.22,.13-.38,.66-.62,1.01-.93-2.27,8.18-5.27,16.12-8.23,24.06-1.97,5.3-4.05,10.56-6.08,15.84-.09,.24-.12,.51-.18,.76h-1.89Z" style="fill:#545454;"/><path d="M170.9,101.72c.28-.89,.51-1.8,.85-2.67,1.96-4.91,3.98-9.81,5.93-14.73,1.23-3.12,2.37-6.27,3.56-9.41,.13-.34,.27-.67,.65-.97-.19,1.28-.39,2.55-.58,3.83-.6,2.33-1.05,4.71-1.82,6.98-1.73,5.1-3.37,10.25-6.28,14.87-.42,.66-.7,1.4-1.05,2.1h-1.26Z" style="fill:#4f4f4f;"/><path d="M129.62-11.72c-.47,1.05-.95,2.1-1.4,3.16-1.61,3.76-3.21,7.51-4.82,11.27-.14,.32-.3,.64-.79,.98-.07-.45-.23-.92-.2-1.36,.24-3.03,.48-6.05,.8-9.07,.17-1.67,.49-3.32,.74-4.97,1.89,0,3.78,0,5.67,0Z" style="fill:#080808;"/><path d="M-.84,7.5c0-6.41,0-12.82,0-19.22,1.91,0,3.79,0,5.67,0-.63,1.68-1.26,3.37-1.89,5.05h0c-.32,1.04-.63,2.1-.95,3.15,0,0,0-.02,0-.02-.15,.21-.37,.41-.43,.64C1.06-.92,.56,1.06,.09,3.05c-.34,1.47-.62,2.96-.93,4.45Z" style="fill:#f2f2f2;"/><path d="M48,3.42c4.68-.08,9.13-1.12,13.29-3.28,3.71-1.93,7.46-3.81,11.04-5.97,2.45-1.48,4.65-3.4,6.24-5.89,.63,0,1.26,0,1.89,0-2.73,2.54-5.45,5.09-8.18,7.63,.19-.36,.38-.71,.58-1.07-1.18,.56-2.12,1.34-3.18,1.88C66.52-1.66,63.37,0,60.1,1.4c-2.49,1.06-5.09,2.11-7.73,2.5-2.95,.44-6.02,1.01-9.04,.07-.7-.22-1,.19-.72,.87,.12,.28,.3,.57,.53,.77,2.24,2.01,4.5,4,6.75,6-.11,.11-.23,.22-.34,.33-.19,0-.38-.02-.57-.03-1.84-1.63-3.73-3.2-5.48-4.92-1.13-1.11-2.06-2.44-3.23-3.85,1.61-.54,2.76,.18,3.95,.23,1.26,.06,2.51,.05,3.77,.06Z" style="fill:#606060;"/><path d="M111.34,88.18c.95,2.37,1.91,4.74,2.85,7.12,.85,2.14,1.68,4.28,2.52,6.42h-3.15c-.67-3.74-1.35-7.47-2-11.22-.13-.76-.15-1.55-.22-2.32Z" style="fill:#444;"/><path d="M67.84,83.13c-.41,2.84-1,5.68-1.18,8.54-.21,3.34-.06,6.7-.07,10.05h-.63c-.08-3.43-.23-6.87-.21-10.3,.01-1.37,.39-2.75,.65-4.12,.17-.92,.4-1.81-.12-2.55-1.21,.85-2.36,1.65-3.51,2.46,1.27-1.68,2.54-3.36,3.81-5.04,.34-.21,.68-.43,1.17-.74,.03,.69,.06,1.2,.08,1.7Z" style="fill:#181818;"/><path d="M164.54,101.14c.02,.19,.04,.39,.06,.58h-7.88c.32-1.36,.64-2.72,.95-4.08,2.53,.7,4.82,1.85,6.86,3.51Z" style="fill:#f9f9f9;"/><path d="M-.84,7.5C-.53,6.02-.25,4.53,.09,3.05,.56,1.06,1.06-.92,1.57-2.89c.06-.24,.29-.43,.43-.64C1.53-1.23,1.03,1.06,.59,3.37-.14,7.13-.86,10.91-.5,14.74c.3,3.22,.84,6.41,1.34,9.61,.32,2.06,.77,4.1,1.15,6.16h0c-.34-.93-.77-1.83-.99-2.79C.44,25.22-.04,22.71-.56,20.2c-.05-.25-.18-.48-.28-.72,0-3.99,0-7.98,0-11.97Z" style="fill:#c2c2c2;"/><path d="M134.66,101.72h-6.93c.28-.33,.5-.79,.86-.98,1.69-.87,3.41-1.67,5.12-2.49,.31,.48,.75,.93,.89,1.46,.16,.63,.05,1.33,.06,2.01Z" style="fill:#f8f8f8;"/><path d="M133.72,98.25c-1.71,.82-3.44,1.62-5.12,2.49-.36,.19-.58,.64-.86,.98h-.32c-.1-.53-.2-1.05-.31-1.58,.53-.05,1.13,.04,1.59-.16,2.48-1.11,4.94-2.24,7.37-3.45,4.2-2.09,8.67-1.78,13.14-1.49-.77,.03-1.54,.07-2.31,.1-.4,.1-.79,.19-1.19,.29l-1.92-.05c-2.78,.12-5.43,.74-7.95,1.92-.32,.15-.59,.4-.88,.6-.41,.11-.82,.23-1.23,.34Z" style="fill:#6f6f6f;"/><path d="M56.78,97.98c.75,1.25,1.5,2.49,2.25,3.74h-4.41c.39-.9,.73-1.82,1.18-2.68,.22-.41,.65-.71,.98-1.06Z" style="fill:#f1f1f1;"/><path d="M174.68,101.72c.84-1.68,1.68-3.37,2.51-5.05-.18,1.09-.34,2.18-.54,3.27-.11,.6-.26,1.18-.4,1.78h-1.58Z" style="fill:#3c3c3c;"/><path d="M143.78,95.38c.64,.02,1.28,.03,1.92,.05-.11,2.1-.22,4.19-.32,6.29h-.32c0-1.62-.03-3.24,.03-4.85,.03-.97-.29-1.5-1.31-1.48Z" style="fill:silver;"/><path d="M51.16,97c.07,1.06,.18,2.13,.2,3.19,.01,.51-.13,1.02-.2,1.53h-.63c0-.42-.02-.84-.03-1.27,.09-.65,.18-1.31,.27-1.96,.13-.5,.26-1,.39-1.49Z" style="fill:#5e5e5e;"/><path d="M157.68,97.64c-.32,1.36-.64,2.72-.95,4.08h-.63c.31-1.46,.61-2.92,.92-4.38,.22,.1,.44,.2,.66,.3Z" style="fill:#b9b9b9;"/><path d="M133.72,98.25c.41-.11,.82-.23,1.23-.34,.11,1.27,.23,2.54,.34,3.81h-.63c0-.67,.1-1.37-.06-2.01-.13-.53-.58-.98-.89-1.46Z" style="fill:#c1c1c1;"/><path d="M66,68.33c-1.88,2.94-3.77,5.89-5.65,8.83-1.32,.36-1.36,1.41-1.32,2.49h0c-.33,.2-.65,.39-1.12,.68-.06-.66-.11-1.17-.16-1.67,.32-.93,.65-1.86,.97-2.79,.26-.51,.53-1.02,.76-1.54,1.32-2.91,2.46-5.91,3.97-8.71,2.51-4.65,5.19-9.2,7.91-13.74,4.41-7.38,8.46-14.94,12.26-22.64,1-2.13,2.04-4.23,2.96-6.39,.32-.75,.34-1.62,.49-2.44l.57-.72c-.07-.04-.14-.09-.22-.13-.11,.29-.22,.57-.33,.86-1.27,2.72-2.53,5.45-3.8,8.17-2.63,4.31-5.27,8.62-7.9,12.93-.09,.11-.19,.22-.28,.33h0c-.31,.52-.63,1.05-.94,1.58h0c-.42,.64-.83,1.28-1.25,1.92-.01,.09-.04,.17-.09,.25-1.01,.69-1.64,1.63-1.85,2.84h0c-.1,.12-.2,.23-.3,.34h0c-.12,.19-.23,.4-.35,.6h0c-1.1,.53-1.66,1.43-1.83,2.6-.54,.89-1.08,1.79-1.62,2.68-1.89,3.08-3.77,6.15-5.66,9.23-.11,.21-.21,.42-.32,.63h0c-.1,.21-.21,.42-.31,.64,0,0,0,0,0,0-.11,.1-.23,.19-.34,.29-.21,.53-.41,1.06-.62,1.6h0c-.1,.21-.2,.43-.3,.65h0c-.11,.2-.21,.42-.32,.63h0c-.22,.51-.43,1.04-.65,1.56h0c-.21,.42-.41,.85-.62,1.27h0c-.83,.77-1.31,1.7-1.25,2.87-1.1,3.53-2.27,7.03-3.28,10.58-.58,2.05-.92,4.16-1.4,6.38-.48-.3-.94-.6-1.39-.89-2.75-2.71-5.49-5.41-8.23-8.13-.33-.33-.62-.69-.93-1.03,1.37,.24,2.26,1.1,3.19,2.1,1.33,1.44,2.92,2.65,4.4,3.94,.15,.13,.37,.18,.55,.28,.41,.24,1.02,.78,1.18,.67,.56-.39,1.24-.93,1.39-1.54,.56-2.21,.93-4.47,1.38-6.7,.06-.3,.16-.67,.38-.83,.77-.58,.76-1.43,.98-2.23,.45-1.58,.89-3.19,1.54-4.69,.95-2.2,2.09-4.31,3.11-6.48,.6-1.27,1.01-2.65,1.74-3.84,1.41-2.3,2.99-4.51,4.49-6.76,.2-.3,.46-.61,.54-.95,.5-1.93,2.11-3.14,3.04-4.79,.13-.23,.39-.45,.39-.67-.05-2.13,1.72-3.06,2.84-4.42,.86-1.04,1.53-2.22,2.27-3.35,1.52-2.3,3.08-4.58,4.54-6.92,.76-1.21,1.36-2.52,2.02-3.8,1.02-2,2.07-3.98,3.02-6.01,.48-1.03,.77-2.15,1.19-3.21,.66-1.68,.68-1.68,2.57-2.65,.31,1.43,.18,2.78-.29,4.09-.82,2.3-1.37,4.66-2.88,6.75-1.22,1.67-1.57,3.97-2.77,5.66-.92,1.29-.73,3.02-2.07,4.09-.49,.39-.54,1.32-.78,2.01-.94,2.66-3.05,4.71-3.78,7.53-.29,1.11-1.53,1.95-2.23,2.99-.67,.99-1.2,2.08-1.79,3.13-.1,.18-.16,.41-.31,.54-2.18,1.98-3.12,4.69-4.34,7.24-.35,.74-1.03,1.31-1.44,2.03-.36,.63-.55,1.36-.61,2.16,.89-.89,2.16-1.16,2.71-2.54,.39-.97,1.68-1.65,2.69-2.26,.7-.43,1.43,.05,1.39,.88-.04,.85-.16,1.82-.58,2.52-1.29,2.14-2.79,4.15-4.12,6.26-.31,.49-.34,1.2-.33,1.81,.01,.73-.12,1.16-.92,1.38-.38,.1-.71,.63-.92,1.03-.68,1.29-.33,3.08-1.89,3.96-.01-.54-.02-1.09-.03-1.63,.03-.19,.05-.37,.08-.56,.09-.22,.17-.43,.26-.65,0,0,0,0,0,0,.1-.21,.2-.42,.31-.64,1.06-2.09,2.11-4.19,3.17-6.28,.09-.12,.18-.23,.27-.35,0,0,0-.01,0-.01,.13-.3,.26-.59,.39-.89,0,0,0,0,0,0,.19-.33,.38-.65,.57-.98,0,0,0,0,0,0,.11-.21,.22-.41,.33-.62h0c.09-.11,.18-.22,.27-.34,0,0,0-.02,0-.02,.83-1.3,1.66-2.6,2.48-3.9-.15-.1-.31-.2-.46-.3-.87,1.2-1.74,2.4-2.61,3.61h0c-.12,.2-.23,.4-.35,.6h0c-.1,.11-.2,.22-.3,.33,0,0,0,0,0,0-.1,.11-.2,.22-.3,.33h0c-.12,.2-.23,.4-.35,.6h0c-.1,.11-.19,.23-.29,.34h0c-.09,.11-.19,.22-.28,.33Z" style="fill:#0e0e0e;"/><path d="M112.28,30.54c-2.19-1.02-4.3-1.37-6.5,.14-.96,.66-2.19,.94-3.3,1.39,.75-.99,1.49-1.98,2.24-2.96,.25-.32,.73-.65,.71-.96-.15-2.34,.98-4.36,1.61-6.48,1.01-3.39,2.23-6.71,3.36-10.06,.04,.26,.07,.52,.12,.78,.57,2.72,1.81,3.73,4.59,3.72,.84,0,1.67-.08,2.51-.12-1.72,1.35-3.41,2.72-3.78,5.07-.94,.42-1.88,.84-2.83,1.26-.82,.18-1.44,.48-.71,1.45-.89,.29-1.81,.44-2.32,1.56,.99-.41,1.76-.72,2.53-1.04,.01,.17,.02,.48,.04,.48,.47,.03,.95,.09,1.41,0,1.62-.31,2.97,.33,4.31,1.11,1.03,.61,2.08,1.22,3.19,1.67,3.41,1.39,6.86,1.89,10.37,.23,.99-.47,2.1-.67,3.12-1.09,2.48-1.02,4.5-.5,6.1,1.66-.11,.22-.22,.43-.32,.65-2.07-1.93-3.84-2.07-6.17-.44-.9,.63-1.71,1.37-2.59,2.02-2.97,2.16-6.24,3.36-9.97,2.86-2.78-.38-5.3-1.49-7.72-2.87Z" style="fill:#494949;"/><path d="M117.63,15.97c-.84,.04-1.67,.11-2.51,.12-2.78,.01-4.02-1-4.59-3.72-.05-.26-.08-.52-.12-.78,2.42-5.45,4.84-10.91,7.26-16.36,1.44-1.64,2.87-3.29,4.3-4.93,.09,.06,.19,.12,.28,.18-.15,.35-.26,.73-.46,1.04C119.25-4.43,117.66,0,116.39,4.56c-1.08,3.9,.68,5.95,4.69,5.41,1.02-.14,2.05-.49,2.98-.95,3.49-1.73,6.75-3.82,9.68-6.41,.46-.41,1.02-.71,1.53-1.06,.15,.66,.28,1.33,.46,1.99,.26,.99-.04,1.73-.86,2.33-.33,.24-.58,.59-.87,.89-.18,.15-.37,.29-.55,.44,0,0-.02,.02-.02,.02-.1,.1-.21,.19-.31,.29,0,0-.01,0-.01,0-.12,.09-.24,.18-.35,.28,0,0,.01-.01,.01-.01-.12,.1-.24,.2-.37,.3,0,0,0-.01,0-.01-1.14,.85-2.28,1.7-3.42,2.55-.65,.4-1.3,.8-1.95,1.21-2.84,1.28-5.67,2.55-8.51,3.83-.09-.02-.18,0-.25,.07-.22,.09-.44,.17-.65,.26h.02Z" style="fill:#fafafa;"/><path d="M49.89,11.6c-2.25-2-4.51-3.99-6.75-6-.23-.2-.41-.49-.53-.77-.28-.67,.03-1.08,.72-.87,3.02,.94,6.08,.37,9.04-.07,2.65-.39,5.24-1.44,7.73-2.5C63.37,0,66.52-1.66,69.68-3.28c1.06-.54,2-1.32,3.18-1.88-.19,.36-.38,.71-.58,1.07-3.66,3.16-7.62,5.86-12.17,7.59-4.54,1.72-9.25,2.4-14.17,2.32,1.24,2.5,3.49,3.72,5.54,5.14,.41,.22,.82,.44,1.24,.66,1.79,.84,3.58,1.68,5.36,2.52,.63,.2,1.27,.41,1.9,.61,1.57,.41,3.15,.83,4.72,1.24,.76,.11,1.52,.23,2.29,.34,.73,.11,1.47,.23,2.3,.36-.47,1.04-1.08,1.04-1.82,.97-3.12-.33-6.23-.73-9.19-1.86-2.93-1.13-5.85-2.28-8.38-4.2Z" style="fill:#787878;"/><path d="M67.87,21.07c-1.67,2.11-3.34,4.21-5.02,6.32-.23,.3-.46,.59-.69,.89,0,0,0,0,0,0-.11,.11-.22,.21-.33,.32-1.43,1.36-2.75,2.88-4.33,4.04-2.88,2.12-5.92,4.04-8.89,6.04-.95,.42-1.9,.85-2.85,1.27-.42,.21-.83,.42-1.25,.63h0c-.56,.1-1.11,.21-1.67,.31l.05,.48c1.39,.26,2.77,.4,4.18-.13,3.04-.85,6.08-1.7,9.12-2.55l1.57-.64h0c.42-.21,.84-.42,1.26-.62h0c.21-.1,.42-.21,.64-.31h0c.21,.1,.41,.21,.62,.31h0c-.11,.1-.21,.21-.32,.31h0c-.1,.11-.21,.21-.31,.32h0c-.52,.43-1.03,.86-1.55,1.29h0c-.11,.1-.22,.19-.33,.29,0,0,0,0,0,0-1.15,.64-2.3,1.27-3.44,1.91-.57,.41-1.13,1.16-1.7,1.16-3.86,.04-7.76,.49-11.56-.55-.4-.11-.73-.45-1.09-.69,.33-.28,.61-.69,.99-.83,3.92-1.46,7.63-3.22,11.03-5.78,5.67-4.27,10.75-9.12,15.45-14.41,.26-.3,.74-.41,1.11-.61-.01,.09-.04,.18-.09,.27-.09,.11-.18,.22-.28,.34,0,0,.02-.02,.02-.02-.11,.21-.22,.43-.33,.64Z" style="fill:#7a7a7a;"/><path d="M68.55,19.84c-.38,.2-.85,.31-1.11,.61-4.69,5.29-9.78,10.14-15.45,14.41-3.4,2.56-7.11,4.32-11.03,5.78-.38,.14-.66,.55-.99,.83,.36,.24,.69,.58,1.09,.69,3.81,1.04,7.7,.58,11.56,.55,.57,0,1.14-.76,1.7-1.16,.25,.74,.76,.45,1.25,.33,.93-.24,1.87-.45,2.81-.67,.79,0,1.65,.19,2.37-.03,1.58-.49,3.28-.92,4.58-1.86,1.34-.98,2.27-2.53,3.34-3.86,.06-.07-.14-.36-.22-.55,.95-.84,1.91-1.68,2.86-2.52-.02,.1-.03,.21-.08,.3-2,3.87-5.16,6.75-8.23,9.7-.16,.15-.55,.06-.83,.09h0c.1-.1,.21-.21,.31-.32,.33-.32,.65-.63,.98-.95-.07-.1-.14-.19-.22-.29-3.39,1.41-6.94,2.09-10.54,2.54-.94,0-1.89-.07-2.83-.02-4.48,.27-8.86-.38-13.23-1.28l-.95-.31h0c-.22-.5-.19-.86,.45-.97,.28-.05,.55-.19,.83-.29,2.37-.08,4.51-.95,6.63-1.89,3.02-1.07,5.78-2.59,8.17-4.73,.21-.13,.43-.25,.64-.38l.27-.26,.02-.02c.11-.1,.21-.19,.32-.29,0,0,0,0,0,0,.11-.1,.22-.21,.33-.31,.1-.02,.21-.03,.31-.05,.09-.09,.18-.18,.28-.27l.02-.02c.1-.1,.21-.19,.31-.29,.11-.02,.22-.03,.34-.05,.09-.09,.18-.18,.28-.26,4.84-3.92,9.3-8.2,13.14-13.23-3.32-.66-6.48-1.29-9.63-1.91-1.05-.43-2.13-.82-3.15-1.31-2.01-.95-4.13-1.71-5.71-3.39,.11-.11,.23-.22,.34-.33,2.53,1.92,5.45,3.07,8.38,4.2,2.96,1.14,6.07,1.53,9.19,1.86,.73,.08,1.34,.08,1.82-.97-.83-.13-1.56-.25-2.3-.36-.76-.12-1.52-.23-2.29-.34,1.77,.13,3.59-.21,5.67,.5-.67,1.24-1.25,2.29-1.82,3.35Z" style="fill:#646464;"/><path d="M62.18,42.47c.28-.02,.67,.06,.83-.09,3.08-2.95,6.24-5.83,8.23-9.7,.05-.09,.05-.2,.08-.3,.53-.61,1.06-1.21,1.59-1.82,.54,.68,0,1.17-.3,1.69-.74,1.31-1.5,2.61-2.26,3.91,0,0,0,0,0,0-.42,.39-.85,.77-1.26,1.18-1.96,1.95-3.9,3.94-5.89,5.86-1.12,1.08-2.35,2.05-3.54,3.07-3.47,3.1-7.29,5.8-10.31,9.4-1.31,1.56-2.77,2.99-4.16,4.48-.5,.51-1,1.01-1.49,1.53-.49,.53-.93,1.16-2.02,.61,.4-.71,.7-1.42,1.17-2.01,1.01-1.26,2.06-2.49,3.17-3.67,2.93-3.14,6.03-6.09,9.7-8.39,.46-.29,.72-.89,1.07-1.34l5.37-4.4Z" style="fill:#797979;"/><path d="M56.8,46.87c-.35,.46-.62,1.06-1.07,1.34-3.67,2.3-6.77,5.25-9.7,8.39-1.1,1.18-2.16,2.41-3.17,3.67-.47,.58-.76,1.3-1.17,2.01,1.09,.56,1.52-.08,2.02-.61,.49-.52,.99-1.02,1.49-1.53-.62,.89-1.26,1.77-1.84,2.69-1.71,2.67-3.39,5.35-5.09,8.02-.35,.88-.71,1.77-1.06,2.65-.17-.55-.24-1.13-.07-1.63,.71-2.13,1.47-4.25,2.24-6.36,.18-.49,.63-.94-.17-1.27,.09-.21,.19-.43,.28-.64,.1-.11,.2-.22,.3-.32h0c.11-.21,.21-.42,.32-.63h0c.1-.11,.2-.21,.29-.32,2.95-4.46,6.73-8.16,10.71-11.67h.02c.1-.11,.21-.21,.31-.31h0c.11-.11,.21-.21,.32-.31,.11-.09,.23-.19,.34-.28,.2-.12,.4-.24,.6-.36h0c.11-.1,.22-.2,.32-.3,.94-.53,1.87-1.06,2.81-1.59,.11-.1,.22-.19,.33-.29,.2-.12,.4-.23,.61-.35Z" style="fill:#696969;"/><path d="M48.62,38.68c2.97-2,6.01-3.92,8.89-6.04,1.58-1.16,2.89-2.68,4.33-4.04,.11-.11,.22-.21,.33-.32,0,0,0,0,0,0,.22-.1,.43-.2,.65-.31-.41,.76-.67,1.69-1.27,2.25-1.39,1.32-3.08,2.33-4.39,3.72-1.23,1.3-2.81,1.93-4.2,2.92-1,.71-1.97,1.46-2.86,2.35,2.1,.15,3.96-.29,5.8-1.23,1.58-.81,3.05-2.08,5.04-1.8-.42,.31-.84,.63-1.27,.94h0c-.21,.1-.42,.2-.64,.31h0c-.42,.21-.84,.42-1.26,.62,0,0,0,0,0,0-.52,.21-1.05,.42-1.57,.64-3.04,.85-6.08,1.7-9.12,2.55-.85-.23-1.93,.42-2.56-.67h0c.64-.2,1.27-.41,1.91-.61l2.19-1.28Z" style="fill:#131313;"/><path d="M68.46,34.9c.08,.19,.28,.48,.22,.55-1.08,1.33-2,2.88-3.34,3.86-1.3,.95-3,1.38-4.58,1.86-.73,.22-1.58,.03-2.37,.03h0c.21-.1,.43-.2,.64-.3,.02-.1,.02-.19,.03-.29,1.47-.74,2.93-1.47,4.4-2.21,.84-.53,1.67-1.07,2.51-1.6,.83-.64,1.66-1.27,2.49-1.91Z" style="fill:#828282;"/><path d="M39.22,64.24c.79,.33,.35,.78,.17,1.27-.78,2.11-1.54,4.23-2.24,6.36-.17,.5-.1,1.07,.07,1.63,.35-.88,.71-1.77,1.06-2.65-.33,1.89-.66,3.79-.99,5.68-.41-.54-.82-1.08-1.23-1.62-.12-3.05,1.01-5.77,2.2-8.48,.1-.11,.2-.22,.3-.33,.01-.2,.02-.41,.03-.61,.1-.11,.19-.22,.29-.32,0-.1,0-.21,0-.31,0,0,0,0,0,0,.09-.1,.19-.21,.28-.31,.02-.1,.04-.2,.07-.3Z" style="fill:#565656;"/><path d="M62.79,77.72c.01,.54,.02,1.09,.03,1.63l-.88,3.06,.36,.28c.46-.4,.92-.8,1.39-1.2,.98-.82,1.96-1.63,2.94-2.45-.25,.38-.46,.8-.76,1.14-1.32,1.52-2.66,3.02-3.99,4.52-.11,.11-.21,.21-.32,.32,0,0,0,0,0,0-.11,.11-.21,.21-.32,.32,0,0,0,0,0,0-.11,.11-.21,.21-.32,.32h0c-.22-.42-.44-.85-.65-1.28h0c.21-.63,.43-1.26,.64-1.89,.63-1.59,1.25-3.18,1.88-4.77Z" style="fill:#1b1b1b;"/><path d="M59.67,46.26c1.18-1.02,2.41-1.99,3.54-3.07,2-1.92,3.93-3.91,5.89-5.86,.41-.4,.84-.78,1.26-1.18-.45,.73-.87,1.48-1.34,2.2-1.97,2.96-5.11,4.67-7.61,7.06-.44,.43-1.15,.57-1.74,.85Z" style="fill:#222;"/><path d="M70.35,36.16c.75-1.3,1.52-2.6,2.26-3.91,.29-.52,.85-1.01,.3-1.69,.28-.18,.56-.36,.84-.53,.03,.31,.19,.68,.08,.93-.59,1.37-1.16,2.75-1.91,4.03-.3,.52-1.03,.79-1.57,1.17Z" style="fill:#222;"/><path d="M59.06,40.61c0,.1-.01,.19-.03,.29l-.64,.3s0,0,0,0c-.94,.22-1.87,.44-2.81,.67-.49,.12-1,.41-1.25-.33,1.15-.64,2.3-1.27,3.44-1.91-.37,1.38,.77,.77,1.29,.97Z" style="fill:#3a3a3a;"/><path d="M71.03,77.17c.02-.46,0-.93,.08-1.37,.15-.75-.32-.58-.72-.53,.36-.41,.72-.82,1.31-1.5,.17,1.48-.14,2.47-.68,3.4Z" style="fill:#686868;"/><path d="M65.97,36.81c-.84,.53-1.67,1.07-2.51,1.6,.84-.53,1.67-1.07,2.51-1.6Z" style="fill:#353535;"/><path d="M59.67,37.13c.42-.31,.84-.63,1.27-.94,.64,.86-.35,.88-.64,1.25-.21-.1-.41-.2-.62-.31Z" style="fill:#3a3a3a;"/><path d="M59.98,14.75c-.63-.2-1.27-.41-1.9-.61,.63,.2,1.27,.41,1.9,.61Z" style="fill:#3d3d3d;"/><path d="M58.11,39.35c.52-.43,1.03-.86,1.55-1.29-.52,.43-1.03,.86-1.55,1.29Z" style="fill:#3a3a3a;"/><path d="M52.71,11.62c-.41-.22-.82-.44-1.24-.66,.41,.22,.82,.44,1.24,.66Z" style="fill:#3c3c3c;"/><path d="M62.81,27.97c-.22,.1-.43,.2-.65,.31,.23-.3,.46-.59,.69-.89-.01,.19-.03,.39-.04,.58Z" style="fill:#373737;"/><path d="M67.87,77.8c-.23,.3-.47,.6-.7,.9,.23-.3,.47-.6,.7-.9Z" style="fill:#696969;"/><path d="M70.39,75.27l-.62,.62,.62-.62Z" style="fill:#686868;"/><path d="M69.13,76.53c0,.2-.01,.4-.02,.61-.21,0-.41,0-.62,0,.21-.21,.42-.41,.64-.62Z" style="fill:#696969;"/><path d="M68.49,77.15l-.6,.64,.6-.64Z" style="fill:#696969;"/><path d="M111.02,87.24c.1,.31,.21,.63,.31,.94-.1-.31-.21-.63-.31-.94Z" style="fill:#444;"/><path d="M67.87,21.07c.11-.21,.22-.43,.33-.64-.11,.21-.22,.43-.33,.64Z" style="fill:#646464;"/><path d="M68.19,20.45c.09-.11,.18-.22,.28-.34-.09,.11-.18,.22-.28,.34Z" style="fill:#646464;"/><path d="M59.98,37.75c.11-.1,.21-.21,.32-.31-.11,.1-.21,.21-.32,.31Z" style="fill:#3a3a3a;"/><path d="M59.66,38.06c.1-.11,.21-.21,.31-.32-.1,.11-.21,.21-.31,.32Z" style="fill:#3a3a3a;"/><path d="M57.77,39.64c.11-.1,.22-.19,.33-.29-.11,.1-.22,.19-.33,.29Z" style="fill:#3a3a3a;"/><path d="M186.63,50.04c.04-.09,.05-.19,.04-.29,.48-1.68,.99-3.34,1.41-5.03,.1-.39-.11-.87-.17-1.3,.23-.42,.44-.87,.7-1.27,.2-.3,.58-.51,.69-.83,.4-1.19,.74-2.39,1.05-3.61,.07-.27-.08-.6-.13-.91-.43,.55-.49,1.13-.73,1.63-.45,.96-1.01,1.86-1.52,2.79,1.04-2.5,.42-4.74-1.13-6.78-1.04-1.37-2.22-2.63-3.34-3.94,.51-.52,.62,0,.9,.3,.43,.46,.94,1.28,1.61,.42,.62-.81,1.08-.52,1.69-.09,.35,.24,.78,.38,1.17,.56,.07-.1,.14-.21,.22-.31-.45-.77-.91-1.54-1.36-2.31,.1-.07,.19-.14,.29-.22,1.45,.76,2.9,1.52,4.34,2.29,1.7,2.12,1.96,4.68,2.16,7.24,.38,4.94-.84,9.66-2,14.39-.91,3.7-1.85,7.4-2.78,11.1-.14,.55-.35,1.09-.52,1.63,.46-3.48,.98-6.95,1.35-10.44,.34-3.18,.52-6.37,.75-9.56,.02-.28-.09-.57-.2-1.16-.28,.46-.45,.64-.5,.85-1.76,6.98-4.42,13.66-6.8,20.43-.45,1.28-.86,2.58-1.28,3.87-1.1,2.45-2.2,4.89-3.41,7.57,2.27-7.9,4.46-15.52,6.65-23.15,.08-.45,.17-.89,.25-1.34,.04-.08,.06-.17,.05-.27,.07-.23,.14-.45,.21-.68,.03-.2,.07-.4,.1-.6l.27-.98Z" style="fill:#585858;"/><path d="M163.95,7.51c.06-.08,.08-.17,.06-.27,.09-.65,.18-1.29,.28-1.94,.02-.18,.04-.36,.06-.54,.29-.03,.58-.05,.87-.08,2.44,1.4,4.83,2.9,7.35,4.15,.73,.36,1.82,.01,2.75-.01,.3,0,.61,0,.91,0,.33,1.09,.67,2.17,1,3.26,.83-4.82-.37-9.5-.51-14.26,2.67,5.36,4.69,10.95,6.48,16.63-.16,.8-.81,.75-1.36,.69-2.17-.21-4.34-.47-6.52-.72-1.79-.51-3.58-1.02-5.36-1.52-1.19-.56-2.34-1.21-3.56-1.65-1.82-.64-3-1.59-2.44-3.74Z" style="fill:#f9f9f9;"/><path d="M175.32,14.41c2.17,.24,4.34,.51,6.52,.72,.55,.05,1.2,.11,1.36-.69,1.06,3.66,2.14,7.32,3.15,11,.26,.96,.7,1.59,1.66,1.87,2.04,.6,3.31,2.09,4.35,3.83-1.45-.76-2.9-1.52-4.34-2.29-.1,.07-.19,.14-.29,.22,.45,.77,.91,1.54,1.36,2.31-.07,.1-.14,.21-.22,.31-.39-.18-.82-.31-1.17-.56-.61-.43-1.07-.71-1.69,.09-.66,.86-1.18,.04-1.61-.42-.28-.29-.38-.82-.9-.3-.71-.64-1.44-.63-2.28-.23-.98,.47-2,.83-3.01,1.23,.12-.17,.2-.4,.36-.49,.56-.3,.8-.77,.43-1.25-.18-.24-.74-.19-1.06-.25,0-.58,.11-1.2-.03-1.77-.21-.82-.15-1.56,.25-2.29,1.47-.51,2.95-1.04,4.52,.46-.08-1.77,1.17-1.15,2.09-1.51-1.22-.97-3.28-.44-3.47-2.42-.52-.21-1.05-.43-1.57-.64-1.29-2.31-1.95-5.03-4.3-6.67-.07-.05-.08-.19-.12-.28Z" style="fill:#505050;"/><path d="M177.5,96.04c.11-.21,.21-.43,.32-.64-.11,.21-.21,.43-.32,.64Z" style="fill:#3c3c3c;"/><path d="M177.2,96.68c.1-.21,.2-.43,.31-.64-.1,.21-.2,.43-.31,.64Z" style="fill:#3c3c3c;"/><path d="M38.54,66.1c-.1,.11-.2,.22-.3,.33,.1-.11,.2-.22,.3-.33Z" style="fill:#696969;"/><path d="M38.86,65.16c-.1,.11-.19,.22-.29,.32,.1-.11,.19-.22,.29-.32Z" style="fill:#696969;"/><path d="M2,30.5c.32,.71,.71,1.4,.96,2.13,1.64,4.85,3.91,9.37,6.54,13.76,3.84,6.41,8.75,11.89,14.02,17.1,1.26,1.25,2.51,2.5,3.76,3.75-.08,.09-.16,.19-.23,.28-.99-.84-2.02-1.64-2.94-2.55-1.45-1.44-2.76-3.02-4.24-4.44-5.71-5.48-10.13-11.9-13.72-18.89-1.46-2.83-2.53-5.87-3.71-8.84-.28-.71-.3-1.54-.44-2.31,0,0,0,0,0,0Z" style="fill:#c2c2c2;"/><path d="M50.77,98.49c-.09,.65-.18,1.31-.27,1.96-.3,.02-.73,.17-.87,.03-1.2-1.28-2.27-2.69-3.55-3.89-1.13-1.06-2.47-1.9-3.74-2.81-1.77-1.27-3.57-2.51-5.35-3.77,1.76,.99,3.59,1.9,5.28,3,2.58,1.68,5.07,3.51,7.61,5.25,.24,.16,.59,.15,.89,.22Z" style="fill:#a2a2a2;"/><path d="M29.1,68.9c1.54,1.31,2.89,2.82,4.33,4.23l-.31,.33c-1.48-1.37-2.96-2.73-4.44-4.1l.42-.45Z" style="fill:#d8d8d8;"/><path d="M49.56,11.92c1.58,1.68,3.7,2.45,5.71,3.39,1.03,.48,2.1,.88,3.15,1.31-1.46,.27-2.93,.29-4.19-.55-1.14-.76-1.74,.24-2.52,.6-.76,.35-.49,.99-.32,1.63,.1,.38-.05,.86-.17,1.27-.41,1.44-.85,2.87-1.79,4.09-.12,.15-.11,.4-.14,.6-.25,1.54-.45,3.08-.76,4.61-.14,.7-.52,1.35-.75,2.04-.17,.53-.34,1.08-.39,1.64-.06,.69,.28,1.22,1.03,.89,1.28-.57,2.31-.05,3.36,.54-2.4,2.14-5.15,3.67-8.17,4.73-2.2-.13-3.27-1.59-3.07-3.73,.18-1.91,.09-3.85,.03-5.78-.06-1.97-.47-3.94,.32-5.88,.22-.55,.13-1.23,.17-1.86,.27-3.79,.48-7.59,.86-11.38,.06-.55,.81-1.24,1.4-1.49,.81-.34,1.5,.21,1.91,.97,.81,1.49,2.07,2.25,3.75,2.32,.19,0,.38,.02,.57,.03Z" style="fill:#9a9a9a;"/><path d="M52.13,49.76c-.11,.09-.23,.19-.34,.28-.11,.1-.21,.2-.32,.31h0c-.1,.11-.21,.2-.31,.3h-.02c-.36,.04-.74,.03-1.08,.12-1.39,.38-1.49,.35-1.87-1.05-.22-.8-.48-1.61-.57-2.43-.05-.46,.13-.99,.35-1.41,.24-.45,.73-.76,.97-1.21,.41-.76,1.02-.93,1.81-.95,.66-.01,1.32-.17,1.98-.27,3.6-.45,7.16-1.14,10.54-2.54,.07,.1,.14,.19,.22,.29-.33,.32-.65,.63-.98,.95-.1,.11-.21,.22-.31,.32h0c-1.79,1.46-3.58,2.93-5.37,4.4-.2,.12-.4,.23-.61,.35-.11,.1-.22,.19-.33,.29-.94,.53-1.87,1.06-2.81,1.59-.11,.1-.22,.2-.32,.3h0c-.32-.08-.82-.47-.6,.36Z" style="fill:#a2a2a2;"/><path d="M36.98,40.6c-.28,.1-.54,.24-.83,.29-.64,.12-.67,.48-.45,.97-.22-.25-.44-.49-.66-.74,.28-.17,.55-.41,.85-.49,.34-.09,.72-.02,1.08-.03Z" style="fill:#878787;"/><path d="M35.71,41.86l.95,.31-.95-.31Z" style="fill:#878787;"/><path d="M40.12,62.65c-.11,.21-.21,.42-.32,.62,.11-.21,.21-.42,.32-.62Z" style="fill:#878787;"/><path d="M39.15,64.54c-.09,.1-.19,.21-.28,.31,.09-.1,.19-.21,.28-.31Z" style="fill:#878787;"/><path d="M39.8,63.27c-.1,.11-.2,.22-.3,.32,.1-.11,.2-.22,.3-.32Z" style="fill:#878787;"/><path d="M40.42,62.33c-.1,.11-.2,.21-.29,.32,.1-.11,.2-.21,.29-.32Z" style="fill:#878787;"/><path d="M134.63-.7c.22,.64,.43,1.27,.65,1.91-1.27,0-2.13,.6-3.11,1.46-1.42,1.25-3.23,2.07-4.9,3.02-.81,.46-1.74,.73-2.54,1.2-1.21,.71-2.47,.69-4.11,.5,.44-.27,.61-.44,.81-.49,4.83-1.14,9.12-3.23,12.48-7,.21-.23,.48-.4,.72-.6Z" style="fill:#383838;"/><path d="M178.2,31.52c1-.41,2.03-.76,3.01-1.23,.84-.4,1.58-.41,2.28,.23,1.12,1.31,2.3,2.58,3.34,3.94,1.55,2.04,2.17,4.28,1.13,6.78l-.02,.02c-1.69,1.55-3.39,3.12-5.79,3.44-1.43,.19-2.88,.24-4.33,.34-4.14-1.44-8.3-2.85-12.42-4.35-4.47-1.63-8.92-2.85-13.41-.11-.25-.47-.64-.92-.71-1.42-.35-2.31-.56-4.64-.95-6.95-.21-1.27-.35-2.46,.42-3.59,.64-.55,1.28-1.09,1.92-1.64-1.19-.04-1.76,.57-1.96,1.6-.72,.25-.91-.14-.98-.76-.28-2.28-.59-4.56-.89-6.84-.16-1.2-.33-2.39-.5-3.59-.14,.02-.28,.04-.41,.06,.2,1.64,.39,3.29,.6,4.93,.36,2.9,.73,5.81,1.07,8.71,.4,3.48,.77,6.96,1.15,10.44-.54,.56-1.02,1.2-1.63,1.68-2.36,1.86-4.51,2.06-6.73,.48-.91-.65-1.58-1.65-2.35-2.5-.02-.52-.15-1.05-.06-1.55,.46-2.52,.94-5.04,1.49-7.55,.93-4.3,1.93-8.59,2.87-12.89,.11-.51,.01-1.06,.01-1.59-.11,0-.22,0-.32,0-.65,3.29-1.3,6.57-1.95,9.88q-2.26-.73-2.97-.31c2.54,.64,2.72,.98,2.11,3.62-.66,2.86-1.26,5.73-1.92,8.59-.07,.32-.36,.6-.55,.89-1.12-.28-2.23-.6-3.35-.84-2.26-.49-4.48-.36-6.63,.53-2.27,.94-4.53,1.93-6.82,2.84-3.81,1.5-7.6,3.1-11.86,2.47-.72-.21-1.43-.43-2.15-.64-.93-.83-1.93-1.6-2.76-2.52-1.31-1.45-1.45-2.33-.37-3.94,1.55-2.28,3.27-4.44,4.97-6.62,.61-.78,1.49-1.13,2.5-1.03,2.42,1.38,4.94,2.49,7.72,2.87,3.72,.5,7-.7,9.97-2.86,.88-.64,1.7-1.39,2.59-2.02,2.33-1.63,4.1-1.48,6.17,.44,.42,.52,.83,1.04,1.25,1.56,.11-.1,.22-.19,.33-.29-.42-.64-.84-1.28-1.25-1.92-1.59-2.16-3.62-2.68-6.1-1.66-1.02,.42-2.13,.62-3.12,1.09-3.51,1.67-6.96,1.17-10.37-.23-1.11-.45-2.16-1.06-3.19-1.67-1.34-.79-2.68-1.43-4.31-1.11-.45,.09-.94,.03-1.41,0-.02,0-.03-.31-.04-.48,5.47-.89,10.92-.72,16.39,.08,3.41,.5,6.85,.76,10.28,1.13l2.84,.6c.07-.12,.15-.24,.22-.35-1.51-2.59-3.5-4.78-5.89-6.63-.1-.09-.21-.17-.31-.26h0c-.14-.09-.28-.17-.41-.25-.09,0-.16-.05-.21-.12-.11-.08-.23-.16-.34-.24h0c.21-.1,.41-.2,.62-.3h.01c.21,.1,.43,.2,.64,.29h0c.2,.11,.4,.23,.6,.34h.01c.43,.31,.86,.61,1.29,.91,1.07,.9,2.15,1.8,3.22,2.7,.1-.09,.21-.19,.31-.28-1.16-2.58-2.29-5.18-4.44-7.18-.79-.66-1.53-1.38-2.37-1.98-1.38-.99-1.36-.92-.3-2.16,.84-.97,1.57-2.03,2.35-3.06,.08-.12,.15-.23,.23-.35,.49-.44,.9-.53,1.09,.27,.18,.73,.38,1.46,.81,2.16,.12-1.53,.24-3.05,.36-4.58,.56,.18,1.28,.21,1.66,.58,.98,.98,1.82,2.11,2.71,3.18,.61,1.78,1.22,3.56,1.84,5.35,.18-2.19-.56-4.12-1.51-6-.78-1.64-1.46-3.34-2.37-4.91-.44-.75-.42-1.31-.11-2,.17-.23,.33-.45,.5-.68,.12-.23,.24-.46,.36-.69,0-.09,.01-.17,.06-.24,.09-.33,.17-.66,.26-1-.02-.08-.02-.17,.01-.25,.39,.28,.72,.89,1.26,.19,.12-.37,.25-.75,.37-1.12,.88,.72,.2,1.54,.06,2.27-.17,.91-.57,1.79-.87,2.67,1.58-1.82,1.94-3.95,1.73-6.22,0-1.27,0-2.53,0-3.8,0,0,0,0,0,0,.08,.13,.16,.26,.24,.39,.45,.92,.89,1.84,1.34,2.76-.07,.82,.02,1.71-.25,2.45-.56,1.55-1.34,3.03-1.98,4.56-.15,.37-.28,1.06-.11,1.19,1.2,.89,2.45,1.75,3.76,2.46,.65,.35,1.39,.18,2.02-.37,.45-.39,1.06-.6,1.6-.89,.11,.45,.21,.89,.32,1.34-.32,.73-.65,1.45-.97,2.18-.1,.32-.19,.63-.29,.95-.04,.08-.06,.17-.07,.26-.1,.22-.21,.43-.31,.65-.29,.93-.71,1.86-.25,3.21,.27-.95,.45-1.58,.63-2.2,.09-.33,.17-.67,.26-1,.04-.06,.07-.13,.08-.21,.09-.13,.18-.26,.26-.39h0c.11-.21,.22-.42,.33-.62,.18-.26,.39-.5,.53-.78,.38-.76,.84-.61,1.34-.15,.41,.53,.82,1.05,1.23,1.58,.1,.13,.2,.26,.3,.39l-.03-.03c.36,.49,.73,.98,1.09,1.47l.34-.17-.38-1.7v.02c-.1-.65-.21-1.3-.31-1.95-.11-.9-.21-1.8-.32-2.69,.51-.45,.8-.06,1.13,.27,.42,.43,.85,.85,1.28,1.27,.23,.21,.46,.42,.69,.63,0,0-.02-.02-.02-.02,.11,.1,.23,.21,.34,.31h-.01c.11,.09,.23,.19,.34,.28,0,0,0,0,0,0,.1,.1,.21,.21,.31,.31,0,0,0,0,0,0,.69,.76,1.37,1.54,2.09,2.27,.57,.57,.56,1.05-.05,1.56-.28,.23-.56,.47-.81,.73-1.07,1.1-2.12,2.21-3.18,3.32-.71,1.33-1.47,2.64-2.11,4-.6,1.27-.7,2.61-.09,3.93,0,.18,0,.35,0,.53-.09,.13-.18,.27-.27,.4-.26,.21-.51,.42-.77,.63,.05,.1,.1,.2,.15,.31,.41-.12,.82-.24,1.23-.35,0,0,0,0,0,0,.57-.04,1.15-.05,1.72-.12,5.92-.72,11.84-1.46,17.77-2.18,1.5-.18,3.01-.33,4.51-.49,.39,0,.77,.02,1.16,.03,.39,.32,1.14,.37,.9,1.17-.6,.32-1.2,.63-1.79,.95-.2,.12-.39,.24-.59,.36h-.02c-.16,.1-.32,.19-.48,.28-.07-.02-.13,0-.18,.07-.12,.08-.25,.17-.37,.25-.1,0-.19,.04-.26,.11-.11,.07-.21,.14-.32,.22,0,0,.02-.02,.02-.02-.21,.11-.42,.23-.63,.34h0c-.22,.1-.44,.2-.66,.3,0,0,.02-.01,.02-.01-.22,.11-.44,.22-.65,.33-.25,.08-.51,.13-.74,.24-3.28,1.66-6.62,1.99-10.22,1.01-2.52-.69-5.16-.97-7.76-1.29-1.96-.24-3.7,1.19-3.96,3.06,.16-.06,.32-.07,.44-.16,2.42-1.78,4.85-1.84,7.49-.36,2.38,1.33,4.88,2.44,7.37,3.54,.79,.35,1.72,.52,2.59,.55,2.22,.08,4.39-.2,6.43-1.16,.53-.21,1.06-.42,1.59-.64,0,0-.04,.01-.04,.01,.23-.11,.45-.23,.68-.34,0,0,0,.02,0,.02Zm-31.84-15.86c-.16,0-.32,.01-.47,.02-.24,.99-.56,1.97-.72,2.98-.46,3-.89,6.02-1.26,9.03-.35,2.81-.61,5.63-.93,8.44-.17,1.52,.24,2.8,1.47,3.76,.72,.57,1.43,.64,2.07-.11,.95-1.09,1.72-2.24,1.64-3.79-.12-2.25-.15-4.5-.31-6.75-.27-3.82-.59-7.63-.94-11.44-.07-.73-.37-1.44-.56-2.15Zm.27,27.65c1.16-.7,2.13-1.28,3.35-2.02-1.8-.09-2.68,.69-3.35,2.02Z" style="fill:#f9f9f9;"/><path d="M175.62,76.49c-.4,.37-.99,.68-1.15,1.14-.75,2.16-1.15,4.47-2.11,6.53-1.06,2.27-1.52,4.88-3.56,6.89-.25-.47-.48-.8-.61-1.16-.89-2.56-1.44-5.3-2.71-7.65-2.4-4.42-4.66-6.87-10.56-6.21-3.05,.34-6.17,.09-9.26,.06-1.46-.01-2.92-.13-4.38-.21-.74,0-1.47,0-2.21,0-2.98-.21-5.81,.34-8.17,2.23-3.77,3.04-6.3,6.95-7.59,11.63h0c-.44-.24-1.08-.37-1.27-.73-.89-1.69-1.77-3.4-2.43-5.18-.86-2.32-1.52-4.71-2.24-7.09-.37-1.23-.64-2.5-1.03-3.73-.17-.53-.48-1.02-.76-1.5-.58-.99-.52-1.82,.22-2.6,.1-.02,.18,0,.26,.07,.22,.08,.44,.17,.66,.25h-.02c.34,.1,.68,.2,1.02,.3l3.01,.29c.88,.02,1.76,.1,2.63,.06,1.14-.06,1.52-.56,1.58-1.69,.06-1.09-.72-1.51-1.41-2.07-.6-.49-1.59-.77-1.18-1.9,.11-.09,.23-.18,.34-.27,.31-.11,.62-.23,.93-.34h0c.32-.1,.64-.21,.96-.31,2.93-.64,5.87-1.28,8.8-1.92,.75-.09,1.5-.18,2.25-.27,3.91-.25,7.81-.69,11.72-.69,4.07,0,8.15,.35,12.21,.68,1.97,.16,3.92,.65,5.88,.99l1,.31c1.17,.4,2.34,.8,3.51,1.2-.01,.52-.02,1.04-.04,1.56-.81,.61-1.6,1.25-2.44,1.82-.92,.62-.95,1.55-.63,2.36,.15,.36,.99,.5,1.55,.62,.39,.08,.83-.03,1.25-.06,2.53,.17,4.82-.73,7.12-1.6,.14-.09,.28-.17,.43-.26h0c1.11,.15,.95,.82,.69,1.6-.78,2.29-1.53,4.59-2.29,6.88Z"/><path d="M146.89,95.14c.77-.03,1.54-.07,2.31-.1-4.47-.29-8.94-.6-13.14,1.49-2.43,1.21-4.89,2.35-7.37,3.45-.46,.21-1.06,.12-1.59,.16-1.24-2.81-2.52-5.61-3.7-8.45-.23-.56-.07-1.29-.09-1.95h0c.63-.74,1.26-1.48,1.89-2.21,.34-.4,.7-.78,1.01-1.2,1.51-2.03,3.58-2.85,6.04-2.63,1.51,.13,3.06,.24,4.49,.67,4.1,1.23,8.14,1.17,12.22-.01,1.96-.57,3.96-.98,5.93-1.5,3.92-1.03,7.12,.03,9.59,3.26,.54,.7,1.11,1.38,1.67,2.07,.55,1.18,1.07,2.38,1.65,3.54,.38,.75,.43,1.42,.06,2.22-.95,2.04-1.79,4.12-2.68,6.18-.09,.12-.17,.23-.26,.35v.03c-3.94-2.78-8.41-4.3-13.06-5.32-.46-.1-.99,.15-1.49,.24-1.17-.1-2.33-.2-3.5-.3Z" style="fill:#8d8d8d;"/><path d="M140.03,41.2c.78,.84,1.44,1.84,2.35,2.5,2.22,1.59,4.37,1.39,6.73-.48,.61-.48,1.09-1.11,1.63-1.68,.42-.32,.83-.64,1.25-.96,4.49-2.75,8.94-1.52,13.41,.11,4.12,1.5,8.28,2.9,12.42,4.35,0,.09,0,.19,0,.28,.55,.83,1.31,.9,2.21,.52-.42-.16-.84-.32-1.27-.49,1.05,.09,2.11,.18,3.16,.27-1.12,1.19-2.48,1.94-4.1,2.22-3.3,.84-6.43-.4-9.63-.77-4.47-.51-8.94-.96-13.41-1.48-5.03-.58-9.99,.12-14.98,.56-5.69,.51-11.31,1.43-16.96,2.17-3.36,.44-6.82,.49-9.98-1.22-.98-.53-1.86-1.22-2.79-1.84,4.25,.63,8.05-.97,11.86-2.47,2.29-.9,4.55-1.89,6.82-2.84,2.15-.89,4.38-1.02,6.63-.53,1.13,.24,2.24,.56,3.35,.84,.43,.3,.86,.61,1.29,.91Z" style="fill:#414141;"/><path d="M112.89,52.51c.16-.75,.32-1.49,.52-2.45-1.27-.96-2.74-2.07-4.21-3.17l.25-.39c1.2,.58,2.41,1.13,3.58,1.75,2.21,1.16,4.5,1.82,7.06,1.86,3.44,.05,6.77-.54,10.13-1.11,2.63-.44,5.34-.44,7.96-.9,5.38-.96,10.79-.56,16.18-.51,3.02,.03,6.04,.54,9.07,.82,3.75,.35,7.51,.68,11.26,1.01,2.69,.32,5-1.11,7.58-1.61-.71,.77-1.5,1.4-2.37,1.9-.67,.39-.96,.85-.81,1.6-.5,.02-1.01,0-1.5,.06-1.38,.18-2.75,.44-4.14,.58-.82,.08-1.67,.04-2.5-.03-1.07-.1-1.63,.37-1.97,1.35-.19,.55-.6,1.02-.91,1.53h0c.14-.51,.3-1.01,.43-1.51,.38-1.4,.2-1.81-1.23-2.06-1.94-.34-3.91-.57-5.87-.8-2.26-.26-2.39-.15-2.93,2.03-.04,.15-.11,.29-.16,.44h0c-.11-.85-.22-1.7-.35-2.7-.51-.12-1.11-.34-1.72-.37-2.61-.17-5.22-.34-7.84-.39-3.08-.06-2.69,0-2.87,2.39-.01,.15-.1,.3-.15,.44-.11,.03-.2,.02-.29-.05-.01-.47,0-.95-.03-1.42-.07-1.2-.28-1.41-1.43-1.28-2.66,.3-5.32,.58-7.96,.96-2.28,.33-2.28,.39-1.99,2.69-.19,0-.37,0-.56,.01-.1-2.21-.11-2.26-2.26-1.86-2.41,.44-4.8,1.01-7.21,1.5-2.7,.54-2.7,.53-2.19,3.26h-.02c-.32-.61-.74-1.19-.93-1.85-.23-.8-.62-1.18-1.45-1.37-1.16-.26-2.28-.69-3.39-1.13-2.04-.81-2.03-.83-2.72,1.22-.02-.14-.04-.28-.06-.42Z" style="fill:#565656;"/><path d="M120.74,69.83l-3.01-.29-1.02-.31h.02c-.22-.08-.44-.16-.66-.24-.08-.07-.16-.09-.26-.07-.91-.43-1.38-1.17-1.64-2.13-.47-1.71-1.04-3.39-1.58-5.08-.08-.77,.18-1.35,.94-1.64,.12-.08,.23-.16,.35-.25,.09,0,.18,.02,.27,.03,1.07,2.65,2.15,5.3,3.25,8.02,1.29-1.02,2.34-1.86,3.4-2.7-.02,1.55-.04,3.1-.05,4.65Z" style="fill:#f8f8f8;"/><path d="M179.08,51.3c-.15-.75,.14-1.21,.81-1.6,.86-.5,1.65-1.13,2.37-1.9-2.58,.5-4.88,1.93-7.58,1.61,.66-.21,1.31-.5,1.99-.61,.62-.1,1.11-.21,1.15-.95,1.62-.28,2.98-1.03,4.1-2.22l1.89-.31c-.25,.32-.49,.63-.55,.71,.4,.9,.98,1.59,.96,2.27-.03,1.01-.48,2.01-.75,3.01-2.3,.06-3.15,2.01-4.4,3.53v-3.53Z" style="fill:#272727;"/><path d="M113.53,60.07c-.76,.29-1.01,.87-.94,1.64-.89-2.93-1.79-5.85-2.63-8.78-.1-.36,.14-.82,.23-1.24,.4,.16,.93,.22,1.18,.51,.4,.46,.62,1.07,.92,1.62,.53,1.73,1.06,3.47,1.62,5.19,.03,.09,.34,.08,.52,.12l.09,.07c-.12,.22-.25,.43-.37,.65-.09-.02-.18-.03-.27-.03-.12,.08-.23,.16-.35,.25Z" style="fill:#888;"/><path d="M109.14,55.4c-.3,.11-.6,.21-.9,.32-.54-2.52-1.09-5.04-1.63-7.56,.38,.66,.88,1.28,1.1,1.99,.55,1.73,.96,3.5,1.43,5.26Z" style="fill:#454545;"/><path d="M114.43,59.14c-.18-.04-.49-.04-.52-.12-.56-1.72-1.09-3.46-1.62-5.19,.2-.44,.4-.88,.6-1.31,.02,.14,.04,.28,.06,.42-.06,2.2,.58,4.24,1.49,6.21Z" style="fill:#525252;"/><path d="M110.06,57.61c-.31-.74-.62-1.47-.93-2.21,.31,.74,.62,1.47,.93,2.21Z" style="fill:#454545;"/><path d="M106.61,48.16c-.09-.32-.19-.64-.28-.96,.09,.32,.19,.64,.28,.96Z" style="fill:#454545;"/><path d="M105.95,45.38c-.08-.23-.16-.47-.24-.7,.08,.23,.16,.47,.24,.7Z" style="fill:#505050;"/><path d="M72.85,45.62c.04-.08,.07-.16,.09-.25,.42-.64,.83-1.28,1.25-1.93h0c.31-.52,.63-1.05,.94-1.58h0c.09-.11,.19-.22,.28-.33,2.63-4.31,5.27-8.62,7.9-12.93,.11,.21,.22,.43,.32,.64-3.8,7.7-7.85,15.27-12.26,22.64-2.71,4.53-5.4,9.09-7.91,13.74-1.51,2.8-2.66,5.8-3.97,8.71-.24,.52-.51,1.03-.76,1.54q-1.96-.06-1.57-2.51c.22-.73,.44-1.47,.65-2.2h0c.21-.42,.41-.84,.62-1.27h0c.22-.52,.43-1.05,.65-1.57h0c.11-.2,.21-.42,.32-.63h0c.1-.2,.2-.42,.3-.64h0c.21-.41,.43-.83,.64-1.24,.11-.22,.21-.43,.32-.65h0c.1-.21,.21-.42,.31-.63h0c.11-.21,.21-.42,.32-.63,1.89-3.08,3.78-6.15,5.66-9.23,.55-.89,1.08-1.79,1.62-2.68,.61-.87,1.22-1.73,1.83-2.6h0c.12-.21,.23-.41,.35-.61h0c.1-.1,.2-.21,.3-.32h0c.62-.95,1.23-1.9,1.85-2.85Z" style="fill:#878787;"/><path d="M57.74,78.67c.05,.5,.1,1.01,.16,1.67,.47-.28,.8-.48,1.12-.68-.85,1.89-1.7,3.78-2.54,5.66-.1,.21-.19,.43-.29,.64,0,0,0,0,0,0-.1,.21-.2,.43-.3,.64h0c-.22-.32-.43-.64-.65-.96,.01-.1,.02-.2,.03-.3,.19-.74,.39-1.49,.58-2.23,.63-1.48,1.26-2.96,1.88-4.45Z" style="fill:#242424;"/><path d="M55.24,85.64c.22,.32,.43,.64,.65,.96-.77,1.58-.84,3.48-1.96,4.9-.13-.05-.27-.1-.4-.15,.57-1.9,1.14-3.81,1.71-5.71Z" style="fill:#4e4e4e;"/><path d="M67.84,83.13c-.02-.51-.05-1.01-.08-1.7-.5,.31-.83,.53-1.17,.74,.64-1.16,1.28-2.32,1.91-3.49,.22-.41,.42-.82,.62-1.24-.04,.53,0,1.07-.13,1.58-.35,1.38-.76,2.74-1.15,4.11Z" style="fill:#696969;"/><path d="M67.86,65.8c.87-1.2,1.74-2.4,2.61-3.61,.15,.1,.31,.2,.46,.3-.83,1.3-1.66,2.6-2.48,3.9,0-.4,0-.78-.59-.59Z" style="fill:#4d4d4d;"/><path d="M60.28,84.38c.22,.43,.44,.86,.65,1.28-.35,.55-.69,1.09-1.04,1.64-.14-.06-.28-.12-.42-.18,.27-.91,.53-1.83,.8-2.74Z" style="fill:#414141;"/><path d="M59.03,79.66c-.04-1.08,0-2.13,1.32-2.49-.44,.83-.88,1.66-1.32,2.49Z" style="fill:#242424;"/><path d="M57.8,71.17c-.22,.73-.44,1.47-.65,2.2-.2,.23-.4,.45-.6,.68-.06-1.17,.42-2.1,1.25-2.88Z" style="fill:#252525;"/><path d="M55.86,83.11c-.19,.74-.39,1.49-.58,2.23,.19-.74,.39-1.49,.58-2.23Z" style="fill:#4e4e4e;"/><path d="M60.91,82.49c-.21,.63-.43,1.26-.64,1.89,.21-.63,.43-1.26,.64-1.89Z" style="fill:#414141;"/><path d="M62.18,87.85c-.3,.43-.6,.85-.9,1.28,.3-.43,.6-.85,.9-1.28Z" style="fill:#353535;"/><path d="M67.84,67.37c-.19,.33-.38,.65-.57,.98,.19-.33,.38-.65,.57-.98Z" style="fill:#4d4d4d;"/><path d="M67.27,68.35c-.13,.3-.26,.59-.39,.89,.13-.3,.26-.59,.39-.89Z" style="fill:#4d4d4d;"/><path d="M55.89,86.6c.1-.21,.2-.43,.3-.64-.1,.21-.2,.43-.3,.64Z" style="fill:#4e4e4e;"/><path d="M56.19,85.96c.1-.21,.19-.43,.29-.64-.1,.21-.19,.43-.29,.64Z" style="fill:#4e4e4e;"/><path d="M63.13,76.51c-.09,.22-.17,.43-.26,.65,.09-.22,.17-.43,.26-.65Z" style="fill:#434343;"/><path d="M63.44,75.88c-.1,.21-.2,.42-.31,.64,.1-.21,.2-.42,.31-.64Z" style="fill:#434343;"/><path d="M67.51,66.4c.12-.2,.23-.4,.35-.6-.12,.2-.23,.4-.35,.6Z" style="fill:#4d4d4d;"/><path d="M68.17,66.74c-.11,.21-.22,.41-.33,.62,.11-.21,.22-.41,.33-.62Z" style="fill:#4d4d4d;"/><path d="M66.57,67.67c.12-.2,.23-.4,.35-.6-.12,.2-.23,.4-.35,.6Z" style="fill:#4d4d4d;"/><path d="M66,68.33c.09-.11,.19-.22,.28-.33-.09,.11-.19,.22-.28,.33Z" style="fill:#4d4d4d;"/><path d="M66.28,68l.29-.33-.29,.33Z" style="fill:#4d4d4d;"/><path d="M66.91,67.06c.1-.11,.2-.22,.3-.33-.1,.11-.2,.22-.3,.33Z" style="fill:#4d4d4d;"/><path d="M68.45,66.41l-.27,.34,.27-.34Z" style="fill:#4d4d4d;"/><path d="M66.88,69.25c-.09,.12-.18,.23-.27,.35,.09-.12,.18-.23,.27-.35Z" style="fill:#4d4d4d;"/><path d="M67.21,66.73c.1-.11,.2-.22,.3-.33-.1,.11-.2,.22-.3,.33Z" style="fill:#4d4d4d;"/><path d="M61.56,85.03c.11-.11,.21-.21,.32-.32-.11,.11-.21,.21-.32,.32Z" style="fill:#414141;"/><path d="M61.25,85.34c.11-.11,.21-.21,.32-.32-.11,.11-.21,.21-.32,.32Z" style="fill:#414141;"/><path d="M60.93,85.66c.11-.11,.21-.21,.32-.32-.11,.11-.21,.21-.32,.32Z" style="fill:#414141;"/><path d="M108.94,31.24c-.21,.13-.42,.25-.63,.38-.05-.06-.09-.13-.14-.19,.18-.16,.37-.32,.55-.48,.07,.1,.15,.2,.22,.29Z" style="fill:#494949;"/><path d="M111.65,76.85c-.03-.07-.06-.15-.07-.17,0,.03,.02,.11,.04,.19l.02-.02Z" style="fill:#f7f7f7;"/><path d="M161.47,2.11c.39,1.49,.79,2.97,1.18,4.46,.12,.63,.23,1.27,.35,1.9v-.02c-.16,.8-.62,.75-1.12,.35-1.81-1.41-3.61-2.84-5.41-4.27,0-.09-.03-.15-.12-.18-.17-.24-.34-.48-.51-.72,0,0,.03,.04,.03,.04-.14-.19-.28-.37-.43-.56,0,0-.01-.02-.01-.02-.09-.11-.19-.23-.28-.34-1.12-1.58-1.99-3.24-1.79-5.27,.04-.35,.13-.7,.19-1.05,.74-.09,1.48-.18,2.22-.27,0,0-.02,0-.02,0,.84,.74,1.67,1.48,2.51,2.22,0,0,0-.03,0-.03,.11,.12,.23,.23,.34,.35,0,0-.03,0-.03,0,.75,.82,1.5,1.64,2.25,2.46,0,0,0,0,0,0,.09,.12,.19,.23,.28,.35,0,0,0,0,0,0,.12,.19,.24,.39,.36,.58Z" style="fill:#f8f8f8;"/><path d="M150.12,4.92c-.54,.29-1.15,.49-1.6,.89-.64,.55-1.38,.73-2.02,.37-1.31-.72-2.56-1.57-3.76-2.46-.17-.13-.04-.82,.11-1.19,.64-1.53,1.42-3,1.98-4.56,.27-.75,.18-1.63,.25-2.45,.84,2.93,2.83,5.28,4.05,8.02,.23,.51,.65,.93,.99,1.39Z" style="fill:#555;"/><path d="M156.47,4.54c1.8,1.42,3.6,2.85,5.41,4.27,.51,.4,.96,.45,1.12-.35,.32-.32,.63-.63,.95-.95-.55,2.14,.62,3.09,2.44,3.74,1.23,.43,2.38,1.09,3.56,1.65-.17,.14-.4,.43-.51,.39-.63-.23-1.22-.6-1.85-.81-2.5-.85-5-1.7-7.26-3.13-.74-.47-1.56-.81-2.35-1.21,0,0,0,0,0,0-.1-.1-.21-.21-.31-.31,0,0,0,0,0,0-.11-.1-.23-.19-.34-.29h.01c-.11-.1-.23-.2-.34-.3,0,0,.02,.02,.02,.02-.23-.21-.46-.42-.69-.63-.43-.42-.86-.84-1.28-1.27-.32-.33-.62-.73-1.13-.27,.1-.33,.2-.66,.31-1.02,.79,.37,1.25,1.74,2.24,.51Z" style="fill:#121212;"/><path d="M149.51,10.09c-.01,.08-.04,.14-.08,.21-.11-.22-.22-.44-.33-.65,0-.09,.03-.18,.07-.26,.1-.32,.19-.63,.29-.95,.32-.73,.65-1.45,.97-2.18,.24,.3,.49,.59,.73,.89,.27,.33,.54,.66,.81,.99-.51-.46-.96-.61-1.34,.15-.14,.28-.35,.52-.53,.78-.11,.21-.22,.41-.33,.62h0c-.09,.14-.18,.27-.26,.4Z" style="fill:#5f5f5f;"/><path d="M154.54,9.68c.13,.57,.25,1.13,.38,1.7l-.34,.17c-.36-.49-.73-.98-1.09-1.47,.35-.13,.71-.27,1.06-.4Z" style="fill:#222;"/><path d="M154.23,7.75c.1,.65,.21,1.3,.31,1.95-.1-.65-.21-1.3-.31-1.95Z" style="fill:#222;"/><path d="M155.84,3.64c.17,.24,.34,.48,.51,.72-.17-.24-.34-.48-.51-.72Z" style="fill:#121212;"/><path d="M155.44,3.12c.14,.19,.28,.37,.43,.56-.14-.19-.28-.37-.43-.56Z" style="fill:#121212;"/><polygon points="155.17 3.12 155.08 3.16 155.12 3.06 155.17 3.12" style="fill:#121212;"/><path d="M155.15,2.76c.09,.11,.19,.23,.28,.34-.09,0-.17,0-.26,.01,0,0-.05-.05-.05-.05,0-.1,.02-.2,.03-.3Z" style="fill:#121212;"/><path d="M153.51,10.11c-.1-.13-.2-.26-.3-.39,.1,.13,.2,.26,.3,.39Z" style="fill:#222;"/><path d="M175.62,76.49c.76-2.29,1.51-4.59,2.29-6.88,.26-.78,.42-1.45-.69-1.6,1.08-.6,1.57-1.56,1.85-2.73,.38-1.62,.87-3.22,1.31-4.83,1.04-2.96,2.07-5.92,3.11-8.89,.31,.27,.62,.54,.93,.8,.4-.57,.69-.98,.97-1.38,.02,.1,.04,.21,.07,.31-.06,.08-.08,.18-.07,.28-.1,.33-.2,.66-.3,.99-.95,2.83-1.9,5.67-2.85,8.5-.35,.31-.88,.55-1.01,.93-1.08,3.06-2.04,6.17-3.13,9.22-.72,2.02-1.62,3.97-2.44,5.95-.01-.22-.02-.45-.03-.67Z" style="fill:#272727;"/><path d="M185.38,50.98c-.28,.4-.57,.81-.97,1.38-.31-.27-.62-.53-.93-.8,0-.08,0-.17,0-.25,.27-1,.72-2,.75-3.01,.02-.68-.55-1.37-.96-2.27,.06-.07,.31-.39,.55-.71,.63-.31,1.26-.63,1.9-.94,.52-.05,1.04-.68,1.57-.01,.01,.22,.02,.44,.03,.65l-.02-.02c-.11,.32-.21,.64-.32,.96,.01,.1,0,.2-.05,.29-.08,.23-.16,.46-.23,.69-.12,.6-.25,1.21-.37,1.81,0,0,0,0,0,0-.08,.22-.16,.43-.23,.65-.07,.08-.09,.18-.08,.28-.1,.33-.2,.65-.31,.98h0c-.11,.1-.22,.21-.33,.32Z" style="fill:#171717;"/><path d="M186.33,48.76c.12-.6,.25-1.21,.37-1.81,.08-.23,.16-.46,.23-.69,.05-.09,.07-.19,.05-.29,.11-.32,.21-.64,.32-.96,0,0,.02,.02,.02,.02,.1-.21,.2-.43,.3-.64,0,0,0,0,0,0,.1-.32,.2-.64,.3-.96,0,0,0,0,0,0,.07,.44,.27,.91,.17,1.3-.42,1.69-.93,3.36-1.41,5.03-.12-.33-.23-.66-.35-.99Z" style="fill:#d9d9d9;"/><path d="M186.01,52.56l-.25,1.34,.25-1.34Z" style="fill:#d9d9d9;"/><path d="M186.63,50.04c-.09,.33-.18,.65-.27,.98,.09-.33,.18-.65,.27-.98Z" style="fill:#d9d9d9;"/><path d="M185.08,52.56c.1-.33,.2-.66,.3-.99-.1,.33-.2,.66-.3,.99Z" style="fill:#d9d9d9;"/><path d="M185.71,50.67c.1-.33,.2-.65,.31-.98-.1,.33-.2,.65-.31,.98Z" style="fill:#d9d9d9;"/><path d="M186.09,49.41c.08-.22,.16-.43,.23-.65-.08,.22-.16,.43-.23,.65Z" style="fill:#d9d9d9;"/><path d="M185.38,50.98c.11-.11,.22-.21,.33-.32-.09,.21-.18,.42-.26,.64-.02-.1-.04-.21-.07-.31Z" style="fill:#d9d9d9;"/><path d="M186.26,51.62c-.07,.23-.14,.45-.21,.68,.07-.23,.14-.45,.21-.68Z" style="fill:#d9d9d9;"/><path d="M165.22,4.67c-.29,.03-.58,.05-.87,.08,.18-.55,.36-1.1,.54-1.66,1.22,.63,2.42,1.29,3.67,1.86,1.17,.54,2.59,.35,3.66,1.23-1.76-.07-3.58,.4-5.15-.9-.47-.39-1.23-.43-1.85-.63Z" style="fill:#404040;"/><path d="M160.83,1.19c-.75-.82-1.5-1.64-2.25-2.46,.46,.09,.92,.19,1.37,.28,.08,.09,.16,.19,.24,.28,.12,.22,.23,.43,.35,.65,.1,.42,.2,.84,.3,1.25Z" style="fill:#5b5b5b;"/><path d="M164.28,5.29c-.09,.65-.18,1.29-.28,1.94,.09-.65,.18-1.29,.28-1.94Z" style="fill:#404040;"/><path d="M163.01,8.47c-.12-.63-.23-1.27-.35-1.9,.12,.63,.23,1.27,.35,1.9Z" style="fill:#121212;"/><path d="M161.47,2.11c-.12-.19-.24-.39-.36-.58,.12,.19,.24,.39,.36,.58Z" style="fill:#5b5b5b;"/><path d="M161.11,1.54c-.09-.12-.19-.23-.28-.35,.09,.12,.19,.23,.28,.35Z" style="fill:#5b5b5b;"/><path d="M135.04,7.52c-.78,1.02-1.51,2.08-2.35,3.06-1.07,1.24-1.08,1.18,.3,2.16,.83,.6,1.58,1.31,2.37,1.98-.12,.27-.24,.54-.48,1.07-.85-.96-1.58-1.79-2.26-2.55-1.82-.42-3.64-.85-5.46-1.28-.04-.04-.08-.09-.12-.13,.65-.4,1.3-.8,1.95-1.21,0,.11,0,.23,.01,.34l-.05,.05,.05-.05c1.42-.59,2.89-1.1,3.79-2.48,.3-.13,.61-.25,.91-.38,.11-.1,.22-.2,.33-.3,.11-.09,.22-.18,.33-.28,.23,0,.46,0,.68,0Z" style="fill:#494949;"/><path d="M142.2-1.44c-.54,.7-.87,.09-1.26-.19-.11,.11-.21,.21-.32,.32,0,0,.02-.03,.02-.03-.22,.32-.43,.63-.65,.95-.63,.87-1.26,1.75-2.08,2.88-.48-1.69,0-3.04,.25-4.4,.26-.25,.49-.54,.78-.73,1.1-.72,1.61-.58,2.38,.51,.21,.29,.57,.46,.86,.69Z" style="fill:#e8e8e8;"/><path d="M141.9,8.78c-.89-1.07-1.73-2.2-2.71-3.18-.37-.37-1.1-.4-1.66-.58,.74-1.27,1.48-2.53,2.22-3.8-.31,.69-.33,1.25,.11,2,.91,1.57,1.59,3.26,2.37,4.91-.11,.22-.22,.44-.33,.65Z" style="fill:#5d5d5d;"/><path d="M128.99,10.97c0-.11,0-.23-.01-.34,1.14-.85,2.28-1.7,3.42-2.55,.13,.13,.25,.27,.38,.4-.9,1.38-2.37,1.89-3.79,2.48h0Z" style="fill:#2b2b2b;"/><path d="M135.04,7.52c-.23,0-.46,0-.68,0,.3-.12,.61-.24,.91-.35-.08,.12-.15,.23-.23,.35Z" style="fill:#2b2b2b;"/><path d="M140.35-.05c.09-.03,.18-.06,.26-.1-.12,.23-.24,.46-.36,.69,.03-.2,.07-.39,.1-.59Z" style="fill:#e8e8e8;"/><path d="M133.44,7.21l.55-.44-.55,.44Z" style="fill:#2b2b2b;"/><path d="M133.11,7.51c.1-.1,.21-.19,.31-.29-.1,.1-.21,.19-.31,.29Z" style="fill:#2b2b2b;"/><path d="M132.74,7.8c.12-.09,.24-.18,.35-.28-.12,.09-.24,.18-.35,.28Z" style="fill:#2b2b2b;"/><path d="M132.39,8.09c.12-.1,.24-.2,.37-.3-.12,.1-.24,.2-.37,.3Z" style="fill:#2b2b2b;"/><path d="M134.02,7.8c-.11,.1-.22,.2-.33,.3,.11-.1,.22-.2,.33-.3Z" style="fill:#2b2b2b;"/><path d="M150.39,95.44c.5-.09,1.03-.34,1.49-.24,4.66,1.02,9.12,2.54,13.06,5.32-.14,.21-.27,.42-.41,.63-2.04-1.66-4.33-2.81-6.86-3.51-.22-.1-.44-.2-.66-.3-1.99-.56-3.98-1.12-5.97-1.68-.21-.07-.43-.15-.64-.22h-.02Z" style="fill:#676767;"/><path d="M150.4,95.44c.21,.07,.43,.15,.64,.22-.21-.07-.43-.15-.64-.22Z" style="fill:#8d8d8d;"/><path d="M166.17,88.2c-.56-.69-1.13-1.36-1.67-2.07-2.47-3.24-5.67-4.29-9.59-3.26-1.97,.52-3.98,.93-5.93,1.5-4.08,1.18-8.12,1.24-12.22,.01-1.44-.43-2.98-.54-4.49-.67-2.46-.22-4.53,.59-6.04,2.63-.31,.42-.67,.8-1.01,1.2,.14-.38,.17-.88,.43-1.13,.76-.75,1.17-1.62,1.52-2.63,.44-1.24,.92-2.57,2.42-3.09,.35-.12,.58-.57,.89-.86,1.39-1.32,2.78-2.6,4.78-2.98,1.29-.25,2.56-.64,3.84-.96,.74,0,1.47,0,2.21,0,.66,.21,1.33,.59,1.99,.6,3.87,.06,7.75-.09,11.61,.08,2.01,.09,4,.67,5.99,1.07,.86,.17,1.31,.78,1.51,1.62,.11,.45,.22,1.02,.53,1.28,1.37,1.09,1.96,2.69,2.65,4.15,.49,1.04,.42,2.33,.6,3.51Z" style="fill:#242424;"/><path d="M143.49-3.84c.21,2.27-.15,4.4-1.73,6.22,.3-.89,.7-1.76,.87-2.67,.14-.73,.82-1.54-.06-2.27,.31-.43,.61-.85,.92-1.28Z" style="fill:#bcbcbc;"/><path d="M83.62,29.25c-.11-.21-.22-.43-.32-.64,1.27-2.72,2.53-5.45,3.8-8.17,0,0-.02-.01-.02-.01-.16,.82-.17,1.69-.49,2.44-.92,2.16-1.97,4.26-2.96,6.39Z" style="fill:#505050;"/><path d="M70.36,49.4c-.61,.87-1.22,1.73-1.83,2.6,.17-1.17,.73-2.07,1.83-2.6Z" style="fill:#2b2b2b;"/><path d="M72.85,45.62c-.62,.95-1.23,1.9-1.85,2.84,.21-1.21,.83-2.15,1.85-2.84Z" style="fill:#2b2b2b;"/><path d="M74.18,43.44c-.42,.64-.83,1.28-1.25,1.93,.42-.64,.83-1.28,1.25-1.93Z" style="fill:#2e2e2e;"/><path d="M75.12,41.86c-.31,.53-.63,1.06-.94,1.58,.31-.53,.63-1.06,.94-1.58Z" style="fill:#2e2e2e;"/><path d="M60.31,65.82c-.21,.41-.43,.83-.64,1.24,.21-.53,.41-1.06,.62-1.6,0,.12,.02,.24,.02,.35Z" style="fill:#252525;"/><path d="M59.06,68.33c-.22,.53-.43,1.05-.65,1.58,.22-.53,.43-1.05,.65-1.58Z" style="fill:#252525;"/><path d="M58.41,69.9c-.21,.43-.41,.85-.62,1.28,.21-.43,.41-.85,.62-1.28Z" style="fill:#252525;"/><path d="M87.09,20.43c.11-.29,.22-.57,.33-.86,.07,.04,.14,.09,.22,.13-.19,.24-.38,.48-.57,.72,0,0,.02,.01,.02,.01Z" style="fill:#505050;"/><path d="M70.71,48.79c-.12,.2-.23,.4-.35,.61,.12-.2,.23-.4,.35-.61Z" style="fill:#2b2b2b;"/><path d="M61.25,63.91l-.32,.63,.32-.63Z" style="fill:#303030;"/><path d="M60.93,64.54c-.1,.21-.21,.43-.31,.64,.1-.21,.21-.43,.31-.64Z" style="fill:#303030;"/><path d="M60.31,65.82c0-.12-.02-.24-.02-.35,.11-.1,.23-.19,.34-.29-.11,.22-.21,.43-.32,.65Z" style="fill:#303030;"/><path d="M59.67,67.06c-.1,.22-.2,.43-.3,.65,.1-.22,.2-.43,.3-.65Z" style="fill:#252525;"/><path d="M59.37,67.7c-.11,.21-.21,.43-.32,.64,.11-.21,.21-.43,.32-.64Z" style="fill:#252525;"/><path d="M71,48.46c-.1,.11-.2,.22-.3,.33,.1-.11,.2-.22,.3-.33Z" style="fill:#2b2b2b;"/><path d="M75.39,41.53c-.09,.11-.19,.22-.28,.33,.09-.11,.19-.22,.28-.33Z" style="fill:#2e2e2e;"/><path d="M137.18,25.48c-3.43-.37-6.87-.63-10.28-1.13-5.47-.81-10.92-.97-16.39-.08-.77,.32-1.54,.63-2.53,1.04,.51-1.12,1.43-1.27,2.32-1.56-.73-.97-.11-1.26,.71-1.45l.03,.04c-.38,1.46,.63,1.09,1.38,1.04,3.59-.24,7.18-.54,10.77-.71,1.24-.06,2.49,.18,3.74,.27,3.57,.24,6.97,1.12,10.24,2.55Z" style="fill:#3f3f3f;"/><path d="M118.27,15.73c.07-.06,.16-.09,.25-.07,.03,.22,.17,.54,.07,.63-.55,.55-1.18,1.02-1.73,1.58-.09,.09,.09,.43,.14,.66-1.03,.85-2.07,1.71-3.1,2.56l-.05-.04c.38-2.35,2.06-3.72,3.78-5.07h-.02c.22-.07,.44-.16,.65-.24Z" style="fill:#383838;"/><path d="M111.02,22.3c.94-.42,1.88-.84,2.83-1.26l.05,.04c-.71,.97-1.75,1.18-2.85,1.26l-.03-.04Z" style="fill:#3f3f3f;"/><path d="M139.05,28.33c.42,.64,.84,1.28,1.25,1.92-.11,.1-.22,.19-.33,.29-.42-.52-.83-1.04-1.25-1.56,.11-.22,.22-.43,.32-.65Z" style="fill:#8e8e8e;"/><path d="M117.01,18.52c-.05-.23-.23-.57-.14-.66,.55-.55,1.18-1.03,1.73-1.58,.09-.09-.04-.41-.07-.63,2.84-1.28,5.67-2.55,8.51-3.83,.04,.04,.08,.09,.12,.13,.03,.71,.47,.82,1.1,1.02,1.93,.61,3.81,1.38,5.15,3.03h0c-1.45,.64-2.75-.21-4.06-.5-2.35-.53-4.65,.03-6.98,0-.31,0-.62,.33-.94,.51-.84,.42-1.68,.84-2.52,1.26-.21,.11-.42,.22-.63,.33,0,0,0,0,0,0-.11,.11-.21,.21-.32,.32,0,0,0,0,0,0-.11,.1-.21,.19-.32,.29-.1,.01-.2,.02-.3,.03-.11,.1-.22,.2-.34,.3,0,0,0,0,0,0Z" style="fill:#494949;"/><path d="M118.27,15.73c-.22,.09-.44,.17-.65,.26,.22-.09,.44-.17,.65-.26Z" style="fill:#494949;"/><path d="M44.52,40.57c.63,1.09,1.71,.44,2.56,.67-1.4,.53-2.79,.39-4.18,.13l-.05-.48c.56-.11,1.11-.21,1.67-.32Z" style="fill:#383838;"/><path d="M48.62,38.68l-2.19,1.28c-.22,0-.44,0-.66-.01,.95-.42,1.9-.85,2.85-1.27Z" style="fill:#3e3e3e;"/><path d="M45.78,39.95c.22,0,.44,0,.66,.01-.64,.2-1.27,.41-1.91,.61,.42-.21,.83-.42,1.25-.63Z" style="fill:#383838;"/><path d="M56.2,38.7c.52-.21,1.05-.42,1.57-.64-.52,.21-1.05,.42-1.57,.64Z" style="fill:#3a3a3a;"/><path d="M57.77,38.06l1.26-.62-1.26,.62Z" style="fill:#3a3a3a;"/><path d="M59.03,37.43c.21-.1,.42-.21,.64-.31-.21,.1-.42,.21-.64,.31Z" style="fill:#3a3a3a;"/><path d="M62.17,28.28l-.33,.32,.33-.32Z" style="fill:#373737;"/><path d="M51.79,33.97c-1.05-.59-2.08-1.11-3.36-.54-.75,.33-1.09-.19-1.03-.89,.05-.55,.22-1.1,.39-1.64,.22-.69,.6-1.34,.75-2.04,.31-1.52,.51-3.07,.76-4.61,.03-.21,.03-.46,.14-.6,.94-1.22,1.38-2.65,1.79-4.09,.12-.41,.27-.89,.17-1.27-.17-.64-.44-1.28,.32-1.63,.78-.36,1.37-1.36,2.52-.6,1.26,.85,2.73,.82,4.19,.55,3.16,.63,6.31,1.25,9.63,1.91-3.84,5.02-8.3,9.31-13.14,13.23-.09,.09-.18,.18-.28,.26-.11,.02-.22,.03-.34,.05-.1,.1-.21,.19-.31,.29,0,0-.02,.02-.02,.02l-.28,.27c-.1,.02-.21,.03-.31,.05-.11,.1-.22,.21-.33,.31,0,0,0,0,0,0-.11,.1-.21,.19-.32,.29l-.02,.02-.27,.26c-.21,.13-.43,.25-.64,.38Z" style="fill:#a4a4a4;"/><path d="M52.43,33.6l.27-.26-.27,.26Z" style="fill:#9a9a9a;"/><path d="M62.18,42.48c.1-.11,.21-.22,.31-.32-.1,.11-.21,.22-.31,.32Z" style="fill:#797979;"/><path d="M54.64,32.03c.09-.09,.18-.18,.28-.26-.09,.09-.18,.18-.28,.26Z" style="fill:#9a9a9a;"/><path d="M53.99,32.37c.1-.1,.21-.19,.31-.29-.1,.1-.21,.19-.31,.29Z" style="fill:#9a9a9a;"/><path d="M53.69,32.66l.28-.27c-.09,.09-.18,.18-.28,.27Z" style="fill:#9a9a9a;"/><path d="M52.73,33.32c.11-.1,.21-.19,.32-.29-.11,.1-.21,.19-.32,.29Z" style="fill:#9a9a9a;"/><path d="M53.05,33.03c.11-.1,.22-.21,.33-.31-.11,.1-.22,.21-.33,.31Z" style="fill:#9a9a9a;"/><path d="M52.13,49.76c-.23-.83,.28-.44,.6-.36-.2,.12-.4,.24-.6,.36Z" style="fill:#979797;"/><path d="M55.86,47.51c.11-.1,.22-.19,.33-.29-.11,.1-.22,.19-.33,.29Z" style="fill:#797979;"/><path d="M52.73,49.4c.11-.1,.22-.2,.32-.3-.11,.1-.22,.2-.32,.3Z" style="fill:#979797;"/><path d="M51.47,50.35c.11-.1,.21-.2,.32-.31-.11,.1-.21,.2-.32,.31Z" style="fill:#979797;"/><path d="M51.15,50.65c.1-.1,.21-.2,.31-.3-.1,.1-.21,.2-.31,.3Z" style="fill:#979797;"/><path d="M58.4,41.21l.64-.3c-.21,.1-.43,.2-.64,.3Z" style="fill:#646464;"/><path d="M187.29,44.37c-.53-.67-1.05-.04-1.57,.01,.38-.49,.78-.97,1.13-1.48,.38-.54,.73-1.1,1.09-1.65l.02-.02c.51-.93,1.07-1.84,1.52-2.79,.24-.5,.3-1.08,.73-1.63,.05,.3,.2,.64,.13,.91-.31,1.21-.65,2.42-1.05,3.61-.11,.32-.49,.53-.69,.83-.26,.4-.47,.84-.7,1.27,0,0,0,0,0,0-.1,.32-.2,.64-.3,.96,0,0,0,0,0,0-.11,0-.22,0-.33-.01Z" style="fill:#414141;"/><path d="M157.99,8.13c.78,.4,1.6,.75,2.35,1.21,2.26,1.43,4.75,2.27,7.26,3.13,.64,.22,1.22,.58,1.85,.81,.11,.04,.34-.25,.51-.39,1.79,.51,3.58,1.02,5.36,1.52,.04,.1,.04,.23,.12,.28,2.34,1.64,3.01,4.35,4.3,6.67-.31,0-.63,0-.94,0-2.46-2.2-4.87-4.46-8.2-5.34-1.01-.21-2.01-.48-3.02-.63-1.38-.19-2.78-.24-4.16-.45-.59-.09-.88,.06-1.06,.6-.18,.53-.59,.87-1.02,.36-.21-.24-.24-.99-.04-1.19,.62-.6,1.41-1.02,2.11-1.55,.27-.21,.46-.52,.69-.78-.36-.01-.8-.17-1.05,0-1.36,.86-2.65,1.84-4.01,2.7-.37,.23-.9,.2-1.35,.29-.54,.21-1.08,.42-1.62,.62,1.06-1.11,2.12-2.22,3.18-3.32,.25-.26,.53-.5,.81-.73,.61-.51,.61-.99,.05-1.56-.73-.73-1.4-1.51-2.09-2.27Z" style="fill:#484848;"/><path d="M175.98,32.46c-2.04,.97-4.22,1.24-6.43,1.16-.87-.03-1.8-.2-2.59-.55-2.49-1.11-4.99-2.22-7.37-3.54-2.64-1.48-5.07-1.42-7.49,.36-.12,.09-.28,.11-.44,.16,.26-1.87,2-3.3,3.96-3.06,2.6,.32,5.24,.6,7.76,1.29,3.6,.99,6.94,.66,10.22-1.01,.23-.12,.5-.16,.74-.24l.65-.33s-.02,.01-.02,.01c.22-.1,.44-.2,.66-.3h0c.21-.11,.42-.23,.63-.34,0,0-.02,.02-.02,.02,.11-.07,.21-.14,.32-.22,.07-.07,.16-.11,.26-.11,.12-.08,.25-.17,.37-.25,.04-.06,.1-.08,.18-.07,.16-.09,.32-.18,.48-.27h.02c.1,0,.21,0,.31,0,0,.1-.02,.19-.02,.29-.39,.73-.45,1.47-.25,2.29,.14,.56,.03,1.19,.03,1.77,.32,.07,.88,.01,1.06,.25,.37,.48,.13,.95-.43,1.25-.16,.08-.24,.32-.36,.49,0,0,0-.02,0-.02-.23,.11-.45,.23-.68,.34,0,0,.04-.01,.04-.01-.53-.36-1.06-.71-1.56-1.06-.76,.63-.36,1.16-.03,1.69Z" style="fill:#474747;"/><path d="M178.15,25.47c0-.1,.01-.19,.02-.29,.09-.13,.19-.25,.28-.38,.6-.32,1.2-.63,1.79-.95,.14-.3,.28-.61,.43-.91,.21-.31,.42-.62,.62-.94,.19,1.97,2.25,1.45,3.47,2.42-.92,.36-2.17-.26-2.09,1.51-1.58-1.5-3.05-.97-4.52-.46Z" style="fill:#393939;"/><path d="M181.3,22c-.21,.31-.42,.62-.62,.94-.22-.12-.43-.23-.65-.35-.41-.41-.83-.82-1.24-1.23,.31,0,.63,0,.94,0,.52,.21,1.05,.43,1.57,.64Z" style="fill:#232323;"/><path d="M118.91,17.27c.84-.42,1.68-.84,2.52-1.26,.42-.05,.83-.09,1.25-.15,2.49-.37,4.91-.2,7.25,.8h.11s.11,0,.11,0c.76,.43,1.52,.85,2.28,1.28,.22,.1,.43,.2,.65,.3,0,0,0,0,0,0,.11,.08,.23,.16,.34,.24,.05,.07,.12,.11,.21,.12,.14,.08,.28,.16,.41,.25,0,0,0,0,0,0,.1,.09,.21,.17,.31,.26,2.39,1.85,4.37,4.05,5.89,6.63-.07,.12-.15,.24-.22,.35l-2.84-.6c-3.27-1.43-6.68-2.31-10.24-2.55-1.25-.08-2.5-.33-3.74-.27-3.59,.18-7.18,.47-10.77,.71-.75,.05-1.76,.43-1.38-1.04,1.1-.08,2.14-.29,2.85-1.26,1.03-.85,2.07-1.71,3.1-2.56,0,0,0,0,0,0,.11-.1,.22-.2,.34-.3,.1,0,.2-.02,.3-.03,.11-.1,.21-.19,.32-.29,0,0,0,0,0,0,.11-.11,.21-.21,.32-.32,0,0,0,0,0,0,.21-.11,.42-.22,.63-.33Zm3.95,.09c-2.42,.36-4.98,2.07-5.7,3.77,1.36-.08,2.66-.13,3.95-.26,.29-.03,.69-.31,.8-.57,.36-.9,.61-1.85,.95-2.94Zm9.46,2.15c-.18,.07-.37,.14-.55,.21,.1,.77-.07,1.92,.36,2.22,.94,.65,2.16,.95,3.32,1.13,.07-.14,.13-.27,.2-.41-1.11-1.05-2.22-2.11-3.33-3.16Zm-6.12-2.11c-.74-.43-1.4-.62-1.8,.22-.33,.7-.58,1.47-.72,2.23-.05,.28,.31,.64,.48,.97,.26-.2,.62-.35,.75-.61,.45-.88,.83-1.8,1.28-2.81Zm3.45,4.42c.93-1.23,1-2.16,.48-3.17-.34-.66-.86-.84-1.53-.87,.36,1.4,.67,2.58,1.05,4.04Z" style="fill:#070707;"/><path d="M178.79,21.36c.41,.41,.83,.82,1.24,1.23-.23,.03-.45,.06-.68,.09-.39,0-.77-.02-1.16-.03-2.08-.11-4.16-.26-6.24-.33-3.78-.12-7.47,.58-11.14,1.35-2.23,.46-4.41,1.18-6.61,1.78,0,0,0,0,0,0-.19-.08-.39-.17-.58-.25,.08-.24,.17-.49,.25-.73,0-.18,0-.35,0-.53,.07-.2,.08-.45,.21-.59,1.43-1.48,2.79-3.06,4.37-4.37,1.72-1.42,3.52-2.93,5.91-3.04,2.08-.09,4.17,.04,6.25,.08,3.32,.88,5.74,3.14,8.2,5.34Zm-11.38-3.72c.43,.63,1.01,1.21,1.25,1.91,.37,1.1,.98,.99,1.89,.64-.11-1.31-.76-2.23-1.78-2.94-1.22-.63-2.41-.2-3.63,.03-1.12,.21-1.81,.81-1.93,1.92-.06,.56-.06,1.56,.16,1.63,1.02,.33,.92-.69,1.12-1.25,.7-1.91,1.01-2.14,2.93-1.95Zm4.22-.05c-.09,.11-.18,.23-.27,.34,.99,2.86,1.51,3.2,4.38,2.55-1.5-1.06-2.8-1.97-4.11-2.89Zm-10.38,1.25c-1.62,.89-2.62,2.06-3.7,3.63q3.52-.72,3.7-3.63Z" style="fill:#070707;"/><path d="M146.36,15.66c.19,.72,.5,1.42,.56,2.15,.35,3.81,.67,7.62,.94,11.44,.16,2.25,.19,4.5,.31,6.75,.08,1.55-.69,2.7-1.64,3.79-.65,.74-1.35,.67-2.07,.11-1.23-.97-1.65-2.24-1.47-3.76,.32-2.81,.58-5.63,.93-8.44,.38-3.02,.8-6.03,1.26-9.03,.15-1.01,.47-1.99,.72-2.98,.16,0,.32-.01,.47-.02Z" style="fill:#434343;"/><path d="M170.59,16.01c-2.08-.03-4.17-.17-6.25-.08-2.39,.11-4.19,1.62-5.91,3.04-1.58,1.3-2.93,2.89-4.37,4.37-.13,.14-.14,.39-.21,.59-.61-1.33-.51-2.66,.09-3.93,.64-1.36,1.4-2.67,2.11-4,.54-.21,1.08-.42,1.62-.62,0,0,0,0,0,0,.46-.09,.99-.06,1.35-.29,1.36-.86,2.65-1.84,4.01-2.7,.25-.16,.7,0,1.05,0-.23,.26-.42,.57-.69,.78-.69,.53-1.48,.95-2.11,1.55-.2,.19-.18,.94,.04,1.19,.44,.5,.84,.17,1.02-.36,.18-.54,.47-.68,1.06-.6,1.38,.2,2.78,.25,4.16,.45,1.02,.14,2.02,.41,3.02,.63Z" style="fill:#3a3a3a;"/><path d="M129.92,16.66c-2.33-1-4.76-1.17-7.25-.8-.41,.06-.83,.1-1.25,.15,.31-.18,.63-.51,.94-.51,2.32,.03,4.62-.53,6.98,0,1.31,.3,2.62,1.14,4.06,.5,.12,.2,.25,.39,.37,.59,.06-.07,.12-.14,.19-.2-.19-.13-.37-.26-.56-.39-1.34-1.65-3.23-2.42-5.15-3.03-.63-.2-1.07-.31-1.1-1.02,1.82,.43,3.65,.85,5.46,1.28,.67,.76,1.41,1.59,2.26,2.55,.24-.53,.36-.8,.48-1.07,2.15,2,3.27,4.6,4.44,7.18-.1,.09-.21,.19-.31,.28-1.07-.9-2.15-1.8-3.22-2.7-.43-.3-.86-.6-1.29-.91h-.01c-.2-.12-.4-.23-.6-.35h0c-.21-.1-.43-.19-.64-.29h-.01c-.19-.14-.37-.28-.56-.42l-1.95-.9c-.42,.01-.85,.03-1.27,.04Z" style="fill:#3d3d3d;"/><path d="M154.19,25.45c2.2-.6,4.38-1.31,6.61-1.78,3.67-.76,7.36-1.46,11.14-1.35,2.08,.07,4.16,.22,6.24,.33-1.5,.16-3.01,.31-4.51,.49-5.92,.72-11.84,1.46-17.77,2.18-.57,.07-1.14,.08-1.72,.12Z" style="fill:#454545;"/><path d="M140.03,41.2c-.43-.3-.86-.61-1.29-.91,.19-.3,.48-.57,.55-.89,.66-2.86,1.26-5.73,1.92-8.59,.61-2.65,.43-2.98-2.11-3.62q.71-.43,2.97,.31c.65-3.31,1.3-6.59,1.95-9.88,.11,0,.22,0,.32,0,0,.53,.1,1.08-.01,1.59-.94,4.3-1.94,8.59-2.87,12.89-.54,2.51-1.03,5.03-1.49,7.55-.09,.5,.03,1.03,.06,1.55Z" style="fill:#aeaeae;"/><path d="M152,40.59c-.42,.32-.83,.64-1.25,.96-.38-3.48-.75-6.96-1.15-10.44-.34-2.91-.71-5.81-1.07-8.71-.2-1.64-.4-3.29-.6-4.93,.14-.02,.28-.04,.41-.06,.17,1.2,.34,2.39,.5,3.59,.3,2.28,.61,4.56,.89,6.84,.08,.62,.27,1.01,.98,.76l.05,.04c-.77,1.12-.63,2.32-.42,3.59,.38,2.3,.59,4.64,.95,6.95,.08,.5,.47,.95,.71,1.42Z" style="fill:#acacac;"/><path d="M187.94,41.26c-.36,.55-.71,1.11-1.09,1.65-.36,.51-.75,.99-1.13,1.48-.63,.31-1.26,.63-1.9,.94l-1.89,.31c-1.05-.09-2.11-.18-3.16-.27-.31-.01-.63-.02-.94-.04,0-.09,0-.19,0-.28,1.44-.11,2.9-.15,4.33-.34,2.4-.32,4.1-1.89,5.79-3.44Z" style="fill:#5f5f5f;"/><path d="M141.9,8.78c.11-.22,.22-.44,.33-.65,.95,1.88,1.69,3.81,1.51,6-.61-1.78-1.22-3.56-1.84-5.35Z" style="fill:#b2b2b2;"/><path d="M146.64,43.31c.67-1.33,1.55-2.11,3.35-2.02-1.22,.74-2.19,1.32-3.35,2.02Z" style="fill:#b5b5b5;"/><path d="M175.98,32.46c-.33-.53-.73-1.06,.03-1.69,.51,.34,1.03,.7,1.56,1.06-.53,.21-1.06,.42-1.59,.64Z" style="fill:#505050;"/><path d="M149.17,11.3c-.18,.62-.36,1.25-.63,2.2-.46-1.36-.04-2.28,.25-3.21,.12,.34,.25,.67,.37,1.01Z" style="fill:#b9b9b9;"/><path d="M150.71,28.59c.2-1.02,.78-1.64,1.96-1.6-.64,.55-1.28,1.09-1.92,1.64l-.05-.04Z" style="fill:#acacac;"/><path d="M179.35,22.68c.23-.03,.45-.06,.68-.09,.22,.12,.43,.23,.65,.35l-.43,.91c.24-.8-.51-.85-.9-1.17Z" style="fill:#505050;"/><path d="M153.6,25.2c.19,.08,.39,.17,.58,.25-.41,.12-.82,.24-1.23,.35-.05-.1-.1-.2-.15-.31,.26-.21,.51-.42,.77-.63,0,.11,.02,.22,.02,.33Z" style="fill:#454545;"/><path d="M149.17,11.3c-.12-.34-.25-.67-.37-1.01,.1-.22,.21-.43,.31-.65,.11,.22,.22,.44,.33,.65-.09,.33-.17,.67-.26,1Z" style="fill:#898989;"/><path d="M134.96,18.56c.43,.3,.86,.6,1.29,.91-.43-.3-.86-.6-1.29-.91Z" style="fill:silver;"/><path d="M133.14,17.51c.19,.14,.37,.27,.56,.41-.21,.1-.41,.2-.62,.31-.22-.1-.43-.2-.65-.3,.24-.14,.47-.28,.71-.42Z" style="fill:silver;"/><path d="M149.47,8.44c-.1,.32-.19,.63-.29,.95,.1-.32,.19-.63,.29-.95Z" style="fill:#898989;"/><path d="M156.32,6.6c.23,.21,.46,.42,.69,.63-.23-.21-.46-.42-.69-.63Z" style="fill:#484848;"/><path d="M176.26,26.07c-.21,.11-.42,.23-.63,.34,.21-.11,.42-.23,.63-.34Z" style="fill:#505050;"/><path d="M175.63,26.41c-.22,.1-.44,.2-.66,.3,.22-.1,.44-.2,.66-.3Z" style="fill:#505050;"/><path d="M177.53,31.83c.23-.11,.45-.23,.68-.34-.23,.11-.45,.23-.68,.34Z" style="fill:#505050;"/><path d="M174.99,26.69c-.22,.11-.44,.22-.65,.33,.22-.11,.44-.22,.65-.33Z" style="fill:#505050;"/><path d="M149.78,9.7c.11-.21,.22-.41,.33-.62-.11,.21-.22,.41-.33,.62Z" style="fill:#898989;"/><path d="M134.35,18.21c.2,.11,.4,.23,.6,.34-.2-.11-.4-.23-.6-.34Z" style="fill:silver;"/><path d="M178.45,24.8c-.09,.13-.19,.25-.28,.38-.1,0-.21-.01-.31-.02,.2-.12,.39-.24,.59-.36Z" style="fill:#505050;"/><path d="M153.6,25.2c0-.11-.02-.22-.02-.33,.09-.13,.18-.27,.27-.4-.08,.24-.17,.49-.25,.73Z" style="fill:#3a3a3a;"/><path d="M133.71,17.93c.21,.1,.43,.19,.64,.29-.21-.1-.43-.19-.64-.29Z" style="fill:silver;"/><path d="M134.36,19.09c-.1-.09-.21-.17-.31-.26,.1,.09,.21,.17,.31,.26Z" style="fill:silver;"/><path d="M134.04,18.83c-.14-.08-.28-.16-.41-.25,.14,.08,.28,.16,.41,.25Z" style="fill:silver;"/><path d="M156.99,7.22c.11,.1,.23,.21,.34,.31-.11-.1-.23-.21-.34-.31Z" style="fill:#484848;"/><path d="M157.33,7.52c.11,.1,.23,.19,.34,.29-.11-.1-.23-.19-.34-.29Z" style="fill:#484848;"/><path d="M157.67,7.81c.1,.1,.21,.21,.31,.31-.1-.1-.21-.21-.31-.31Z" style="fill:#484848;"/><path d="M176.55,25.87c-.11,.07-.21,.14-.32,.22,.11-.07,.21-.14,.32-.22Z" style="fill:#505050;"/><path d="M177.19,25.51c-.12,.08-.25,.17-.37,.25,.12-.08,.25-.17,.37-.25Z" style="fill:#505050;"/><path d="M177.84,25.17c-.16,.09-.32,.18-.48,.27,.16-.09,.32-.18,.48-.27Z" style="fill:#505050;"/><path d="M149.51,10.09c.09-.13,.18-.26,.26-.39-.09,.13-.18,.26-.26,.39Z" style="fill:#898989;"/><path d="M133.41,18.47c-.11-.08-.23-.16-.34-.24,.11,.08,.23,.16,.34,.24Z" style="fill:silver;"/><path d="M145.09,52.2c.09,.07,.18,.08,.29,.05,.77-.09,1.55-.29,2.31-.25,2.95,.16,5.91,.36,8.85,.63,.53,.05,1.01,.55,1.55,.86,.04-.13,.12-.37,.2-.61h0c3.15,.64,6.29,1.27,9.44,1.91-.14,.76-.19,1.55-.43,2.27-.57,1.69-1.22,3.35-1.84,5.02-1.96-.34-3.91-.82-5.88-.99-4.06-.34-8.14-.69-12.21-.68-3.91,0-7.81,.44-11.72,.69-.28-.2-.79-.38-.82-.62-.3-2.42-.53-4.85-.78-7.28,3.68-.34,7.36-.67,11.04-1.01Zm-9.48,6.35c.21,.11,.42,.21,.63,.32h.32c.65,.41,1.28,.87,1.97,1.22,.33,.17,1.06,.26,1.11,.16,.48-1.03,1.45-1.24,2.33-1.67,.28-.13,.54-.75,.47-1.09-.21-1.11,.07-2,1.02-2.79-.93-.8-1.91-.46-2.8-.55h-5.04c-.11,.11-.21,.21-.32,.32v3.78c.11,.11,.21,.21,.32,.32Zm11.34-1.85c-.1,.91-.05,2.06,1.22,2.53,1.75,.66,3.57,1.15,5.44,.79,.91-.17,1.55-.89,1.75-1.83,.18-.81,.28-1.65,.35-2.48,.08-.88-.31-1.53-1.19-1.79-1.89-.57-3.77-.7-5.68-.06-1.88,.63-1.89,.59-1.9,2.84Z" style="fill:#fcfcfc;"/><path d="M133.4,61.37l-8.8,1.92c-.32,.11-.64,.21-.96,.32h0c-.17-.26-.41-.5-.49-.78-.46-1.75-.93-3.51-1.3-5.28-.1-.46,.15-.99,.23-1.49,2.73-.73,5.45-1.47,8.18-2.2,.53-.11,1.05-.22,1.58-.32,0,0,0,0,0,0,.67,.05,1.4-.02,1.52,.94,.21,1.65,.45,3.29,.64,4.93,.09,.72,.12,1.47-.6,1.96Z" style="fill:#fdfdfd;"/><path d="M180.37,60.45c-.44,1.61-.92,3.21-1.31,4.83-.27,1.17-.77,2.13-1.85,2.73h0c-.14,.09-.28,.17-.43,.26-2.3,.87-4.59,1.77-7.12,1.6,.12-1.46,.23-2.91,.35-4.37,.21-.38,.43-.77,.75-1.36,1.22,.88,2.31,1.67,3.46,2.49,.27-.98-.65-1.26-1.11-1.79h0c1.37-2.2,2.73-4.41,4.1-6.62h0c.21,0,.42,0,.64,0,.96,.6,2.35,.72,2.53,2.22Z" style="fill:#fbfbfb;"/><path d="M169.97,63.58c-1.17-.4-2.34-.8-3.51-1.2,.08-.5,.11-1.02,.25-1.51,.55-1.91,1.13-3.82,1.7-5.72,2.67,.14,5.13,1.03,7.53,2.15,.94,.74,.36,1.46-.03,2.2-.94,1.79-1.87,3.58-2.81,5.36h0c-1.05-.43-2.09-.85-3.14-1.28Z" style="fill:#fbfbfb;"/><path d="M122.71,63.95c-.11,.09-.23,.18-.34,.27-.32,.1-.64,.2-.96,.29l-.63,.33s0,0,0,0c-1,.53-2.01,1.07-3.2,1.7-1.15-2.35-2.42-4.66-2.75-7.35l5.65-2.57c.25,.31,.65,.58,.74,.93,.54,2.12,1.01,4.26,1.5,6.39Z" style="fill:#fcfcfc;"/><path d="M139.08,75.88c-1.28,.33-2.54,.72-3.84,.96-2,.38-3.39,1.66-4.78,2.98-.3,.29-.53,.74-.89,.86-1.49,.52-1.98,1.85-2.42,3.09-.35,1.01-.76,1.88-1.52,2.63-.26,.26-.29,.75-.43,1.13-.63,.74-1.26,1.48-1.89,2.21,1.29-4.69,3.82-8.6,7.59-11.63,2.36-1.9,5.19-2.44,8.17-2.23Z" style="fill:#1d1d1d;"/><path d="M121.41,64.51c.32-.1,.64-.2,.96-.29-.42,1.13,.58,1.42,1.18,1.9,.69,.56,1.47,.98,1.41,2.07-.07,1.13-.45,1.63-1.58,1.69-.87,.05-1.75-.03-2.63-.06,.02-1.55,.04-3.1,.05-4.65,0-.11,0-.22-.01-.33h0c.21-.11,.42-.22,.63-.33Z" style="fill:#828282;"/><path d="M170.01,65.51c-.12,1.46-.23,2.91-.35,4.37-.42,.03-.85,.15-1.25,.06-.56-.12-1.4-.25-1.55-.62-.33-.81-.29-1.74,.63-2.36,.84-.57,1.63-1.21,2.44-1.82,.03,.12,.05,.24,.08,.36Z" style="fill:#828282;"/><path d="M133.4,61.37c.73-.49,.69-1.24,.6-1.96-.19-1.65-.44-3.29-.64-4.93-.12-.96-.85-.89-1.52-.94,.43-.12,.85-.25,1.28-.37,.19,0,.37,0,.56-.01,.12,.02,.25,.03,.37,.05,.25,2.43,.48,4.86,.78,7.28,.03,.24,.53,.41,.82,.62-.75,.09-1.5,.18-2.25,.27Z" style="fill:#b3b3b3;"/><path d="M122.71,63.95c-.49-2.13-.96-4.27-1.5-6.39-.09-.35-.49-.62-.74-.93l.96-.56h.02c.21-.01,.42,0,.63,0-.09,.5-.33,1.03-.23,1.49,.37,1.77,.84,3.53,1.3,5.28,.08,.28,.32,.52,.49,.78-.31,.11-.62,.23-.93,.34Z" style="fill:#b9b9b9;"/><path d="M168.41,55.15c-.57,1.91-1.15,3.81-1.7,5.72-.14,.49-.17,1.01-.25,1.51l-1-.31c.62-1.67,1.28-3.33,1.84-5.02,.24-.72,.29-1.51,.43-2.27,.11,0,.21,0,.32-.01h0c.12,.13,.24,.26,.36,.38Z" style="fill:#cbcbcb;"/><path d="M170.01,65.51c-.03-.12-.05-.24-.08-.36l.04-1.56c1.05,.42,2.09,.84,3.14,1.27,.46,.53,1.38,.81,1.11,1.79-1.14-.83-2.24-1.61-3.46-2.49-.33,.59-.54,.98-.75,1.36Z" style="fill:#c1c1c1;"/><path d="M116.71,69.23l1.02,.31-1.02-.31Z" style="fill:#1d1d1d;"/><path d="M123.64,63.61c.32-.11,.64-.21,.96-.32-.32,.11-.64,.21-.96,.32Z" style="fill:#b9b9b9;"/><path d="M116.07,68.99c.22,.08,.44,.17,.66,.25-.22-.08-.44-.17-.66-.25Z" style="fill:#1d1d1d;"/><path d="M176.78,68.27c.14-.09,.28-.17,.43-.26-.14,.09-.28,.17-.43,.26Z" style="fill:#272727;"/><path d="M177.83,45.32c.31,.01,.63,.02,.94,.04,.42,.16,.84,.32,1.27,.49-.89,.38-1.65,.3-2.21-.52Z" style="fill:#272727;"/><path d="M168.41,55.15c-.12-.12-.24-.25-.36-.37,.31-.51,.72-.98,.91-1.53,.34-.98,.9-1.45,1.97-1.35,.83,.08,1.67,.12,2.5,.03,1.39-.14,2.76-.4,4.14-.58,.5-.06,1-.04,1.5-.06v3.53c1.25-1.51,2.1-3.47,4.4-3.53-.02,.08-.02,.17,0,.25-1.04,2.96-2.07,5.92-3.11,8.89-.18-1.5-1.56-1.62-2.53-2.22-.21,0-.42,0-.64,0h0c-.42-.31-.84-.62-1.26-.93-2.4-1.11-4.85-2-7.53-2.15Z" style="fill:#8f8f8f;"/><path d="M121.44,56.06l-.96,.56-5.65,2.57c-.1-.01-.21,0-.31,0l-.09-.07c-.91-1.97-1.54-4.01-1.49-6.21,.69-2.05,.68-2.02,2.72-1.22,1.11,.44,2.23,.87,3.39,1.13,.84,.19,1.22,.57,1.45,1.37,.19,.65,.61,1.24,.93,1.86Z" style="fill:#8b8b8b;"/><path d="M158.3,52.88c-.08,.24-.16,.48-.2,.61-.54-.31-1.03-.81-1.55-.86-2.94-.28-5.9-.48-8.85-.63-.76-.04-1.54,.16-2.31,.25,.05-.15,.14-.29,.15-.44,.18-2.39-.21-2.45,2.87-2.39,2.61,.05,5.23,.23,7.84,.39,.61,.04,1.21,.26,1.72,.37,.13,1,.24,1.85,.35,2.7Z" style="fill:#858585;"/><path d="M122.09,56.05c-.21,0-.42,0-.63,0-.51-2.73-.51-2.71,2.19-3.26,2.41-.49,4.8-1.05,7.21-1.5,2.15-.4,2.16-.34,2.26,1.86-.43,.12-.85,.25-1.28,.37,0,0,0,0,0,0-.53,.11-1.05,.22-1.58,.32-2.73,.73-5.45,1.47-8.18,2.2Z" style="fill:#898989;"/><path d="M134.05,53.2c-.12-.02-.25-.03-.37-.05-.29-2.29-.29-2.35,1.99-2.69,2.64-.39,5.3-.66,7.96-.96,1.15-.13,1.35,.07,1.43,1.28,.03,.47,.02,.94,.03,1.42-3.68,.34-7.36,.67-11.04,1.01Z" style="fill:#8a8a8a;"/><path d="M168.06,54.78c-.11,0-.21,0-.32,.01-3.15-.63-6.29-1.27-9.44-1.9,.05-.15,.12-.29,.16-.44,.54-2.18,.67-2.29,2.93-2.03,1.96,.23,3.93,.46,5.87,.8,1.44,.25,1.62,.66,1.23,2.06-.14,.5-.29,1-.43,1.5Z" style="fill:#8a8a8a;"/><path d="M114.52,59.2c.1-.02,.21-.02,.31,0,.34,2.69,1.6,5,2.75,7.35,1.2-.64,2.2-1.17,3.2-1.7,0,.11,0,.22,.01,.33-1.06,.84-2.11,1.68-3.4,2.7-1.1-2.72-2.18-5.37-3.25-8.02,.12-.22,.25-.43,.37-.65Z" style="fill:#b7b7b7;"/><path d="M113.53,60.07c.12-.08,.23-.16,.35-.25-.12,.08-.23,.16-.35,.25Z" style="fill:#b7b7b7;"/><path d="M187.31,45.01c-.11,.32-.21,.64-.32,.96,.11-.32,.21-.64,.32-.96Z" style="fill:#414141;"/><path d="M187.29,44.37c.11,0,.22,0,.33,.01-.1,.21-.2,.43-.3,.64-.01-.22-.02-.44-.03-.65Z" style="fill:#585858;"/><path d="M186.93,46.26c-.08,.23-.16,.46-.23,.69,.08-.23,.16-.46,.23-.69Z" style="fill:#414141;"/><path d="M187.62,44.39c.1-.32,.2-.64,.3-.96-.1,.32-.2,.64-.3,.96Z" style="fill:#585858;"/><polygon points="128.99 10.96 128.94 11.01 128.99 10.97 128.99 10.96" style="fill:#2b2b2b;"/><path d="M118.91,17.27c-.21,.11-.42,.22-.63,.33,.21-.11,.42-.22,.63-.33Z" style="fill:#383838;"/><path d="M117.35,18.22c-.11,.1-.22,.2-.34,.3,.11-.1,.22-.2,.34-.3Z" style="fill:#383838;"/><path d="M117.97,17.9c-.11,.1-.21,.19-.32,.29,.11-.1,.21-.19,.32-.29Z" style="fill:#383838;"/><path d="M118.29,17.59c-.11,.11-.21,.21-.32,.32,.11-.11,.21-.21,.32-.32Z" style="fill:#383838;"/><path d="M122.86,17.37c-.34,1.09-.59,2.03-.95,2.94-.1,.26-.51,.54-.8,.57-1.29,.13-2.59,.18-3.95,.26,.71-1.7,3.28-3.41,5.7-3.77Z" style="fill:#ececec;"/><path d="M132.33,19.52c1.11,1.05,2.22,2.11,3.33,3.16-.07,.14-.13,.27-.2,.41-1.16-.18-2.38-.48-3.32-1.13-.43-.3-.26-1.45-.36-2.22,.18-.07,.37-.14,.55-.21Z" style="fill:#e2e2e2;"/><path d="M126.2,17.41c-.45,1.01-.83,1.93-1.28,2.81-.14,.26-.5,.41-.75,.61-.17-.32-.53-.68-.48-.97,.14-.76,.39-1.53,.72-2.23,.4-.84,1.07-.65,1.8-.22Z" style="fill:#8a8a8a;"/><path d="M129.65,21.83c-.38-1.46-.68-2.64-1.05-4.04,.67,.03,1.19,.21,1.53,.87,.52,1.01,.45,1.94-.48,3.17Z" style="fill:#7c7c7c;"/><path d="M133.14,17.51c-.24,.14-.47,.28-.71,.42-.76-.43-1.52-.85-2.28-1.28,.35-.01,.69-.02,1.04-.03l1.95,.9Z" style="fill:#8a8a8a;"/><path d="M131.19,16.61c-.35,.01-.69,.02-1.04,.03l-.11,.02h-.11c.42-.02,.85-.04,1.27-.05Z" style="fill:#494949;"/><path d="M167.4,17.64c-1.92-.19-2.23,.04-2.93,1.95-.2,.56-.1,1.58-1.12,1.25-.21-.07-.22-1.08-.16-1.63,.13-1.11,.82-1.71,1.93-1.92,1.22-.23,2.41-.66,3.63-.03-.45,.13-.9,.26-1.35,.39Z" style="fill:#858585;"/><path d="M171.62,17.59c1.3,.92,2.61,1.84,4.11,2.89-2.87,.65-3.4,.31-4.38-2.55,.09-.11,.18-.23,.27-.34Z" style="fill:#e1e1e1;"/><path d="M161.25,18.84q-.18,2.91-3.7,3.63c1.08-1.57,2.08-2.74,3.7-3.63Z" style="fill:#e4e4e4;"/><path d="M167.4,17.64c.45-.13,.9-.26,1.35-.39,1.02,.71,1.68,1.63,1.78,2.94-.9,.34-1.51,.45-1.89-.64-.24-.7-.82-1.28-1.25-1.91Z" style="fill:#898989;"/><path d="M133.4,16.01c.19,.13,.37,.26,.56,.39-.06,.07-.12,.14-.19,.2-.12-.2-.25-.39-.37-.59,0,0,0,0,0,0Z" style="fill:#494949;"/><path d="M146.95,56.7c0-2.26,.02-2.21,1.9-2.84,1.92-.64,3.8-.51,5.68,.06,.88,.27,1.26,.91,1.19,1.79-.07,.83-.18,1.66-.35,2.48-.2,.94-.84,1.66-1.75,1.83-1.88,.36-3.7-.13-5.44-.79-1.27-.48-1.31-1.62-1.22-2.53Z" style="fill:#fdfdfd;"/><path d="M136.55,58.87h-.32c-.21-.11-.42-.21-.63-.32-.11-.11-.21-.21-.32-.32v-3.78c.11-.11,.21-.21,.32-.32h5.04c1.27,1.9,.86,4.12-.95,4.91-.38,.17-.88,.13-1.31,.09-.61-.05-1.22-.18-1.83-.28Z" style="fill:#fdfdfd;"/><path d="M136.55,58.87c.61,.1,1.22,.23,1.83,.28,.44,.03,.93,.07,1.31-.09,1.82-.79,2.22-3.01,.95-4.91,.89,.09,1.87-.25,2.8,.55-.94,.79-1.23,1.68-1.02,2.79,.06,.33-.19,.95-.47,1.09-.88,.43-1.86,.64-2.33,1.67-.05,.1-.78,0-1.11-.16-.69-.35-1.32-.8-1.97-1.22Z" style="fill:#fdfdfd;"/><path d="M135.61,58.55c.21,.11,.42,.21,.63,.32-.21-.11-.42-.21-.63-.32Z" style="fill:#fdfdfd;"/><path d="M135.29,58.24c.11,.11,.21,.21,.32,.32-.11-.11-.21-.21-.32-.32Z" style="fill:#fdfdfd;"/><path d="M135.61,54.14c-.11,.11-.21,.21-.32,.32,.11-.11,.21-.21,.32-.32Z" style="fill:#fdfdfd;"/><path d="M130.26,53.85c.53-.11,1.05-.22,1.58-.32-.53,.11-1.05,.22-1.58,.32Z" style="fill:#b3b3b3;"/><path d="M175.94,57.3c.42,.31,.84,.62,1.26,.93-1.37,2.21-2.73,4.42-4.1,6.63,.94-1.79,1.87-3.58,2.81-5.36,.38-.73,.97-1.45,.03-2.2Z" style="fill:#cdcdcd;"/><path d="M177.2,58.23c.21,0,.42,0,.64,0-.21,0-.42,0-.64,0Z" style="fill:#cdcdcd;"/><path d="M121.41,64.51l-.63,.33,.63-.33Z" style="fill:#b7b7b7;"/></svg>