<?xml version="1.0" encoding="UTF-8"?><svg id="Layer_1" xmlns="http://www.w3.org/2000/svg" viewBox="0 0 200 100"><path d="M117.28,102.66h-10.43c0-.44,0-.88,.01-1.33,.18-.87,.08-1.76,.11-2.63,.04-.19,.11-.38,.12-.57,.18-3.16,.73-6.25,1.41-9.33,.31-1.4,.58-2.81,.87-4.22,.24-1.02,.61-2.01,.72-3.06,.02-.05,.03-.1,.05-.15,.42-.19,.41-.55,.35-.93h0c.6-.16,.42-.74,.6-1.12,.88-1.84,1.64-3.74,2.47-5.61,1.06-2.4,2.17-4.78,3.2-7.2,1.58-3.71,3.4-7.32,4.83-11.1,.59-1.55,1.22-3.08,1.68-4.67,.57-1.99,1.05-4,1.44-6.03,.38-1.96,.66-3.94,.65-5.94,0-.85-.08-1.7-.14-2.55-.14-1.97-.46-3.9-1.05-5.8-.3-.97-.86-1.87-.91-2.92,.78-.28,1.36-.73,1.48-1.63,.16-1.23,.05-2.44-.22-3.64-.11-.49-.38-.7-.89-.6-.6,.11-1.21,.2-1.81,.26-2.68,.27-5.38,.16-8.07,.24-.24,0-.44-.02-.52-.28,.05-.03,.06-.07,.03-.12,.56-1.41,.97-2.86,1.36-4.32,.41-1.53,.86-3.05,.99-4.64,.03-.08,.07-.17,.1-.25,1.29-.02,2.59-.13,3.88-.04,2.84,.19,5.69,.44,8.32,1.59,4.51,1.97,8.38,4.8,11.07,9.02,.01,.12,.03,.24,.16,.29,0,0,0,0,0,0,.76,1.63,1.37,3.3,1.61,5.09,.06,1,.15,1.99,.19,2.99,.24,5.64-.8,11.04-2.9,16.27-2.07,5.15-4.86,9.92-7.84,14.58-3.12,4.88-6.41,9.66-9,14.86-2.06,4.14-4.02,8.32-5.5,12.71-.1,.31-.4,.85-.15,.92,.43,.12,.35-.5,.56-.76,.13-.01,.24-.06,.3-.18,.97-2.02,2.24-3.86,3.31-5.82,1.08-1.97,2.3-3.85,3.54-5.71,2.26-3.39,4.86-6.53,7.43-9.68,2.58-3.17,4.9-6.51,6.67-10.19,1.56-3.24,2.98-6.56,3.92-10.05,.84-3.12,1.52-6.25,1.42-9.51-.05-1.64-.2-3.27-.64-4.84-.15-.53-.12-1.21-.69-1.59-.19-1.3-.19-2.62-.24-3.93,.42,.13,.84,.25,1.26,.39,3.67,1.22,6.38,3.52,7.91,7.11,.4,.94,.68,1.92,1.01,2.89-.05,.12,0,.21,.07,.3l.12,.59c-.07,.15-.03,.29,.09,.4-.02,1.39-.04,2.78-.06,4.17-.15,.69-.18,1.38-.1,2.08-.01,.14-.02,.28-.03,.41-.16,.22-.11,.49-.16,.74,0,.1,0,.2,0,.3,0,.19,0,.38-.01,.57-.06,.18-.15,.36-.17,.55-.24,1.69-.64,3.35-1.12,4.99-.81,2.8-2.02,5.44-3.25,8.07-.25,.15-.33,.42-.46,.65-.99,1.75-2.11,3.4-3.29,5.02-2.24,3.07-5,5.68-7.52,8.5-4.6,5.18-8.9,10.58-12.67,16.4-2.08,3.2-3.99,6.5-5.48,10.02Z" style="fill:#e2e8f9;"/><path d="M90.1,102.66h-7.05c-.37-1.16-1.15-2.08-1.87-3.02-4.8-6.21-10.17-11.93-15.47-17.71-2.61-2.84-5.18-5.72-7.68-8.66-1.15-1.36-2.26-2.75-3.39-4.13-.98-1.51-1.96-3.01-2.94-4.52-.63-1.15-1.2-2.34-1.74-3.54-1.98-4.42-2.56-9.08-1.63-13.77,1.4-7.04,5.3-12.45,11.52-16.13,.09,.1,.13,.21,.09,.33-.36,1.12-.4,2.29-.67,3.43-.26-.02-.37,.17-.51,.35-1.34,1.83-2.05,3.91-2.45,6.11-.33,1.82-.14,3.66-.14,5.49,0,1.93,.25,3.86,.79,5.7,1,3.45,2.91,6.42,5.33,9.05,2.15,2.34,4.81,4.03,7.52,5.62,.43,.25,.93,.56,1.51,.39h0c-.02,.34,.2,.33,.43,.32,1.45,.9,2.75,2.06,4.45,2.67-.03-.16-.02-.23-.05-.25-.2-.14-.4-.28-.61-.4-3.29-1.84-6.08-4.26-8.26-7.34-2.15-3.03-3.68-6.39-4.99-9.85-1.73-4.57-2.74-9.27-2.75-14.17,0-2.55,.25-5.07,.87-7.55,.15-.97,.68-1.79,1.06-2.68,1.57-3.75,3.59-7.16,6.8-9.77,3.35-2.73,7.18-4.43,11.31-5.57,.96-.26,1.97-.38,2.9-.76,.18,0,.36-.02,.54-.03,.01,.11,.02,.22,.03,.33-.19,.17-.17,.32,.04,.45,.1,.24,.12,.48,.08,.74-.16,.32-.24,.62,.1,.88,.02,.15,.03,.29,.05,.44-.16,.31-.24,.62,.09,.88,.02,.19,.05,.39,.07,.58-.19,.22-.22,.43,.08,.59,.09,.19,.1,.38,.07,.58-.18,.22-.2,.42,.07,.59,.09,.19,.1,.38,.07,.59-.16,.26-.23,.52,.08,.74,.02,.15,.05,.29,.07,.44-.58,.91-1.61,1.12-2.47,1.61-.54-.04-1.08-.09-1.62-.13-.19-.14-.39-.17-.6-.08-.14-.02-.28-.04-.43-.06-.23-.14-.48-.17-.75-.1-.09-.02-.19-.03-.28-.05-.24-.11-.48-.17-.75-.1-.09-.01-.19-.02-.28-.04-.72-.24-1.47-.29-2.21-.42-.27-.05-.49,.04-.58,.32-.26,.85-.61,1.68-.64,2.59-.02,.09-.04,.19-.06,.28-.26,.78-.31,1.57-.13,2.37,.1,.44,.29,.88,.82,.92,.75,.06,1.5,.22,2.25,.11,0,0,0,.07,0,.07-.06,.21-.09,.43-.19,.63-.97,1.94-1.82,3.92-2.48,5.99-.93,2.91-1.19,5.91-1.31,8.93-.1,2.73,.54,5.4,1.1,8.05,.49,2.29,1.44,4.43,2.28,6.6,.9,2.34,1.87,4.65,3.02,6.87,.38,.74,.46,1.65,1.19,2.19,.06,.09,.12,.19,.18,.28-.05,.26,.06,.48,.15,.71,1.07,2.78,2.13,5.57,3.23,8.34,.38,.97,.65,1.99,1.23,2.87,.25,.68,.5,1.36,.75,2.04,.04,.21,.07,.43,.14,.63,.76,2.34,1.56,4.67,2.29,7.02,.52,1.67,.94,3.37,1.4,5.06,.02,.13,.05,.25,.07,.38-.08,.16-.08,.3,.07,.43,.07,.44,.15,.88,.22,1.32,0,.19,0,.38,.01,.57,.21,1.84,.44,3.67,.65,5.51,.03,.28,.15,.58-.07,.84Z" style="fill:#e2e8f9;"/><path d="M169.59,102.66h-21.74c-.11-4.91-.22-9.82-.33-14.82-.36,.18-.33,.37-.32,.53,0,1.03,0,2.05,.03,3.08,.07,3.74,.25,7.47,.19,11.21h-3.53c-.91-3.21-1.82-6.42-2.73-9.63-.11,.03-.21,.06-.32,.09,.25,.95,.5,1.9,.76,2.84,.61,2.24,1.23,4.47,1.85,6.7h-14.99c.02-.34,0-.69,.08-1.02,.42-1.98,.97-3.92,1.56-5.85,.52-1.67,1.02-3.35,1.69-4.96,.48-1.16,.98-2.33,1.46-3.5,.69-1.71,1.46-3.38,2.17-5.08,.63-1.5,1.39-2.94,2.11-4.4,.76-1.57,1.45-3.18,2.36-4.68,.31-.51,.72-1.01,.6-1.68,.11-.16,.21-.33,.33-.48,2.33-2.73,4.41-5.65,6.16-8.78,1.35,.44,2.6,1.11,3.82,1.82,2.15,1.23,3.99,2.87,5.79,4.55,.18,.23,.34,.48,.54,.69,3.53,3.96,5.86,8.59,7.38,13.62,1.03,3.41,1.83,6.9,2.75,10.34,.29,1.08,.47,2.19,.91,3.23,.47,1.79,.95,3.58,1.4,5.38,.06,.25,.31,.52,.04,.8Z" style="fill:#e2e8f9;"/><path d="M77.17,102.66h-18.36c-.15-.21-.13-.47-.14-.71-.07-3-.14-6.01-.21-9.01-.03-1.12-.05-2.25-.09-3.37,0-.16,.02-.36-.22-.39-.22,.13-.16,.34-.15,.52,.06,2.76,.13,5.52,.18,8.28,.03,1.56,.18,3.12,.04,4.68h-18.66c1.18-6.4,2.74-12.71,4.56-18.96,1.35-4.61,3.39-8.74,7.03-11.96,1.02-.9,2.01-1.84,3.25-2.44,.75,.96,1.46,1.96,2.25,2.89,2.22,2.63,4.48,5.23,6.72,7.84-.09,.39,.2,.64,.39,.91,1.85,2.65,3.65,5.33,5.4,8.04,.99,1.53,2.03,3.02,2.98,4.58,1.2,1.97,2.35,3.97,3.46,5.99,.56,1.02,1.24,1.98,1.57,3.12Z" style="fill:#e2e8f9;"/><path d="M101.56,102.66h-11.02c-.01-.59-.07-1.17-.12-1.75-.08-.99-.39-1.96-.19-2.96h0c.05-.05,.09-.09,.14-.13,.27-.06,.46-.25,.67-.42,2.62-2.1,5.24-4.2,7.86-6.29,.55,.05,.56,.58,.8,.9,.09,.11,.12,.3,.29,.3,.21,0,.26-.2,.31-.35,.23-.69,.45-1.38,.66-2.08,.12-.41,.28-.78,.65-1.01,.99-.62,1.98-1.24,2.96-1.87,1.43-.93,2.84-1.88,4.26-2.82,.07-.02,.15-.04,.22-.06,0,.16,.02,.32,.02,.48-.54,1.93-.92,3.89-1.32,5.85-.56,2.72-1.01,5.46-1.06,8.25-.05,.28,0,.6-.35,.74-.31,.19-.63,.36-.93,.57-1.29,.89-2.7,1.6-3.87,2.67Z" style="fill:#f0cd33;"/><path d="M140.47,71.49c.12,.67-.29,1.17-.6,1.68-.91,1.5-1.6,3.11-2.36,4.68-.71,1.46-1.48,2.9-2.11,4.4-.71,1.7-1.48,3.37-2.17,5.08-.47,1.16-.97,2.33-1.46,3.5-.67,1.61-1.17,3.29-1.69,4.96-.6,1.93-1.14,3.87-1.56,5.85-.07,.33-.05,.68-.08,1.02h-.59c-.13-2.52,.3-5,.65-7.47,.35-2.45,.96-4.86,1.46-7.28,.04-.19,.19-.43,.01-.55-.25-.17-.37,.14-.52,.27-1.73,1.58-3.27,3.35-4.72,5.19-1.89,2.4-3.73,4.85-5.48,7.37-.14,.2-.24,.44-.55,.41,.39-1.14,1.04-2.16,1.61-3.2,2.11-3.81,4.56-7.4,7.16-10.9,2.42-3.26,5.01-6.38,7.7-9.41,1.7-1.92,3.41-3.83,5.27-5.6Z" style="fill:#d2c9e3;"/><path d="M118.72,100.59c.31,.03,.41-.2,.55-.41,1.74-2.52,3.58-4.96,5.48-7.37,1.45-1.84,2.99-3.6,4.72-5.19,.15-.13,.27-.44,.52-.27,.18,.12,.03,.36-.01,.55-.5,2.43-1.12,4.84-1.46,7.28-.35,2.47-.78,4.95-.65,7.47h-10.14c.23-.74,.62-1.4,1-2.07Z" style="fill:#e2e8f9;"/><path d="M77.17,102.66c-.33-1.14-1.01-2.1-1.57-3.12-1.11-2.02-2.27-4.02-3.46-5.99-.95-1.56-1.99-3.05-2.98-4.58-1.75-2.71-3.55-5.39-5.4-8.04-.19-.27-.47-.52-.39-.91,.14,.13,.3,.24,.43,.38,1.77,1.95,3.52,3.92,5.31,5.85,2.87,3.1,5.73,6.2,8.4,9.47,1.83,2.24,3.79,4.4,5.24,6.94h-.59c0-.27-.18-.46-.34-.63-.82-.83-1.68-1.62-2.5-2.45-.61-.62-1.29-1.14-2.19-1.7,.42,1.71,1.08,3.18,1.22,4.77h-1.18Z" style="fill:#d2c9e3;"/><path d="M118.72,100.59c-.38,.67-.77,1.33-1,2.07h-.44c1.5-3.52,3.41-6.82,5.48-10.02,3.77-5.81,8.07-11.22,12.67-16.4,2.51-2.83,5.28-5.43,7.52-8.5,1.18-1.62,2.31-3.28,3.29-5.02,.13-.23,.21-.5,.46-.65,.09,.05,.17,.1,.26,.15-1.75,3.14-3.83,6.05-6.16,8.78-.13,.15-.22,.32-.33,.48-1.87,1.76-3.57,3.68-5.27,5.6-2.69,3.03-5.28,6.15-7.7,9.41-2.6,3.49-5.05,7.08-7.16,10.9-.58,1.05-1.22,2.06-1.61,3.2Z" style="fill:#897a84;"/><path d="M82.76,102.66c-1.45-2.54-3.4-4.69-5.24-6.94-2.67-3.27-5.53-6.37-8.4-9.47-1.79-1.93-3.54-3.9-5.31-5.85-.13-.14-.29-.26-.43-.38-2.24-2.61-4.5-5.21-6.72-7.84-.79-.93-1.5-1.92-2.25-2.89,.08-.05,.16-.1,.24-.15,1.13,1.38,2.23,2.77,3.39,4.13,2.5,2.94,5.07,5.82,7.68,8.66,5.3,5.78,10.67,11.5,15.47,17.71,.72,.94,1.5,1.85,1.87,3.02h-.29Z" style="fill:#897a84;"/><path d="M78.35,102.66c-.14-1.59-.79-3.06-1.22-4.77,.9,.56,1.58,1.08,2.19,1.7,.82,.83,1.68,1.62,2.5,2.45,.16,.16,.34,.36,.34,.63h-3.82Z" style="fill:#e2e8f9;"/><path d="M101.56,102.66c1.16-1.07,2.57-1.79,3.87-2.67,.3-.21,.62-.38,.93-.57,.27,.62,.3,1.25,.05,1.89-.69,.45-1.37,.9-2.06,1.35h-2.79Z" style="fill:#de8b38;"/><path d="M147.4,102.66c.06-3.74-.12-7.47-.19-11.21-.02-1.03-.02-2.05-.03-3.08,0-.16-.03-.35,.32-.53,.11,4.99,.22,9.9,.33,14.82h-.44Z" style="fill:#897a84;"/><path d="M58.22,102.66c.15-1.56,0-3.12-.04-4.68-.06-2.76-.13-5.52-.18-8.28,0-.18-.07-.4,.15-.52,.24,.04,.22,.23,.22,.39,.03,1.12,.06,2.25,.09,3.37,.07,3,.14,6.01,.21,9.01,0,.24-.02,.49,.14,.71h-.59Z" style="fill:#897a84;"/><path d="M143.43,102.66c-.62-2.23-1.23-4.47-1.85-6.7-.26-.95-.51-1.9-.76-2.84,.11-.03,.21-.06,.32-.09,.91,3.21,1.82,6.42,2.73,9.63h-.44Z" style="fill:#897a84;"/><path d="M90.23,97.95c-.2,1,.11,1.98,.19,2.96,.05,.58,.1,1.17,.12,1.75h-.44c.21-.26,.1-.56,.07-.84-.21-1.84-.43-3.67-.65-5.51-.02-.19,0-.38-.01-.57,.23-.02,.03,.49,.39,.31,0,.63,.07,1.25,.48,1.77-.05,.04-.09,.08-.14,.12,0,0-.02-.01-.02-.01l.02,.02Z" style="fill:#6b585c;"/><path d="M113.78,4.98c.13,.22,.32,.36,.55,.47,1.27,.62,1.65,1.46,1.47,2.86-.15,1.17-.18,2.35-.26,3.53-.02,.23,.05,.43,.17,.62,0,0-.02,.04-.02,.04-.03,.08-.07,.17-.1,.25-.27,.34-.51,.72-.5,1.15,.02,.79-.41,1.44-.58,2.17-.17,.75-.42,1.49-.61,2.24-.25,1.01-.27,2.07-.81,3-.1,.18-.06,.33,.15,.41,.03,.05,.02,.09-.03,.12-.31,.28-.17,.56,.14,.57,.71,.02,1.33,.44,2.06,.35,.59-.07,1.19-.04,1.78,.23,.46,.21,1.03,.31,1.53-.08,.2-.16,.45-.09,.69-.09,.58,0,1.14,.36,1.77,.01,.32-.17,.99-.16,1.21,.06,.48,.46,1.11,.89,1.27,1.57,.2,.86-1.06,2.52-1.96,2.68-1.05,.19-2.11,.28-3.17,.36-1.64,.12-3.25,.45-4.89,.56-.24,.02-.67,.09-.37,.55,.31,.82,.68,1.6,1.16,2.33,.92,2.03,2.34,3.73,3.69,5.5-.48-.18-.89-.44-1.33-.64-.87-.41-1.43-1.23-2.29-1.64-.04-.06-.07-.12-.13-.03,0,0,.05,.06,.07,.09,.77,2.12,1.95,4.04,3.13,6.17-.88-.59-1.07-.67-1.13-.56-.2,.38,.11,.69,.18,1.03,.03,.12,.09,.23,.12,.34,.94,2.9,1.73,5.84,2.21,8.86-1.35-1.91-2.19-4.12-3.69-5.97,.82,7.26-.43,14.39-1.03,21.54-.15,.62-.71,.98-.99,1.52-.36,.7-.72,1.41-1.27,2-.06-.08-.13-.15-.17-.23-2.01-3.94-3.08-8.16-3.69-12.51-.16-1.18-.24-2.38-.37-3.56-.02-.17,.03-.45-.21-.5-.22-.05-.32,.19-.42,.34-.31,.46-.6,.92-.9,1.38-.04-.01-.08-.03-.11-.04,.3-2.21,.6-4.42,.9-6.63,.31-1.25,.36-2.55,.54-3.82,.16,0,.27-.06,.29-.24,.02-.2-.08-.31-.28-.32,0-.16,0-.31,0-.47,.77-.04,.37-.63,.43-.97,.07-.39,.04-.8-.54-.78-.03-.5,0-.99,.12-1.47,.39-.05,.64-.4,.49-.65-.3-.51-.05-.94,.03-1.39,.09-.57,.16-1.12,.16-1.71,0-.78-.2-1.56,0-2.37,.11-.48,.04-1.16-.55-1.51-.02-.09-.04-.19-.06-.28,.25-.24,.24-.27-.15-.43-.05-.03-.06-.07-.05-.12,.4-.5,0-1.34-.7-1.46-.05-.1-.11-.2-.16-.3,.1-.05,.24-.1,.17-.23-.07-.14-.23-.1-.37-.1-1.02,0-2.03,0-3.05,0-.41-.37-.97,0-1.4-.26-.1-.06-.26-.04-.29-.19-.03-.15,.08-.23,.2-.26,.65-.18,1.15-.64,1.74-.91,1.46-.68,2.67-1.73,4.03-2.57,.62-.38,1.03-1.01,1.7-1.34,.27-.13,.38-.45,.31-.77-.08-.35-.39-.31-.66-.32-.69,0-1.37,0-2.06,0-.39,0-.62-.16-.35-.52,.35-.46,.49-1.01,.71-1.51,.33-.77,.89-1.4,1.23-2.14,.69-1.48,1.28-3.01,2.01-4.46,.23-.45,.22-.95,.45-1.36,.5-.91,.77-1.89,1.02-2.89,.37-1.45,.51-2.9,.06-4.36,.59,.02,1.18,.04,1.77,.06Z" style="fill:#1b1d2e;"/><path d="M123.25,27.5c.05,1.05,.61,1.95,.91,2.92,.59,1.9,.92,3.83,1.05,5.8,.06,.85,.13,1.7,.14,2.55,0,2-.27,3.99-.65,5.94-.39,2.03-.87,4.05-1.44,6.03-.46,1.59-1.09,3.12-1.68,4.67-1.43,3.78-3.25,7.39-4.83,11.1-1.03,2.42-2.14,4.79-3.2,7.2-.82,1.87-1.58,3.77-2.47,5.61-.18,.38,0,.97-.6,1.12-.03-.55,.23-1.05,.3-1.58,.18-.22,.27-.47,.19-.76,.03-.09,.05-.18,.08-.27,.06-.1,.15-.2,.17-.31,.54-2.31,1.3-4.55,2.02-6.8,.29-.9,.71-1.76,.8-2.72,.45-1.32,.89-2.63,1.34-3.95,.06-.04,.12-.08,.18-.12,.26-.3,.34-.67,.41-1.04,.02-.08,.04-.16,.06-.25,1.63-3.79,3.04-7.65,4.02-11.66,.75-2.35,1.25-4.75,1.49-7.2,.03-.2,.06-.41,.09-.61,.29-1.35,.44-2.72,.35-4.1,.02-.58,.03-1.16,.05-1.74,.24-2.42-.09-4.79-.58-7.16-.3,.28-.2,.6-.16,.89,.28,1.88,.45,3.77,.43,5.68,0,.19-.04,.39,.09,.56-.03,.43-.15,.52-.52,.21-1.57-1.31-3.06-2.72-4.35-4.32-1.19-1.48-2.38-2.96-3.13-4.73,.34-.04,.68-.08,1.01-.1,2.81-.19,5.63-.34,8.41-.86Z" style="fill:#d2c9e3;"/><path d="M141.38,32.45c.57,.38,.54,1.06,.69,1.59,.43,1.57,.59,3.2,.64,4.84,.09,3.26-.59,6.39-1.42,9.51-.94,3.5-2.36,6.81-3.92,10.05-1.77,3.68-4.09,7.03-6.67,10.19-2.57,3.16-5.17,6.3-7.43,9.68-1.24,1.86-2.47,3.73-3.54,5.71-1.07,1.96-2.34,3.8-3.31,5.82-.06,.12-.17,.17-.3,.18,.09-.3,.17-.61,.28-.91,.93-2.63,1.99-5.2,3.17-7.72,1.85-3.92,3.79-7.78,6.12-11.43,3.85-6.03,7.91-11.94,11.06-18.39,1.62-3.31,2.86-6.75,3.73-10.32,.7-2.89,.84-5.84,.9-8.8Z" style="fill:#d2c9e3;"/><path d="M141.38,32.45c-.06,2.96-.2,5.91-.9,8.8-.86,3.57-2.11,7.01-3.73,10.32-3.16,6.45-7.22,12.35-11.06,18.39-2.33,3.65-4.28,7.52-6.12,11.43-1.19,2.52-2.24,5.1-3.17,7.72-.11,.3-.18,.6-.28,.91-.21,.26-.13,.88-.56,.76-.24-.07,.05-.61,.15-.92,1.48-4.39,3.44-8.57,5.5-12.71,2.59-5.2,5.88-9.98,9-14.86,2.98-4.66,5.77-9.43,7.84-14.58,2.1-5.23,3.14-10.63,2.9-16.27-.04-1-.12-1.99-.19-2.99,.13,.02,.26,.04,.39,.06,.06,1.31,.05,2.62,.24,3.93Z" style="fill:#897a84;"/><path d="M111.06,77.83c-.03,.09-.05,.18-.08,.27-.2,.22-.34,.45-.19,.76-.06,.53-.33,1.03-.3,1.58,0,0,0,0,0,0-.37,.21-.37,.57-.35,.93-.02,.05-.03,.1-.05,.15-.22-.14-.43-.2-.6,.06-2.39,1.5-4.73,3.07-7.23,4.38-.07-.08-.14-.16-.21-.24,.12-.47,.25-.95,.37-1.42,.19-.59,.38-1.18,.57-1.78,.23,.01,.48,.12,.62-.17,2.4-1.6,4.8-3.2,7.21-4.81,.08,.1,.16,.19,.23,.29Z" style="fill:#3b2e29;"/><path d="M123.25,27.5c-2.78,.52-5.6,.67-8.41,.86-.34,.02-.68,.07-1.01,.1-.18,.06-.35,.11-.53,.17-.3-.46,.13-.54,.37-.55,1.64-.11,3.25-.44,4.89-.56,1.05-.08,2.12-.17,3.17-.36,.9-.16,2.16-1.82,1.96-2.68-.16-.68-.79-1.11-1.27-1.57-.23-.22-.9-.23-1.21-.06-.64,.35-1.19,0-1.77-.01-.25,0-.49-.07-.69,.09-.5,.39-1.07,.3-1.53,.08-.59-.27-1.19-.3-1.78-.23-.74,.08-1.36-.33-2.06-.35-.31,0-.45-.29-.14-.57,.08,.26,.27,.29,.52,.28,2.69-.09,5.38,.02,8.07-.24,.61-.06,1.21-.15,1.81-.26,.51-.09,.78,.11,.89,.6,.27,1.2,.38,2.41,.22,3.64-.12,.91-.7,1.35-1.48,1.63Z" style="fill:#3b2e29;"/><path d="M141.13,28.53c-.13-.02-.26-.04-.39-.06-.24-1.79-.85-3.46-1.61-5.09,.09,.02,.23,0,.27,.06,.51,.76,1.12,1.51,1.32,2.39,.18,.76,.61,1.26,1.11,1.73,.82,.78,1.79,1.29,2.8,1.83,1.85,.98,3.56,2.22,4.88,3.93,.64,.84,1.17,1.72,1.52,2.68,.58,1.6,.88,3.28,.78,5.01-.05,.9,0,1.81-.02,2.71,0,.26,.06,.54-.13,.77-.04-.05-.08-.1-.12-.15,.02-1.39,.04-2.78,.06-4.17,.05-.15,.05-.29-.09-.4-.04-.2-.08-.39-.12-.59,.16-.14,.09-.23-.07-.3-.33-.96-.61-1.95-1.01-2.89-1.54-3.58-4.25-5.88-7.91-7.11-.42-.14-.84-.26-1.26-.39Z" style="fill:#7e36a2;"/><path d="M106.71,98.68c.04-2.79,.5-5.53,1.06-8.25,.4-1.96,.78-3.92,1.32-5.85,.1,0,.2,0,.29,0-.29,1.41-.56,2.82-.87,4.22-.68,3.08-1.24,6.18-1.41,9.33-.01,.19-.08,.38-.12,.57-.09,0-.18-.01-.27-.02Z" style="fill:#897a84;"/><path d="M113.25,21.73c-.21-.08-.25-.23-.15-.41,.54-.93,.56-1.99,.81-3,.18-.75,.43-1.49,.61-2.24,.17-.73,.6-1.38,.58-2.17,0-.43,.23-.81,.5-1.15-.12,1.59-.58,3.11-.99,4.64-.39,1.46-.8,2.92-1.36,4.32Z" style="fill:#3b2e29;"/><path d="M109.38,84.58c-.1,0-.2,0-.29,0,0-.16-.02-.32-.02-.48-.02-.04-.06-.06-.11-.06-.06-.17,.08-.25,.15-.37,.35-.65,.7-1.31,.39-2.09,.18-.26,.39-.2,.6-.06-.1,1.05-.47,2.04-.72,3.06Z" style="fill:#6b585c;"/><path d="M106.71,98.68c.09,0,.18,.01,.27,.02-.03,.88,.07,1.76-.11,2.63-.15,0-.3-.02-.45-.03,.25-.64,.22-1.27-.05-1.89,.36-.13,.29-.46,.35-.74Z" style="fill:#6b585c;"/><path d="M151.54,44.35s.08,.1,.12,.15c-.11,.64,.19,1.33-.22,1.94-.09-.7-.05-1.39,.1-2.08Z" style="fill:#685fb3;"/><path d="M110.14,81.37c-.02-.36-.02-.71,.35-.93,.06,.38,.07,.73-.35,.93Z" style="fill:#d2c9e3;"/><path d="M151.41,46.85c.19,.22,.08,.48,.08,.73-.08,0-.15,0-.23,.01,.04-.25,0-.52,.16-.74Z" style="fill:#685fb3;"/><path d="M151.32,38.9c.16,.07,.23,.15,.07,.3-.08-.09-.12-.18-.07-.3Z" style="fill:#685fb3;"/><path d="M151.26,47.59c.08,0,.16,0,.23-.01,.02,.18-.05,.28-.23,.32,0-.1,0-.2,0-.3Z" style="fill:#7e36a2;"/><path d="M151.51,39.79c.14,.11,.14,.24,.09,.4-.12-.11-.16-.24-.09-.4Z" style="fill:#685fb3;"/><path d="M138.97,23.08c.07-.01,.14-.02,.2-.03-.01,.11-.03,.21-.04,.32-.13-.05-.15-.17-.16-.29Z" style="fill:#7e36a2;"/><path d="M112.02,4.93c.44,1.46,.3,2.91-.06,4.36-.25,.99-.52,1.98-1.02,2.89-.23,.42-.22,.91-.45,1.36-.73,1.46-1.32,2.98-2.01,4.46-.35,.74-.91,1.37-1.23,2.14-.21,.51-.36,1.05-.71,1.51-.27,.36-.04,.52,.35,.52,.69,0,1.37,0,2.06,0,.27,0,.57-.03,.66,.32,.08,.31-.04,.64-.31,.77-.67,.33-1.07,.96-1.7,1.34-1.35,.84-2.57,1.89-4.03,2.57-.59,.28-1.09,.74-1.74,.91-.11,.03-.23,.11-.2,.26,.03,.15,.19,.13,.29,.19,.44,.26,.99-.1,1.4,.26-.4,.2-.86-.01-1.26,.2-.27-.02-.63-.24-.75,.13-.1,.31-.46,.7,.05,1.01-.11,.23-.22,.46-.34,.69-.22,.07-.38-.07-.57-.14-.03-.19-.05-.38-.08-.57,.11-.06,.13-.15,.05-.24-.05-.06-.13-.07-.18,.02-.41,.45-.55,1.06-.87,1.56-.13-.01-.26-.02-.39-.03-.38-.74-.77-1.47-1.15-2.21-.03-.71-.6-.64-.95-.5-.55,.21-.09,.63-.03,.96,0,.44,.03,.87-.1,1.3-.16,0-.32,0-.48,0-.02-.53,0-1.07-.08-1.6-.13-.79-.55-.94-1.29-.51-1.11-.36-2.27-.21-3.4-.34-.27-.03-.53-.04-.77,.13-.66-.46-1.44-.57-2.2-.59-1.19-.03-2.37-.06-3.55-.27-.54-.09-1.16-.22-1.69,.15-.38,.06-.74-.37-1.14-.06-.29-.03-.57-.05-.86-.08-.23-.27-.49-.24-.76-.06-.29-.02-.57-.05-.86-.07-.28-.3-.58-.26-.9-.08l-1.18-.1c-.23-.23-.48-.23-.73-.05-.23,0-.47-.01-.7-.02,0,0,0-.07,0-.07-.4-.6-1-.48-1.56-.41-.64,.08-1.08-.29-.95-.94,.15-.76-.02-1.43-.44-2.05,.02-.09,.04-.19,.06-.28,.35-.43,.38-.97,.51-1.47,.13-.52,.4-.75,.96-.78,.65-.04,1.34,.1,1.96-.24,.09,.01,.19,.02,.28,.04,.21,.34,.47,.28,.75,.1,.09,.02,.19,.03,.28,.05,.21,.33,.47,.28,.75,.1,.14,.02,.28,.04,.43,.06,.17,.27,.37,.26,.6,.08,.54,.04,1.08,.09,1.62,.13,.31,.2,.66,.1,1,.13,1.75,.16,1.75,.15,1.53-1.61,0-.05-.04-.09-.06-.13-.02-.15-.05-.29-.07-.44,.07-.26,.07-.5-.08-.74,.03-.2,.02-.4-.07-.59,.07-.21,.05-.41-.07-.59,.03-.2,.03-.4-.07-.58,.06-.21,.06-.41-.08-.59-.02-.19-.05-.39-.07-.58,.06-.3,.04-.6-.09-.88-.02-.15-.03-.29-.05-.44,.06-.3,.05-.6-.1-.88,.04-.25,.02-.5-.08-.74,.07-.16,.06-.31-.04-.45,0-.11-.02-.22-.03-.33,.35-.69,.07-1.4,0-2.09-.11-1.09-.27-2.17-.41-3.26-.08-.59,.03-.94,.78-1,.79-.06,1.69,.04,2.27-.75,.12,.25,.35,.23,.56,.22,1.54-.12,3.08-.24,4.62-.36,.45,.25,.95,.23,1.43,.19,5.26-.43,10.54-.49,15.81-.41,.5,0,.97-.04,1.38-.36,.12,.19,.32,.16,.51,.21,.68,.17,1.39,.01,2.06,.24Z" style="fill:#3b2e29;"/><path d="M76.18,27.41c.23,0,.47,.01,.7,.02,.23,.16,.48,.16,.73,.05,.39,.03,.78,.07,1.18,.1,.29,.17,.59,.16,.9,.08,.29,.02,.57,.05,.86,.07,.24,.15,.49,.15,.76,.06,.29,.03,.57,.05,.86,.08,.62,.17,.58,.52,.38,1.04-.48,1.22-.86,2.47-1.4,3.66-.21,.55-.42,1.09-.64,1.64-.47,.77-.82,1.59-1.23,2.51,.47-.06,.6-.35,.81-.52,.26-.2,.32-.62,.73-.65-.68,1.44-1.32,2.91-2.05,4.32-.52,.99-1.16,1.92-1.75,2.88-.29-.19-.18-.48-.18-.74,.02-3.65,.82-7.16,2.06-10.58,.1-.28,.27-.55,.01-.86-1.65,3.94-2.57,8.03-2.46,12.32,.05,.6-.25,1.08-.49,1.58-.34,.4-.62,.84-.81,1.36,.35,.07,.49-.16,.67-.3,.41-.33,.42-.02,.46,.27-.07,1.7,.06,3.4,.21,5.09,.12,1.3,.17,2.61,.58,3.87,.08,1.12,.19,2.23,.44,3.33,.42,1.9,.81,3.8,1.43,5.65,.21,.99,.73,1.9,.83,2.93-.73-.54-.81-1.46-1.19-2.19-1.15-2.23-2.12-4.53-3.02-6.87-.84-2.17-1.79-4.31-2.28-6.6-.56-2.66-1.21-5.32-1.1-8.05,.12-3.01,.37-6.01,1.31-8.93,.66-2.07,1.52-4.05,2.48-5.99,.1-.19,.13-.42,.19-.63Z" style="fill:#d2c9e3;"/><path d="M71.32,67.67c-.58,.17-1.08-.14-1.51-.39-2.71-1.59-5.36-3.28-7.52-5.62-2.42-2.63-4.33-5.6-5.33-9.05-.54-1.84-.78-3.77-.79-5.7,0-1.83-.19-3.67,.14-5.49,.4-2.2,1.11-4.28,2.45-6.11,.14-.18,.24-.37,.51-.35,0,.29,0,.59-.02,.88-.19,3.21-.07,6.4,.53,9.56,.75,3.96,2.03,7.76,3.74,11.4,1.25,2.66,2.63,5.24,4.53,7.52,1.01,1.2,2.2,2.22,3.26,3.36Z" style="fill:#d2c9e3;"/><path d="M89.89,96.05c-.36,.18-.16-.33-.39-.31-.07-.44-.15-.88-.22-1.32,.14-.17,.12-.31-.07-.43-.02-.13-.05-.25-.07-.38,.16-.26,.56-.24,.66-.58,2.37-1.93,4.74-3.86,7.1-5.79,.13-.11,.26-.22,.4-.32,.36,.46,.44,1.1,.92,1.48-.05,.29,.21,.47,.25,.73-.19-.02-.37,0-.47,.19-.79,.64-1.58,1.28-2.37,1.93-1.92,1.59-3.84,3.19-5.76,4.79Z" style="fill:#3b2e29;"/><path d="M78.96,63.75c-.63-1.84-1.01-3.75-1.43-5.65-.24-1.1-.36-2.21-.44-3.33,.12,0,.23,0,.35,.01,.52-.32,1.05-.64,1.57-.96,.29,.16,.33,.47,.46,.72,.08,.16-.02,.46,.25,.46,.22,0,.28-.25,.36-.42,.66-1.41,1.28-2.83,1.97-4.22,.27-.55,.39-1.2,.93-1.6,.08,1.12,.13,2.24-.03,3.36-.39-.69-.01-1.47-.24-2.24-.57,.84-.94,1.67-.85,2.68,.13,1.36,.25,2.72,.29,4.08,.06,1.8,.45,3.56,.74,5.33,.17,1.06,.52,2.13,.88,3.17,.16,.45,.4,.9,.26,1.41-.3-.39-.58-.41-.97-.05-.56,.5-1.18,.95-1.8,1.37-.43,.29-.49,.58-.31,1.05,.99,2.49,1.95,5,2.93,7.5,.09,.23,.11,.55,.47,.58,.09,.63-.14,1.46,.91,1.51-.13,.31-.4,.35-.68,.37-.58-.88-.85-1.91-1.23-2.87-1.1-2.77-2.16-5.55-3.23-8.34-.09-.22-.2-.45-.15-.71,.07-.05,.14-.1,.21-.14l.11,.35q.25,.82,.97,.3c.57-.41,1.14-.83,1.71-1.25,.68-.5,.7-1.01,.06-1.66,.09-.28-.05-.52-.11-.77-.18-.7-.48-1.37-.47-2.11,0-.22,.01-.44-.02-.66-.1-.66-.21-.69-.75-.29-.61,.45-1.17,1-1.83,1.33-.81,.4-.86,.96-.63,1.68h-.25Zm2.89-3.57c.44-.19,.33-.57,.28-.89-.22-1.42-.38-2.85-.45-4.29-.03-.74-.12-1.48-.2-2.44-.39,.59-.52,1.05-.67,1.5-.4,1.09-.79,2.19-1.19,3.28-.07-.01-.13-.02-.2-.03-.11-.76-.22-1.53-.33-2.29-.03-.23,0-.52-.34-.56-.44-.05-1.36,.85-1.28,1.29,.33,2.02,.72,4.03,1.27,6.01,.13,.48,.34,.52,.71,.23,.79-.61,1.59-1.21,2.39-1.82Z" style="fill:#6b585c;"/><path d="M71.32,67.67c-1.07-1.14-2.25-2.15-3.26-3.36-1.9-2.27-3.28-4.86-4.53-7.52-1.71-3.64-2.99-7.43-3.74-11.4-.6-3.16-.73-6.35-.53-9.56,.02-.29,.01-.59,.02-.88,.27-1.13,.32-2.31,.67-3.43,.04-.12,0-.24-.09-.33,.19-.03,.37-.06,.55-.1-.62,2.48-.88,5-.87,7.55,0,4.9,1.02,9.6,2.75,14.17,1.31,3.46,2.84,6.82,4.99,9.85,2.18,3.07,4.97,5.5,8.26,7.34,.21,.12,.41,.26,.61,.4,.03,.02,.02,.09,.05,.25-1.7-.61-3-1.77-4.45-2.67-.08-.19-.22-.3-.43-.31h0Z" style="fill:#897a84;"/><path d="M84.58,78.87c.28-.02,.56-.06,.68-.37,1.94-1.33,3.89-2.67,5.83-4l.33-.19c.23,.62,.46,1.24,.68,1.86-.12,.1-.25,.21-.37,.31-.09,.04-.2,.06-.26,.12-1.82,1.59-3.86,2.9-5.79,4.35-.12,.07-.24,.04-.35-.03-.25-.68-.5-1.36-.75-2.04Z" style="fill:#3b2e29;"/><path d="M82.45,61.68c0,.74,.29,1.41,.47,2.11,.06,.26,.2,.5,.11,.77-.76,.52-1.53,1.02-2.29,1.55-.25,.17-.57,.32-.55,.71-.07,.05-.14,.1-.21,.14-.06-.09-.12-.19-.18-.28-.1-1.03-.62-1.93-.83-2.93,.08,0,.16,0,.25,0,.26,.21,.46,0,.64-.12,.89-.61,1.79-1.22,2.6-1.94Z" style="fill:#3b2e29;"/><path d="M85.33,80.91c.11,.08,.23,.1,.35,.03,.05,.56,.27,1.04,.67,1.44-.17,.29-.06,.57,.03,.85,.81,2.38,1.63,4.76,2.26,7.2,.06,.22,.08,.51,.43,.48-.14,.53-.02,1.05,.09,1.57,.08,.38,.3,.53,.65,.56-.1,.33-.5,.32-.66,.58-.46-1.69-.88-3.39-1.4-5.06-.73-2.35-1.53-4.68-2.29-7.02-.07-.2-.09-.42-.14-.63Z" style="fill:#6b585c;"/><path d="M73.24,23.94c.42,.63,.59,1.29,.44,2.05-.13,.65,.31,1.02,.95,.94,.56-.07,1.16-.19,1.56,.41-.76,.1-1.51-.05-2.25-.11-.53-.04-.72-.48-.82-.92-.18-.8-.13-1.59,.13-2.37Z" style="fill:#6b585c;"/><path d="M83.9,20.12s.06,.08,.06,.13c.22,1.76,.22,1.77-1.53,1.61-.33-.03-.69,.06-1-.13,.85-.49,1.89-.69,2.47-1.61Z" style="fill:#d2c9e3;"/><path d="M76.73,21.17c-.62,.33-1.31,.19-1.96,.24-.56,.04-.82,.26-.96,.78-.13,.5-.16,1.04-.51,1.47,.03-.91,.38-1.74,.64-2.59,.09-.28,.31-.36,.58-.32,.74,.13,1.49,.18,2.21,.42Z" style="fill:#6b585c;"/><path d="M78.78,21.45c-.28,.17-.54,.23-.75-.1,.26-.07,.51-.04,.75,.1Z" style="fill:#6b585c;"/><path d="M77.76,21.3c-.28,.18-.54,.24-.75-.1,.26-.08,.51-.01,.75,.1Z" style="fill:#6b585c;"/><path d="M79.81,21.59c-.23,.18-.44,.19-.6-.08,.22-.09,.42-.06,.6,.08Z" style="fill:#6b585c;"/><path d="M89.22,93.99c.18,.12,.21,.26,.07,.43-.15-.12-.15-.27-.07-.43Z" style="fill:#6b585c;"/><path d="M71.32,67.68c.21,.01,.35,.12,.43,.31-.23,.01-.45,.02-.43-.31Z" style="fill:#d2c9e3;"/><path d="M89.89,96.05c1.92-1.6,3.84-3.19,5.76-4.79,.78-.65,1.58-1.29,2.37-1.93,.67,.4,.77,1.1,.9,1.77-2.62,2.1-5.24,4.19-7.86,6.29-.21,.17-.4,.36-.67,.42-.42-.52-.48-1.14-.48-1.77Z" style="fill:#de8b38;"/><path d="M109.49,81.58c.31,.78-.04,1.44-.39,2.09-.07,.12-.2,.2-.15,.37-.04,.04-.07,.08-.11,.12-1.42,.94-2.84,1.89-4.26,2.82-.98,.64-1.97,1.25-2.96,1.87-.23-1.07,.4-1.95,.64-2.91,2.5-1.3,4.84-2.88,7.23-4.38Z" style="fill:#de8b38;"/><path d="M102.26,85.95c-.24,.97-.87,1.84-.64,2.91-.38,.23-.53,.6-.65,1.01-.2,.7-.43,1.39-.66,2.08-.05,.16-.09,.36-.31,.35-.17,0-.2-.19-.29-.3-.25-.32-.26-.85-.8-.9-.13-.68-.22-1.37-.9-1.77,.1-.2,.28-.21,.47-.19,.6,.75,.88,1.69,1.54,2.62,.33-1.1,.74-2.02,.9-3.02,.45-.98,.58-2.08,1.14-3.02,.07,.08,.14,.16,.21,.24Z" style="fill:#6b585c;"/><path d="M108.85,84.16s.07-.08,.11-.12c.05,0,.09,.02,.11,.06-.07,.02-.15,.04-.22,.06Z" style="fill:#897a84;"/><polygon points="90.23 97.95 90.22 97.92 90.24 97.94 90.23 97.95" style="fill:#de8b38;"/><path d="M114.27,65.65c.6-7.16,1.85-14.28,1.03-21.54,1.5,1.84,2.34,4.06,3.69,5.97-.49-3.02-1.27-5.96-2.21-8.86-.04-.12-.1-.23-.12-.34-.08-.34-.38-.66-.18-1.03,.06-.11,.24-.02,1.13,.56-1.18-2.13-2.36-4.05-3.13-6.17,.02-.02,.04-.04,.06-.06,.86,.41,1.42,1.23,2.29,1.64,.44,.21,.85,.46,1.33,.64-1.35-1.76-2.77-3.46-3.69-5.5,.45-.25,.54,.19,.72,.4,.35,.4,.49,.94,.86,1.35,1.47,1.62,2.89,3.29,4.62,4.66,.19,.15,.53,.32,.36,.63-.17,.31-.53,.22-.8,.16-.86-.22-1.76,.01-2.62-.24-.18-.05-.4-.03-.52,.17-.11,.18-.01,.32,.09,.46,.67,.96,1.33,1.93,2.01,2.87,.29,.4,.67,.73,.88,1.28-.44-.06-.72-.23-.99-.44-.18-.13-.35-.32-.58-.2-.27,.15-.19,.45-.14,.66,.16,.73,.35,1.46,.5,2.18,.47,2.21,.45,4.5,.61,6.75,.03,.35-.04,.77-.27,1.13-.27-.22-.23-.74-.72-.63-.32-.66-.49-1.4-1.08-2.15-.09,1.6-.18,3.02-.26,4.45-.42,.17-.5,.56-.56,.93-.15,.88-.27,1.77-.42,2.66-.33,1.96-.97,3.87-1.15,5.86-.1,.49-.2,.97-.32,1.46-.05,.2-.08,.47-.41,.28Zm3.3-15.86s.04,.02,.07,.02l-.05-.04c0-.76-.49-1.27-.93-1.81-.02,.61,.47,1.08,.47,1.67,0,.58,.32,.07,.45,.15Z" style="fill:#685fb3;"/><path d="M107.03,47.41c-.3,2.21-.6,4.42-.9,6.63,.04,.01,.08,.03,.11,.04,.3-.46,.6-.92,.9-1.38,.11-.16,.2-.39,.42-.34,.24,.05,.19,.33,.21,.5,.13,1.19,.21,2.38,.37,3.56,.61,4.35,1.68,8.57,3.69,12.51,.04,.08,.11,.15,.17,.23,.1,.33,.21,.67,.31,1-.16,.41-.32,.82-.49,1.22-.07,.17-.13,.4-.37,.4-.23,0-.32-.19-.4-.37-.14-.31-.26-.63-.42-.93-.74-1.47-1.04-3.1-1.74-4.58-.12-.25-.18-.59-.58-.57,.11-.39,.01-.74-.17-1.08-.03-.17-.05-.34-.08-.51-.61-2.42-1.11-4.86-1.46-7.52-.69,.94-1.26,1.73-1.84,2.5-.12,.16-.21,.47-.46,.38-.25-.09-.14-.38-.15-.59-.02-1.23,.15-2.43,.47-3.61,.38-.08,.36-.4,.42-.68,.44-2.12,.86-4.24,1.53-6.31,.07-.22,.1-.5,.43-.52Z" style="fill:#685fb3;"/><path d="M118.47,52.16c.49-.11,.45,.41,.72,.63,.22-.36,.29-.77,.27-1.13-.16-2.25-.14-4.53-.61-6.75-.15-.72-.34-1.45-.5-2.18-.05-.21-.12-.52,.14-.66,.23-.13,.41,.06,.58,.2,.27,.2,.55,.38,.99,.44-.22-.55-.6-.88-.88-1.28-.69-.95-1.34-1.91-2.01-2.87-.1-.15-.2-.29-.09-.46,.12-.2,.34-.23,.52-.17,.86,.25,1.75,.02,2.62,.24,.27,.07,.63,.15,.8-.16,.18-.32-.17-.49-.36-.63-1.73-1.37-3.15-3.04-4.62-4.66-.37-.41-.51-.95-.86-1.35-.18-.2-.27-.64-.72-.4-.48-.73-.85-1.52-1.16-2.33,.18-.06,.35-.11,.53-.17,.75,1.77,1.94,3.26,3.13,4.73,1.29,1.59,2.77,3,4.35,4.32,.37,.31,.49,.22,.52-.21,.07,0,.15,.02,.22,.03-.02,.58-.03,1.16-.05,1.74-.08,0-.16,0-.24-.01-.07-.27-.04-.58-.48-.6-1.07-.04-2.14-.13-3.21-.19-.16,0-.36-.08-.45,.12-.09,.19,.09,.31,.18,.45,.82,1.27,1.71,2.49,2.7,3.63,.24,.28,.44,.66,.89,.69,.09,0,.18,0,.27,0-.03,.2-.06,.41-.09,.61-.11-.04-.23-.09-.34-.13-.56-.25-1.11-.5-1.67-.74-.21-.09-.4-.39-.63-.2-.17,.14-.03,.42,.01,.63,.43,2.22,.7,4.47,.72,6.73,.03,.35-.23,.84,.42,.92-.98,4.01-2.38,7.88-4.02,11.66-.06-.05-.11-.1-.17-.16,.11-.35,.22-.7,.34-1.04,.62-1.65,1.26-3.29,1.85-4.94,.35-.99,.31-.99-.63-1.51-.38-.21-.57-.23-.59,.29-.03,.51-.09,1.01-.19,1.51-.35,1.91-.57,3.84-1.03,5.73-.39,.45-.35,.93-.06,1.41-.06,.04-.12,.08-.18,.12-.1-.14-.24-.16-.4-.14,.18-1.99,.82-3.9,1.15-5.86,.15-.88,.27-1.77,.42-2.66,.06-.38,.14-.76,.56-.93,.27,.15,.56,.29,.82,.46,.46,.31,.63,.15,.81-.33,.34-.88,.05-1.64-.28-2.42Z" style="fill:#6b585c;"/><path d="M102.08,28.99c.4-.21,.86,0,1.26-.2,1.02,0,2.03,0,3.05,0,.01,.14,.07,.26,.2,.33,.05,.1,.11,.2,.16,.3,.14,.53,.39,1.01,.7,1.46-.01,.05,0,.09,.05,.12,.05,.14,.1,.28,.15,.43,.02,.09,.04,.19,.06,.28-.01,.24-.02,.47-.03,.71-.79-.83-1.3-1.96-2.52-2.4,.33-.04,.67-.07,1-.11-.55-.29-1.11-.25-1.66-.11-.49,.1-.99,.2-1.48,.3-.71,.15-1.31,.53-1.91,.91-.03-.06-.05-.13-.08-.19,.11-.23,.22-.46,.34-.69,.33-.32,.5-.74,.7-1.13Z" style="fill:#d2c9e3;"/><path d="M107.03,47.41c-.33,.01-.36,.3-.43,.52-.68,2.06-1.09,4.19-1.53,6.31-.06,.28-.04,.6-.42,.68,0,0-.02,0-.02,0,.13-.69,.25-1.38,.4-2.07,.58-2.69,1.34-5.34,1.81-8.06,0-.14,.02-.29,.03-.43,.03-.15,.07-.29,.1-.44,.01-.21,.22-.4,.05-.7-.18,.25-.31,.44-.32,.69-.03,.14-.06,.29-.08,.43-.23,.19-.32,.01-.43-.15-.1-.15-.2-.39-.39-.07-.2,.23-.34,.52-.79,.69,.21-.57,.38-1.02,.55-1.48,.12,0,.25,0,.37,0,.15,.09,.29,.17,.46,.27,.05-.26,.09-.5,.13-.74,.4,0,.47-.25,.46-.58,.14-.39,.28-.79,.41-1.18,.36,.45,.08,.98,.17,1.46,0,.16,0,.31,0,.47,0,.18,0,.37,0,.55-.19,1.27-.23,2.57-.54,3.82Z" style="fill:#6b585c;"/><path d="M114.99,63.91c.16-.02,.3,0,.4,.14-.45,1.32-.89,2.63-1.34,3.95-.13-.14-.25-.33-.38,0-.16,.39-.44,.74-.49,1.18-.18,.4-.37,.81-.55,1.21-.1-.07-.19-.14-.29-.22-.11-.33-.21-.67-.32-1,.55-.59,.91-1.3,1.27-2,.28-.54,.83-.9,.99-1.52,.33,.19,.36-.08,.41-.28,.12-.48,.21-.97,.32-1.46Z" style="fill:#3b2e29;"/><path d="M107.68,32.42c.01-.24,.02-.47,.03-.71,.59,.35,.66,1.03,.55,1.51-.2,.81,0,1.59,0,2.37,0,.59-.07,1.14-.16,1.71-.07,.45-.33,.88-.03,1.39,.15,.25-.1,.6-.49,.65-.04-.21-.08-.42-.12-.64-.02-.14-.04-.27-.06-.41,.02-.08,.04-.17,.07-.25,.21-.04,.28-.13,.12-.32,.03-.96,.05-1.93,.08-2.89,.12-.36,.13-.65-.38-.63,0-.29,.01-.58,.02-.87,.64-.1,.4-.56,.37-.93Z" style="fill:#3b2e29;"/><path d="M107.47,38.71c.04,.21,.08,.42,.12,.64-.13,.48-.15,.97-.12,1.47-.02,.1-.04,.19-.06,.29-.14,.39-.28,.79-.41,1.18-.35-.93-.05-1.85,.04-2.77,.03-.31,.1-.63,.43-.8Z" style="fill:#d2c9e3;"/><path d="M107.41,41.11c.02-.1,.04-.19,.06-.29,.58-.02,.61,.39,.54,.78-.06,.34,.34,.94-.43,.97-.09-.48,.19-1.01-.17-1.46Z" style="fill:#3b2e29;"/><path d="M107.45,30.88c-.31-.45-.56-.93-.7-1.46,.69,.12,1.1,.96,.7,1.46Z" style="fill:#3b2e29;"/><path d="M107.57,43.6c0-.18,0-.37,0-.55,.2,0,.3,.11,.28,.32-.01,.18-.13,.23-.29,.24Z" style="fill:#3b2e29;"/><path d="M106.58,29.12c-.13-.07-.19-.19-.2-.33,.13,0,.29-.04,.37,.1,.07,.14-.07,.18-.17,.23Z" style="fill:#3b2e29;"/><path d="M107.65,31.42c-.05-.14-.1-.28-.15-.43,.4,.16,.41,.18,.15,.43Z" style="fill:#3b2e29;"/><path d="M114.47,34.23s-.08-.08-.07-.09c.06-.09,.1-.03,.13,.03-.02,.02-.04,.04-.06,.06Z" style="fill:#685fb3;"/><path d="M113.17,69.18c.05-.44,.34-.78,.49-1.18,.13-.33,.26-.14,.38,0-.09,.96-.52,1.82-.8,2.72-.71,2.26-1.47,4.5-2.02,6.8-.03,.11-.11,.21-.17,.31-.08-.1-.16-.19-.23-.29,.23-.92,.77-1.8,.48-2.81,.05-.04,.11-.08,.16-.12,.19-.05,.27-.2,.32-.36,.5-1.52,.99-3.03,1.48-4.55,.06-.18,.12-.38-.1-.52Z" style="fill:#6b585c;"/><path d="M122.05,37.32c-.07,0-.15-.02-.22-.03-.14-.17-.09-.37-.09-.56,.03-1.91-.14-3.8-.43-5.68-.04-.29-.15-.61,.16-.89,.5,2.36,.83,4.73,.58,7.16Z" style="fill:#897a84;"/><path d="M120.06,50.98c-.64-.08-.38-.56-.42-.92,.18,.02,.23-.09,.29-.25,.7-2,1.04-4.07,1.28-6.17,.11,.04,.23,.09,.34,.13-.25,2.45-.74,4.85-1.49,7.2Z" style="fill:#897a84;"/><path d="M121.65,43.16c-.09,0-.18,0-.27,0,.13-1.37,.25-2.74,.38-4.11,.08,0,.16,0,.24,.01,.08,1.38-.06,2.75-.35,4.1Z" style="fill:#897a84;"/><path d="M115.58,63.93c-.28-.48-.33-.96,.06-1.41,.06,0,.13,0,.19,0,0,.14,0,.29,.16,.37-.07,.37-.15,.74-.41,1.04Z" style="fill:#897a84;"/><path d="M110.78,78.86c-.15-.31,0-.54,.19-.76,.08,.29-.01,.53-.19,.76Z" style="fill:#6b585c;"/><path d="M115.99,62.89c-.15-.08-.15-.22-.16-.37,0,0,.05-.03,.05-.03,.06,.05,.11,.1,.17,.16-.02,.08-.04,.17-.06,.25Z" style="fill:#6b585c;"/><path d="M108.16,64.27c.18,.34,.28,.69,.17,1.08-.81,2.62-1.64,5.23-2.44,7.85-.96,3.11-2.03,6.18-2.89,9.32-.19,.59-.38,1.18-.57,1.78-1.18,.22-2.13-.11-2.78-1.16-.04-.07-.15-.11-.22-.16-.27-2.68-.31-5.37-.3-8.05,0-2.05-.02-4.1-.11-6.15-.01-.27,.01-.57-.28-.76-.2,.2-.12,.4-.11,.58,.14,1.56,.13,3.12,.14,4.69,.04,3.18,.08,6.35,.12,9.53-.38,.35-.79,.67-1.03,1.14l-.83,.54c-.31,.05-.61,.1-.92,.15-.9-1.48-1.63-3.04-2.37-4.6-.6-1.27-1.1-2.58-1.65-3.88-.23-.62-.46-1.24-.68-1.86-.23-1.18-.69-2.29-1.1-3.41-.7-1.95-1.23-3.96-2.09-5.86-.09-.19-.38-.55,.1-.71,2.06,.16,4.11,.37,6.18,.28,.03,.19,.19,.21,.33,.23,1.29,.19,2.42,.73,3.43,1.54,.11,.09,.23,.2,.46-.03-1.25-1.03-2.52-1.89-4.24-1.73-.09-.38-.42-.28-.66-.29-1.82-.12-3.65-.22-5.47-.33,0-.19-.06-.41,0-.58,.93-2.72,1.01-5.56,1.28-8.37,.38-.1,.42,.24,.54,.44,.33,.55,.57,1.16,.99,1.65,.17,.53,.4,1.02,.93,1.5,.08-.93-.37-1.64-.38-2.41,.02-.35,.01-.69-.16-1.01-.28-1.27-.61-2.53-.64-3.84,.24,.07,.32,.28,.43,.47,.52,.94,1.01,1.89,1.56,2.81,.6,.99,1.05,2.07,1.87,2.92,.15,.29,.3,.58,.46,.87,.26,.6,.27,1.33,.89,1.75,.6-.04,.79,.47,1.09,.83,.73,.9,1.28,1.07,2.16,.65,.03,.92-.7,1.66-.6,2.61,.46-.94,.94-1.88,1.15-2.92,.31-.68,.61-1.36,.92-2.04,.9-.72,1.41-1.77,2.18-2.6,.55-.59,.88-1.39,1.62-1.81,0,0,.02,0,.02,0-.32,1.18-.49,2.39-.47,3.61,0,.2-.1,.5,.15,.59,.26,.09,.34-.21,.46-.38,.58-.78,1.15-1.56,1.84-2.5,.35,2.66,.85,5.1,1.46,7.52-.34,.28-.75,.13-1.12,.16-1.94,.12-3.92,0-5.71,1-.73,.4-1.42,.84-1.9,1.63,.4,.08,.5-.15,.65-.3,1.07-1.05,2.39-1.6,3.85-1.79,1.43-.18,2.87-.19,4.31-.19Z" style="fill:#eeecef;"/><path d="M99.43,82.97c.08,.05,.18,.09,.22,.16,.65,1.05,1.6,1.38,2.78,1.16-.12,.47-.25,.95-.37,1.42-.56,.94-.68,2.04-1.14,3.02-.85-.49-1.78-.28-2.69-.33-.48-.38-.56-1.02-.92-1.48-.17-.73-.77-1.23-1.04-1.9-.05-.13-.1-.26-.15-.39,.31-.05,.61-.1,.92-.15,.02,.14-.07,.46,.18,.3,.28-.18,.93-.2,.65-.85,.24-.47,.65-.79,1.03-1.14,.14,.18,.34,.16,.53,.16Zm-.15,.56c.13,.59,.63,.9,.93,1.35,.06,.08,.16,.12,.25,.03,.08-.08,.07-.19,0-.26-.38-.38-.64-.89-1.18-1.12Z" style="fill:#ab9da7;"/><path d="M111.31,74.73c.29,1.01-.25,1.89-.48,2.81-2.4,1.6-4.8,3.2-7.21,4.81-.1-.25-.15-.49-.06-.78,.28-.88,.53-1.77,1.08-2.54,.22-.15,.43-.31,.66-.46,1.99-1.3,3.83-2.85,6.01-3.84Z" style="fill:#de8b38;"/><path d="M104.63,79.03c-.55,.77-.8,1.65-1.08,2.54-.09,.29-.03,.52,.06,.78-.15,.28-.4,.18-.62,.17,.86-3.14,1.94-6.21,2.89-9.32,.8-2.62,1.63-5.23,2.44-7.85,.4-.02,.46,.31,.58,.56,.7,1.48,1,3.11,1.74,4.58,.15,.3,.27,.62,.42,.93,.08,.18,.17,.38,.4,.37,.24,0,.3-.23,.37-.4,.17-.4,.33-.81,.49-1.22,.1,.07,.19,.14,.29,.22-.15,.61-.36,1.19-.7,1.72-.23,.12-.4,.37-.71,.31-.11-.16-.24-.31-.31-.48-.57-1.29-1.15-2.58-1.57-3.93-.09-.29-.14-.65-.6-.59-.62,.25-.92,.73-1.12,1.35-.98,3.2-2,6.4-2.99,9.6-.07,.21-.27,.45,.02,.66Zm3.93-13.11c-.11,.37-.2,.62-.26,.87-.04,.17-.21,.4,.13,.45,.25,.03,.44-.1,.46-.35,.02-.3-.1-.57-.33-.96Z" style="fill:#6b585c;"/><path d="M82.94,52.12c.16-1.12,.11-2.24,.03-3.36,.02-.26,.05-.52,.07-.78,.16-.11,.15-.25,.07-.4,.03-.31,.06-.61,.09-.92,.23-.39,.18-.78,.09-1.21-.26,.1-.26,.26-.26,.43-.02,.14,.01,.24,.16,.3-.03,0-.05,.03-.05,.06-.45,.06-.56,.44-.71,.76-.64,1.4-1.28,2.81-1.97,4.35-.27-4.55,.39-8.83,2-13.12-.58,.19-.85,.42-1.13,.66-.39,.33-.68,.78-1.23,.89h0c.04-.37,.24-.68,.4-1.01,.97-1.99,2.06-3.93,2.84-6.01,.07-.17,.24-.37,.04-.53-.13-.11-.26,.07-.39,.11-.28,.1-.51,.56-.81,.3-.24-.2,.16-.52,.14-.81,0-.05,.02-.1,.03-.14,.4-1.24,.91-2.45,.95-3.77,.53-.37,1.15-.24,1.69-.15,1.18,.21,2.36,.24,3.55,.27,.76,.02,1.54,.13,2.2,.59-.07,.26-.17,.51-.37,.71-.18,.03-.35,.06-.16,.29-.07,.15-.14,.31-.2,.46-.36,.9-1.01,1.66-1.24,2.62-.23,.17-.13,.41-.14,.63-.14,.05-.27,.11-.41,.16-.1,0-.19,0-.29,0,.08-.28-.05-.54-.07-.81,.26-.71,.22-1.39-.21-2.03-.05-.31-.1-.62-.16-.93,.1,0,.18-.05,.18-.15,0-.14-.11-.18-.23-.2-.04-.15,.06-.37-.16-.42-.16-.04-.32,.08-.41,.22-.12,.2-.32,.36-.31,.62-.22,.1-.39,.23-.36,.58,.27-.16,.47-.27,.49-.55,.44,.04,.28,.39,.28,.61,0,1.5,0,3-.01,4.5-.08,.07-.1,.17,0,.2,.14,.05,.17-.08,.19-.19,.05-.06,.1-.13,.14-.19,.31-.07,.4-.28,.37-.57,.07-.11,.13-.23,.2-.34,.08,.02,.16,.05,.24,.07,.01,.09,.03,.19,.04,.28-.17,.18-.14,.34,.07,.46,.02,.14,.05,.28,.07,.42-.17,.23-.16,.44,.09,.61,.01,.09,.03,.19,.04,.28-.17,.54-.14,1.04,.25,1.49,.06,.07,.11,.14,.17,.21-.1,.42-.15,.83,.07,1.23-.07,.45-.01,.89,.15,1.32-.18,.19-.13,.35,.07,.48,.02,.18,.05,.36,.07,.55-.16,.14-.09,.25,.05,.34,.06,.21,.12,.43,.17,.64-.01,.21-.03,.42-.04,.63-.12,.3-.21,.6-.18,.92,.12,1.13,.27,2.26,.35,3.4,.04,.59,.36,1.23-.19,1.77-.06-.12-.13-.24-.19-.36,0-.1-.01-.19-.12-.21-.11-.02-.15,.07-.18,.16-.14,.32-.12,.67-.14,1.01-.11,1.78-.18,3.57-.36,5.34-.25,2.43-.55,4.85-.98,7.25-.33,1.85-.74,3.67-1.53,5.43-1.01-3.55-2.04-7.08-2.46-10.75,.03-.31,.16-.64-.15-.89-.02-.2-.04-.4-.06-.6,.16-.22,.15-.41-.08-.57-.02-.2-.04-.4-.06-.61,.16-.22,.14-.41-.08-.57-.02-.49-.03-.97-.05-1.46Zm2.82-21.13c.25-.14,.3-.33,.1-.55,.02-.51,0-1.02,.1-1.53,.05-.25,.13-.61-.24-.66-.35-.05-.39,.32-.45,.56-.15,.67-.25,1.34-.38,2.01-.08,.41-.3,.79-.19,1.29,.5-.32,.79-.71,1.05-1.12Z" style="fill:#1b1d2e;"/><path d="M90.39,29.36c.19-.2,.29-.45,.37-.71,.23-.17,.5-.16,.77-.13,1.13,.13,2.29-.02,3.4,.34,.25,.41,.51,.82,.76,1.24-.64,.2-1.17-.16-1.71-.36-.83-.31-1.66-.29-2.68-.32,.62,.63,1.24,.26,1.94,.58-1.82,.25-2.76,1.35-3.48,2.71-.32,.01-.64,.02-.96,.03,.22-.96,.88-1.72,1.24-2.62,.06-.16,.13-.31,.2-.46,.13-.06,.17-.16,.16-.29Z" style="fill:#eeecef;"/><path d="M99.39,31.44c.33-.5,.46-1.11,.87-1.56-.03,.11,.05,.16,.13,.21,.03,.19,.05,.38,.08,.57-.11,.36,.08,.7,.06,1.05-.34,.48-.58,1-.6,1.6-.42,.39-1.89,.44-2.3,.08-.01-.01-.01-.05-.02-.07,.09-.82-.29-1.46-.77-2.06-.02-.1-.04-.21-.07-.31,.12-.43,.1-.86,.1-1.3,.25-.04,.34,.14,.45,.3,.37,.55,.71,1.1,1,1.7,.16,.33,.14,.95,.57,.89,.4-.05,.4-.66,.52-1.04,0-.02,0-.05,0-.07Z" style="fill:#e2e8f9;"/><path d="M83.31,27.94c-.04,1.33-.56,2.54-.95,3.77-.36-.06-.52,.15-.64,.44-.11,.24-.2,.51-.56,.42,.54-1.19,.93-2.44,1.4-3.66,.2-.51,.24-.87-.38-1.04,.4-.3,.75,.13,1.14,.06Z" style="fill:#6b585c;"/><path d="M99.39,31.44s.01,.05,0,.07c-.12,.39-.11,.99-.52,1.04-.42,.05-.41-.57-.57-.89-.29-.6-.63-1.15-1-1.7-.11-.16-.2-.34-.45-.3-.07-.33-.52-.75,.03-.96,.35-.14,.92-.21,.96,.5-.19-.08-.35-.39-.57-.21-.23,.19,.03,.39,.13,.57,.3,.53,.6,1.06,.92,1.58,.14,.23,.27,.58,.66,.28,.13,.01,.26,.02,.39,.03Z" style="fill:#6b585c;"/><path d="M95.68,30.1c-.25-.41-.51-.82-.76-1.24,.74-.43,1.16-.28,1.29,.51,.08,.52,.06,1.06,.08,1.6-.02,.02-.04,.04-.06,.06-.14-.1-.28-.2-.42-.3,.26-.27,.37-.51-.13-.63Z" style="fill:#6b585c;"/><path d="M99,31.41c-.39,.3-.52-.05-.66-.28-.32-.52-.62-1.05-.92-1.58-.1-.18-.36-.38-.13-.57,.21-.18,.37,.14,.57,.21,.38,.74,.77,1.47,1.15,2.21Z" style="fill:#685fb3;"/><path d="M102.08,28.99c-.2,.4-.37,.82-.7,1.13-.5-.31-.15-.7-.05-1.01,.12-.37,.48-.15,.75-.13Z" style="fill:#6b585c;"/><path d="M100.53,31.71c.02-.35-.17-.69-.06-1.05,.18,.07,.35,.21,.57,.14,.03,.06,.05,.13,.08,.19,.05,.08,.1,.16,.14,.24-.14,.16-.29,.32-.43,.48-.1,0-.2,0-.3,0Z" style="fill:#6b585c;"/><path d="M79.69,27.66c-.31,.08-.61,.09-.9-.08,.32-.18,.62-.22,.9,.08Z" style="fill:#6b585c;"/><path d="M81.31,27.79c-.26,.09-.51,.09-.76-.06,.27-.18,.52-.21,.76,.06Z" style="fill:#6b585c;"/><path d="M77.62,27.48c-.25,.11-.5,.11-.73-.05,.26-.19,.5-.18,.73,.05Z" style="fill:#6b585c;"/><path d="M96.77,30.96c.02,.1,.04,.21,.07,.31-.1,.02-.21,.03-.31,.05-.1-.1-.19-.19-.29-.29,.02-.02,.04-.04,.06-.06,.16,0,.32,0,.48,0Z" style="fill:#6b585c;"/><path d="M100.39,30.1c-.08-.05-.15-.1-.13-.21,.05-.09,.12-.08,.18-.02,.08,.09,.06,.18-.05,.24Z" style="fill:#6b585c;"/><path d="M81.15,32.57c.36,.09,.46-.18,.56-.42,.13-.29,.29-.5,.64-.44,0,.05-.03,.1-.03,.14,.02,.29-.38,.6-.14,.81,.3,.26,.53-.2,.81-.3,.13-.05,.26-.22,.39-.11,.2,.16,.03,.36-.04,.53-.79,2.08-1.88,4.01-2.84,6.01-.16,.33-.35,.64-.4,1.01,0,0-.04,.04-.04,.04l.03-.04c.54-.11,.84-.56,1.23-.89,.27-.23,.55-.46,1.13-.66-1.61,4.29-2.27,8.57-2,13.12,.7-1.54,1.33-2.94,1.97-4.35,.15-.33,.26-.7,.71-.76-.04,.15-.12,.3,.06,.42-.03,.31-.06,.61-.09,.92-.22,.1-.25,.23-.07,.4-.02,.26-.05,.52-.07,.78-.54,.4-.66,1.05-.93,1.6-.68,1.39-1.31,2.81-1.97,4.22-.08,.17-.14,.42-.36,.42-.27,0-.17-.3-.25-.46-.13-.26-.17-.56-.46-.72,0-.1,.03-.2,.02-.29-.25-3.16-.15-6.29,.6-9.38,.19-.78,.37-1.57,.6-2.54-1.2,1.06-2.26,1.99-3.32,2.92-.05-.07-.1-.18-.18-.03h.02c-.26,0-.52-.02-.78-.03,.24-.5,.55-.99,.49-1.58,.19-.05,.48,.3,.56-.15,.59-.96,1.24-1.88,1.75-2.88,.73-1.41,1.37-2.88,2.05-4.32,.08-.17,.14-.36,.24-.51,.1-.15,.54-.14,.27-.43-.17-.18-.37,.1-.53,.22-.07,.06-.17,.07-.26,.11h0c-.04-.24,.32-.51-.04-.74,.21-.55,.42-1.09,.64-1.64Z" style="fill:#685fb3;"/><path d="M77.03,42.75c-.09,.44-.38,.09-.56,.15-.12-4.3,.8-8.38,2.46-12.32,.25,.31,.09,.59-.01,.86-1.24,3.42-2.04,6.92-2.06,10.58,0,.25-.11,.55,.18,.74Z" style="fill:#897a84;"/><path d="M77.44,54.78c-.12,0-.23,0-.35-.01-.42-1.26-.47-2.57-.58-3.87-.15-1.69-.28-3.39-.21-5.09,.09,0,.17,0,.26,0,.05,.63,.13,1.26,.15,1.89,.1,2.38,.24,4.75,.73,7.09Z" style="fill:#897a84;"/><path d="M80.51,34.21c.36,.23,0,.5,.04,.74-.01,.02-.02,.04-.03,.05,0-.02,.02-.04,.03-.06,.09-.04,.19-.05,.26-.11,.16-.13,.36-.4,.53-.22,.27,.29-.17,.28-.27,.43-.1,.16-.16,.34-.24,.51-.41,.03-.47,.44-.73,.65-.21,.17-.34,.46-.81,.52,.4-.92,.75-1.74,1.23-2.51Z" style="fill:#6b585c;"/><path d="M76.55,45.81c-.09,0-.17,0-.26,0-.03-.29-.05-.6-.46-.27-.18,.14-.32,.38-.67,.3,.18-.52,.47-.96,.81-1.36,.26,.01,.52,.02,.78,.03-.22,.41-.2,.85-.2,1.29Z" style="fill:#6b585c;"/><path d="M89.81,93.04c-.36-.03-.58-.18-.65-.56-.11-.52-.22-1.04-.09-1.57,2.23-1.81,4.46-3.61,6.68-5.42,.68,.39,1.1,.96,1.16,1.76-2.37,1.93-4.74,3.86-7.1,5.79Z" style="fill:#de8b38;"/><path d="M98.23,88.41c.9,.05,1.84-.17,2.69,.33-.16,1-.56,1.92-.9,3.02-.66-.93-.93-1.87-1.54-2.62-.04-.26-.3-.44-.25-.73Z" style="fill:#eeecef;"/><path d="M96.92,87.25c-.06-.8-.47-1.37-1.16-1.76,.13-.13,.21-.27,.19-.46,.11,0,.21,0,.32,0,.28,.67,.88,1.17,1.04,1.9-.13,.11-.26,.22-.4,.32Z" style="fill:#6b585c;"/><path d="M84.35,76.99c-.36-.02-.38-.35-.47-.58-.98-2.5-1.94-5-2.93-7.5-.18-.46-.11-.76,.31-1.05,.63-.42,1.25-.86,1.8-1.37,.4-.36,.67-.34,.97,.05,0,.05,.02,.09,.03,.14,0,.05-.03,.1-.02,.14,.41,1.6,1.2,3.04,1.88,4.52,.05,.11,.12,.24,.27,.19,.16-.06,.16-.22,.19-.37,.28-1.54,.87-2.99,1.26-4.5,.08-.31,.14-.66,.45-.89,.08,.12,.16,.19,.19,.27,.71,2.03,1.41,4.05,2.1,6.08,.08,.24,.07,.48-.06,.71-2.07,1.27-3.97,2.79-5.97,4.15Z" style="fill:#f0cd33;"/><path d="M84.06,66.69s-.03-.09-.03-.14c.15-.51-.1-.97-.26-1.41-.36-1.04-.71-2.11-.88-3.17-.29-1.76-.68-3.52-.74-5.33-.05-1.36-.17-2.72-.29-4.08-.09-1.01,.27-1.84,.85-2.68,.23,.77-.15,1.54,.24,2.24,.02,.49,.03,.97,.05,1.46-.08,.21-.15,.41,.08,.57,.02,.2,.04,.4,.06,.61-.08,.21-.14,.41,.08,.57,.02,.2,.04,.4,.06,.6-.04,.31-.22,.65,.15,.89,.43,3.67,1.45,7.2,2.46,10.75,.79-1.75,1.2-3.58,1.53-5.43,.43-2.4,.73-4.83,.98-7.25,.18-1.77,.24-3.56,.36-5.34,.02-.34,0-.69,.14-1.01,.1,.02,.2,.03,.3,.04,.06,.12,.13,.24,.19,.36-.05,.58,.33,.98,.59,1.45-.08-.5-.02-.98,.02-1.46,.6,1.97,.71,4.01,1.12,6.01,.07,.32,.12,.46,.45,.28,.17,.32,.18,.66,.16,1.01-.34,.21,.07,.87-.55,.91-.42-.49-.67-1.1-.99-1.65-.12-.21-.16-.55-.54-.44,0-.14,.02-.28,.03-.42,.09,0,.18,0,.28,0,.02,0,.04,.02,.06,.03-.02-.01-.03-.02-.05-.04-.25-.67-.09-1.41-.29-2.09-.21,.74-.35,1.47-.29,2.23-.05,.31-.1,.62-.14,.93-.2,1.56-.27,3.14-.52,4.71-.5,3.19-1.63,6.2-2.45,9.3-.05,.2-.16,.39-.35,.43-.26,.05-.3-.21-.37-.38-.35-.83-.68-1.67-1.02-2.5-.1-.23-.08-.56-.46-.56Z" style="fill:#685fb3;"/><path d="M76.55,45.81c0-.44-.02-.89,.2-1.29,0,0-.02,0-.02,0,.06,0,.12,.02,.18,.03,1.06-.93,2.12-1.86,3.32-2.92-.23,.96-.41,1.75-.6,2.54-.76,3.09-.86,6.22-.6,9.38,0,.1-.01,.19-.02,.29-.52,.32-1.05,.64-1.57,.96-.49-2.34-.63-4.71-.73-7.09-.03-.63-.1-1.26-.15-1.89Z" style="fill:#d2c9e3;"/><path d="M81.86,60.18c-.8,.61-1.6,1.2-2.39,1.82-.37,.29-.58,.26-.71-.23-.55-1.98-.94-3.99-1.27-6.01-.07-.44,.85-1.34,1.28-1.29,.34,.04,.31,.33,.34,.56,.11,.76,.22,1.53,.33,2.29,.07,.01,.13,.02,.2,.03,.4-1.09,.79-2.19,1.19-3.28,.46,.1,.49,.43,.5,.83,.02,1.78,.4,3.52,.54,5.28Z" style="fill:#f0cd33;"/><path d="M84.35,76.99c2.01-1.36,3.9-2.89,5.97-4.15,.48,.45,.69,1.03,.78,1.66-1.94,1.33-3.89,2.67-5.83,4-1.06-.05-.82-.88-.91-1.51Z" style="fill:#de8b38;"/><path d="M82.45,61.68c-.81,.72-1.71,1.33-2.6,1.94-.19,.13-.38,.33-.64,.12-.22-.72-.17-1.28,.63-1.68,.67-.33,1.23-.88,1.83-1.33,.54-.4,.65-.37,.75,.29,.03,.22,.02,.44,.02,.66Z" style="fill:#de8b38;"/><path d="M80.18,66.82c-.01-.39,.31-.53,.55-.71,.76-.53,1.53-1.04,2.29-1.55,.64,.65,.63,1.16-.06,1.66-.57,.42-1.14,.83-1.71,1.25q-.72,.52-.97-.3l-.11-.35Z" style="fill:#de8b38;"/><path d="M81.86,60.18c-.13-1.77-.51-3.51-.54-5.28,0-.4-.03-.73-.5-.83,.15-.45,.28-.91,.67-1.51,.08,.96,.17,1.7,.2,2.44,.07,1.44,.22,2.87,.45,4.29,.05,.32,.16,.7-.28,.89Z" style="fill:#ab9da7;"/><path d="M91.09,74.5c-.09-.63-.3-1.21-.78-1.66,.13-.23,.14-.47,.06-.71-.7-2.03-1.4-4.05-2.1-6.08-.03-.09-.11-.16-.19-.27-.31,.24-.37,.59-.45,.89-.38,1.51-.98,2.96-1.26,4.5-.03,.14-.03,.31-.19,.37-.15,.05-.22-.08-.27-.19-.68-1.48-1.47-2.92-1.88-4.52-.01-.04,.01-.1,.02-.14,.38,0,.37,.33,.46,.56,.34,.83,.67,1.67,1.02,2.5,.07,.16,.11,.43,.37,.38,.2-.04,.3-.22,.35-.43,.81-3.1,1.95-6.12,2.45-9.3,.24-1.56,.32-3.14,.52-4.71,.04-.31,.09-.62,.14-.93,.1-.04,.2-.09,.3-.13,0,.14-.02,.28-.03,.42-.27,2.81-.35,5.66-1.28,8.37-.06,.17,0,.39,0,.58-.01,.11-.02,.22-.03,.33-.48,.17-.19,.52-.1,.71,.86,1.9,1.39,3.91,2.09,5.86,.4,1.12,.86,2.23,1.1,3.41l-.33,.19Z" style="fill:#6b585c;"/><path d="M86.35,82.38c-.4-.4-.62-.88-.67-1.44,1.93-1.45,3.97-2.75,5.79-4.35,.07-.06,.18-.08,.26-.12,.31,.48,.74,.91,.51,1.56-1.96,1.45-3.93,2.9-5.89,4.34Z" style="fill:#de8b38;"/><path d="M92.24,78.04c.23-.65-.2-1.08-.51-1.56,.12-.1,.25-.21,.37-.31,.55,1.29,1.05,2.61,1.65,3.88,.74,1.56,1.47,3.12,2.37,4.6,.05,.13,.1,.26,.15,.39-.11,0-.21,0-.32,0-.08-.09-.19-.16-.25-.26-1.02-2-2.07-3.99-2.99-6.05-.11-.25-.14-.59-.48-.69Z" style="fill:#897a84;"/><path d="M92.24,78.04c.34,.1,.37,.43,.48,.69,.91,2.06,1.97,4.04,2.99,6.05,.05,.1,.16,.17,.25,.26,.02,.19-.06,.34-.19,.46-2.23,1.81-4.46,3.61-6.68,5.42-.36,.03-.37-.26-.43-.48-.64-2.44-1.46-4.82-2.26-7.2-.09-.28-.2-.56-.03-.85,1.96-1.45,3.93-2.9,5.89-4.34Z" style="fill:#f0cd33;"/><path d="M118.47,52.16c.33,.78,.62,1.54,.28,2.42-.18,.48-.35,.65-.81,.33-.26-.17-.54-.31-.82-.46,.08-1.42,.17-2.84,.26-4.45,.6,.75,.77,1.49,1.08,2.15Z" style="fill:#d2c9e3;"/><path d="M117.57,49.79c-.13-.09-.45,.43-.45-.15,0-.59-.49-1.06-.47-1.67,.44,.54,.93,1.05,.93,1.81h-.01Z" style="fill:#7e36a2;"/><path d="M117.59,49.78l.05,.04s-.04-.02-.07-.02c0,0,.01-.01,.01-.01Z" style="fill:#7e36a2;"/><path d="M108.16,64.27c-1.44,0-2.88,0-4.31,.19-1.46,.19-2.78,.74-3.85,1.79-.14,.14-.25,.38-.65,.3,.47-.79,1.17-1.22,1.9-1.63,1.79-.99,3.77-.88,5.71-1,.38-.02,.78,.13,1.12-.16,.03,.17,.05,.34,.08,.51Z" style="fill:#897a84;"/><path d="M121.75,39.05c-.13,1.37-.25,2.74-.38,4.11-.45-.04-.64-.41-.89-.69-.99-1.14-1.88-2.36-2.7-3.63-.09-.14-.26-.26-.18-.45,.09-.2,.3-.13,.45-.12,1.07,.06,2.14,.15,3.21,.19,.44,.02,.41,.33,.48,.6Z" style="fill:#d2c9e3;"/><path d="M121.22,43.64c-.24,2.09-.58,4.17-1.28,6.17-.05,.16-.1,.27-.29,.25-.02-2.27-.29-4.51-.72-6.73-.04-.21-.18-.49-.01-.63,.23-.19,.42,.12,.63,.2,.56,.24,1.11,.49,1.67,.74Z" style="fill:#d2c9e3;"/><path d="M115.88,62.48s-.05,.04-.05,.03c-.06,0-.13,0-.19,0,.46-1.89,.68-3.82,1.03-5.73,.09-.5,.16-1,.19-1.51,.03-.52,.21-.5,.59-.29,.93,.52,.98,.52,.63,1.51-.59,1.66-1.24,3.29-1.85,4.94-.13,.34-.23,.69-.34,1.04Z" style="fill:#f0cd33;"/><path d="M107.68,32.42c.03,.37,.27,.82-.37,.93-.25-1.57-1.14-2.58-2.68-3l-.13-.55c.56-.14,1.11-.18,1.66,.11-.33,.04-.67,.07-1,.11,1.22,.44,1.73,1.56,2.52,2.4Z" style="fill:#897a84;"/><path d="M101.26,31.25c-.05-.08-.1-.16-.14-.24,.6-.38,1.2-.76,1.91-.91,0,.09,0,.19,0,.28-.62,.23-1.22,.5-1.77,.87Z" style="fill:#897a84;"/><path d="M103.03,30.38c0-.09,0-.19,0-.28,.49-.1,.99-.2,1.48-.3,.04,.18,.09,.36,.13,.55-.53,.01-1.07,.02-1.6,.03Z" style="fill:#6b585c;"/><path d="M105.57,43.33c-.17,.46-.34,.91-.55,1.48,.45-.17,.59-.46,.79-.69,.35,.3,.18,.63,0,.92-.98,1.67-2.09,3.24-3.55,4.54-.49,.44-1.03,.68-1.7,.72-1.05,.07-2.11,.12-3.15,.02-.76-.08-1.62-.16-2.2-.82-.84-.95-1.71-1.88-2.48-2.89-.6-.77-1.51-1.38-1.5-2.52,.3,.15,.49,.51,.92,.54-.07-.73-.8-.92-1.03-1.47-.02-.46-.22-1.03-.01-1.34,.29-.44,.34-.79,.21-1.24,.16-.02,.45,0,.42-.17-.13-.66,.42-.48,.71-.62,.97,.06,1.87-.22,2.79-.49,1.93-.57,3.88-.92,5.89-.42,.61,.23,1.22,.45,1.82,.69,.65,.26,1.3,.5,2.02,.31,.28,.18,.05,.32-.05,.46-.06,.09-.19,.19-.08,.3,.12,.11,.27,.03,.39-.05,.36,.2,.04,.35-.05,.51-.1,.18-.38,.36-.2,.56,.18,.22,.39-.06,.58-.12,.07-.02,.13-.04,.29-.08-.1,.65-.19,1.26-.29,1.86Z" style="fill:#eeecef;"/><path d="M104.63,54.92c-.74,.42-1.07,1.22-1.62,1.81-.77,.83-1.27,1.88-2.18,2.6-.06-.26,.08-.47,.17-.7,1.2-3.15,2.41-6.3,3.6-9.45,.09-.25,.32-.51,.08-.81-.28,.02-.28,.25-.34,.42-1.21,3.17-2.43,6.34-3.62,9.52-.37,1-.86,1.97-.95,3.06-.09,.03-.17,.05-.26,.08-.05,.07-.11,.15-.16,.22,0,0,0,0,0,0-.88,.42-1.43,.25-2.16-.65-.29-.36-.48-.87-1.09-.83,.05-.68-.25-1.24-.64-1.75-.04-.17-.05-.34-.11-.5-.96-2.73-1.77-5.52-2.53-8.31-.03-.11-.09-.23-.26-.21-.21,.19-.06,.4,0,.6,.31,1.13,.61,2.26,.94,3.38,.41,1.4,.85,2.79,1.27,4.18-.82-.85-1.27-1.93-1.87-2.92-.55-.92-1.04-1.87-1.56-2.81-.11-.19-.18-.4-.43-.47-.06-.4-.12-.81-.18-1.21-.32-2.09-.81-4.15-.95-6.27,.1,.07,.22,.12,.29,.21,1.28,1.5,2.56,3,3.85,4.49,.65,.76,1.18,1.61,2.31,1.85,1.27,.28,2.53,.11,3.79,.22,1.23,.11,2.12-.42,2.98-1.23,1.3-1.22,2.24-2.69,3.1-4.22,.17-.31,.34-.53,.73-.44-.47,2.72-1.23,5.37-1.81,8.06-.15,.69-.27,1.38-.4,2.07Zm-8.11-2.67c-.09,.01-.17,.02-.26,.03-.26-.29-.12-.83-.8-1.04,.39,.93,.73,1.74,1.06,2.56,.07,.18,.1,.39,.35,.4,.09,0,.19-.02,.28-.03,.28,.23,.43,.19,.31-.18-.15-.51-.34-1.01-.55-1.5-.06-.15-.13-.4-.41-.25Z" style="fill:#ab9da7;"/><path d="M106.84,44.8c-.39-.1-.55,.13-.73,.44-.87,1.53-1.8,3-3.1,4.22-.86,.81-1.75,1.34-2.98,1.23-1.26-.11-2.52,.06-3.79-.22-1.13-.25-1.66-1.1-2.31-1.85-1.29-1.49-2.56-3-3.85-4.49-.08-.09-.19-.14-.29-.21-.23-.26,.16-.28,.17-.45,.24,.25,.49,.5,.73,.75h-.01s.09,0,.13,0c.15-.02,.24-.22,.42-.11-.01,1.14,.9,1.75,1.5,2.52,.78,1,1.64,1.93,2.48,2.89,.58,.66,1.44,.74,2.2,.82,1.04,.1,2.1,.05,3.15-.02,.68-.04,1.21-.28,1.7-.72,1.45-1.31,2.57-2.87,3.55-4.54,.17-.29,.35-.62,0-.92,.19-.32,.29-.08,.39,.07,.11,.17,.2,.35,.43,.15,.08,0,.16,.02,.24,.02,0,.14-.02,.29-.03,.43Z" style="fill:#897a84;"/><path d="M106.53,42.86c-.04,.24-.08,.47-.13,.74-.16-.1-.31-.18-.46-.27,.09-.61,.18-1.22,.27-1.83,.04-.31-.04-.52-.39-.53h0c.07-.16,.13-.34,.21-.51,.08-.18,.34-.36,.18-.56-.16-.2-.38,.08-.59,.06,.06-.11,.13-.21,.19-.32,.29-.01,.54-.44,.79-.22,.24,.21,.09,.6,.04,.9-.13,.84-.12,1.69-.12,2.54Z" style="fill:#d2c9e3;"/><path d="M105.82,40.96c.36,.01,.44,.23,.39,.53-.09,.61-.18,1.22-.27,1.83-.12,0-.25,0-.37,0,.09-.6,.19-1.21,.29-1.86-.16,.04-.23,.05-.29,.08-.19,.07-.4,.34-.58,.12-.17-.21,.11-.38,.2-.56,.08-.16,.41-.31,.05-.51,.23-.15,.27-.42,.39-.64,.2,.02,.42-.26,.59-.06,.16,.2-.1,.37-.18,.56-.08,.17-.14,.34-.21,.52-.01,.01-.02,.03-.04,.04,0-.02,.02-.03,.03-.05Z" style="fill:#897a84;"/><path d="M106.53,42.86c0-.85-.02-1.7,.12-2.54,.05-.3,.19-.69-.04-.9-.25-.22-.5,.21-.79,.22,0-.08,0-.15,0-.23,.53-.37,1.07-.74,1.6-1.11,.02,.14,.04,.27,.06,.41-.33,.17-.4,.5-.43,.8-.1,.92-.4,1.84-.04,2.77,0,.32-.07,.58-.46,.58Z" style="fill:#897a84;"/><path d="M106.71,43.91c0-.25,.14-.44,.32-.69,.17,.3-.04,.5-.05,.7-.09,0-.17,0-.26-.01Z" style="fill:#897a84;"/><path d="M106.71,43.91c.09,0,.17,0,.26,.01-.04,.15-.07,.29-.11,.44-.08,0-.16-.02-.24-.02,.03-.14,.06-.29,.08-.43Z" style="fill:#ab9da7;"/><path d="M111.92,72.11c.34-.53,.55-1.11,.7-1.72,.18-.4,.37-.81,.55-1.21,.22,.14,.15,.34,.1,.52-.49,1.52-.99,3.04-1.48,4.55-.05,.16-.13,.32-.32,.36-.06-.61,.52-1.11,.27-1.75,.06-.25,.13-.5,.19-.75Z" style="fill:#ab9da7;"/><path d="M103.03,30.38c.53-.01,1.07-.02,1.6-.03,1.54,.42,2.43,1.42,2.68,3,0,.29-.01,.58-.02,.87-.16,.12-.15,.3-.17,.47-.26,1.52-1.24,2.34-2.67,2.66-1.38,.31-2.48-.28-3.43-1.22-.41-.4-.56-.96-.8-1.46-.01-.44-.03-.87-.04-1.31l.65-1.63c.14-.16,.29-.32,.43-.48,.55-.37,1.15-.64,1.77-.87Zm.66,6.33c1.6,0,2.83-1.13,2.84-2.63,.02-1.52-1.24-2.78-2.79-2.79-1.55-.01-2.78,1.18-2.79,2.69,0,1.54,1.18,2.72,2.73,2.73Z" style="fill:#e2e8f9;"/><path d="M107.41,38.31c-.53,.37-1.07,.74-1.6,1.11-.29,.08-.58,.16-.87,.24-.56-.03-1.11-.14-1.64-.33-.71-.25-1.39-.6-2.14-.73h0c-.01-.58-.02-1.16-.03-1.74,.31,0,.54,.21,.78,.37,1.77,1.18,4.86,.21,5.44-1.89,.05-.18,.03-.47,.35-.48-.03,.96-.05,1.93-.08,2.89-.04,.11-.08,.21-.12,.32-.02,.08-.04,.17-.07,.25Z" style="fill:#eeecef;"/><path d="M107.68,34.84c-.31,.02-.3,.3-.35,.48-.57,2.11-3.67,3.07-5.44,1.89-.24-.16-.46-.36-.78-.37-.56-.59-1.1-1.19-1.16-2.05,.09-.05,.18-.09,.27-.14,.24,.5,.39,1.06,.8,1.46,.95,.94,2.05,1.53,3.43,1.22,1.43-.32,2.41-1.14,2.67-2.66,.03-.16,.02-.35,.17-.47,.51-.02,.5,.27,.38,.63Z" style="fill:#897a84;"/><path d="M107.48,38.06c.04-.11,.08-.21,.12-.32,.16,.18,.08,.28-.12,.32Z" style="fill:#897a84;"/><path d="M111.73,72.87c.25,.63-.33,1.14-.27,1.75-.05,.04-.1,.08-.16,.12-2.19,.99-4.02,2.54-6.01,3.84-.22,.15-.44,.31-.66,.46-.29-.21-.09-.45-.02-.66,1-3.2,2.01-6.39,2.99-9.6,.19-.63,.5-1.1,1.12-1.35-.06,.42,.3,.69,.43,1.04,.51,1.37,.97,2.76,1.73,4.02,.08,.14,.13,.34,.37,.23,.13,.15,.24,.35,.47,.14Z" style="fill:#f0cd33;"/><path d="M89.96,43.46c-.01,.17-.41,.18-.17,.45,.14,2.12,.63,4.18,.95,6.27,.06,.4,.12,.81,.18,1.21,.03,1.31,.36,2.57,.64,3.84-.32,.18-.38,.04-.45-.28-.41-1.99-.52-4.04-1.12-6.01-.04,.48-.1,.96-.02,1.46-.26-.46-.64-.86-.59-1.45,.56-.53,.23-1.18,.19-1.77-.08-1.13-.23-2.26-.35-3.4-.04-.33,.06-.63,.18-.92,.23-.01,.26,.22,.41,.31,.05,.09,.1,.19,.15,.28Z" style="fill:#6b585c;"/><path d="M99.43,82.97c-.19,0-.39,.02-.53-.16-.04-3.18-.08-6.35-.12-9.53-.02-1.56,0-3.13-.14-4.69-.02-.18-.09-.38,.11-.58,.29,.18,.27,.49,.28,.76,.08,2.05,.12,4.1,.11,6.15-.01,2.68,.03,5.37,.3,8.05Z" style="fill:#897a84;"/><path d="M99.78,61.38c.09-1.09,.58-2.06,.95-3.06,1.18-3.18,2.41-6.35,3.62-9.52,.07-.17,.06-.4,.34-.42,.24,.3,0,.56-.08,.81-1.19,3.15-2.4,6.3-3.6,9.45-.09,.23-.23,.44-.17,.7-.31,.68-.61,1.36-.92,2.04-.05,0-.1,0-.14,0Z" style="fill:#6b585c;"/><path d="M94.78,57.59c-.43-1.39-.86-2.78-1.27-4.18-.33-1.12-.63-2.25-.94-3.38-.05-.2-.2-.4,0-.6,.17-.03,.23,.09,.26,.21,.76,2.8,1.57,5.58,2.53,8.31,.06,.16,.07,.33,.11,.5-.08,0-.16,0-.24,0-.15-.29-.3-.58-.46-.87Z" style="fill:#6b585c;"/><path d="M88.34,64.34c.01-.11,.02-.22,.03-.33,1.82,.11,3.65,.21,5.47,.33,.24,.02,.57-.09,.66,.29h0c-2.07,.08-4.12-.13-6.18-.29Z" style="fill:#ab9da7;"/><path d="M94.51,64.63c1.72-.16,2.99,.7,4.24,1.73-.23,.23-.36,.12-.46,.03-1.01-.81-2.14-1.35-3.43-1.54-.14-.02-.3-.04-.33-.23,0,0,0,0,0,0Z" style="fill:#897a84;"/><path d="M99.78,61.38s.1-.01,.14,0c-.22,1.04-.69,1.97-1.15,2.92-.1-.95,.63-1.69,.6-2.61,0,0,0,0,0,0,.13-.02,.15-.12,.16-.22,.09-.03,.17-.05,.26-.08Z" style="fill:#897a84;"/><path d="M91.18,57.14c.62-.04,.2-.7,.55-.91,0,.77,.47,1.48,.38,2.41-.52-.48-.76-.97-.93-1.5Z" style="fill:#6b585c;"/><path d="M95.23,58.45c.08,0,.16,0,.24,0,.39,.52,.7,1.07,.64,1.75-.61-.42-.63-1.14-.89-1.75Z" style="fill:#897a84;"/><path d="M97.87,83.95c.28,.65-.37,.67-.65,.85-.24,.16-.16-.17-.18-.3,.28-.18,.55-.36,.83-.54Z" style="fill:#6b585c;"/><path d="M99.28,83.53c.54,.23,.79,.74,1.18,1.12,.07,.07,.09,.18,0,.26-.09,.09-.19,.05-.25-.03-.31-.45-.81-.76-.93-1.35Z" style="fill:#6b585c;"/><path d="M111.26,72.72c-.24,.11-.29-.1-.37-.23-.76-1.26-1.23-2.66-1.73-4.02-.13-.35-.49-.62-.43-1.04,.46-.07,.51,.29,.6,.58,.43,1.35,1.01,2.63,1.57,3.93,.08,.17,.21,.32,.31,.48,.02,.1,.03,.2,.05,.31Z" style="fill:#ab9da7;"/><path d="M108.56,65.93c.23,.39,.36,.66,.33,.96-.02,.26-.21,.39-.46,.35-.34-.05-.17-.28-.13-.45,.06-.25,.15-.5,.26-.87Z" style="fill:#897a84;"/><path d="M111.26,72.72c-.02-.1-.03-.2-.05-.31,.31,.07,.48-.18,.71-.31-.06,.25-.13,.5-.19,.75-.23,.21-.34,0-.47-.14Z" style="fill:#3b2e29;"/><path d="M88.85,37.69c-.06-.07-.11-.14-.17-.21,0-.51-.03-1.01-.25-1.49-.01-.09-.03-.19-.04-.28,.08-.22,.05-.42-.09-.61-.02-.14-.05-.28-.07-.42,.09-.17,.05-.32-.07-.46-.01-.09-.03-.19-.04-.28,.04-.14,.08-.27,.12-.41,.14-.05,.27-.11,.41-.16,.26,0,.53,0,.79,.01,.02,.17,.05,.34,.05,.51-.01,1.88,1.09,3.31,2.93,3.8,2.19,.59,3.73,0,4.71-1.77,.29-.52,.38-1.11,.46-1.69,.47-.02,.94-.04,1.4-.06,.02,.21,.05,.43,.07,.64-.17,1.03,.18,2.03,.12,3.05-.01,.18,.07,.42-.23,.45-.32,.03-.35-.19-.35-.42-.01-.78-.02-1.56-.05-2.34,0-.24,.08-.52-.35-.78,0,.94,0,1.76,0,2.57,0,1.03,0,1.01-.99,1.16-.55,.08-1.1,.22-1.64,.36-1.04,.27-2.05,.64-3.14,.67-.29-.06-.58-.13-.87-.19-1.01-.39-1.86-1.03-2.72-1.65Z" style="fill:#eeecef;"/><path d="M88.85,37.69c.87,.62,1.72,1.26,2.72,1.65-.05,.06-.1,.11-.15,.17-.22,0-.47-.06-.45,.3h0c-.15-.02-.39-.1-.38,.14,.01,.28,.23,.44,.53,.47,.06,.06,.13,.12,.19,.19,.13,.45,.07,.8-.21,1.24-.2,.31,0,.89,.01,1.34-.06,.06-.13,.12-.19,.18-.07-.18-.14-.35-.21-.53q-.3,.33-.91,.35c-.15-.09-.19-.32-.41-.31,.02-.21,.03-.42,.04-.63,.31,.03,.42,.41,.76,.41,.29-.66,.08-1.33,.04-2-.08-1.34-.06-1.34-1.32-1.73-.22-.4-.18-.81-.07-1.23Z" style="fill:#897a84;"/><path d="M86.59,29.82c0-.26,.19-.43,.31-.62,.09-.14,.25-.26,.41-.22,.21,.05,.11,.28,.16,.42,.01,.12,.03,.23,.04,.35,.05,.31,.1,.62,.16,.93,.04,.68,.03,1.37,.21,2.03,.03,.27,.16,.53,.08,.81-.02,.12-.05,.23-.07,.35-.07,.11-.13,.23-.2,.34-.27,.1-.33,.32-.37,.57-.05,.06-.1,.13-.14,.19-.06,0-.13,0-.19-.01,0-1.5,.02-3,.01-4.5,0-.22,.16-.57-.28-.61-.04-.03-.08-.04-.13-.02Z" style="fill:#685fb3;"/><path d="M88.93,38.91c1.26,.39,1.24,.39,1.32,1.73,.04,.67,.25,1.34-.04,2-.34,0-.46-.38-.76-.41-.06-.21-.12-.43-.17-.64,.08-.13,.07-.24-.05-.34-.02-.18-.05-.36-.07-.55,.08-.18,.08-.34-.07-.48-.16-.43-.22-.87-.15-1.32Z" style="fill:#eeecef;"/><path d="M85.76,31c-.26,.41-.55,.8-1.05,1.12-.12-.5,.11-.89,.19-1.29,.13-.67,.23-1.35,.38-2.01,.05-.24,.09-.62,.45-.56,.36,.06,.29,.42,.24,.66-.11,.51-.08,1.02-.1,1.53-.15,.16-.19,.35-.1,.55Z" style="fill:#685fb3;"/><path d="M89.45,33.38c-.26,0-.53,0-.79-.01,.02-.22-.08-.46,.14-.63,.32-.01,.64-.02,.96-.03,.12,.01,.23,.03,.35,.04-.07,.19-.13,.39-.2,.58-.14,.13-.3,.04-.46,.05Z" style="fill:#6b585c;"/><path d="M87.88,32.71c-.19-.66-.17-1.35-.21-2.03,.43,.64,.48,1.32,.21,2.03Z" style="fill:#6b585c;"/><path d="M88.44,35.98c.22,.47,.25,.98,.25,1.49-.39-.45-.42-.95-.25-1.49Z" style="fill:#6b585c;"/><path d="M83.21,46.67c-.18-.12-.09-.27-.06-.42,0-.04,.02-.06,.05-.06-.05-.1-.1-.2-.16-.3,0-.17,0-.34,.26-.43,.08,.42,.13,.82-.09,1.21Z" style="fill:#6b585c;"/><path d="M83.43,56.82c-.37-.24-.19-.58-.15-.89,.31,.25,.18,.58,.15,.89Z" style="fill:#6b585c;"/><path d="M86.59,29.82s.09,0,.13,.02c-.02,.28-.22,.39-.49,.55-.03-.35,.15-.48,.36-.58Z" style="fill:#6b585c;"/><path d="M83.22,55.33c-.23-.16-.16-.37-.08-.57,.23,.16,.24,.35,.08,.57Z" style="fill:#6b585c;"/><path d="M88.31,35.1c.15,.18,.17,.39,.09,.61-.26-.17-.27-.37-.09-.61Z" style="fill:#6b585c;"/><path d="M87.32,34.78c.03-.25,.1-.48,.37-.57,.03,.29-.06,.5-.37,.57Z" style="fill:#6b585c;"/><path d="M83.08,54.15c-.24-.16-.16-.37-.08-.57,.22,.16,.24,.36,.08,.57Z" style="fill:#6b585c;"/><path d="M85.76,31c-.09-.21-.05-.39,.1-.55,.2,.23,.15,.41-.1,.55Z" style="fill:#6b585c;"/><path d="M89.08,40.23c.15,.14,.15,.31,.07,.48-.2-.13-.25-.29-.07-.48Z" style="fill:#897a84;"/><path d="M87.51,29.75c-.01-.12-.03-.23-.04-.35,.12,.01,.23,.05,.23,.2,0,.1-.08,.15-.18,.15Z" style="fill:#6b585c;"/><path d="M87.88,33.87c.02-.12,.05-.23,.07-.35,.1,0,.19,0,.29,0-.04,.14-.08,.27-.12,.41-.08-.02-.16-.05-.24-.07Z" style="fill:#6b585c;"/><path d="M83.04,47.99c-.18-.17-.15-.3,.07-.4,.08,.15,.09,.29-.07,.4Z" style="fill:#6b585c;"/><path d="M88.17,34.22c.12,.14,.16,.29,.07,.46-.21-.13-.24-.28-.07-.46Z" style="fill:#6b585c;"/><path d="M86.98,34.96c.06,0,.13,0,.19,.01-.02,.11-.05,.24-.19,.19-.11-.03-.08-.13,0-.2Z" style="fill:#6b585c;"/><path d="M89.2,48.59c-.1-.01-.2-.03-.3-.04,.03-.09,.07-.18,.18-.17,.11,.02,.13,.11,.12,.21Z" style="fill:#6b585c;"/><path d="M90.39,29.36c.02,.13-.03,.23-.16,.29-.2-.23-.03-.26,.16-.29Z" style="fill:#3b2e29;"/><path d="M89.22,41.26c.12,.1,.13,.21,.05,.34-.15-.09-.21-.2-.05-.34Z" style="fill:#897a84;"/><path d="M83.04,45.89c.05,.1,.1,.2,.16,.3-.14-.05-.17-.16-.16-.3Z" style="fill:#685fb3;"/><path d="M90.1,32.75c-.12-.01-.23-.03-.35-.04,.71-1.36,1.66-2.46,3.48-2.71-.71-.32-1.33,.04-1.94-.58,1.02,.03,1.85,0,2.68,.32,.54,.2,1.07,.57,1.71,.36,.49,.12,.38,.36,.13,.63-.58-.27-1.16-.49-1.82-.49-1.83,.01-3.06,.96-3.89,2.51Z" style="fill:#897a84;"/><path d="M99,34.17c-.47,.02-.94,.04-1.4,.06-.1-.1-.19-.2-.29-.3,.02-.19,.03-.39,.05-.58,.08,0,.16,0,.25-.01,0,.02,0,.06,.02,.07,.41,.36,1.89,.31,2.3-.08,.09,0,.17,.02,.26,.03,.01,.44,.03,.87,.04,1.31-.09,.05-.18,.09-.27,.14-.08-.57-.4-.77-.95-.63Z" style="fill:#6b585c;"/><path d="M97.61,33.33c-.08,0-.16,0-.25,.01-.14-.73-.37-1.43-.84-2.03,.1-.02,.21-.03,.31-.05,.49,.6,.87,1.24,.77,2.06Z" style="fill:#897a84;"/><path d="M100.18,33.35c-.09,0-.17-.02-.26-.03,.03-.6,.26-1.12,.6-1.6,.1,0,.2,0,.3,0-.22,.54-.43,1.08-.65,1.63Z" style="fill:#897a84;"/><path d="M96.52,31.31c.47,.6,.7,1.29,.84,2.03-.02,.19-.03,.39-.05,.58-.04,.19-.1,.37-.13,.56-.23,1.9-1.34,2.94-3.27,3.06-1.87,.11-3.62-1.08-3.96-2.76-.1-.47-.04-.97-.05-1.45,.07-.19,.13-.39,.2-.58,.83-1.56,2.06-2.5,3.89-2.51,.65,0,1.24,.22,1.82,.49,.14,.1,.28,.2,.42,.3,.1,.1,.19,.19,.29,.29Zm-2.87,5.11c1.47,0,2.61-1.05,2.6-2.4-.02-1.39-1.13-2.46-2.56-2.48-1.44-.02-2.56,1.04-2.57,2.45-.02,1.4,1.05,2.43,2.54,2.43Z" style="fill:#e2e8f9;"/><polygon points="80.11 39.79 80.08 39.83 80.12 39.8 80.11 39.79" style="fill:#1b1d2e;"/><path d="M76.92,44.53c-.06,0-.12-.02-.18-.03,.08-.15,.13-.05,.18,.03Z" style="fill:#6b585c;"/><path d="M80.55,34.94s-.02,.04-.03,.06c.01-.02,.02-.04,.03-.05,0,0,0,0,0,0Z" style="fill:#685fb3;"/><path d="M89.67,54.63c-.1,.04-.2,.09-.3,.13-.05-.75,.08-1.49,.29-2.23,.2,.69,.04,1.42,.29,2.09h-.01c-.09,0-.18,0-.28,0Z" style="fill:#7e36a2;"/><path d="M89.96,54.62s.03,.02,.05,.04c-.02,0-.04-.02-.06-.03,0,0,.01-.01,.01-.01Z" style="fill:#7e36a2;"/><path d="M92.44,39.53c1.09-.03,2.1-.4,3.14-.67,.54-.14,1.09-.28,1.64-.36,.98-.15,.99-.13,.99-1.16,0-.82,0-1.63,0-2.57,.43,.26,.34,.54,.35,.78,.02,.78,.03,1.56,.05,2.34,0,.24,.04,.45,.35,.42,.3-.03,.22-.27,.23-.45,.06-1.02-.28-2.03-.12-3.05,.4,.06,.4,.38,.42,.67,.03,.44,0,.88,.03,1.32,.12,1.49,.12,1.49,1.62,1.79,0,0,0,0,0,0-.01,.1-.02,.2-.03,.3-2.01-.5-3.96-.15-5.89,.42-.91,.27-1.82,.55-2.79,.49,0-.09,0-.18,0-.27Z" style="fill:#897a84;"/><path d="M101.13,38.89c.01-.1,.02-.2,.03-.3,.75,.13,1.43,.48,2.14,.73,.53,.19,1.08,.3,1.64,.33,0,.08,.02,.17,.03,.25-.72,.19-1.37-.05-2.02-.31-.6-.24-1.21-.46-1.82-.69Z" style="fill:#ab9da7;"/><path d="M90.94,43.35c.06-.06,.13-.12,.19-.18,.23,.55,.96,.74,1.03,1.47-.43-.03-.62-.39-.92-.54-.18-.12-.28,.09-.42,.11-.04-.03-.08-.04-.13-.02,0,0,.01,.01,.01,.01,.05-.29-.03-.62,.24-.85Z" style="fill:#6b585c;"/><path d="M92.44,39.53c0,.09,0,.18,0,.27-.29,.14-.83-.04-.71,.62,.03,.17-.26,.15-.42,.17-.06-.06-.13-.12-.19-.19,.4-.31-.2-.38-.15-.61,0,0,0,0,0,0,.17-.07,.46,.04,.45-.3,.05-.06,.1-.11,.15-.17,.29,.06,.58,.13,.87,.19Z" style="fill:#6b585c;"/><path d="M104.97,39.9c0-.08-.02-.17-.03-.25,.29-.08,.58-.16,.87-.24,0,.08,0,.15,0,.23-.06,.11-.13,.21-.19,.32-.12,.22-.17,.49-.39,.64-.12,.09-.26,.17-.39,.05-.12-.11,.01-.21,.08-.3,.1-.14,.32-.28,.05-.46Z" style="fill:#6b585c;"/><path d="M96.88,54.21c-.25-.01-.28-.23-.35-.4-.33-.81-.67-1.62-1.06-2.56,.68,.2,.54,.75,.8,1.04,.08,.33,.19,.64,.45,.88h0c0,.16,0,.33,.15,.44h0c0,.2,.02,.4,.03,.6Z" style="fill:#6b585c;"/><path d="M96.52,52.25c.28-.15,.35,.1,.41,.25,.2,.49,.39,.99,.55,1.5,.11,.37-.04,.41-.31,.18-.03-.23-.11-.44-.3-.58,0,0,0,0,0,0,0-.17,.03-.34-.15-.45,0,0,0,0,0,0,.05-.33-.09-.62-.19-.91Z" style="fill:#6b585c;"/><path d="M96.52,52.25c.1,.3,.24,.58,.19,.91-.25-.24-.37-.55-.45-.88,.09-.01,.17-.02,.26-.03Z" style="fill:#897a84;"/><path d="M96.86,53.6c.2,.14,.27,.35,.3,.58-.09,0-.19,.02-.28,.03,0-.2-.02-.41-.03-.61Z" style="fill:#897a84;"/><path d="M99.52,61.47c-.01,.1-.03,.2-.16,.22,.05-.07,.11-.15,.16-.22Z" style="fill:#eeecef;"/><path d="M90.94,43.35c-.27,.23-.19,.56-.24,.85-.24-.25-.49-.5-.73-.75-.05-.09-.1-.19-.15-.28q.61-.02,.91-.35c.07,.18,.14,.36,.21,.53Z" style="fill:#d2c9e3;"/><path d="M90.68,44.19s.09-.01,.13,.02c-.04,0-.09-.01-.13-.02Z" style="fill:#d2c9e3;"/><path d="M105.82,40.96s-.02,.03-.03,.05c.01-.01,.02-.03,.04-.04,0,0,0,0,0,0Z" style="fill:#d2c9e3;"/><path d="M103.7,36.71c-1.55,0-2.74-1.19-2.73-2.73,0-1.51,1.24-2.7,2.79-2.69,1.55,.01,2.8,1.27,2.79,2.79-.02,1.5-1.25,2.63-2.84,2.63Zm2.46-2.7c0-1.39-1.03-2.4-2.48-2.42-1.22-.02-2.33,1.12-2.35,2.43-.02,1.31,1.08,2.39,2.44,2.4,1.33,0,2.4-1.06,2.4-2.41Z" style="fill:#ab9da7;"/><path d="M101.15,38.58c-1.5-.3-1.51-.3-1.62-1.79-.03-.44,0-.88-.03-1.32-.02-.29-.02-.61-.42-.67-.02-.21-.05-.43-.07-.64,.55-.14,.87,.06,.95,.63,.07,.87,.61,1.46,1.16,2.05,.01,.58,.02,1.16,.03,1.73Z" style="fill:#ab9da7;"/><path d="M89.9,33.33c.01,.49-.05,.99,.05,1.45,.34,1.68,2.09,2.87,3.96,2.76,1.93-.12,3.04-1.16,3.27-3.06,.02-.19,.08-.37,.13-.56,.1,.1,.19,.2,.29,.3-.09,.58-.18,1.16-.46,1.69-.98,1.78-2.52,2.36-4.71,1.77-1.84-.49-2.95-1.92-2.93-3.8,0-.17-.03-.34-.05-.51,.15,0,.32,.08,.46-.05Z" style="fill:#897a84;"/><path d="M90.99,39.79c-.05,.23,.55,.3,.15,.61-.29-.03-.51-.19-.53-.47-.01-.23,.23-.15,.38-.14Z" style="fill:#d2c9e3;"/><path d="M91.43,39.5c0,.34-.28,.23-.45,.3-.02-.36,.23-.31,.45-.3Z" style="fill:#d2c9e3;"/><path d="M93.65,36.43c-1.49,0-2.56-1.03-2.54-2.43,.02-1.4,1.14-2.46,2.57-2.45,1.44,.02,2.55,1.09,2.56,2.48,.02,1.35-1.12,2.41-2.6,2.4Zm.02-.29c1.11,.17,2.23-1.01,2.26-2.12,.03-1.09-1.04-2.12-2.19-2.15-1.28-.02-2.33,.95-2.31,2.15,.02,1.23,.95,2.11,2.24,2.12Z" style="fill:#ab9da7;"/><path d="M96.71,53.16c.18,.11,.15,.28,.15,.45-.16-.11-.15-.28-.15-.45Z" style="fill:#897a84;"/><path d="M106.15,34.01c0,1.35-1.07,2.42-2.4,2.41-1.36,0-2.46-1.1-2.44-2.4,.02-1.31,1.13-2.45,2.35-2.43,1.45,.03,2.49,1.03,2.48,2.42Zm-2.69-1.4c-.68,0-1.15,.52-1.15,1.24,0,.75,.51,1.25,1.24,1.24,.64-.01,1.12-.57,1.11-1.28-.01-.7-.52-1.21-1.19-1.2Z" style="fill:#e2e8f9;"/><path d="M93.68,36.14c-1.29,0-2.23-.89-2.24-2.12-.01-1.2,1.03-2.17,2.31-2.15,1.15,.02,2.23,1.06,2.19,2.15-.03,1.12-1.15,2.29-2.26,2.12Zm1.14-2.25c0-.64-.61-1.26-1.26-1.26-.7,0-1.38,.62-1.38,1.25,0,.62,.65,1.21,1.32,1.2,.74,0,1.3-.51,1.31-1.19Z" style="fill:#e2e8f9;"/><path d="M103.47,32.62c.67,0,1.18,.5,1.19,1.2,.01,.72-.46,1.27-1.11,1.28-.72,.01-1.23-.5-1.24-1.24,0-.72,.47-1.23,1.15-1.24Zm-.77,1.26c.04,.5,.25,.91,.82,.9,.57,0,.8-.44,.8-.94,0-.5-.25-.93-.82-.92-.56,.01-.77,.42-.8,.96Z" style="fill:#ab9da7;"/><path d="M94.81,33.89c0,.68-.56,1.18-1.31,1.19-.67,0-1.32-.58-1.32-1.2,0-.63,.68-1.26,1.38-1.25,.65,0,1.27,.63,1.26,1.26Zm-1.34,.8c.62,.03,1-.28,1-.84,0-.52-.34-.84-.92-.83-.57,0-.97,.22-.96,.85,.01,.55,.32,.86,.88,.82Z" style="fill:#ab9da7;"/><path d="M102.7,33.88c.03-.54,.24-.94,.8-.96,.57-.01,.81,.42,.82,.92,0,.5-.23,.93-.8,.94-.57,0-.78-.4-.82-.9Z" style="fill:#e2e8f9;"/><path d="M93.47,34.69c-.56,.03-.87-.27-.88-.82-.01-.62,.39-.84,.96-.85,.57,0,.92,.31,.92,.83,0,.56-.38,.88-1,.84Z" style="fill:#e2e8f9;"/></svg>