<?xml version="1.0" encoding="UTF-8"?><svg id="Layer_1" xmlns="http://www.w3.org/2000/svg" width="20" height="20" viewBox="0 0 500 500"><path d="M306.95,10.75c21.4,.78,36.36,10.07,47.38,26.35,1.09,1.61,2.03,3.33,3.26,4.82,5.37,6.49,8.05,14.31,10.81,22.05,.22,.57,.34,1.16,.36,1.77,.28,8.16,1.09,16.34,.66,24.46-.42,7.65-2.17,15.23-3.29,22.81-.59,4.02-.36,8.33-1.76,12.07-2.45,6.56-1.52,13.42-3.06,20.12-1.54,6.71-3.07,13.62-4.56,20.43-1.72,7.89-5.37,15.2-6.09,23.45-.76,8.55-2.84,16.96-4.24,25.49-.5,3.09-.72,6.22-1.01,9.39-.07,.8-.16,1.96,.28,2.37,4.13,3.81,1.85,8.97,2.55,13.42,1.54,9.62,1.57,19.48,2.45,29.22,.89,9.74-1.5,18.9-5.46,27.8-.68,1.54-.08,4.02,.63,5.78,1.52,3.76,3.69,7.24,5.25,11,2.21,5.37,4.02,10.81,6.16,16.18,1.01,2.52,2.75,4.79,3.5,7.37,1.27,4.45,1.89,9.1,3.05,13.59,1.9,7.47,5.02,14.76,5.8,22.36,1.44,13.55,2.58,27.5-5.47,40.15-4.83,7.55-5.65,16.35-7.16,24.99-1.7,9.71-.99,19.57-2.86,29.25-2.11,10.84-9.99,15.86-19.22,19.08-3.7,1.09-7.66-.44-9.66-3.74-3.53-5.9-6.47-12.15-9.55-18.33-2.17-4.36-3.89-8.99-6.36-13.17s-6.71-6.43-11.54-7.32c-12.04-2.25-24.3-3.04-36.53-2.36-6.77,.38-12.65,3.22-18.11,7.34-3.4,2.52-5.7,6.25-6.43,10.42-1.35,6.05-3.46,11.91-6.26,17.44-2.96,5.81-8.68,8.65-14.98,9.91-2.58,.52-5.26,.47-7.89,.78-3.45,.4-5.94-1.34-8.56-3.29-6.26-4.56-8.51-11.13-9.61-18.31-1.34-9.02-2.68-18.04-4.02-27.05-.48-3.23-2.78-4.72-5.92-3.61-7.37,2.59-14.69,5.3-22.01,8.05-4.48,1.64-8.95,2.76-13.66,.87-.49-.15-.99-.22-1.5-.21-11.31-.64-17.19-11.68-11.51-21.46,3.41-5.88,6.41-11.99,9.98-17.75,2.68-4.4,1.88-8.73,1.46-13.42-.59-6.63-.23-13.35-.19-20.02,0-1.34,.54-2.68,.47-3.93-.27-5.66,1.18-11.01,2.58-16.42,1.06-4.02,.87-8.57,2.29-12.49,3.95-11.19,10.79-21.13,19.83-28.82,9.07-7.74,19.81-11.74,30.86-15.36,3.2-1.08,5.89-3.33,7.51-6.29,.32-.52,.46-1.25,.91-1.57,5.03-3.65,2.08-8.64,2.21-13.08,.07-1.8-.46-3.61-.56-5.37-.58-8.72-1.01-17.44-1.66-26.17-.46-6.2,1.85-11.36,5.49-16.1,.61-.63,1.42-1.03,2.29-1.13,1.41-.17,2.86,0,4.28,0,2.75-.11,3.92-1.5,3.43-4.13-1.22-6.71-2.6-13.32-3.65-20.03-.94-6.01-1.34-12.07-2.36-18.1-.42-2.55-1.93-4.91-2.39-7.45-1.45-8.2-2.68-16.41-3.9-24.64-.67-4.6-1.9-9.32-1.42-13.84,.64-6.06-.98-11.77-1.19-17.65-.3-8.38,1.84-16.22,4.15-24.15,4.99-17.33,12.36-33.54,23.75-47.41,8.53-10.44,17.44-20.78,30.16-26.83,8.14-3.71,16.79-6.2,25.66-7.38,5.81-1.09,11.66-1.66,16.17-2.2h0Zm-95.52,277.7c-2.08,2.68-3.58,4.39-4.91,6.26-2.01,2.69-3.86,5.49-5.55,8.38-5.27,9.7-10.61,19.39-15.45,29.31-2.06,4.62-3.67,9.43-4.82,14.35-1.37,4.36-2.25,8.86-2.6,13.42-.2,5.82,.66,11.68,1.07,17.52,.89,11.77,2.79,23.44,5.67,34.88,1.72,6.95,4.02,13.75,5.51,20.73,1.05,5.3,1.74,10.66,2.08,16.04,.63,7.73,1.34,15.39,3.94,22.81,1.81,5.1,4.71,9.07,9.77,11.09,6.98,2.79,19.56-2.21,22.5-9.2,2.22-4.92,3.85-10.09,4.86-15.39,.88-6.13,4.36-11.57,9.55-14.94,9.1-6.25,19.2-7.87,29.97-6.33,1.9,.37,3.84,.52,5.78,.44,8.05-.82,15.64,1.07,23.29,2.82,5.23,1.19,10.03,3.94,12.52,8.59,3.78,7.06,6.6,14.64,9.69,22.05,1.66,4.02,3.69,7.73,7.3,10.34,1.96,1.41,4.02,2.01,6.21,.5,3.58-2.48,7.18-4.95,10.73-7.47,.62-.37,1.1-.95,1.34-1.64,.84-4.07,1.46-8.18,1.84-12.32,.38-6.36,0-12.77,.44-19.14,.34-4.27,1-8.5,1.97-12.66,1.26-5.77,2.05-11.83,4.52-17.06,2.07-4.37,4.39-8.25,5.25-13.31,1.23-7.27,1.77-14.46,.35-21.56-2.19-10.88-4.71-21.71-7.78-32.37-3.6-12.39-8.3-24.44-14.05-35.99-.7-1.34-1.34-2.8-2.08-4.39-.72,.68-1.21,1.06-1.61,1.5-3.45,3.89-6.86,7.82-10.33,11.7-6.13,6.84-14.45,10.44-22.08,15.12-6.18,3.78-13.08,4.19-19.87,5.3-1.32,.18-2.66,.1-3.96-.21-8.41-1.82-16.81-3.76-25.22-5.61-13.21-2.91-23.56-10.91-33.7-19.18-1.19-1.24-2.1-2.72-2.68-4.33-3.1-6.35-6.02-12.72-9.46-20.07v.03Zm128.69-63.05c.19-2.04,.2-3.25,.43-4.43,2.68-14.48,4.21-29.15,8.4-43.37,2.11-7.34,3.84-14.78,5.16-22.3,2.33-12.68,5.65-25.17,7.2-38.01,1.07-8.76,2.43-17.44,3.58-26.24,.12-1.43,.1-2.86-.07-4.28-.3-4.67-.64-9.39-.95-13.99,.06-1.73-.04-3.46-.32-5.16-1.46-5.51-2.12-11.24-6.39-15.82-3.43-3.69-5.97-8.2-9.04-12.23-4.11-5.37-10.38-5.19-16.1-5.46-4.17-.21-8.45,.86-12.64,1.6-7.92,1.41-16.02,2.24-23.61,4.66-14.5,4.57-27.92,11.42-38.57,22.74-11.24,12.18-20.14,26.32-26.27,41.72-3.53,8.59-5.49,17.84-7.83,26.83-3.45,13.25-3.37,26.83-3.01,40.41,.08,2.84,.55,5.67,.82,8.51,.67,7.19,1.23,14.39,2.04,21.57,.75,6.77,1.77,13.52,2.68,20.28,.48,3.7,1.58,7.11,4.71,9.65,.48-.31,.87-.63,1.34-.86,8.12-4.02,16.02-8.52,24.43-11.78,6.41-2.3,13.06-3.85,19.83-4.6,5.27-.71,10.73-.19,16.1,0,3.64,.13,7.24,.79,10.88,1.01,9.55,.58,19.17,.48,27.88,5.53,3.01,1.55,6.12,2.92,9.31,4.08v-.04Zm-106.65,44.27l-.58,.09c.62,3.77,.58,7.81,1.99,11.24,2.58,6.1,5.6,12.01,9.02,17.68,1.43,2.34,3.43,4.28,5.82,5.63,6.29,3.56,12.77,6.81,19.32,9.86,2.65,1.29,5.53,2.05,8.48,2.23,8.24,.27,16.26,.6,24.46-2.68,8.44-3.36,16.35-7.91,23.49-13.52,7.96-6.26,11.98-14.38,14.18-23.64,1.18-4.44,1.43-9.07,.71-13.6-.94-4.67-3.73-8.97-5.82-13.42-.4-.7-1.03-1.24-1.78-1.52-3.3-1.34-6.6-2.68-10.01-3.77-11.5-3.51-23.34-2.5-35.12-2.75-8.28-.19-15.98,2.03-23.48,4.48-8.56,2.8-16.55,7.28-24.82,10.96-4.52,2.01-6.83,5.16-5.88,10.29,.08,.81,.09,1.62,.03,2.43h0Zm-37.83,30.86l-.54-.74c-6.47,.82-12.49,2.76-17.51,7.3-1.81,1.65-3.61,3.31-5.54,4.82-6.63,5.02-12.08,11.43-15.95,18.78-1.88,3.59-3.34,7.38-4.35,11.31-.87,3.47-.19,7.38-1.26,10.73-2.94,9.23-2.11,18.78-3.02,28.17-.27,2.84,.71,5.81,1.05,8.73,.31,2.68,1.34,5.7,.6,8.05-2.24,5.9-4.8,11.67-7.67,17.28-1.85,3.85-4.49,7.37-6,11.32-1.78,4.71-.8,9.97,3.37,11.79,3.91,1.96,8.29,2.8,12.65,2.43,4.23-.52,7.65-2.48,11.4-3.93,6.71-2.68,13.51-4.86,20.67-7.38-.85-3.35-1.95-7.24-2.83-11.2-1.64-7.34-3.46-14.66-4.63-22.1-1.21-7.71-1.62-15.56-2.54-23.33-1.27-10.93-.76-21.64,3.5-31.94,.94-2.25,1.72-4.59,2.68-6.81,4.53-9.9,9.11-19.78,13.72-29.63,.66-1.26,1.46-2.4,2.17-3.6v-.05Zm15.72-56.65v3.84c-.6,10.4,1.34,20.49,3.66,30.53,3.33,14.65,9.26,27.78,21.87,36.95,.08,0,.15,.13,.23,.2,6.12,5.1,12.72,9.2,20.78,10.42,2.92,.44,5.86,.86,8.73,1.52,8.68,2.01,17.23,4.9,26.36,3.57,2.29-.34,4.83-.2,6.86-1.15,6.52-3.03,12.87-6.45,19.25-9.77,.98-.54,1.91-1.19,2.75-1.93,9.81-8.25,18.03-17.67,22.48-29.98,1.98-5.08,2.24-10.66,.74-15.9-.48,1.72-.38,3.58-.94,5.21-4.57,13.19-10.36,25.11-23.81,32.2-5.37,2.8-10.73,5.7-16,8.6-5.1,2.75-10.33,3.07-15.88,3.43-10.3,.67-19.59-1.74-28.86-6.12-10.21-4.82-19.1-10.46-24.01-21.22-3.41-7.46-6.8-14.76-7.08-23.2-.28-8.61,1.1-17.33-1.57-25.82-1.25-3.96-1.89-8.13-3.47-11.94-.99-1.82-2.66-3.17-4.64-3.77-5.07-1.52-7.59,4.72-6.04,9.83,1.44-.89,2.68-1.78,4.15-2.54,2.19-1.31,5.04-.6,6.35,1.6,.32,.54,.53,1.14,.61,1.76,.25,3.15,.25,6.32,0,9.47-.34,4.32-2.68,5.29-6.36,2.83-.62-.34-1.18-.8-1.64-1.34-1.34-2.05-2.64-4.23-4.51-7.22v-.05ZM299.25,17.15c.7,1.22,1.46,2.41,2.07,3.69,1.73,3.61,1.34,5.37-2.21,7.28-3.59,1.91-7.32,3.53-11.16,4.86-5.02,1.66-8.05,.38-11.01-4.02-2.55-3.73-1.42-6.32,3.01-7.16,1.74-.32,3.42-.95,5.12-1.44-8.05-.94-27.3,8.45-28.36,13.2,.55-.24,1.01-.38,1.34-.6,3.23-1.76,4.55-1.45,6.61,1.54,1.74,2.51,1.86,7.79-.43,9.97-4.15,3.93-8.71,7.43-13.19,11.2-2.07-2.37-3.54-4.19-5.16-5.86-1.09-.87-1.26-2.46-.39-3.55,.06-.07,.12-.14,.19-.21,.86-1.17,1.53-2.46,2.29-3.69l-.97-.52c-17.99,16.85-26.39,38.9-32.49,62.03-3.09,11.74-2.46,42.24,.55,45.87,.21-.34,.36-.7,.47-1.09,.64-5.15,1.18-10.32,1.89-15.45,2.21-15.75,6.71-30.73,14.76-44.54,5.26-8.96,10.3-18,17.27-25.89,5.37-6.08,10.61-12.33,17.94-15.91,6.52-3.19,12.37-7.96,19.84-9.12,.48-.08,.91-.48,1.34-.62,6.52-1.88,13-3.89,19.59-5.51,3.87-.83,7.78-1.43,11.71-1.8,3.21-.4,6.45-.64,9.7-.82,1.85-.09,3.74,.11,5.61,.07,1.11-.09,2.21-.24,3.3-.47-9.36-12.25-29.46-16.46-39.21-11.36v-.07Zm39,226.21c.66-3.68,1.34-6.6,1.66-9.57,.12-.91-.17-2.51-.75-2.78-7-3.21-13.27-8.33-21.22-9.1-11.34-1.1-22.71-1.84-34.07-2.68-1.12,0-2.24,.17-3.31,.48-2.68,.56-5.37,1.44-8.05,1.74-13.83,1.52-25.66,8.2-37.56,14.62-2,1.07-4.87,2.36-2.9,5.81,.2,.34-.51,1.11-.51,1.68,.07,3.53-.58,7.19,1.41,10.42,4.02-1.72,7.93-3.22,11.68-4.96,20.23-9.39,41.2-14.76,63.71-11.75,7.31,.95,14.9,.32,21.72,4.02,1.25,.66,2.58,1.15,3.96,1.44,1.4,.31,2.81,.54,4.24,.68v-.07Zm5.3,1.11c-4.99,4.56-2.33,9.04,1.01,13.42-.35-4.48-.68-9.1-1.01-13.35v-.07Z" style="fill:#2d2c28;"/><path d="M211.44,288.42c3.43,7.35,6.36,13.72,9.39,20.06,.58,1.62,1.49,3.09,2.68,4.33,10.14,8.28,20.49,16.27,33.7,19.18,8.41,1.85,16.81,3.78,25.22,5.61,1.29,.32,2.64,.39,3.96,.21,6.79-1.11,13.68-1.52,19.87-5.3,7.63-4.68,15.95-8.28,22.08-15.12,3.47-3.88,6.88-7.81,10.33-11.7,.4-.44,.89-.82,1.61-1.5,.75,1.58,1.34,2.99,2.08,4.39,5.75,11.55,10.45,23.6,14.05,35.99,3.07,10.73,5.59,21.46,7.78,32.37,1.42,7.1,.89,14.29-.35,21.56-.86,5.06-3.18,8.93-5.25,13.31-2.47,5.23-3.26,11.3-4.52,17.06-.98,4.17-1.64,8.4-1.97,12.66-.4,6.37,0,12.78-.44,19.14-.38,4.14-.99,8.25-1.84,12.32-.24,.69-.72,1.26-1.34,1.64-3.56,2.52-7.15,4.99-10.73,7.47-2.2,1.52-4.25,.91-6.21-.5-3.61-2.62-5.63-6.32-7.3-10.34-3.09-7.42-5.9-15-9.69-22.05-2.48-4.64-7.28-7.39-12.52-8.59-7.65-1.74-15.29-3.64-23.29-2.82-1.94,.08-3.88-.07-5.78-.44-10.73-1.54-20.87,.08-29.97,6.33-5.19,3.37-8.67,8.82-9.55,14.94-.98,5.3-2.58,10.46-4.78,15.39-2.94,6.99-15.52,11.99-22.5,9.2-5.06-2.03-7.96-6-9.77-11.09-2.68-7.41-3.31-15.07-3.94-22.81-.33-5.37-1.02-10.7-2.05-15.98-1.5-6.98-3.8-13.78-5.51-20.73-2.89-11.44-4.78-23.11-5.67-34.88-.42-5.84-1.34-11.7-1.07-17.52,.35-4.56,1.23-9.06,2.6-13.42,1.15-4.93,2.76-9.73,4.82-14.35,4.84-9.93,10.18-19.61,15.45-29.31,1.69-2.9,3.54-5.7,5.55-8.38,1.29-1.96,2.79-3.72,4.87-6.35h0Z" style="fill:#ffda9f;"/><path d="M340.13,225.43c-3.21-1.14-6.35-2.49-9.39-4.02-8.71-5.04-18.33-4.95-27.88-5.53-3.64-.21-7.24-.87-10.88-1.01-5.37-.2-10.84-.72-16.1,0-6.77,.75-13.42,2.3-19.83,4.6-8.41,3.26-16.31,7.79-24.43,11.78-.44,.23-.83,.55-1.34,.86-3.13-2.54-4.23-5.94-4.71-9.65-.89-6.71-1.9-13.51-2.68-20.28-.8-7.18-1.34-14.38-2.04-21.57-.27-2.83-.74-5.66-.82-8.51-.36-13.58-.44-27.15,3.01-40.41,2.35-9.04,4.31-18.3,7.83-26.83,6.12-15.4,15.03-29.54,26.27-41.72,10.69-11.34,24.11-18.11,38.6-22.75,7.59-2.41,15.7-3.25,23.61-4.66,4.19-.74,8.47-1.81,12.64-1.6,5.76,.27,12.07,.08,16.1,5.46,3.07,4.02,5.61,8.55,9.04,12.23,4.27,4.57,4.92,10.3,6.39,15.82,.28,1.71,.38,3.44,.32,5.16,.31,4.66,.66,9.39,.95,13.99,.16,1.42,.19,2.85,.07,4.28-1.15,8.76-2.51,17.44-3.58,26.24-1.56,12.84-4.87,25.33-7.2,38.01-1.33,7.52-3.05,14.96-5.16,22.3-4.19,14.22-5.71,28.9-8.4,43.37-.17,1.18-.19,2.46-.38,4.43h0Zm-10.26-165.76c0-4.88-1.58-7.06-5.03-6.36-1.51,.52-2.84,1.45-3.85,2.68-2.09,1.96-2.45,5.16-.85,7.54,1.21,1.66,2.6,3.13,5.08,2.39,4.05-1.22,4.66-2.04,4.64-6.25Zm-47.54,9.51c-.05,1.03-.05,2.06,0,3.09,.36,2.96,3.65,5.47,5.37,3.89,1.91-1.89,3.37-4.18,4.28-6.71,.31-1.55,0-3.16-.85-4.49-1.34-2.43-4.02-1.97-6.02-1.44-2.78,.86-3.14,3.42-2.78,5.66Zm-37.09,96.28c3.17-.02,5.74-2.57,5.8-5.74,0-2.05-3.05-4.43-5.74-4.47-2.6-.22-4.88,1.71-5.1,4.31-.02,.29-.02,.57,0,.86,.04,3.3,1.89,5.1,5.06,5.07v-.03Zm21.45-68.83c0-3.78-1.57-6.2-4.02-6.2-2.08,0-5.88,3.81-5.89,5.92,.23,3.14,2.74,5.64,5.89,5.84,2.36-.05,4.02-2.35,4.02-5.53v-.03Zm44.61-6.71c.12,4.23,1.53,6.29,4.23,6.17,3.42-.13,5.7-2.35,5.62-5.45-.08-2.68-3.47-6.02-5.92-5.9s-4.01,2.27-3.93,5.25v-.07Zm-3.29,81.02c4.49,0,7.47-1.57,7.45-4.15,0-2.86-2.68-5.96-5.06-6s-5.69,3.6-5.63,6.63c.03,2.08,.62,3.72,3.25,3.58v-.07Zm-57.58-46.38c-2.49,.19-4.35,2.34-4.19,4.83,0,2.46,2.28,6.16,3.85,6.25,1.8,.09,5.37-2.68,5.37-4.21,.15-3.22-2.48-6.79-5.03-6.8v-.07Zm98.96-35.08c0-3.31-1.34-4.76-4.49-4.66-2.09,0-4.57,.25-4.94,2.78-.46,3.26,2.75,7.34,5.37,7.47,1.54,.08,4.06-3.3,4.06-5.59h0Zm-61.31,20.9c0,2.87,1.65,5.96,3.25,6.04,2.29,.12,5.53-3.03,5.37-5.37-.11-2.62-2.37-5.63-4.28-5.67-2.56,.16-4.5,2.37-4.34,4.93,0,.03,0,.05,0,.08Zm27.77,17.83c-.82,.22-1.65,.38-2.5,.47-1.89,0-3.35,.8-3.37,2.68,.17,1.28,.73,2.47,1.6,3.42,.91,1.09,1.95,2.07,3.09,2.92,.51,.4,1.41,.91,1.82,.72,1.97-.9,3.37-2.36,2.9-4.75s-1.03-4.71-3.54-5.47h0Zm19.59-18.78c-1.13,1.01-2.68,1.8-3.29,3.03-.97,1.81-2.11,4.02-.17,5.93,1.34,1.34,2.68,3.89,4.87,1.82,1.43-1.55,2.37-3.5,2.68-5.59,.39-2.6-1.52-4.67-4.09-5.19Zm1.34,39.15c2.68,0,5-1.6,5.02-3.35,0-3.92-1.88-5.82-5.71-5.74-2.35,.19-4.13,2.21-4.02,4.56,.31,2.42,2.27,4.29,4.7,4.49l.03,.04Zm-49.82-4.67c0-3.14-1.97-5.46-4.29-5.37-1.54,0-4.21,3.64-4.28,5.81,0,1.72,2.68,3.51,5.23,3.62,3.26,.03,3.58-1.97,3.31-4.11l.03,.04Z" style="fill:#c48792;"/><path d="M233.48,269.66c.07-.81,.07-1.63,0-2.44-.95-5.12,1.34-8.28,5.88-10.29,8.26-3.68,16.26-8.16,24.82-10.96,7.5-2.46,15.2-4.67,23.48-4.48,11.78,.25,23.62-.76,35.12,2.75,3.41,1.05,6.71,2.44,10.01,3.77,.75,.28,1.39,.82,1.78,1.52,2.09,4.4,4.88,8.71,5.82,13.42,.71,4.53,.47,9.17-.71,13.6-2.2,9.26-6.22,17.37-14.18,23.64-7.14,5.61-15.05,10.16-23.49,13.52-8.2,3.34-16.22,3.01-24.46,2.68-2.94-.18-5.83-.94-8.48-2.23-6.55-3.05-13.03-6.31-19.32-9.86-2.39-1.35-4.39-3.29-5.82-5.63-3.42-5.67-6.43-11.58-9.02-17.68-1.34-3.43-1.34-7.47-1.99-11.24l.55-.08Zm65.19,32.47c2.91-3.02,2.79-3.34,0-5.63-1.2-1.19-2.25-2.51-3.13-3.94-1.74-2.32,1.02-2.99,1.54-4.47,.32-1.6,.39-3.24,.21-4.86-1.18,0-2.36-.08-3.53,0-2.91,.15-5.82,.31-8.72,.55-1.06,.09-2.94,.31-2.99,.7-.2,1.36-.03,2.75,.48,4.02,.71,1.2,1.54,2.34,2.47,3.38,1.23,1.76,1.22,3.21-.85,4.53s-3.96,3.03-6.21,4.79c6.99,4.53,9.39-2.24,13.52-4.6l7.19,5.53Zm23.02-41.59c-2.53,.08-5.05,.39-7.53,.91-3.65,1.09-7.5,1.95-10.07,5.26-1.78,2.31-2.29,5.47-.94,6.91,2.1,2.36,5.71,2.58,8.07,.48,.13-.11,.25-.23,.37-.36,3.42-3.41,7.83-5.66,12.6-6.41,2.15-.31,2.79-1.57,2.68-3.68-.27-3.61-2.82-3.07-5.18-3.1h0Zm-49.49,12.95c1.34-.78,3.62-1.34,4.02-2.47,1.34-4.41-2.83-9.28-7.47-9.23-1.21-.02-2.43-.13-3.62-.35-2.95-.47-5.89-1.26-8.87-1.44-3.89-.25-4.95,1.68-2.86,5.02,.8,1.02,1.85,1.81,3.06,2.29,3.22,1.52,6.49,2.92,9.79,4.25,1.7,.71,3.54,1.17,5.94,1.93h0Zm-76.55,27.06c-.71,1.19-1.52,2.33-2.11,3.6-4.61,9.84-9.18,19.72-13.72,29.63-1.02,2.23-1.8,4.56-2.68,6.81-4.32,10.29-4.82,21.02-3.56,31.94,.91,7.77,1.34,15.62,2.54,23.33,1.17,7.43,2.99,14.76,4.63,22.1,.89,3.96,1.99,7.85,2.83,11.2-7.16,2.52-13.99,4.76-20.67,7.38-3.76,1.45-7.18,3.41-11.4,3.93-4.36,.38-8.74-.46-12.65-2.43-4.17-1.82-5.15-7.08-3.37-11.79,1.5-3.96,4.15-7.47,6-11.32,2.87-5.6,5.43-11.36,7.66-17.25,.8-2.33-.3-5.37-.6-8.05-.34-2.92-1.34-5.89-1.05-8.73,.91-9.39,.08-18.96,3.02-28.17,1.07-3.38,.39-7.28,1.26-10.73,1-3.93,2.46-7.72,4.35-11.31,3.88-7.35,9.32-13.77,15.95-18.78,1.93-1.5,3.73-3.17,5.54-4.82,5.02-4.53,11.04-6.48,17.51-7.3l.54,.76Z" style="fill:#ffda9f;"/><path d="M211.37,243.92c1.86,2.99,3.17,5.16,4.56,7.26,.46,.54,1.01,1,1.64,1.34,3.66,2.46,6.02,1.49,6.36-2.83,.25-3.15,.25-6.32,0-9.47-.34-2.53-2.67-4.31-5.21-3.97-.62,.08-1.22,.29-1.76,.61-1.34,.75-2.68,1.65-4.15,2.54-1.56-5.11,.97-11.35,6.04-9.83,1.98,.6,3.65,1.95,4.64,3.77,1.58,3.81,2.23,8.05,3.47,11.94,2.68,8.49,1.34,17.21,1.57,25.82,.28,8.41,3.68,15.74,7.08,23.2,4.91,10.73,13.8,16.41,24.01,21.22,9.27,4.37,18.55,6.79,28.86,6.12,5.55-.36,10.73-.68,15.88-3.43,5.37-2.9,10.73-5.8,16-8.6,13.42-7.11,19.24-19.04,23.81-32.2,.56-1.62,.46-3.49,.94-5.21,1.5,5.24,1.24,10.82-.74,15.9-4.45,12.32-12.68,21.73-22.48,29.98-.84,.74-1.77,1.39-2.75,1.93-6.39,3.31-12.73,6.71-19.25,9.77-2.03,.95-4.56,.82-6.86,1.15-9.14,1.34-17.68-1.56-26.36-3.57-2.87-.66-5.81-1.07-8.73-1.52-8.05-1.22-14.66-5.37-20.78-10.42-.08-.07-.15-.15-.23-.2-12.61-9.16-18.54-22.3-21.87-36.95-2.28-10.05-4.27-20.12-3.66-30.53,0-.98-.05-1.97-.05-3.82h0Z" style="fill:#c48792;"/><path d="M299.25,17.21c9.75-5.1,29.85-.89,39.39,11.5-1.09,.23-2.19,.38-3.3,.47-1.86,0-3.76-.16-5.61-.07-3.25,.17-6.49,.42-9.7,.82-3.94,.37-7.85,.97-11.71,1.8-6.59,1.62-13.07,3.64-19.59,5.51-.48,.13-.91,.54-1.34,.62-7.47,1.17-13.32,5.93-19.84,9.12-7.32,3.58-12.57,9.83-17.94,15.91-6.96,7.89-12.07,16.93-17.27,25.89-8.05,13.8-12.6,28.79-14.76,44.54-.71,5.14-1.25,10.3-1.89,15.45-.11,.38-.26,.75-.47,1.09-3.01-3.62-3.64-34.13-.55-45.87,6.1-23.15,14.5-45.18,32.49-62.03l.97,.52c-.76,1.23-1.44,2.52-2.29,3.69-.99,.98-.99,2.58,0,3.57,.07,.07,.14,.13,.21,.19,1.62,1.68,3.1,3.49,5.16,5.86,4.48-3.77,9.04-7.27,13.19-11.2,2.29-2.17,2.17-7.46,.43-9.97-2.07-2.99-3.38-3.3-6.61-1.54-.4,.23-.86,.36-1.34,.6,.89-4.75,20.15-14.14,28.13-13.2-1.7,.48-3.38,1.11-5.12,1.44-4.43,.85-5.55,3.43-3.01,7.16,2.95,4.33,6,5.62,11.01,4.02,3.84-1.32,7.58-2.95,11.16-4.86,3.54-1.86,3.94-3.68,2.21-7.28-.55-1.34-1.31-2.54-2.01-3.76Zm-68.51,64.72c2.41,.3,3.7-1.22,4.79-3.27,1.34-2.68,2.8-5.19,4.41-7.66,2.07-3.21,1.89-6.45-.66-8.05-2.33-1.48-7.3,.3-8.57,3.09-1.34,3.03-2.8,6.08-4.09,9.16-1.44,3.38,.56,6.71,4.12,6.73Z" style="fill:#c48792;"/><path d="M338.25,243.42c-1.43-.11-2.85-.3-4.25-.58-1.38-.29-2.71-.77-3.96-1.44-6.81-3.73-14.41-3.1-21.72-4.02-22.51-2.94-43.48,2.37-63.71,11.75-3.76,1.74-7.63,3.25-11.68,4.96-1.99-3.23-1.34-6.9-1.41-10.42,0-.56,.71-1.34,.51-1.68-1.97-3.45,.9-4.74,2.9-5.81,11.9-6.43,23.73-13.11,37.56-14.62,2.68-.31,5.37-1.18,8.05-1.74,1.08-.31,2.19-.47,3.31-.48,11.36,.83,22.81,1.57,34.07,2.68,7.96,.76,14.22,5.89,21.22,9.1,.58,.27,.87,1.86,.75,2.78-.36,2.98-.99,5.85-1.65,9.52h0Z" style="fill:#c48792;"/><path d="M343.55,244.54c.32,4.25,.66,8.87,1.01,13.42-3.34-4.37-6-8.85-1.01-13.42Z"/><path d="M329.87,59.67c0,4.21-.66,5.03-4.64,6.21-2.48,.74-3.88-.72-5.08-2.39-1.61-2.38-1.25-5.57,.85-7.54,1.01-1.23,2.34-2.16,3.85-2.68,3.45-.66,5.03,1.52,5.03,6.4Zm-47.54,9.51c-.38-2.27,0-4.83,2.83-5.59,2.01-.54,4.68-.99,6.02,1.44,.85,1.33,1.16,2.94,.85,4.49-.91,2.53-2.37,4.82-4.28,6.71-1.76,1.58-5.04-.93-5.37-3.89-.08-1.05-.09-2.1-.05-3.15Z" style="fill:#2b2a27;"/><path d="M245.24,165.49c-3.22,0-5.02-1.77-5.04-5.04-.25-2.6,1.64-4.91,4.24-5.16,.29-.03,.57-.03,.86,0,2.68,0,5.74,2.41,5.74,4.47-.05,3.17-2.62,5.72-5.8,5.74Z" style="fill:#2e2d28;"/><path d="M266.69,96.66c0,3.18-1.66,5.47-4.02,5.55-3.15-.2-5.66-2.69-5.89-5.84,0-2.11,3.81-5.92,5.89-5.92,2.45,0,4.02,2.41,4.02,6.2h0Zm44.61-6.67c-.08-2.98,1.5-5.06,3.93-5.18s5.84,3.29,5.92,5.9c.08,3.1-2.2,5.37-5.62,5.45-2.7,.12-4.11-1.95-4.23-6.17h0Z" style="fill:#2c2b28;"/><path d="M308.01,171.01c-2.68,.15-3.22-1.5-3.25-3.51,0-3.03,3.1-6.71,5.63-6.63s5.03,3.14,5.06,6c.03,2.58-2.95,4.2-7.45,4.15Z" style="fill:#2e2d28;"/><path d="M250.43,124.63c2.55,0,5.18,3.57,5.08,6.87,0,1.53-3.62,4.31-5.37,4.21-1.57-.09-3.85-3.8-3.85-6.25-.17-2.47,1.67-4.62,4.13-4.83h0Z" style="fill:#2c2b28;"/><path d="M349.4,89.48c0,2.29-2.5,5.67-4.12,5.59-2.56-.13-5.77-4.21-5.37-7.47,.36-2.52,2.84-2.68,4.94-2.78,3.21-.11,4.55,1.34,4.55,4.66h0Z" style="fill:#2d2c28;"/><path d="M288.09,110.38c-.17-2.56,1.77-4.77,4.33-4.93,.02,0,.05,0,.07,0,1.9,0,4.17,3.06,4.28,5.67,.09,2.27-3.14,5.37-5.37,5.37-1.66-.15-3.33-3.23-3.31-6.1Zm27.77,17.83c2.5,.72,3.07,3.09,3.54,5.47s-.93,3.85-2.9,4.75c-.42,.19-1.34-.32-1.82-.72-1.14-.85-2.17-1.83-3.09-2.92-.87-.95-1.43-2.14-1.6-3.42,0-1.88,1.48-2.68,3.37-2.68,.84-.09,1.68-.25,2.5-.47Zm19.59-18.78c2.58,.56,4.48,2.68,4.02,5.19-.31,2.09-1.25,4.04-2.68,5.59-2.16,2.07-3.56-.52-4.87-1.82-1.93-1.92-.79-4.12,.17-5.93,.74-1.27,2.23-2.07,3.35-3.03Z" style="fill:#2e2c28;"/><path d="M336.76,148.54c-2.44-.22-4.39-2.11-4.68-4.53-.1-2.35,1.68-4.37,4.02-4.56,3.84-.08,5.73,1.82,5.71,5.74-.05,1.81-2.43,3.35-5.06,3.35h0Z" style="fill:#2f2d29;"/><path d="M286.94,143.87c.27,2.13,0,4.13-3.34,4.02-2.59-.11-5.29-1.9-5.23-3.62,.07-2.17,2.68-5.8,4.28-5.81,2.36-.05,4.29,2.27,4.29,5.41h0Z" style="fill:#2e2c28;"/><path d="M298.66,302.13l-7.15-5.49c-4.11,2.36-6.53,9.14-13.52,4.6,2.25-1.76,4.12-3.45,6.21-4.79s2.08-2.78,.85-4.53c-.96-1.04-1.81-2.18-2.55-3.39-.52-1.27-.68-2.66-.48-4.02,0-.39,1.93-.6,2.99-.7,2.9-.24,5.81-.4,8.72-.55h3.53c.17,1.62,.1,3.26-.21,4.86-.52,1.48-3.29,2.15-1.54,4.47,.88,1.43,1.93,2.76,3.13,3.94,2.83,2.27,2.95,2.59,.04,5.61h0Z" style="fill:#2d2b28;"/><path d="M321.68,260.56c2.36,0,4.92-.51,5.15,3.11,.13,2.11-.51,3.37-2.68,3.68-4.77,.76-9.18,3-12.6,6.41-2.16,2.3-5.78,2.41-8.08,.25-.13-.12-.25-.24-.36-.37-1.34-1.44-.85-4.6,.94-6.91,2.58-3.31,6.43-4.17,10.07-5.26,2.49-.53,5.01-.83,7.55-.91Z" style="fill:#2b2a27;"/><path d="M272.19,273.52c-2.4-.76-4.24-1.22-6-1.92-3.3-1.34-6.57-2.68-9.79-4.25-1.2-.48-2.26-1.27-3.06-2.29-2.09-3.34-1.03-5.27,2.86-5.02,2.98,.17,5.92,.97,8.87,1.44,1.2,.22,2.41,.33,3.62,.35,4.64,0,8.85,4.82,7.47,9.23-.35,1.14-2.64,1.69-3.97,2.47h0Z" style="fill:#2b2927;"/><path d="M230.74,81.93c-3.56,0-5.55-3.34-4.12-6.71,1.34-3.09,2.68-6.13,4.09-9.16,1.27-2.79,6.24-4.56,8.57-3.09,2.55,1.61,2.68,4.86,.66,8.05-1.61,2.47-3.05,5.04-4.41,7.66-1.09,2.03-2.37,3.54-4.79,3.25Z" style="fill:#2c2a27;"/></svg>