<?xml version="1.0" encoding="UTF-8"?><svg id="Layer_1" xmlns="http://www.w3.org/2000/svg" viewBox="0 0 100 100"><path d="M24.05,100H0c0-16.67,0-33.33,0-50,33.33,0,66.67,0,100,0,0,16.67,0,33.33,0,50-5.71,0-11.41,0-17.12,0-.21-1.26-.37-2.53-.64-3.78-.17-.79-.32-1.57-.35-2.37,.18-.13,.36-.21,.46-.35,.1-.15,.2-.37,.16-.53-.21-.99-.49-1.96-.69-2.95-.17-.84-.32-1.68-.41-2.53-.14-1.44-1.19-2.03-2.29-2.59-.68,.06-1.17-.44-1.75-.65-.23-.08-.46-.25-.69-.26-.81-.05-1.43-.52-2.11-.87-.15-.08-.29-.21-.39-.35-.24-.33-.5-.59-.98-.35-.14-.49-.28-.91-.39-1.35-.14-.57-.21-1.15-.38-1.71-.1-.34-.14-.64-.05-.99,.12-.46,.25-.92,.27-1.39,.03-.59-.05-1.18-.09-1.83,.5,.13,.7-.11,.74-.58,.05-.59,.15-1.18,.25-1.86-.79-.61-1.61-1.3-2.73-1.53-.09-.19-.23-.39-.28-.6-.23-.97-.95-1.37-1.81-1.62-.11-.03-.29-.04-.31-.1-.18-.53-.67-.61-1.1-.79,.2-.59,.03-.89-.57-1-.4-.08-.81-.09-1.21-.15-.16-.02-.31-.1-.47-.16,.44-.79,.32-.98-.51-1.04-.42-.03-.84-.13-1.29-.21-.02-.21-.04-.4-.06-.6-.53-.17-.83,.33-1.26,.39-.1-.21-.18-.39-.27-.57-.27-.5-.4-.5-.78-.09-.35,.38-.72,.73-1.1,1.1-.31-.2-.57-.37-.86-.56-.19,.16-.36,.31-.53,.45-.17,.14-.35,.26-.51,.38-.28-.18-.51-.31-.79-.49-.26,.45-.49,.85-.71,1.24-.22-.08-.4-.15-.65-.24-.1,.39-.18,.73-.27,1.07-.51-.03-.75,.17-.71,.67,.03,.33,.13,.65,.2,.99-.4,.32-.88,.3-1.35,.35-.16,.02-.45,.08-.46,.16-.02,.17,.06,.37,.15,.54,.09,.16,.23,.3,.42,.55-.44-.07-.74-.13-1.05-.16-.14-.01-.36,0-.4,.09-.05,.1,0,.31,.07,.41,.34,.44,.71,.87,1.11,1.36-.07,.82-.68,1.5-1.04,2.27,.39,.43,.68-.18,1.06,0-.23,.38-.46,.74-.67,1.1-.23,.38-.16,.56,.27,.69,.2,.06,.42,.08,.69,.14-.29,.72-.05,1.31,.15,2.02,.23-.21,.37-.33,.56-.5,.15,.47,.21,.93,.42,1.31,.21,.39-.13,.92,.42,1.27,.24-.38,.45-.74,.71-1.15,.42,.63,.81,1.21,1.19,1.78,.58-.21,.2-.63,.25-1.03,.17,.16,.29,.25,.37,.36,.27,.39,.52,.8,.8,1.18,.08,.11,.25,.19,.38,.19,.07,0,.16-.18,.21-.3,.05-.13,.07-.28,.1-.43,.26,.09,.48,.14,.67,.23,.23,.11,.47,.24,.66,.41,.79,.72,1.62,1.35,2.78,1.21,.03,0,.07,.05,.14,.11-.03,.1-.03,.27-.11,.33-.72,.58-1.41,1.23-2.21,1.67-.91,.5-1.93,.83-2.91,1.2-.61,.22-1.24,.39-1.87,.53-.39,.09-.52,.3-.54,.66-.02,.34-.04,.68-.09,1.01-.1,.57-.21,1.15-.35,1.71-.28,1.18-.55,2.37-.88,3.54-.15,.53-.32,1,.22,1.37-.2,.96-.41,1.88-.58,2.81-.1,.58-.15,1.16-.22,1.74h-3.67c-.16-1.14-.27-2.28-.49-3.41-.24-1.19-.59-2.36-.87-3.55-.09-.39-.36-.81,.09-1.18,.05-.04,0-.21,0-.32-.02-.34-.07-.68-.06-1.01,.06-1.2-.19-2.35-.69-3.42-.37-.79-.88-1.52-1.35-2.27-.17-.26-.38-.51-.6-.73-.4-.42-.87-.79-1.23-1.25-.4-.51-.9-.8-1.49-.99-.22-.07-.53-.26-.64,.07-.12,.34,.27,.39,.47,.42,.54,.08,.89,.41,1.23,.78,.3,.34,.6,.68,.94,.98,.57,.5,1.02,1.08,1.42,1.72,.73,1.16,1.3,2.37,1.49,3.74,.03,.22,0,.46,0,.68-.06,0-.11,.01-.17,.02-.04-.21-.07-.42-.12-.62-.37-1.52-1.1-2.73-2.67-3.32-.71-.26-1.42-.6-1.84-1.32-.11-.19-.34-.31-.57-.51-.12,.23-.2,.38-.3,.56-.39-.34-.76-.63-1.09-.96-.24-.24-.31-.52-.09-.85,.29-.43,.5-.9,.78-1.33,.79-1.19,1.01-2.55,1.11-3.93,.04-.54-.09-1.13-.29-1.64-.39-.98-.88-1.92-1.33-2.87-.1-.2-.18-.42-.27-.62-.26-.57-.57-1.08-1.19-1.32-.14-.06-.25-.21-.47-.41,.22-.02,.3-.04,.38-.04,.23,0,.45-.06,.39-.32-.02-.12-.23-.22-.38-.28-.09-.04-.23,0-.34-.02-.62-.11-1.17-.39-1.82-.68,.7-.46,1.57-.37,2.06-1.21-1.86-.12-3.51-.69-5.27-1.15,.3-.33,.54-.6,.8-.88-.46-.3-.46-.29-.89-.29-.92,0-1.65,.37-2.17,1.1-.81-.72-1.55-1.39-2.31-2.06-.27,.3-.13,.5,.05,.69,.35,.37,.48,.82,.63,1.35-.23-.01-.38-.02-.54-.04-.65-.07-1.3,0-1.84,.33-.56,.35-1.13,.26-1.7,.23-.54-.03-.94-.39-1.23-.84-.42,.16-.46,.41-.21,.69,.43,.48,.89,.93,1.34,1.4-.81,.69-1.75,1.08-2.87,.95-.4-.05-.82,0-1.12-.36-.06-.07-.3-.12-.34-.07-.08,.1-.16,.29-.12,.4,.1,.27,.22,.57,.42,.75,.61,.53,1.2,1.11,2,1.38,.09,.03,.16,.13,.34,.28-.32,.28-.59,.51-.86,.75-1.05,.96-2.11,1.92-3.16,2.88-.08,.08-.19,.15-.22,.25-.04,.11-.06,.29,0,.36,.05,.06,.26,.07,.35,.02,.74-.42,1.47-.86,2.21-1.29,.1-.06,.22-.08,.41-.15-.14,.29-.28,.48-.32,.69-.16,.88-.61,1.69-.54,2.62,0,.11-.05,.22-.09,.32-.36,.85-.71,1.7-1.08,2.55-.11,.25-.28,.46-.37,.72-.11,.3,.1,.5,.4,.4,.17-.05,.34-.14,.48-.25,.71-.55,1.42-1.11,2.12-1.67,.13-.1,.26-.2,.49-.38-.11,2.24,.91,3.96,2.02,5.8,.2-.34,.35-.59,.49-.84,.14-.24,.58-.28,.49-.76-.24,.07-.43,.14-.64,.2,.07-.8,.13-1.55,.2-2.31,.36,.42,.66,.93,.69,1.43,.06,.93,.36,1.95-.48,2.72,.4,.47,.53,.49,.74,.1,.45-.82,.89-1.65,1.36-2.54,.44,.31,.94,.58,1.21,1.14,.33,.69,.32,.73-.36,1.06-.65,.32-1.26,.71-1.93,.98-.91,.37-1.71,.81-2.01,1.84-.48-.18-.91-.28-.97-.85-.71,.3-.4,1-.69,1.44-.16,.24-.2,.6,.05,.91,.13,0,.26,0,.39,0,.52,0,.5,0,.48-.51-.01-.3,.04-.61,.06-.96,.42,.22,.53,.48,.42,.83-.2,.68-.4,1.35-.6,2.03-.03,0-.06,0-.09,0v-.87c-.32,.35-.6,.39-.93,.17-.2,.75-.14,1.43-.03,2.09,.05,.32,.3,.44,.61,.24,0,0-.01,0-.01,0-.12,.6-.25,1.2-.37,1.79-.45-1.08-.67-2.15-.58-3.27,.04-.45,.21-.93,.1-1.33-.11-.42-.02-.76,.09-1.11,.23-.75,.51-1.49,.79-2.23,.17-.46,.35-.94,.95-1.03,.04,0,.06-.11,.1-.18-.24-.3-.51-.3-.76-.07-.2,.18-.39,.4-.49,.64-.61,1.54-1.4,3.04-1.22,4.78,0,.09,0,.18-.02,.27-.2,1.19,.08,2.33,.35,3.47,.1,.43,.26,.85,.37,1.28,.03,.1-.02,.22-.05,.33-.3,1.01-.6,2.03-.9,3.04Zm50.2-42.91c.43-.24,.75-.43,1.08-.59,.5-.24,.99-.15,1.38,.2,.41,.36,.72,.77,.58,1.41-.17,.74-.53,1.22-1.27,1.41-.49,.13-.77,.44-.8,.96-.02,.38-.06,.76-.06,1.14,0,.11,.08,.33,.14,.33,.13,0,.32-.05,.38-.14,.16-.24,.33-.5,.38-.78,.07-.4,.24-.65,.61-.83,.63-.3,1.24-.64,1.85-.96,.7-.37,.87-1.08,.39-1.7-.54-.71-1.23-1.22-2.02-1.65-1.28-.7-3.2-.04-3.79,1.21-.35,.73-.23,1.38,.49,1.7,.43,.19,.94,.17,1.42,.22,.08,0,.21-.11,.25-.2,.14-.34,.49-.62,.29-1.06-.2-.43-.57-.54-1-.54-.04,0-.08-.03-.3-.13Zm-49.82-.29c.33-.65,.9-.9,1.51-1.06,.69-.19,1.53,.61,1.26,1.31-.18,.45-.42,.89-.7,1.29-.34,.47-.48,.97-.18,1.44,.23,.36,.61,.64,.95,.92,.08,.06,.29-.03,.43-.05-.05-.15-.1-.3-.16-.45-.01-.04-.07-.05-.11-.08-.49-.4-.54-1.18-.1-1.64,.49-.53,.98-1.05,1.47-1.58,.54-.57,.49-1.14-.21-1.52-.31-.17-.67-.3-1.01-.33-.93-.08-1.85,0-2.69,.48-.68,.39-1.38,.69-1.8,1.45-.38,.68,.23,1.58,.93,1.55,.48-.02,.98-.19,1.42-.39,.44-.19,.56-.59,.4-.95-.2-.45-.55-.6-1.03-.46-.12,.04-.25,.05-.38,.08Zm24.02,22.95c-.12-.77-.2-1.48-.36-2.18-.31-1.35-1.02-2.44-2.17-3.24-.33-.23-.57-.24-.69,0-.15,.29,.08,.4,.28,.52,1.13,.66,1.87,1.62,2.13,2.91,.22,1.08,.4,2.16,.04,3.25-.06,.18-.17,.36,.07,.46,.26,.11,.39-.09,.43-.29,.11-.48,.18-.97,.27-1.42Zm-20.65-16.72c.69-.1,1.29-.32,1.57-1.07,.18-.49-.17-1.13-.68-1.07-.77,.09-1.44,.39-1.78,1.16-.17,.4-.06,.71,.34,.86,.17,.06,.35,.08,.54,.12Zm52.98,15.53c-.09-.46-.22-1-.3-1.55-.15-.98-.57-1.84-1.1-2.65-.19-.28-.39-.55-.63-.79-.07-.08-.32-.08-.4-.02-.09,.07-.11,.27-.09,.41,.01,.09,.15,.16,.22,.25,.36,.49,.71,.98,1.06,1.48,.46,.67,.56,1.48,.67,2.24,.1,.66,.23,1.39-.17,2.05-.12,.18-.2,.4,.05,.52,.31,.14,.41-.14,.45-.35,.1-.48,.16-.97,.26-1.57Zm-5.64-16.17c-.32,.08-.65,.13-.96,.25-.28,.11-.32,.34-.18,.61,.36,.7,1.04,.95,1.77,.66,.33-.13,.52-.39,.55-.71,.04-.34-.24-.52-.51-.64-.2-.09-.43-.12-.67-.18Zm-25.24,17.08h.07c-.12-.9-.2-1.81-.39-2.68-.11-.5-.38-.96-.62-1.42-.09-.19-.31-.3-.52-.15-.24,.17-.1,.35,.04,.51,.44,.51,.64,1.12,.77,1.78,.19,1.01,.28,2.01,.1,3.03-.03,.19-.05,.4,.18,.43,.28,.04,.31-.2,.32-.41,.02-.36,.03-.72,.05-1.08Zm31.97-1.33c-.05,.4-.12,.8-.16,1.2,0,.09,.06,.24,.13,.26,.08,.03,.23-.03,.28-.1,.08-.1,.1-.24,.13-.37,.3-1.48-.14-2.8-.85-4.07-.05-.1-.11-.21-.2-.26-.08-.05-.26-.08-.3-.04-.07,.08-.1,.23-.08,.34,.02,.1,.11,.19,.17,.29,.54,.84,.84,1.74,.87,2.75Zm-35.99,7.9c.03-.06,.06-.12,.1-.19-.18-.12-.38-.23-.54-.37-.2-.18-.34-.41-.54-.59-.23-.21-.49-.39-.76-.55-.08-.05-.23,.01-.35,.02,.03,.12,.06,.24,.09,.35,0,.02,.03,.03,.05,.05,.53,.41,1.05,.83,1.59,1.22,.09,.06,.24,.04,.36,.05Zm-.48-1.14s.1-.04,.15-.06c0-.12,.03-.28-.03-.35-.25-.29-.52-.56-.79-.83-.07-.07-.2-.11-.31-.11-.07,0-.18,.06-.21,.12-.03,.06-.02,.2,.03,.24,.38,.34,.77,.66,1.16,.99Zm-1.7-.92c.05-.02,.1-.04,.15-.06,0-.14,.04-.32-.03-.41-.17-.21-.38-.39-.59-.54-.08-.06-.24,0-.37,0,.01,.14-.03,.34,.04,.42,.24,.23,.53,.4,.8,.6Zm-16.98,3.74c.21-.25,.42-.49,.64-.76-.37-.26-.55-.05-.73,.14-.18,.19-.22,.38,.09,.62Zm15.9-3.87c-.05,.07-.1,.14-.14,.2,.1,.27,.23,.48,.74,.21-.25-.18-.42-.3-.6-.42Z" style="fill:none;"/><path d="M54.08,100c.07-.58,.12-1.17,.22-1.74,.17-.93,.38-1.85,.58-2.81-.54-.36-.37-.84-.22-1.37,.33-1.17,.6-2.36,.88-3.54,.13-.57,.25-1.14,.35-1.71,.06-.33,.07-.67,.09-1.01,.03-.35,.15-.57,.54-.66,.63-.14,1.27-.31,1.87-.53,.99-.36,2-.69,2.91-1.2,.8-.44,1.48-1.1,2.21-1.67,.08-.06,.08-.23,.11-.33-.07-.06-.11-.11-.14-.11-1.16,.14-1.99-.49-2.78-1.21-.19-.17-.43-.29-.66-.41-.19-.1-.41-.14-.67-.23-.03,.15-.05,.3-.1,.43-.05,.11-.14,.3-.21,.3-.13,0-.3-.08-.38-.19-.28-.38-.53-.79-.8-1.18-.08-.12-.2-.2-.37-.36-.05,.4,.33,.82-.25,1.03-.38-.57-.77-1.15-1.19-1.78-.26,.42-.48,.77-.71,1.15-.55-.34-.21-.88-.42-1.27-.21-.38-.28-.84-.42-1.31-.19,.17-.33,.29-.56,.5-.2-.71-.44-1.3-.15-2.02-.27-.05-.48-.08-.69-.14-.43-.13-.5-.31-.27-.69,.22-.36,.44-.72,.67-1.1-.39-.18-.68,.43-1.06,0,.36-.77,.97-1.45,1.04-2.27-.41-.49-.77-.91-1.11-1.36-.08-.1-.13-.32-.07-.41,.04-.08,.26-.1,.4-.09,.3,.03,.61,.09,1.05,.16-.19-.25-.33-.38-.42-.55-.09-.17-.17-.37-.15-.54,0-.07,.29-.14,.46-.16,.47-.05,.95-.03,1.35-.35-.07-.34-.18-.66-.2-.99-.04-.5,.2-.71,.71-.67,.09-.34,.17-.68,.27-1.07,.25,.09,.43,.16,.65,.24,.22-.39,.45-.79,.71-1.24,.28,.18,.51,.31,.79,.49,.15-.12,.33-.24,.51-.38,.17-.14,.34-.29,.53-.45,.29,.19,.54,.36,.86,.56,.38-.38,.75-.73,1.1-1.1,.38-.41,.5-.41,.78,.09,.1,.18,.17,.36,.27,.57,.43-.05,.73-.55,1.26-.39,.02,.2,.04,.38,.06,.6,.45,.07,.87,.17,1.29,.21,.83,.07,.94,.26,.51,1.04,.17,.06,.32,.13,.47,.16,.4,.06,.81,.07,1.21,.15,.6,.12,.77,.41,.57,1,.42,.17,.92,.26,1.1,.79,.02,.06,.2,.07,.31,.1,.86,.25,1.58,.66,1.81,1.62,.05,.21,.19,.41,.28,.6,1.12,.23,1.94,.92,2.73,1.53-.09,.68-.19,1.27-.25,1.86-.04,.47-.24,.71-.74,.58,.04,.65,.11,1.24,.09,1.83-.02,.47-.15,.93-.27,1.39-.09,.34-.05,.65,.05,.99,.17,.56,.24,1.14,.38,1.71,.1,.43,.24,.86,.39,1.35,.49-.25,.74,.01,.98,.35,.1,.14,.24,.27,.39,.35,.68,.35,1.3,.82,2.11,.87,.24,.01,.46,.18,.69,.26,.59,.21,1.07,.7,1.75,.65,1.1,.56,2.15,1.15,2.29,2.59,.08,.85,.23,1.69,.41,2.53,.21,.99,.48,1.96,.69,2.95,.03,.16-.06,.38-.16,.53-.1,.14-.28,.22-.46,.35,.03,.8,.18,1.58,.35,2.37,.27,1.25,.43,2.52,.64,3.78h-.68c-.23-1.38-.49-2.75-.68-4.13-.11-.77-.11-1.56-.13-2.34,0-.32-.2-.58-.54-.64-.84-.14-1.55,.14-2.16,.68-.17,.15-.28,.4-.37,.62-.1,.22-.12,.47-.22,.69-.18,.39-.39,.77-.61,1.2,.13,.04,.25,.08,.37,.11,1.29,.29,2.22,1.03,2.85,2.19,.2,.37,.15,.68-.1,1-.14,.18-.21,.42-.32,.63h-.82c-.26-.55-.83-.72-1.28-1.04-.37-.26-.7-.25-1.07-.08-.53,.25-1.06,.5-1.57,.78-.09,.05-.1,.23-.15,.34h-4.48c-.11-.08-.21-.22-.33-.25-.93-.24-1.87-.45-2.8-.67-.44-.1-.89-.15-1.31-.29-1.13-.38-2.24-.8-3.37-1.18-.18-.06-.43-.1-.59-.03-.63,.28-1.27,.58-1.85,.94-.38,.24-.68,.6-.47,1.14,.04,.1,0,.22,0,.34h-.54c-.03-.29-.06-.58-.09-.87-.08-.99-.13-1.98-.24-2.96-.03-.23-.21-.56-.41-.63-.61-.23-1.24-.41-1.88-.51-.39-.06-.81,0-1.2,.1-.2,.05-.43,.28-.49,.48-.15,.54-.23,1.1-.31,1.65-.14,.91-.27,1.82-.41,2.74h-.54Zm14.13-15.89c-.03,.12-.1,.26-.08,.37,.09,.54,.09,.56-.56,.73-.05-.91,.48-1.69,.59-2.56-.38,0-.35,.3-.41,.49-.19,.6-.36,1.21-.54,1.81-.06,.21-.14,.44-.51,.36,.04-.18,.06-.35,.1-.51,.16-.56,.34-1.12,.5-1.69,.03-.1-.02-.22-.03-.33-.06-.01-.11-.02-.17-.03-.16,.45-.33,.9-.47,1.36-.13,.43-.21,.88-.32,1.31-.06,.22-.18,.34-.51,.24,.25-.98,.5-1.94,.76-2.95-.09-.01-.27-.09-.31-.05-.39,.4-.92,.29-1.39,.4-.22,.05-.44,.09-.62,.13,0,1.29-1.02,1.69-1.91,2.26,.75,.55,1.39,1.14,2.13,1.53,1.51,.8,3.14,1.06,4.83,.63,.72-.18,1.45-.36,2.16-.57,.96-.29,1.49-1.04,1.95-1.87,.42-.75,.41-.73-.08-1.44-.28-.4-.52-.84-.7-1.3-.33-.82-.48-1.68-.52-2.57,0-.12-.1-.24-.16-.36-.2,.59-.97,.83-.79,1.54,.01,.05-.11,.13-.16,.21-.21,.29-.42,.59-.63,.88-.54,.72-1.07,1.44-1.63,2.15-.21,.27-.33,.22-.54-.17,.62-.4,.83-.98,.75-1.69-.51,.45-.49,1.13-.74,1.71Zm-8.15-3.26c-.25-.37-.55-.72-.74-1.11-.18-.37-.43-.61-.86-.72v.63c.07-.07,.16-.15,.31-.3,.19,.42,.31,.73,.46,1.02,.17,.34,.51,.41,.85,.48-.03,.27,.09,.42,.36,.48,.22,.05,.49,.07,.63,.21,.34,.35,.66,.23,1.03,.06-1.29-.46-1.39-.56-1.13-1.07,.28,.14,.55,.32,.84,.41,1.36,.41,2.72,.82,4.09,1.19,.4,.11,.83,.1,1.25,.1,.31,0,.62-.05,.93-.1,.17-.03,.36-.07,.49-.17,.67-.49,1.35-.99,1.99-1.52,.24-.2,.45-.46,.6-.73,.35-.65,.7-1.3,.86-2.05,.29-1.41,.13-2.72-.63-3.96-.21-.34-.37-.72-.58-1.06-.1-.16-.26-.3-.41-.42-.14-.11-.33-.15-.47-.26-.8-.65-1.61-1.3-2.39-1.98-.32-.28-.66-.34-1.06-.36-.41-.02-.83-.09-1.23-.2-.13-.03-.32-.3-.29-.37,.14-.32,.34-.62,.55-.89,.05-.06,.25,0,.53,.01-.28,.32-.44,.51-.63,.72,.2,.13,.38,.26,.53,.36,1.13-.51,1.73,.35,2.49,.84-.36-.87-.91-1.54-1.91-1.76,.11-.25,.19-.43,.3-.67-.84-.16-1.74-.08-2.41-.7,.13-.24,.23-.42,.34-.61-.46-.07-.86-.18-1.25-.16-.47,.02-.78-.09-.82-.58-.66,.08-.59,.6-.67,.99-.07,.32,.22,.42,.44,.57,.13-.29,.07-.67,.58-.64,0,.13,.02,.26,0,.38-.15,.61-.16,.61,.46,.91,.03-.08,.05-.16,.08-.23,.15-.29,.44-.38,.46-.18,.03,.2-.12,.42-.2,.67,.02,.01,.08,.08,.16,.12,.09,.05,.2,.07,.29,.1,.49-.7,.6-.75,1.03-.53-.1,.45-.88,.45-.59,1.25-1.08-.53-1.93-1.08-2.84-1.57-.7,.26-1.31,.64-1.68,1.32,.25,.16,.46,.3,.67,.44,0,.07,0,.14,0,.21-.75,.1-1.45,.31-2.11,.75,.19,.1,.32,.17,.52,.27-.26,.18-.36,.28-.48,.33-.44,.17-.66,.06-.65-.43,0-.45,.12-.9,.19-1.34,0-.03,.11-.05,.2-.09,.1,.19,.19,.36,.29,.55,.26-.08,.49-.15,.78-.25-.16-.86,.56-1.21,1.03-1.7-.22-.54-.07-.9,.46-1.15,.01,.04-.12,.85-.15,.94,.74-.29,.85-1.21,.29-2.21-.5,.43-1.01,.86-1.55,1.31-.23-.22-.42-.41-.66-.63-.19,.11-.38,.22-.57,.33-.21,.12-.42,.32-.65,.34-.2,.01-.41-.18-.63-.3-.21,.4-.41,.78-.61,1.17-.21-.03-.4-.06-.53-.08-.31,.44,.27,.92-.18,1.34-.19-.1-.38-.21-.61-.33-.1,.62,.3,.79,.76,.94-.08,.14-.1,.29-.18,.32-.65,.27-1.3,.52-2.04,.81,.29,.22,.6,.45,.92,.69-.45,.75-1.15,.23-1.81,.38,.2,.17,.33,.3,.48,.42,.71,.57,.71,.57,.39,1.45-.14,.39-.31,.76-.51,1.23,.19-.06,.27-.1,.35-.11,.16-.02,.33-.03,.49-.04-.02,.16,0,.34-.07,.47-.23,.46-.48,.91-.76,1.43,.28-.04,.49-.06,.71-.09,.36-.05,.46,.06,.36,.4-.1,.34-.2,.68-.3,1.05,.22-.05,.38-.09,.57-.14,.3,.78,.58,1.52,.86,2.27,.04,0,.08-.01,.12-.02,.03-.25,.07-.5,.12-.84,.77,.2,.75,1.06,1.3,1.39,.07-.18,.14-.35,.24-.59,.17,.14,.29,.22,.39,.33,.35,.39,.67,.79,1.03,1.17,.06,.07,.24,.03,.36,.05,0-.12,.06-.28,0-.36-.15-.19-.33-.43-.54-.47-.31-.07-.42-.27-.48-.5-.06-.23-.05-.48-.05-.72,0-.31-.01-.59-.41-.59-.24,.29,.12,.95-.69,.91,.06-.43,.11-.82,.16-1.2-.26-.18-.49-.37-.75-.49-.66-.31-.71-.38-.65-1.08,.02-.28,.12-.55-.23-.77-.23-.14-.11-.37,.14-.44,.11-.03,.25,0,.39,0,.05-.3,.09-.54,.14-.81-.24,.08-.43,.15-.64,.22-.17-.42,.09-.56,.34-.65,.36-.13,.48-.38,.46-.73h-.01c.32-.26,.62-.56,.96-.81,.3-.21,.33-.39,.06-.65-.12,.09-.22,.23-.33,.24-.45,.03-.9,.03-1.3,.28-.05,.03-.23-.05-.27-.12-.04-.07-.02-.26,.04-.3,.2-.13,.43-.25,.66-.29,.3-.05,.61-.01,.98-.01-.11-.19-.19-.29-.24-.41-.17-.39-.34-.78-.48-1.18-.04-.12,0-.35,.09-.4,.09-.06,.28,.03,.42,.07,.11,.03,.2,.1,.4,.21-.13-.43-.38-.75-.09-1.05,.09-.09,.26-.1,.39-.14,.03,.12,.13,.29,.09,.35-.24,.28-.05,.5,.05,.74,.13,.32,.24,.65,.37,1.01-.67,.15-.71-.65-1.3-.63,.21,.39,.39,.73,.55,1.03,.33,0,.7-.1,.81,.02,.24,.29-.21,.35-.28,.54-.04,.73,.55,1.37,.29,2.15-.26-.22-.44-.47-.64-.7-.21-.23-.45-.22-.61,.04-.08,.13-.13,.29-.16,.44-.19,.93-.39,1.85-.52,2.79-.03,.22,.11,.59,.29,.69,.81,.47,1.66,.89,2.51,1.3,.39,.18,.66,.41,.81,.83,.12,.35,.38,.65,.57,.98,.07,.11,.14,.2,.22,.31-.02,.05-.04,.09-.06,.14-.15-.03-.3-.06-.44-.09Zm9.44,14.03c-.07,.02-.15,.04-.22,.06,.06,.22,.12,.44,.19,.66,.14,.41,.03,.58-.4,.66-.61,.11-1.23,.18-1.81,.37-.74,.24-1.31-.03-1.9-.4,.07-.23,.13-.42,.19-.61-.24,.15-.38,.35-.5,.56-.11,.17-.19,.41-.45,.28-.27-.13-.12-.34-.02-.51,.07-.12,.14-.23,.21-.35,.1-.18,.19-.36,.28-.54l-.11-.08c-.11,.09-.26,.15-.34,.26-.12,.16-.2,.35-.29,.53-.1,.18-.22,.39-.45,.24-.06-.04-.01-.31,.03-.46,.05-.17,.14-.32,.21-.48-.05-.03-.11-.05-.16-.08-.12,.21-.21,.43-.36,.61-.08,.1-.29,.23-.37,.19-.75-.33-1.43-.76-1.87-1.48-.07-.11-.06-.32,0-.43,.12-.21,.3-.11,.46,0,.06,.05,.15,.06,.24,.09,.09-.65,.04-.79-.28-.85-.42-.08-.65,.06-.82,.5-.19,.5-.04,.93,.26,1.34,.13,.18,.36,.33,.41,.53,.26,.93,1.11,1.1,1.83,1.4,.66,.28,1.34,.49,2.02,.72,.17,.06,.35,.17,.51,.14,1.15-.22,2.36,.16,3.48-.35,.28-.13,.52,0,.59,.36,.03,.14,.13,.27,.2,.41,.12-.33-.22-.63,.21-.96,.28,.3,.55,.61,.86,.94,.05-.16,.45-.94,.52-1,.16,.18,.32,.36,.48,.54,.19,.22,.37,.4,.69,.07-.2-.23-.38-.45-.56-.67-.16-.19-.4-.36-.26-.64,.14-.29,.35-.52,.72-.53,.22,0,.47-.03,.64-.14,1.03-.65,1.52-1.65,1.67-2.81,.04-.27-.21-.66-.44-.85-.18-.14-.56-.12-.82-.05-.23,.05-.34,.3-.22,.55,.13,.27,.32,.21,.5,.06,.16-.14,.35-.18,.47,0,.09,.13,.15,.34,.1,.48-.4,1.21-1.01,2.21-2.37,2.54-.48,.12-.62,.09-.9-.31-.11-.17-.23-.33-.35-.5-.04,.02-.08,.04-.12,.07,.03,.1,.04,.21,.08,.3,.08,.19,.1,.39-.13,.43-.09,.02-.25-.14-.33-.25-.12-.16-.19-.36-.29-.55-.3,.23-.17,.38-.07,.53,.12,.18,.14,.38-.07,.45-.11,.03-.33-.09-.41-.2-.15-.23-.23-.51-.34-.77Zm-.41-2.74c-.47,.02-.85,.06-1.22,.05-.43-.02-.85-.11-1.27-.14-.5-.04-.92,.18-1.35,.45,.19,.11,.38,.08,.54,.13,.13,.04,.35,.17,.34,.24-.01,.15-.12,.35-.24,.42-.17,.09-.39,.09-.59,.07-.51-.05-.81-.39-.97-.84-.18-.47-.1-.94,.22-1.34,.52-.65,1.01-.71,1.73-.28,.16,.09,.38,.1,.57,.09,.07,0,.2-.14,.21-.22,0-.08-.09-.21-.18-.24-.36-.14-.72-.25-1.09-.36-.08-.02-.18-.02-.26,.01-.85,.38-1.66,.8-2.04,1.76-.17,.43-.13,.75,.22,1.01,.37,.28,.81,.49,1.14,.8,.33,.31,.64,.26,.99,.13,.44-.16,.68-.49,.88-.89,.05-.1,.23-.24,.29-.21,.12,.04,.27,.19,.29,.3,.06,.37,.06,.74,.09,1.15,.26,.08,.56,.17,.72-.11,.08-.14-.06-.4-.11-.61,0-.04-.04-.08-.05-.13-.12-.33,0-.57,.29-.75,.28-.18,.57-.19,.8,.06,.15,.16,.26,.36,.36,.56,.15,.3,.34,.52,.69,.59,.17,.04,.33,.16,.5,.2,.25,.06,.52,.13,.77,.09,.9-.13,1.19-.83,1.49-1.56-.55-.13-.57-.12-.85,.31-.47,.74-.69,.82-1.39,.47-.61-.3-.79-.84-.49-1.45,.42-.86,.77-1.02,1.48-.68,.31,.15,.62,.29,.93,0-.2-.65-1.02-1.27-1.72-1.15-1.09,.18-1.65,.92-1.72,2.06Zm11.05,6.87c.03-.12,.11-.26,.07-.34-.49-1.07-1.34-1.72-2.44-2.08-.09-.03-.22,.02-.31,.05-1.25,.47-2.23,1.34-3.2,2.21-.02,.01,0,.08,.02,.15,.11-.05,.21-.09,.29-.14,.8-.53,1.6-1.07,2.52-1.36,.51-.16,1.05-.28,1.52,.14,.5,.44,.99,.89,1.53,1.37Zm-.76,.08s.08-.09,.12-.13c-.46-.38-.91-.79-1.39-1.14-.13-.09-.38-.07-.56-.02-1.09,.28-1.98,.93-2.91,1.51-.13,.08-.25,.21-.37,.31,.16,.08,.28,.08,.36,.02,.82-.62,1.82-.87,2.72-1.32,.32-.16,.59-.13,.89,.06,.37,.25,.76,.47,1.15,.71Zm-17.82-16.89c.34,.61,.73,.13,1.08,.13,.4,0,.79-.07,1.35-.12-.23-.15-.31-.26-.39-.25-.67,.07-1.33,.16-2.03,.24Zm11.1-7.87c-.1-.4-.85-1.25-1.27-1.49,.25,.64,.72,1.05,1.27,1.49Zm-2.21,6.9c-.69,.32-.97,.77-.91,1.37,.33-.49,.62-.93,.91-1.37Zm-1.4-11.63c-.13,.33-.09,.51,.24,.6,.22,.05,.43,.13,.68,.2-.13-.48-.51-.6-.91-.8Zm3.89,3.33c.03-.05,.07-.1,.1-.16-.48-.29-.95-.58-1.43-.87-.03,.05-.07,.11-.1,.16,.48,.29,.95,.58,1.43,.87Zm-8.69,9.59h.7c-.21-.11-.43-.4-.7,0Zm5.61-11.61s-.1,.08-.15,.13c.16,.19,.31,.37,.47,.56,.05-.04,.1-.08,.15-.13-.16-.19-.31-.37-.47-.56Zm2.4,2.02q.09,.34,.61,.48c-.22-.17-.43-.34-.61-.48Z"/><path d="M24.05,100c.3-1.01,.6-2.02,.9-3.04,.03-.11,.08-.23,.05-.33-.11-.43-.27-.84-.37-1.28-.26-1.14-.54-2.28-.35-3.47,.01-.09,.03-.18,.02-.27-.18-1.74,.62-3.24,1.22-4.78,.09-.24,.29-.46,.49-.64,.25-.22,.52-.22,.76,.07-.04,.08-.06,.18-.1,.18-.59,.09-.77,.57-.95,1.03-.28,.74-.56,1.47-.79,2.23-.11,.35-.2,.69-.09,1.11,.11,.4-.07,.88-.1,1.33-.1,1.12,.13,2.19,.58,3.27,.12-.6,.25-1.2,.37-1.79,.28-.49,.17-1.12-.37-1.6,.13,.54,.26,1.07,.39,1.61-.32,.2-.56,.08-.61-.24-.11-.66-.17-1.34,.03-2.09,.33,.22,.61,.18,.93-.17v.87s.06,0,.09,0c.2-.68,.4-1.35,.6-2.03,.11-.35,0-.61-.42-.83-.02,.35-.07,.66-.06,.96,.02,.51,.04,.51-.48,.51-.13,0-.27,0-.39,0-.25-.31-.2-.68-.05-.91,.29-.44-.02-1.13,.69-1.44,.06,.57,.49,.67,.97,.85,.3-1.03,1.1-1.48,2.01-1.84,.67-.27,1.28-.67,1.93-.98,.68-.33,.69-.37,.36-1.06-.27-.57-.77-.83-1.21-1.14-.48,.89-.91,1.72-1.36,2.54-.21,.39-.34,.37-.74-.1,.84-.78,.54-1.8,.48-2.72-.03-.5-.33-1.02-.69-1.43-.06,.76-.13,1.51-.2,2.31,.21-.07,.4-.13,.64-.2,.1,.47-.34,.52-.49,.76-.15,.25-.29,.5-.49,.84-1.12-1.84-2.13-3.56-2.02-5.8-.23,.18-.36,.28-.49,.38-.71,.56-1.41,1.12-2.12,1.67-.14,.11-.31,.2-.48,.25-.3,.1-.51-.1-.4-.4,.09-.25,.27-.47,.37-.72,.37-.85,.72-1.7,1.08-2.55,.04-.1,.1-.22,.09-.32-.07-.93,.38-1.74,.54-2.62,.04-.21,.18-.4,.32-.69-.19,.07-.31,.09-.41,.15-.74,.43-1.47,.87-2.21,1.29-.09,.05-.3,.05-.35-.02-.06-.07-.05-.25,0-.36,.03-.1,.14-.17,.22-.25,1.05-.96,2.1-1.92,3.16-2.88,.27-.24,.54-.47,.86-.75-.18-.15-.25-.25-.34-.28-.8-.26-1.38-.85-2-1.38-.21-.18-.32-.48-.42-.75-.04-.11,.03-.3,.12-.4,.04-.04,.28,0,.34,.07,.31,.36,.72,.31,1.12,.36,1.13,.13,2.07-.26,2.87-.95-.45-.47-.91-.93-1.34-1.4-.25-.28-.21-.53,.21-.69,.29,.45,.69,.81,1.23,.84,.57,.03,1.14,.12,1.7-.23,.54-.34,1.19-.4,1.84-.33,.15,.02,.3,.02,.54,.04-.15-.53-.28-.98-.63-1.35-.18-.19-.32-.38-.05-.69,.76,.68,1.5,1.34,2.31,2.06,.52-.73,1.25-1.11,2.17-1.1,.43,0,.43,0,.89,.29-.25,.28-.49,.54-.8,.88,1.76,.46,3.41,1.03,5.27,1.15-.48,.84-1.35,.75-2.06,1.21,.65,.3,1.2,.57,1.82,.68,.11,.02,.24-.02,.34,.02,.14,.07,.36,.17,.38,.28,.05,.26-.16,.33-.39,.32-.08,0-.16,.01-.38,.04,.22,.19,.32,.35,.47,.41,.62,.24,.94,.75,1.19,1.32,.09,.21,.17,.42,.27,.62,.45,.96,.94,1.89,1.33,2.87,.2,.51,.33,1.1,.29,1.64-.11,1.37-.33,2.73-1.11,3.93-.28,.43-.5,.9-.78,1.33-.22,.33-.16,.61,.09,.85,.33,.33,.7,.62,1.09,.96,.1-.19,.17-.33,.3-.56,.23,.2,.46,.32,.57,.51,.42,.72,1.13,1.05,1.84,1.32,1.57,.59,2.3,1.8,2.67,3.32,.05,.21,.08,.42,.12,.62,.06,0,.11-.01,.17-.02,0-.23,.03-.46,0-.68-.19-1.37-.77-2.58-1.49-3.74-.4-.64-.85-1.22-1.42-1.72-.34-.3-.64-.64-.94-.98-.34-.38-.69-.7-1.23-.78-.21-.03-.59-.09-.47-.42,.11-.33,.42-.14,.64-.07,.59,.19,1.09,.48,1.49,.99,.36,.46,.83,.82,1.23,1.25,.22,.23,.43,.47,.6,.73,.47,.74,.98,1.47,1.35,2.27,.5,1.07,.75,2.22,.69,3.42-.02,.34,.04,.68,.06,1.01,0,.11,.06,.28,0,.32-.45,.37-.18,.79-.09,1.18,.29,1.18,.64,2.36,.87,3.55,.22,1.12,.33,2.27,.49,3.41h-.41c-.16-.96-.29-1.92-.49-2.87-.25-1.12-.58-2.23-.84-3.35-.3-1.25-.52-2.52-.87-3.75-.19-.66-.54-1.28-.9-1.87-.2-.34-.51-.66-.85-.85-.68-.38-1.42-.65-2.2-1-.07,.24-.18,.43-.17,.61,.04,.81,.06,1.62,.18,2.42,.11,.75,.36,1.49,.48,2.24,.16,1,.51,1.91,1.05,2.76,.33,.53,.74,.96,.86,1.67,.22,1.35,.69,2.66,1.05,3.98h-.54c-.06-.23,.04-.53-.35-.71-.07,.26-.14,.49-.2,.71h-.54c-.05-.51-.16-1.03-.12-1.54,.06-.77-.24-1.4-.75-1.87-.66-.61-1-1.43-1.52-2.13-.36-.48-.65-1.04-.86-1.61-.29-.77-.49-1.58-.68-2.39-.08-.32-.03-.66-.05-.99,0-.15-.05-.29-.08-.44-.05,0-.1,0-.15,0-.28,.88-.86,1.5-1.61,2.02-.76,.53-1.65,.6-2.49,.75-.67,.12-1.41-.11-2.02-.58-.82-.62-1.38-1.41-1.8-2.33-.06-.12-.14-.23-.3-.48-.08,1.34-.28,2.49-.69,3.59-.02,.06-.03,.13-.04,.2-.12,.69-.35,1.34-.81,1.9-.18,.22-.28,.51-.41,.77-.42,.85-.82,1.71-1.5,2.39-.1,.1-.22,.25-.23,.39-.07,.78-.12,1.57-.18,2.35h-.68c0-.34-.27-.4-.53-.56-.06,.22-.1,.39-.15,.56h-.41c0-.13-.02-.27,.01-.39,.2-.72,.43-1.42,.62-2.14,.11-.45,.28-.85,.61-1.18,.12-.12,.23-.3,.25-.46,.11-1.27,.65-2.43,1.01-3.63,.43-1.42,.99-2.81,1.08-4.32,.02-.34-.01-.68-.02-1.06-1.05,.5-2.02,.92-2.95,1.41-.23,.12-.45,.4-.54,.66-.33,.98-.6,1.98-.88,2.97-.18,.63-.31,1.27-.49,1.9-.23,.85-.48,1.69-.71,2.53-.34,1.24-.66,2.48-.99,3.72h-.54Zm16.3-27.99c.21,.21,.42,.42,.63,.63,0-.47-.29-.59-.64-.62-.17-.26-.37-.48-.72-.54-.03,.62,.41,.49,.73,.53Zm-3.31,1.23c.43-.19,.75-.33,1.07-.47,.2-.08,.48-.23,.59,.04,.13,.33-.24,.35-.42,.39-.85,.2-1.17,.75-1.2,1.57-.01,.37-.06,.72,.23,1.02,.07,.07,.09,.2,.1,.31,0,.05-.06,.1-.13,.19-.17-.11-.33-.21-.51-.32-.1,.33-.13,.72-.56,.46,.15-.73,.31-1.42,.41-2.11,.05-.35,0-.72,0-1.08,0-.34,.02-.68,.04-1.15-.04-.03-.22-.14-.45-.28-.33,.53-.62,1-.88,1.42,.24,.43,.45,.75,.6,1.1,.05,.13-.04,.31-.06,.47-.14-.08-.31-.14-.4-.26-.15-.2-.25-.43-.43-.76-.41,.72-.78,1.29-1.05,1.91-.35,.75-.67,1.51-.76,2.37-.07,.63,.13,1.39-.56,1.85-.01,0-.02,.04-.02,.06,.03,.55-.31,.98-.51,1.45-.3,.69-.15,1.37,.36,1.62,.53,.26,1.02,.63,1.62,.73,.55,.1,1.09,.21,1.7,.33,.02-.33,.04-.61,.05-.92-.16,.02-.26,.06-.33,.03-.12-.06-.23-.16-.34-.24,.08-.1,.14-.22,.25-.28,.11-.06,.27-.04,.39-.09,.16-.07,.34-.15,.43-.28,.33-.45,.33-1.61,.01-2.06-.11-.16-.26-.29-.07-.46,.2-.17,.36-.05,.52,.12,.29,.32,.28,.71,.27,1.09-.02,.51-.09,1.01-.14,1.53,.13,0,.22,.01,.3,0,.24-.05,.49-.1,.73-.16,.55-.13,.71,0,.69,.55-.02,.46-.04,.93-.06,1.38,.35,.09,.52,0,.59-.32,.09-.46,.15-.94,.31-1.38,.49-1.31,.94-2.62,1.57-3.88,.48-.96,.75-2.05,1.84-2.64-.38-.51-.66-1.01-1.05-1.4-.54-.53-1.15-.98-1.75-1.45-.74-.57-1.43-1.23-2.41-1.43v.66c-.17,.04-.32,.08-.5,.13-.03,.18-.05,.37-.09,.62Zm-1.28,14.17c.18-.78,.33-1.44,.5-2.22-.67,.34-1.2,.6-1.83,.92,.18,.6,.39,1.19,.53,1.8,.23,1.01,1.6,1.72,2.58,1.41,.19-.06,.38-.14,.58-.18,.75-.15,1.29-.59,1.76-1.17,.92-1.14,1.09-2.51,1.25-3.89,0-.05-.06-.12-.13-.24-.34,.32-.63,.56-.88,.84-.71,.8-1.41,1.62-2.12,2.44-.24,.28-.53,.4-.89,.26,.15-.77,.3-1.52,.46-2.35-.45,.18-.46,.5-.47,.81-.01,.62-.18,1.19-.52,1.75-.28-.06-.55-.11-.84-.17Zm7.22-10.76c-.64,.38-.83,.6-1.08,1.19-.56,1.33-1.12,2.65-1.68,3.98-.27,.64-.41,1.31-.49,2.06,.18-.03,.32-.02,.43-.07,.86-.39,1.47-1.04,1.86-1.89,.27-.59,.54-1.18,.73-1.8,.34-1.12,.67-2.25,.23-3.48Zm-1.28,8.19c-.1,.24-.14,.31-.17,.39-.14,.54-.19,1.12-.43,1.62-.69,1.44-1.65,2.57-3.31,3.04-1.22,.35-2.76-.37-3.14-1.45-.28-.79-.66-1.57-.59-2.41-.66-.38-1.27-.74-1.89-1.09q-.2,.52,.22,.6c.46,.09,.99,.24,1.05,.71,.12,.96,.54,1.76,1.02,2.55,.59,.95,1.32,1.74,2.57,1.69,.49-.02,.97-.14,1.46-.15,.74-.01,1.31-.35,1.78-.86,1.04-1.12,1.5-2.49,1.66-3.98,.02-.17-.11-.35-.22-.67Zm3.65,10.9c.07-.04,.14-.08,.21-.12-.16-.28-.32-.56-.48-.85-.29-.51-.67-.98-.85-1.53-.35-1.09-.64-2.21-.86-3.34-.23-1.16-.37-2.35-.11-3.53,.09-.4,.04-.44-.5-.49-.11,.61-.31,1.22-.32,1.83-.02,.85,.05,1.71,.14,2.56,.05,.48,.17,.98,.37,1.42,.35,.78,.74,1.54,1.18,2.27,.36,.61,.8,1.18,1.21,1.77Zm-13.79-9.22c.08,.27,.2,.46,.18,.64-.08,.78-.13,1.58-.33,2.33-.38,1.43-.87,2.83-1.3,4.25-.15,.49-.24,.99-.39,1.64,.19-.17,.27-.21,.31-.28,.26-.45,.57-.88,.76-1.35,.64-1.6,1.56-3.13,1.48-4.94-.04-.81,.16-1.62-.1-2.42-.01-.03-.06-.05-.12-.1-.14,.07-.3,.14-.48,.22Zm3.16-12.99c-.36-.3-.73-.62-1.11-.94-.08,.09-.16,.14-.19,.22-.31,.67-.52,1.41-.94,2.01-.6,.85,.29,1.42,.26,2.14,0,.08,.04,.17,.08,.31,.31-.7,.55-1.33,.85-1.92,.31-.62,.69-1.2,1.05-1.82Zm-1.51-1.24c-.43-.24-.81-.45-1.25-.7-.28,.55-.54,1.06-.8,1.56,.29,.51,.58,1.01,.91,1.59,.38-.8,.74-1.57,1.15-2.44Zm3.27,10.9c-.05,.25-.13,.43-.11,.6,.02,.16,.1,.38,.22,.43,.34,.15,.71,.26,1.08,.33,.1,.02,.34-.11,.35-.19,.06-.47,.06-.95,.09-1.44-.59,.1-1.09,.18-1.62,.27Zm-5.22-5.73c-.13,.38-.22,.61-.28,.85-.03,.12-.02,.27,.02,.38,.2,.47,.42,.94,.64,1.4,.09,.19,.21,.37,.38,.68,.14-.65,.25-1.16,.38-1.76-.33-.45-.7-.94-1.15-1.54Zm-.49,2.65c-.27,.92,.07,1.65,.8,1.96,.06-.3,.12-.6,.18-.89-.31-.34-.61-.67-.98-1.07Zm4.28-7.28c.28-.46,.5-.83,.73-1.2-.77-.45-.81-.44-1.51,.33,.25,.28,.5,.55,.78,.87Zm-4.16-.08c.24-.47,.42-.82,.66-1.31-.55,.18-.98-.33-1.47,.13,.25,.37,.49,.73,.8,1.18Zm2.44,12.39c.64-.21,1.2-.4,1.76-.58,0-.04-.01-.08-.02-.13-.75,.07-1.51,.13-2.43,.21,.32,.23,.51,.37,.69,.5Zm-3.12-9c-.05,.03-.11,.07-.16,.1-.05,.57,.29,.98,.6,1.49,.14-.24,.23-.4,.34-.6-.27-.35-.53-.67-.79-.99Zm-.13,4.29c.3-.62,.28-.67-.39-1.19-.45,.36-.4,.53,.39,1.19Zm.33,3.22c-.01-1.05-.14-1.32-.76-1.51,.31,.5,.1,1.19,.76,1.51Zm4.1-12.46c-.05-.07-.09-.15-.14-.22-.38-.07-.75-.36-1.2,.03,.26,.21,.49,.4,.8,.66,.19-.17,.36-.32,.53-.47Zm-3.04,13.15c.33-.55,.2-.84-.67-1.34,.22,.53,.23,1.03,.67,1.34Zm-2.36,12.55c-.52,.59-.54,.89-.11,1.2,.04-.42,.07-.81,.11-1.2Zm-.68,1.45c-.2,.62,.2,.71,.48,.93,.2-.49-.2-.6-.48-.93Zm11.84-25.91s-.08,.07-.12,.11c.34,.27,.36,.82,.97,.84-.28-.32-.56-.64-.85-.95Zm-4.6-2.75c.38,.27,.66,.43,1.13,.3-.37-.3-.63-.49-1.13-.3Zm-6.92,8.39s-.09,.07-.14,.11c.23,.74,.25,.76,.73,.76-.23-.33-.41-.6-.6-.87Zm9.73,7.76s.1,.03,.15,.05l.39-.9c-.53,.13-.5,.5-.54,.85Zm-.29-.59c-.05,0-.1,0-.15-.01q-.29,.97-.17,1.35c.12-.51,.22-.93,.32-1.34Zm-1.61,.58c-.09,.34-.19,.67-.32,1.13,.46-.37,.43-.74,.32-1.13Zm-2.44-.5c.01,.06,.02,.11,.03,.17,.32,.13,.56,0,.73-.36-.25,.06-.51,.13-.76,.19Zm3.09-15.26q.41,.47,.65,.05c-.24-.02-.44-.04-.65-.05Zm8.89,27.31c-.05,0-.1,.02-.16,.02,.03,.2-.1,.46,.34,.52-.06-.18-.12-.37-.18-.55Zm-9.81-12.65c-.21-.29-.35-.2-.49-.03-.02,.02,0,.08-.01,.18,.17-.05,.31-.09,.51-.14Zm10.16,13.87c-.38-.15-.46-.02-.39,.37,.17-.16,.28-.27,.39-.37Z"/><path d="M29.35,100c.06-.78,.1-1.57,.18-2.35,.01-.14,.13-.28,.23-.39,.68-.68,1.08-1.54,1.5-2.39,.13-.26,.23-.55,.41-.77,.46-.56,.69-1.2,.81-1.9,.01-.07,.02-.14,.04-.2,.41-1.1,.61-2.25,.69-3.59,.16,.25,.25,.36,.3,.48,.42,.92,.98,1.71,1.8,2.33,.61,.46,1.36,.69,2.02,.58,.84-.15,1.73-.22,2.49-.75,.74-.52,1.32-1.14,1.61-2.02,.05,0,.1,0,.15,0,.03,.15,.07,.29,.08,.44,.02,.33-.02,.68,.05,.99,.2,.8,.4,1.61,.68,2.39,.21,.57,.5,1.12,.86,1.61,.52,.7,.86,1.52,1.52,2.13,.51,.48,.82,1.1,.75,1.87-.04,.51,.08,1.03,.12,1.54h-5.3c-.04-.28-.09-.56-.1-.85,0-.12,.06-.24,.1-.35,.18,.11,.22,.2,.26,.3,.05,.12,.08,.26,.15,.37,.19,.32,.44,.37,.74,.17,.27-.18,.29-.35,.07-.68-.06-.09-.16-.17-.2-.27-.13-.32-.01-.5,.29-.54,.19,.41,.35,.78,.53,1.14,.14,.27,.37,.32,.62,.15,.14-.1,.26-.23,.4-.35-.38-.44-.72-.85-1.08-1.27,.27-.36,.53-.67,.76-1,.41-.59,.46-1.57,.13-2.06-.17-.24-.34-.5-.69-.46-.24,.03-.68,.52-.66,.79,.02,.23,.08,.51,.23,.66,.22,.22,.39-.07,.56-.19,.02-.02,.08,.01,.12,.02-.03,.52-.21,.8-.84,1.31-.15-.1-.31-.21-.55-.37-.11,.28-.21,.5-.34,.82-.18-.22-.3-.37-.43-.53,1.02-.88,1.12-.77,.8-1.97-.32,.1-.72-.04-.9,.43-.12,.31-.38,.45-.71,.34-.29-.1-.51-.52-.45-.83,.1-.52,.39-.83,.91-.93,.16,.2,.3,.37,.44,.56,.24-.08,.47-.12,.67-.21,.24-.11,.32-.31,.2-.56-.19-.41-.98-.84-1.45-.84-.76,0-1.2,.45-1.52,1.05-.12,.23-.24,.43-.54,.43-.69,.01-1.39,.05-2.08,.05-.28,0-.43,.1-.48,.35-.08,.4,.36,.84,.78,.78,.11-.02,.22-.03,.41-.06-.46,.5-.77,.55-1.38,.34-.42-.14-.67-.48-.68-.85-.01-.47,.31-.84,.73-1.07,.22-.12,.43-.16,.69,0,.24,.14,.54,.21,.82,.23,.17,.01,.49-.12,.5-.21,.02-.19-.08-.43-.21-.58-.48-.57-1.13-.58-1.81-.46-1.17,.21-2.27,1.69-1.46,3.17,.14,.26,.42,.51,.69,.6,.8,.29,1.63,.58,2.34-.24,.12,.62,.15,.67,.36,.7,.5,.06,.96-.42,.88-.91-.04-.23-.15-.47,.11-.72,.39,.84,1.12,1.16,1.97,1.41-.13,.2,.11,.48-.24,.67-.06-.11-.08-.22-.15-.29-.12-.14-.28-.37-.4-.35-.28,.04-.28,.29-.22,.54,.02,.07-.03,.16-.04,.25-.81,.06-1.58,.11-2.33,.16-.05-.1-.08-.13-.09-.17-.04-.16-.03-.39-.13-.45-.24-.14-.35,.1-.46,.26-.1,.15-.21,.29-.32,.42-.02,.02-.11-.02-.17-.03,.08-.2,.14-.37,.27-.7-.3,.06-.49,.06-.64,.14-.16,.09-.27,.27-.46,.47,0-.19,.03-.29,0-.36-.06-.13-.16-.24-.24-.35-.1,.08-.21,.14-.3,.23-.11,.1-.21,.22-.3,.32-1.4-.65-1.82-1.1-1.63-1.77,.1,.06,.19,.13,.28,.17,.4,.18,.65,.03,.68-.41,.04-.43-.22-.85-.59-.97-.31-.1-.63,.1-.84,.53-.02,.04-.04,.08-.06,.12-.37,.9-.04,2.05,.76,2.67,.24,.19,.47,.39,.69,.58-.26,.39-.46,.71-.66,1,.16,.21,.27,.36,.39,.52h-3.53Z" style="fill:#fff;"/><path d="M32.88,100c-.12-.15-.23-.31-.39-.52,.19-.3,.4-.61,.66-1-.22-.19-.45-.4-.69-.58-.8-.62-1.13-1.77-.76-2.67,.02-.04,.04-.08,.06-.12,.22-.43,.54-.63,.84-.53,.37,.12,.63,.54,.59,.97-.04,.45-.28,.6-.68,.41-.1-.04-.18-.11-.28-.17-.19,.67,.23,1.13,1.63,1.77,.09-.1,.19-.22,.3-.32,.09-.08,.2-.15,.3-.23,.08,.12,.18,.23,.24,.35,.03,.07,0,.17,0,.36,.19-.2,.3-.38,.46-.47,.15-.08,.34-.08,.64-.14-.12,.32-.19,.5-.27,.7,.06,.01,.15,.06,.17,.03,.12-.13,.22-.27,.32-.42,.12-.17,.22-.4,.46-.26,.1,.06,.08,.3,.13,.45,.01,.04,.04,.08,.09,.17,.75-.05,1.53-.11,2.33-.16,.02-.09,.06-.18,.04-.25-.06-.25-.06-.5,.22-.54,.12-.02,.28,.22,.4,.35,.07,.07,.1,.18,.15,.29,.35-.19,.11-.47,.24-.67-.85-.25-1.58-.58-1.97-1.41-.26,.25-.15,.49-.11,.72,.08,.49-.38,.97-.88,.91-.21-.03-.24-.08-.36-.7-.72,.82-1.55,.53-2.34,.24-.27-.1-.55-.35-.69-.6-.81-1.48,.29-2.95,1.46-3.17,.67-.12,1.32-.11,1.81,.46,.13,.15,.23,.39,.21,.58,0,.09-.33,.22-.5,.21-.28-.02-.58-.09-.82-.23-.26-.16-.47-.12-.69,0-.42,.23-.74,.59-.73,1.07,0,.38,.26,.71,.68,.85,.61,.21,.92,.16,1.38-.34-.18,.03-.3,.04-.41,.06-.42,.06-.86-.38-.78-.78,.05-.26,.2-.36,.48-.35,.69,0,1.38-.04,2.08-.05,.3,0,.42-.2,.54-.43,.32-.6,.76-1.05,1.52-1.05,.47,0,1.26,.43,1.45,.84,.12,.25,.04,.45-.2,.56-.2,.09-.43,.14-.67,.21-.14-.18-.28-.35-.44-.56-.51,.1-.81,.41-.91,.93-.06,.31,.17,.73,.45,.83,.34,.12,.6-.03,.71-.34,.18-.47,.58-.32,.9-.43,.33,1.2,.22,1.08-.8,1.97,.13,.15,.25,.31,.43,.53,.13-.32,.22-.54,.34-.82,.24,.16,.4,.27,.55,.37,.63-.51,.8-.79,.84-1.31-.04,0-.1-.04-.12-.02-.18,.12-.34,.41-.56,.19-.15-.15-.22-.43-.23-.66-.02-.27,.42-.77,.66-.79,.35-.04,.52,.22,.69,.46,.34,.48,.28,1.47-.13,2.06-.23,.33-.49,.64-.76,1,.36,.42,.7,.83,1.08,1.27-.14,.12-.25,.25-.4,.35-.25,.17-.48,.12-.62-.15-.18-.36-.34-.72-.53-1.14-.3,.05-.42,.22-.29,.54,.04,.1,.13,.18,.2,.27,.22,.33,.2,.5-.07,.68-.31,.2-.55,.15-.74-.17-.07-.11-.1-.25-.15-.37-.04-.1-.08-.19-.26-.3-.03,.12-.1,.24-.1,.35,.02,.28,.07,.57,.1,.85h-.68c-.1-.31-.2-.62-.3-.91-1.15,.06-2.29,.11-3.43,.17-.03,.15-.05,.26-.08,.36-.04,.13-.09,.25-.13,.38h-.68c.07-.24,.15-.49,.25-.81-.57,.02-.64,.46-.79,.81h-.68c.09-.27,.2-.53,.27-.8,.03-.1-.02-.23-.03-.35-.11,.04-.29,.06-.32,.13-.13,.33-.23,.67-.33,1.01h-.54Z"/><path d="M47.28,100c-.37-1.32-.84-2.63-1.05-3.98-.12-.71-.52-1.14-.86-1.67-.53-.85-.89-1.76-1.05-2.76-.12-.75-.37-1.49-.48-2.24-.11-.8-.14-1.61-.18-2.42,0-.18,.1-.37,.17-.61,.78,.35,1.52,.62,2.2,1,.34,.19,.65,.51,.85,.85,.36,.59,.71,1.22,.9,1.87,.35,1.23,.57,2.5,.87,3.75,.27,1.12,.6,2.22,.84,3.35,.21,.95,.33,1.91,.49,2.87h-2.72Z" style="fill:#fff;"/><path d="M24.59,100c.33-1.24,.65-2.48,.99-3.72,.23-.85,.48-1.69,.71-2.53,.17-.63,.31-1.27,.49-1.9,.28-.99,.55-1.99,.88-2.97,.08-.25,.31-.53,.54-.66,.93-.48,1.9-.91,2.95-1.41,0,.38,.04,.72,.02,1.06-.09,1.51-.65,2.89-1.08,4.32-.37,1.2-.9,2.35-1.01,3.63-.01,.16-.13,.34-.25,.46-.33,.33-.49,.74-.61,1.18-.18,.72-.42,1.43-.62,2.14-.03,.12-.01,.26-.01,.39h-2.99Z" style="fill:#fff;"/><path d="M54.62,100c.14-.91,.27-1.83,.41-2.74,.09-.55,.16-1.12,.31-1.65,.06-.2,.29-.43,.49-.48,.38-.1,.81-.16,1.2-.1,.64,.1,1.28,.28,1.88,.51,.19,.07,.38,.4,.41,.63,.11,.98,.16,1.97,.24,2.96,.02,.29,.06,.58,.09,.87h-5.03Z" style="fill:#fff;"/><path d="M80.3,100c.1-.21,.18-.45,.32-.63,.25-.32,.3-.63,.1-1-.62-1.16-1.56-1.9-2.85-2.19-.12-.03-.24-.07-.37-.11,.22-.42,.43-.8,.61-1.2,.1-.22,.12-.47,.22-.69,.1-.22,.2-.47,.37-.62,.61-.55,1.32-.82,2.16-.68,.34,.06,.53,.31,.54,.64,.02,.78,.02,1.57,.13,2.34,.19,1.38,.45,2.75,.68,4.13h-1.9Z" style="fill:#fff;"/><path d="M60.19,100c0-.11,.04-.24,0-.34-.21-.53,.08-.9,.47-1.14,.59-.36,1.22-.66,1.85-.94,.16-.07,.41-.04,.59,.03,1.13,.38,2.24,.8,3.37,1.18,.42,.14,.88,.19,1.31,.29,.94,.22,1.87,.44,2.8,.67,.12,.03,.22,.16,.33,.25h-9.51c-.03-.58-.17-.9-.41-.83-.47,.13-.25,.53-.27,.83h-.54Z" style="fill:#fff;"/><path d="M75.41,100c.05-.12,.07-.3,.15-.34,.51-.28,1.04-.53,1.57-.78,.37-.17,.7-.19,1.07,.08,.45,.32,1.02,.49,1.28,1.04h-4.08Z" style="fill:#fff;"/><path d="M35.73,100c.04-.13,.09-.25,.13-.38,.03-.11,.05-.22,.08-.36,1.14-.06,2.28-.11,3.43-.17,.1,.29,.2,.6,.3,.91h-3.94Z" style="fill:#fff;"/><path d="M60.73,100c.02-.3-.21-.7,.27-.83,.24-.07,.39,.25,.41,.83h-.68Z"/><path d="M33.42,100c.11-.34,.2-.68,.33-1.01,.03-.07,.21-.09,.32-.13,.01,.12,.06,.24,.03,.35-.07,.27-.18,.53-.27,.8h-.41Z" style="fill:#fff;"/><path d="M34.51,100c.15-.35,.22-.79,.79-.81-.1,.32-.17,.57-.25,.81h-.54Z" style="fill:#fff;"/><path d="M46.2,100c.06-.22,.12-.44,.2-.71,.38,.18,.29,.48,.35,.71h-.54Z" style="fill:#fff;"/><path d="M27.99,100c.04-.17,.09-.33,.15-.56,.27,.15,.53,.22,.53,.56h-.68Z" style="fill:#fff;"/><path d="M74.25,57.09c.22,.09,.26,.13,.3,.13,.44,0,.8,.1,1,.54,.2,.44-.15,.72-.29,1.06-.04,.09-.17,.21-.25,.2-.48-.05-1-.03-1.42-.22-.72-.32-.84-.97-.49-1.7,.59-1.24,2.52-1.91,3.79-1.21,.79,.44,1.48,.95,2.02,1.65,.48,.62,.31,1.33-.39,1.7-.62,.32-1.23,.66-1.85,.96-.36,.17-.53,.43-.61,.83-.05,.28-.22,.54-.38,.78-.06,.1-.26,.15-.38,.14-.05,0-.14-.21-.14-.33,0-.38,.04-.76,.06-1.14,.03-.52,.31-.83,.8-.96,.74-.19,1.11-.67,1.27-1.41,.14-.65-.17-1.05-.58-1.41-.4-.36-.88-.44-1.38-.2-.33,.16-.65,.36-1.08,.59Z"/><path d="M24.43,56.79c.13-.02,.26-.04,.38-.08,.49-.14,.83,0,1.03,.46,.16,.35,.04,.75-.4,.95-.45,.2-.94,.37-1.42,.39-.71,.03-1.31-.87-.93-1.55,.43-.76,1.12-1.06,1.8-1.45,.84-.48,1.76-.57,2.69-.48,.35,.03,.71,.16,1.01,.33,.69,.38,.75,.95,.21,1.52-.5,.52-.98,1.05-1.47,1.58-.44,.47-.39,1.24,.1,1.64,.03,.03,.09,.05,.11,.08,.06,.15,.11,.3,.16,.45-.15,.02-.35,.11-.43,.05-.34-.28-.73-.55-.95-.92-.3-.48-.16-.98,.18-1.44,.29-.39,.53-.83,.7-1.29,.27-.7-.57-1.5-1.26-1.31-.61,.17-1.18,.42-1.51,1.06Z"/><path d="M48.44,79.74c-.08,.45-.16,.94-.27,1.42-.05,.2-.17,.4-.43,.29-.24-.1-.13-.28-.07-.46,.36-1.09,.18-2.17-.04-3.25-.26-1.29-1-2.25-2.13-2.91-.2-.12-.42-.23-.28-.52,.12-.24,.36-.23,.69,0,1.15,.79,1.86,1.89,2.17,3.24,.16,.7,.24,1.42,.36,2.18Z"/><path d="M27.79,63.02c-.19-.04-.37-.05-.54-.12-.4-.15-.52-.46-.34-.86,.34-.78,1.01-1.07,1.78-1.16,.51-.06,.86,.58,.68,1.07-.28,.75-.88,.97-1.57,1.07Z"/><path d="M80.77,78.55c-.09,.59-.15,1.09-.26,1.57-.04,.2-.14,.49-.45,.35-.26-.12-.17-.33-.05-.52,.41-.65,.28-1.38,.17-2.05-.12-.76-.21-1.57-.67-2.24-.34-.5-.7-.99-1.06-1.48-.07-.09-.21-.16-.22-.25-.02-.14,0-.34,.09-.41,.08-.07,.33-.06,.4,.02,.24,.24,.44,.51,.63,.79,.54,.81,.96,1.67,1.1,2.65,.08,.55,.21,1.09,.3,1.55Z"/><path d="M75.12,62.37c.24,.06,.47,.09,.67,.18,.27,.12,.55,.29,.51,.64-.04,.33-.23,.58-.55,.71-.73,.29-1.4,.03-1.77-.66-.14-.27-.1-.5,.18-.61,.31-.12,.65-.17,.96-.25Z"/><path d="M49.88,79.45c-.02,.36-.03,.72-.05,1.08,0,.21-.03,.45-.32,.41-.24-.03-.22-.24-.18-.43,.18-1.02,.09-2.02-.1-3.03-.12-.66-.33-1.26-.77-1.78-.14-.16-.28-.34-.04-.51,.21-.15,.42-.03,.52,.15,.23,.46,.51,.93,.62,1.42,.19,.88,.27,1.78,.39,2.67h-.07Z"/><path d="M81.85,78.12c-.02-1.01-.33-1.92-.87-2.75-.06-.09-.16-.18-.17-.29-.02-.11,.01-.26,.08-.34,.03-.04,.22-.01,.3,.04,.09,.05,.15,.17,.2,.26,.7,1.27,1.15,2.6,.85,4.07-.03,.13-.05,.27-.13,.37-.05,.07-.21,.13-.28,.1-.07-.02-.14-.17-.13-.26,.04-.4,.1-.8,.16-1.2Z"/><path d="M45.86,86.02c-.12-.01-.27,.01-.36-.05-.54-.4-1.06-.81-1.59-1.22-.02-.01-.04-.03-.05-.05-.03-.12-.06-.23-.09-.35,.12-.01,.27-.07,.35-.02,.27,.16,.52,.35,.76,.55,.2,.18,.35,.41,.54,.59,.16,.15,.36,.25,.54,.37-.03,.06-.06,.12-.1,.19Z"/><path d="M45.38,84.88c-.39-.33-.78-.65-1.16-.99-.05-.04-.06-.18-.03-.24,.03-.06,.14-.12,.21-.12,.1,0,.23,.04,.31,.11,.28,.26,.55,.54,.79,.83,.06,.07,.02,.23,.03,.35-.05,.02-.1,.04-.15,.06Z"/><path d="M43.69,83.96c-.27-.2-.56-.37-.8-.6-.08-.07-.03-.27-.04-.42,.12,0,.28-.06,.37,0,.22,.15,.43,.34,.59,.54,.07,.09,.03,.27,.03,.41-.05,.02-.1,.04-.15,.06Z"/><path d="M26.71,87.7c-.31-.24-.27-.43-.09-.62,.18-.19,.36-.4,.73-.14-.23,.27-.43,.51-.64,.76Z"/><path d="M42.61,83.83c.17,.12,.35,.24,.6,.42-.51,.26-.64,.05-.74-.21,.05-.07,.1-.14,.14-.2Z"/><path d="M56.25,73.5c.01,.35-.1,.6-.46,.73-.25,.09-.51,.24-.34,.65,.21-.07,.4-.14,.64-.22-.05,.27-.09,.51-.14,.81-.14,0-.28-.03-.39,0-.25,.07-.37,.3-.14,.44,.35,.21,.25,.49,.23,.77-.06,.7-.01,.77,.65,1.08,.26,.12,.49,.32,.75,.49-.05,.37-.1,.76-.16,1.2,.81,.04,.45-.62,.69-.91,.4,0,.42,.28,.41,.59,0,.24-.01,.49,.05,.72,.06,.23,.16,.43,.48,.5,.21,.04,.39,.29,.54,.47,.06,.07,0,.23,0,.36-.12-.01-.29,.02-.36-.05-.36-.38-.68-.78-1.03-1.17-.1-.11-.22-.19-.39-.33-.1,.25-.17,.42-.24,.59-.55-.34-.54-1.19-1.3-1.39-.05,.34-.08,.59-.12,.84-.04,0-.08,.01-.12,.02-.28-.74-.57-1.48-.86-2.27-.19,.05-.35,.09-.57,.14,.11-.37,.21-.71,.3-1.05,.1-.34,0-.45-.36-.4-.22,.03-.43,.06-.71,.09,.28-.52,.54-.97,.76-1.43,.07-.14,.05-.32,.07-.47-.16,.01-.33,.02-.49,.04-.08,.01-.16,.05-.35,.11,.2-.47,.37-.85,.51-1.23,.32-.88,.31-.88-.39-1.45-.15-.12-.28-.25-.48-.42,.66-.15,1.36,.36,1.81-.38-.32-.24-.63-.47-.92-.69,.74-.29,1.39-.54,2.04-.81,.08-.03,.1-.18,.18-.32-.46-.15-.86-.33-.76-.94,.23,.13,.42,.23,.61,.33,.45-.42-.13-.89,.18-1.34,.13,.02,.32,.05,.53,.08,.21-.39,.4-.77,.61-1.17,.22,.11,.43,.31,.63,.3,.22-.01,.43-.22,.65-.34,.19-.11,.38-.22,.57-.33,.24,.23,.43,.41,.66,.63,.54-.45,1.04-.89,1.55-1.31,.56,1,.45,1.92-.29,2.21,.03-.09,.16-.91,.15-.94-.54,.25-.69,.61-.46,1.15-.47,.49-1.19,.84-1.03,1.7-.29,.09-.52,.17-.78,.25-.1-.19-.19-.36-.29-.55-.09,.04-.19,.06-.2,.09-.08,.45-.19,.89-.19,1.34,0,.49,.2,.6,.65,.43,.12-.05,.22-.14,.48-.33-.2-.11-.34-.18-.52-.27,.66-.45,1.36-.65,2.11-.75,0-.07,0-.14,0-.21-.21-.14-.42-.27-.67-.44,.37-.69,.98-1.06,1.68-1.32,.91,.49,1.77,1.04,2.84,1.57-.3-.79,.48-.8,.59-1.25-.42-.23-.54-.17-1.03,.53-.09-.03-.2-.06-.29-.1-.08-.04-.14-.11-.16-.12,.08-.25,.23-.47,.2-.67-.03-.21-.31-.12-.46,.18-.04,.07-.05,.15-.08,.23-.62-.3-.62-.29-.46-.91,.03-.12,0-.24,0-.38-.5-.03-.44,.35-.58,.64-.22-.15-.51-.25-.44-.57,.09-.39,.01-.91,.67-.99,.04,.49,.34,.6,.82,.58,.39-.02,.79,.1,1.25,.16-.11,.19-.21,.37-.34,.61,.67,.63,1.57,.54,2.41,.7-.11,.25-.19,.42-.3,.67,1.01,.22,1.55,.89,1.91,1.76-.76-.49-1.36-1.35-2.49-.84-.15-.1-.33-.22-.53-.36,.18-.21,.35-.4,.63-.72-.28-.01-.49-.07-.53-.01-.22,.28-.41,.57-.55,.89-.03,.07,.16,.34,.29,.37,.4,.11,.82,.18,1.23,.2,.4,.02,.74,.08,1.06,.36,.78,.68,1.59,1.33,2.39,1.98,.14,.11,.33,.15,.47,.26,.15,.12,.31,.26,.41,.42,.21,.34,.37,.72,.58,1.06,.76,1.23,.92,2.54,.63,3.96-.15,.75-.5,1.4-.86,2.05-.15,.27-.36,.53-.6,.73-.65,.53-1.32,1.03-1.99,1.52-.13,.1-.32,.14-.49,.17-.31,.05-.62,.1-.93,.1-.42,0-.85,0-1.25-.1-1.37-.37-2.73-.77-4.09-1.19-.3-.09-.56-.27-.84-.41-.26,.51-.16,.6,1.13,1.07-.37,.17-.69,.29-1.03-.06-.14-.14-.41-.16-.63-.21-.27-.06-.39-.2-.36-.48,0,0-.01,.01-.01,.01l.44,.09s.04-.09,.06-.14c-.07-.1-.15-.2-.22-.31-.2-.32-.45-.63-.57-.98-.15-.43-.42-.65-.81-.83-.85-.4-1.69-.82-2.51-1.3-.18-.1-.32-.47-.29-.69,.13-.94,.33-1.86,.52-2.79,.03-.15,.08-.31,.16-.44,.16-.25,.41-.27,.61-.04,.2,.23,.38,.48,.64,.7,.27-.78-.33-1.42-.29-2.15,.07-.19,.53-.25,.28-.54-.1-.12-.47-.02-.81-.02-.16-.29-.34-.63-.55-1.03,.59-.02,.63,.78,1.3,.63-.13-.36-.24-.69-.37-1.01-.1-.25-.3-.46-.05-.74,.04-.05-.05-.23-.09-.35-.13,.04-.31,.05-.39,.14-.29,.31-.04,.63,.09,1.05-.2-.1-.29-.17-.4-.21-.14-.04-.33-.13-.42-.07-.08,.05-.13,.28-.09,.4,.13,.4,.31,.79,.48,1.18,.05,.12,.13,.23,.24,.41-.37,0-.68-.04-.98,.01-.23,.04-.45,.17-.66,.29-.06,.04-.08,.22-.04,.3,.04,.07,.22,.15,.27,.12,.41-.25,.85-.25,1.3-.28,.11,0,.21-.15,.33-.24,.27,.26,.24,.44-.06,.65-.34,.25-.64,.55-.96,.82-.09-.1-.18-.27-.28-.27-.17,0-.35,.08-.5,.17-.1,.07-.14,.23-.21,.35,.15,.04,.33,.16,.45,.12,.2-.07,.36-.25,.54-.38Zm7.34,4.91h0c0,.39-.34,.48-.59,.66-.22,.16-.54,.25-.52,.66,.1,.01,.2,.06,.26,.03,.22-.11,.44-.22,.64-.37,.22-.16,.45-.33,.6-.54,.16-.24,.22-.53,.33-.8,.23-.56,0-1.08-.25-1.7,.32,.02,.52,0,.7,.06,.6,.15,1.12,.45,1.6,.85,.37,.31,.8,.55,1.18,.8,.14-.09,.21-.12,.26-.16,.16-.16,.35-.33,.18-.58-.15-.22-.35-.15-.54-.06-.25,.13-.43,.02-.61-.14-.74-.66-1.54-1.17-2.56-1.29-.14-.02-.28-.13-.38-.23-.3-.3-.58-.62-.87-.94-.14-.15-.29-.24-.46-.06-.15,.17-.07,.32,.09,.46,.27,.23,.52,.48,.85,.8-.57,.44-.84,1.16-1.69,1.06-.1-.01-.23,.05-.31,.11-.42,.33-.82,.68-1.15,.95,.19,.57,.35,1.05,.55,1.65,.44-.43,.83-.74,1.13-1.12,.34-.42,.58-.91,.89-1.36,.18-.26,.4-.5,.61-.74,.04,.03,.08,.06,.12,.09-.05,.11-.08,.23-.15,.33-.53,.75-1.07,1.5-1.6,2.26-.08,.12-.11,.29-.16,.43,.04,.03,.09,.06,.13,.09,.12-.07,.31-.12,.36-.23,.27-.59,.78-.81,1.35-.96Zm1.09-4.44c-.31,.05-.61,.44-1.01,.09-.03-.03-.22,.05-.27,.13-.04,.07-.04,.24,.02,.29,.13,.11,.29,.21,.45,.26,.26,.09,.54,.14,.87,.23,.13-.23,.28-.48,.41-.73,.07-.14,.08-.32,.18-.42,.41-.41,.84-.8,1.27-1.17,.18-.15,.29-.3,.16-.52-.2-.35-.06-.6,.21-.95,.19,.88,.08,1.55-.57,2.1-.22,.19-.57,.31-.5,.77,.12,0,.25,.03,.32-.02,.35-.31,.81-.57,1.01-.97,.45-.9,.55-1.85-.25-2.67-.21,.09-.4,.17-.73,.31,.21-.35,.33-.54,.49-.81-.55-.05-.89,.16-1.23,.35-.55,.31-.71,.72-.46,1.3,.16,.38,.14,.73,0,1.11-.15,.4-.24,.82-.38,1.32Zm3.16,7.47c.05,.09,.12,.35,.24,.39,.27,.08,.28-.21,.35-.39,.03-.08,.03-.18,.04-.27,.27-1.58,.71-3.07,1.89-4.26,.37-.37,.68-.78,1.21-.94,.2-.06,.4-.21,.25-.44-.05-.08-.33-.07-.46,0-.73,.34-1.24,.93-1.77,1.53-1.1,1.24-1.32,2.78-1.74,4.39Zm-4.67-9.9l-.05,.14c-.1,0-.22,.02-.29-.03-.1-.08-.15-.23-.26-.31-.09-.06-.23-.06-.35-.08,0,.12-.04,.27,.02,.36,.14,.2,.32,.38,.5,.56,.21,.2,.4,.15,.58-.05,.35-.38,.39-.93,.05-1.56-.22,.19-.41,.36-.63,.55,.18,.18,.29,.31,.41,.43Zm-4-2.4c.07-.14,.18-.27,.21-.41,.03-.13-.02-.27-.03-.41-.13,.05-.31,.07-.4,.16-.18,.19-.2,.4,.21,.66Zm9.27,7.66c-.14-.1-.24-.18-.34-.25-.06,.1-.19,.21-.17,.3,0,.08,.17,.17,.28,.18,.06,0,.13-.13,.23-.23Z" style="fill:#fff;"/><path d="M68.19,84.09c.2,.39,.32,.44,.54,.17,.56-.71,1.09-1.43,1.63-2.15,.22-.29,.42-.58,.63-.88,.05-.07,.18-.15,.16-.21-.18-.7,.59-.95,.79-1.54,.05,.12,.15,.24,.16,.36,.04,.89,.19,1.75,.52,2.57,.18,.45,.42,.9,.7,1.3,.49,.71,.5,.68,.08,1.44-.46,.83-.99,1.58-1.95,1.87-.71,.22-1.44,.39-2.16,.57-1.69,.43-3.32,.17-4.83-.63-.74-.4-1.39-.99-2.13-1.53,.89-.57,1.91-.96,1.91-2.26,.19-.04,.41-.08,.62-.13,.47-.1,1,0,1.39-.4,.05-.05,.23,.03,.31,.05-.26,1.01-.51,1.97-.76,2.95,.32,.11,.45-.01,.51-.24,.11-.44,.19-.88,.32-1.31,.13-.46,.31-.91,.47-1.36,.06,.01,.11,.02,.17,.03,.01,.11,.06,.23,.03,.33-.16,.57-.34,1.12-.5,1.69-.05,.16-.07,.33-.1,.51,.37,.08,.45-.15,.51-.36,.19-.6,.35-1.21,.54-1.81,.06-.19,.02-.48,.41-.49-.11,.88-.64,1.65-.59,2.56,.64-.17,.65-.2,.56-.73-.02-.12,.05-.25,.08-.37h-.01Zm-2.94,1.53c.53-.59,.8-1.69,.63-2.36-.48,.02-.85,.17-.98,.71-.06,.24-.16,.47-.25,.7-.07,.18-.13,.39,.12,.43,.09,.01,.25-.19,.32-.32,.11-.23,.17-.49,.29-.85,.26,.66-.36,1.07-.12,1.7Z" style="fill:#fff;"/><path d="M69.5,94.88c.11,.26,.19,.53,.34,.77,.07,.12,.3,.24,.41,.2,.21-.07,.19-.27,.07-.45-.1-.15-.24-.3,.07-.53,.1,.2,.17,.39,.29,.55,.08,.11,.24,.27,.33,.25,.24-.04,.21-.24,.13-.43-.04-.1-.05-.2-.08-.3,.04-.02,.08-.04,.12-.07,.12,.16,.23,.33,.35,.5,.28,.41,.42,.43,.9,.31,1.35-.33,1.97-1.34,2.37-2.54,.05-.14-.02-.35-.1-.48-.12-.18-.3-.14-.47,0-.18,.15-.37,.21-.5-.06-.12-.25,0-.5,.22-.55,.26-.06,.64-.09,.82,.05,.23,.19,.47,.58,.44,.85-.16,1.15-.65,2.16-1.67,2.81-.18,.11-.43,.14-.64,.14-.38,.01-.58,.25-.72,.53-.14,.28,.1,.45,.26,.64,.18,.22,.37,.44,.56,.67-.31,.33-.5,.15-.69-.07-.16-.18-.32-.36-.48-.54-.07,.06-.47,.84-.52,1-.3-.33-.58-.64-.86-.94-.43,.34-.09,.64-.21,.96-.07-.14-.17-.26-.2-.41-.07-.36-.31-.49-.59-.36-1.13,.51-2.33,.13-3.48,.35-.16,.03-.34-.08-.51-.14-.67-.24-1.36-.45-2.02-.72-.72-.3-1.56-.47-1.83-1.4-.06-.2-.28-.35-.41-.53-.29-.4-.44-.84-.26-1.34,.17-.45,.4-.59,.82-.5,.32,.06,.37,.2,.28,.85-.08-.03-.17-.04-.24-.09-.16-.11-.34-.21-.46,0-.06,.11-.07,.32,0,.43,.43,.72,1.12,1.16,1.87,1.48,.08,.04,.29-.09,.37-.19,.15-.18,.24-.41,.36-.61,.05,.03,.11,.05,.16,.08-.07,.16-.17,.31-.21,.48-.04,.15-.1,.41-.03,.46,.23,.15,.35-.05,.45-.24,.1-.18,.17-.37,.29-.53,.08-.11,.22-.18,.34-.26l.11,.08c-.09,.18-.18,.36-.28,.54-.06,.12-.14,.23-.21,.35-.1,.18-.25,.38,.02,.51,.26,.13,.35-.11,.45-.28,.13-.2,.26-.41,.5-.56-.06,.19-.12,.37-.19,.61,.59,.38,1.16,.65,1.9,.4,.58-.19,1.21-.26,1.81-.37,.43-.08,.54-.25,.4-.66-.07-.22-.13-.44-.19-.66,.07-.02,.15-.04,.22-.06Z" style="fill:#fff;"/><path d="M69.08,92.14c.07-1.14,.63-1.88,1.72-2.06,.7-.12,1.52,.5,1.72,1.15-.31,.29-.62,.15-.93,0-.71-.34-1.06-.18-1.48,.68-.3,.62-.12,1.15,.49,1.45,.7,.35,.93,.27,1.39-.47,.27-.44,.3-.45,.85-.31-.3,.73-.59,1.43-1.49,1.56-.25,.04-.52-.04-.77-.09-.17-.04-.33-.16-.5-.2-.35-.07-.54-.29-.69-.59-.1-.2-.21-.4-.36-.56-.23-.25-.52-.24-.8-.06-.28,.18-.4,.42-.29,.75,.02,.04,.04,.08,.05,.13,.05,.21,.19,.47,.11,.61-.16,.28-.46,.19-.72,.11-.03-.4-.03-.78-.09-1.15-.02-.12-.17-.26-.29-.3-.06-.02-.24,.11-.29,.21-.2,.4-.45,.73-.88,.89-.36,.13-.66,.18-.99-.13-.34-.31-.77-.52-1.14-.8-.35-.26-.39-.58-.22-1.01,.38-.96,1.18-1.38,2.04-1.76,.07-.03,.18-.04,.26-.01,.37,.11,.73,.22,1.09,.36,.08,.03,.18,.16,.18,.24,0,.08-.13,.22-.21,.22-.19,0-.42,0-.57-.09-.72-.42-1.2-.36-1.73,.28-.32,.4-.4,.87-.22,1.34,.16,.44,.46,.79,.97,.84,.2,.02,.42,.01,.59-.07,.13-.06,.23-.27,.24-.42,0-.07-.21-.2-.34-.24-.17-.05-.35-.02-.54-.13,.43-.27,.85-.49,1.35-.45,.43,.04,.85,.12,1.27,.14,.38,.02,.76-.03,1.22-.05Z" style="fill:#fff;"/><path d="M80.14,99.01c-.54-.48-1.03-.92-1.53-1.37-.47-.42-1-.29-1.52-.14-.93,.28-1.73,.82-2.52,1.36-.09,.06-.19,.09-.29,.14-.01-.08-.04-.14-.02-.15,.98-.87,1.95-1.74,3.2-2.21,.1-.04,.22-.08,.31-.05,1.1,.36,1.95,1.01,2.44,2.08,.04,.08-.04,.22-.07,.34Z" style="fill:#fff;"/><path d="M79.38,99.09c-.38-.23-.77-.46-1.15-.71-.29-.2-.57-.22-.89-.06-.9,.45-1.9,.7-2.72,1.32-.08,.06-.19,.06-.36-.02,.12-.1,.23-.22,.37-.31,.93-.58,1.83-1.23,2.91-1.51,.18-.05,.43-.07,.56,.02,.48,.35,.93,.76,1.39,1.14-.04,.04-.08,.09-.12,.13Z" style="fill:#fff;"/><path d="M60.07,80.83c-.33-.07-.68-.13-.85-.48-.15-.29-.27-.59-.46-1.02-.15,.15-.24,.24-.31,.3v-.63c.44,.12,.68,.35,.86,.72,.19,.4,.49,.74,.74,1.11h.01Z" style="fill:#fff;"/><path d="M61.56,82.2c.7-.09,1.37-.17,2.03-.24,.08,0,.16,.1,.39,.25-.56,.05-.95,.13-1.35,.12-.34,0-.74,.48-1.08-.13Z" style="fill:#fff;"/><path d="M68.21,84.11c.24-.57,.23-1.25,.74-1.71,.08,.71-.13,1.29-.75,1.69h.01Z" style="fill:#fff;"/><path d="M72.67,74.33c-.55-.44-1.03-.85-1.27-1.49,.43,.24,1.17,1.08,1.27,1.49Z" style="fill:#fff;"/><path d="M70.45,81.24c-.29,.44-.59,.88-.91,1.37-.05-.6,.22-1.04,.91-1.37Z" style="fill:#fff;"/><path d="M69.05,69.61c.41,.2,.79,.32,.91,.8-.25-.08-.46-.15-.68-.2-.33-.08-.36-.26-.24-.6Z" style="fill:#fff;"/><path d="M72.94,72.94c-.48-.29-.95-.58-1.43-.87,.03-.05,.07-.11,.1-.16,.48,.29,.95,.58,1.43,.87-.03,.05-.07,.1-.1,.16Z" style="fill:#fff;"/><path d="M64.25,82.53c.27-.4,.49-.11,.7,0h-.7Z" style="fill:#fff;"/><path d="M69.86,70.92c.16,.19,.31,.37,.47,.56-.05,.04-.1,.08-.15,.13-.16-.19-.31-.37-.47-.56,.05-.04,.1-.08,.15-.13Z" style="fill:#fff;"/><path d="M72.26,72.94c.18,.14,.4,.31,.61,.48q-.52-.14-.61-.48Z" style="fill:#fff;"/><path d="M37.04,73.24c.04-.25,.06-.44,.09-.62,.18-.05,.33-.08,.5-.13v-.66c.98,.2,1.67,.85,2.41,1.43,.6,.47,1.21,.92,1.75,1.45,.39,.39,.67,.89,1.05,1.4-1.09,.59-1.36,1.68-1.84,2.64-.63,1.25-1.08,2.57-1.57,3.88-.16,.44-.22,.92-.31,1.38-.06,.32-.24,.41-.59,.32,.02-.46,.05-.92,.06-1.38,.02-.56-.13-.67-.69-.55-.24,.05-.48,.11-.73,.16-.08,.02-.18,0-.3,0,.05-.53,.12-1.03,.14-1.53,.01-.38,.02-.77-.27-1.09-.16-.17-.32-.29-.52-.12-.2,.16-.04,.3,.07,.46,.32,.46,.32,1.61-.01,2.06-.1,.13-.28,.21-.43,.28-.12,.05-.28,.03-.39,.09-.1,.06-.17,.19-.25,.28,.11,.08,.21,.19,.34,.24,.07,.03,.17,0,.33-.03-.02,.31-.03,.59-.05,.92-.61-.12-1.16-.23-1.7-.33-.6-.11-1.09-.47-1.62-.73-.51-.25-.66-.94-.36-1.62,.2-.47,.54-.9,.51-1.45,0-.02,0-.05,.02-.06,.69-.46,.49-1.22,.56-1.85,.09-.86,.42-1.62,.76-2.37,.28-.61,.65-1.18,1.05-1.91,.18,.33,.28,.57,.43,.76,.09,.12,.27,.17,.4,.26,.02-.16,.11-.35,.06-.47-.15-.35-.36-.67-.6-1.1,.26-.42,.55-.89,.88-1.42,.23,.15,.41,.26,.45,.28-.02,.47-.03,.81-.04,1.15,0,.36,.05,.73,0,1.08-.11,.7-.27,1.39-.41,2.11,.43,.25,.46-.14,.56-.46,.18,.11,.34,.21,.51,.32,.06-.09,.13-.14,.13-.19-.01-.11-.03-.24-.1-.31-.29-.3-.24-.65-.23-1.02,.03-.82,.36-1.38,1.2-1.57,.18-.04,.55-.06,.42-.39-.11-.27-.38-.13-.59-.04-.32,.13-.64,.28-1.07,.47Zm2.65,3.02c.04,.08,.08,.15,.12,.23-.21,.17-.43,.33-.61,.53-.06,.06-.03,.24,.02,.35,.02,.04,.27,.04,.28,0,.25-.59,1.26-.69,1.04-1.6-.03-.12,.15-.32,.27-.44,.08-.09,.23-.12,.34-.18-.06-.03-.12-.06-.18-.1-.07-.24-.13-.48-.22-.71-.04-.11-.13-.21-.2-.31-.09,.1-.24,.19-.27,.3-.04,.16,.07,.37-.22,.42-.09-.3-.14-.6-.27-.88-.04-.09-.25-.11-.38-.16-.02,.14-.06,.28-.05,.41,.03,.21,.2,.46,.14,.62-.24,.64-.23,1.5-1.23,1.53-.04,.43,.14,.57,.47,.45,.18-.06,.33-.24,.51-.33,.13-.07,.29-.09,.43-.14Zm-6.15,5.05c-.09,.7,.08,1.19,.43,1.62,.07,.09,.3,.15,.39,.1,.18-.09,.23-.3,.06-.45-.55-.44-.48-1.01-.27-1.54,.15-.38,.47-.68,.72-1.02,.15-.2,.36-.08,.53-.13,.19-.05,.43-.31,.44-.48,0-.29-.31-.31-.52-.23-.24,.09-.49,.24-.67,.42-.62,.65-1.2,1.35-2,1.8-.08,.04-.16,.11-.2,.18-.05,.11-.06,.24-.08,.36,.14,0,.32,.07,.41,.01,.23-.14,.41-.34,.77-.64Zm2.78-2.51c.23,.17,.39,.38,.55,.39,.5,0,.83,.29,1.17,.58,.13,.12,.29,.22,.46,.27,.37,.12,.57-.05,.62-.52-.5,0-.9-.18-1.31-.5-.33-.25-.84-.53-1.49-.23Zm-.54,2.62c.02-.26-.36-.72-.61-.73-.23-.01-.53,.27-.54,.52-.01,.27,.31,.66,.56,.68,.23,.02,.57-.25,.59-.47Zm3.12-6.51c0-.3-.35-.7-.59-.69-.2,0-.5,.35-.5,.57,0,.25,.33,.56,.6,.54,.28-.02,.46-.17,.49-.42Z" style="fill:#fff;"/><path d="M35.76,87.4c.29,.06,.56,.11,.84,.17,.34-.55,.5-1.13,.52-1.75,0-.31,.02-.63,.47-.81-.16,.83-.31,1.58-.46,2.35,.36,.14,.64,.02,.89-.26,.7-.81,1.4-1.63,2.12-2.44,.25-.28,.54-.52,.88-.84,.07,.12,.14,.19,.13,.24-.16,1.38-.32,2.75-1.25,3.89-.47,.58-1.01,1.02-1.76,1.17-.2,.04-.39,.12-.58,.18-.99,.31-2.35-.4-2.58-1.41-.14-.61-.35-1.19-.53-1.8,.63-.32,1.16-.59,1.83-.92-.18,.79-.33,1.45-.5,2.22Zm.08-1.66c-.52,.21-.79,.64-.67,.99,.02,.07,.13,.17,.18,.16,.09-.02,.22-.1,.25-.18,.09-.29,.15-.59,.24-.97Z" style="fill:#fff;"/><path d="M42.97,76.65c.45,1.23,.11,2.36-.23,3.48-.19,.62-.46,1.21-.73,1.8-.39,.85-1,1.49-1.86,1.89-.11,.05-.25,.04-.43,.07,.08-.75,.22-1.42,.49-2.06,.56-1.33,1.12-2.65,1.68-3.98,.25-.59,.44-.82,1.08-1.19Z" style="fill:#fff;"/><path d="M41.7,84.83c.11,.32,.24,.5,.22,.67-.16,1.49-.62,2.86-1.66,3.98-.47,.51-1.04,.84-1.78,.86-.49,0-.97,.13-1.46,.15-1.25,.05-1.99-.73-2.57-1.69-.49-.78-.91-1.59-1.02-2.55-.06-.48-.59-.62-1.05-.71q-.42-.08-.22-.6c.62,.36,1.24,.71,1.89,1.09-.08,.83,.31,1.62,.59,2.41,.38,1.08,1.92,1.79,3.14,1.45,1.67-.47,2.62-1.6,3.31-3.04,.24-.5,.29-1.08,.43-1.62,.02-.08,.06-.15,.17-.39Z" style="fill:#fff;"/><path d="M45.35,95.74c-.41-.59-.85-1.16-1.21-1.77-.43-.74-.83-1.5-1.18-2.27-.2-.44-.31-.94-.37-1.42-.09-.85-.17-1.71-.14-2.56,.02-.61,.21-1.22,.32-1.83,.54,.05,.59,.09,.5,.49-.27,1.19-.12,2.37,.11,3.53,.22,1.13,.51,2.24,.86,3.34,.17,.54,.56,1.02,.85,1.53,.16,.28,.32,.56,.48,.85-.07,.04-.14,.08-.21,.12Z" style="fill:#fff;"/><path d="M31.55,86.52c.18-.08,.34-.15,.48-.22,.06,.05,.11,.07,.12,.1,.26,.79,.06,1.61,.1,2.42,.08,1.81-.83,3.34-1.48,4.94-.19,.48-.5,.91-.76,1.35-.04,.07-.12,.11-.31,.28,.16-.65,.25-1.16,.39-1.64,.43-1.42,.91-2.82,1.3-4.25,.2-.75,.25-1.55,.33-2.33,.02-.18-.1-.37-.18-.64Z" style="fill:#fff;"/><path d="M34.71,73.53c-.36,.62-.73,1.2-1.05,1.82-.3,.6-.55,1.23-.85,1.92-.04-.14-.09-.22-.08-.31,.03-.72-.85-1.29-.26-2.14,.42-.6,.63-1.34,.94-2.01,.04-.08,.11-.13,.19-.22,.38,.32,.75,.64,1.11,.94Z" style="fill:#fff;"/><path d="M33.2,72.28c-.41,.87-.77,1.64-1.15,2.44-.33-.57-.61-1.07-.91-1.59,.26-.5,.52-1.01,.8-1.56,.44,.25,.83,.46,1.25,.7Z" style="fill:#fff;"/><path d="M36.47,83.19c.53-.09,1.04-.17,1.62-.27-.02,.49-.03,.97-.09,1.44,0,.08-.24,.21-.35,.19-.37-.07-.74-.18-1.08-.33-.12-.05-.2-.28-.22-.43-.02-.17,.06-.35,.11-.6Z" style="fill:#fff;"/><path d="M31.25,77.46c.45,.6,.81,1.1,1.15,1.54-.13,.6-.24,1.12-.38,1.76-.17-.3-.29-.48-.38-.68-.22-.46-.44-.93-.64-1.4-.05-.11-.05-.26-.02-.38,.06-.24,.15-.47,.28-.85Z" style="fill:#fff;"/><path d="M30.75,80.11c.37,.4,.67,.73,.98,1.07-.06,.28-.12,.58-.18,.89-.73-.31-1.07-1.04-.8-1.96Z" style="fill:#fff;"/><path d="M35.04,72.83c-.28-.32-.53-.6-.78-.87,.7-.77,.74-.78,1.51-.33-.23,.37-.45,.75-.73,1.2Z" style="fill:#fff;"/><path d="M30.87,72.76c-.31-.46-.55-.82-.8-1.18,.49-.46,.92,.05,1.47-.13-.25,.49-.43,.85-.66,1.31Z" style="fill:#fff;"/><path d="M33.31,85.15c-.18-.13-.37-.27-.69-.5,.92-.08,1.67-.15,2.43-.21,0,.04,.01,.08,.02,.13-.56,.18-1.11,.37-1.76,.58Z" style="fill:#fff;"/><path d="M30.19,76.15c.26,.32,.51,.65,.79,.99-.11,.19-.21,.36-.34,.6-.32-.51-.65-.92-.6-1.49,.05-.03,.11-.07,.16-.1Z" style="fill:#fff;"/><path d="M30.06,80.44c-.79-.66-.84-.84-.39-1.19,.67,.52,.69,.58,.39,1.19Z" style="fill:#fff;"/><path d="M30.39,83.66c-.66-.31-.45-1.01-.76-1.51,.62,.19,.75,.46,.76,1.51Z" style="fill:#fff;"/><path d="M34.48,71.2c-.17,.15-.34,.31-.53,.47-.31-.26-.54-.45-.8-.66,.45-.39,.82-.1,1.2-.03,.05,.07,.09,.15,.14,.22Z" style="fill:#fff;"/><path d="M31.44,84.35c-.44-.32-.45-.81-.67-1.34,.87,.51,1,.8,.67,1.34Z" style="fill:#fff;"/><path d="M25.7,93.63c-.13-.54-.26-1.07-.39-1.61,.55,.48,.65,1.11,.37,1.6h.01Z" style="fill:#fff;"/><path d="M29.08,96.9c-.04,.39-.07,.78-.11,1.2-.43-.3-.41-.6,.11-1.2Z" style="fill:#fff;"/><path d="M28.4,98.35c.28,.33,.68,.44,.48,.93-.28-.22-.68-.31-.48-.93Z" style="fill:#fff;"/><path d="M40.24,72.44c.28,.32,.56,.64,.85,.95-.61-.03-.64-.57-.97-.84,.04-.04,.08-.07,.12-.11Z" style="fill:#fff;"/><path d="M35.64,69.69c.5-.19,.76,0,1.13,.3-.47,.13-.75-.03-1.13-.3Z" style="fill:#fff;"/><path d="M28.73,78.09c.18,.27,.37,.54,.6,.87-.48,0-.5-.02-.73-.76,.05-.04,.09-.07,.14-.11Z" style="fill:#fff;"/><path d="M38.46,85.85c.04-.35,0-.72,.54-.85l-.39,.9s-.1-.03-.15-.05Z" style="fill:#fff;"/><path d="M38.16,85.26c-.1,.42-.2,.84-.32,1.34q-.12-.38,.17-1.35c.05,0,.1,0,.15,.01Z" style="fill:#fff;"/><path d="M36.56,85.85c.11,.39,.14,.76-.32,1.13,.13-.46,.23-.8,.32-1.13Z" style="fill:#fff;"/><path d="M34.12,85.35c.25-.06,.51-.13,.76-.19-.17,.35-.4,.49-.73,.36-.01-.06-.02-.11-.03-.17Z" style="fill:#fff;"/><path d="M37.21,70.09c.21,.02,.42,.03,.65,.05q-.24,.41-.65-.05Z" style="fill:#fff;"/><path d="M40.35,72.01c-.32-.04-.76,.09-.73-.53,.35,.07,.55,.29,.72,.54h.01Z" style="fill:#fff;"/><path d="M40.34,72.02c.36,.03,.64,.15,.64,.62-.21-.21-.42-.42-.63-.63h-.01Z" style="fill:#fff;"/><path d="M46.11,97.41c.06,.18,.12,.37,.18,.55-.44-.06-.3-.32-.34-.52,.05,0,.1-.02,.16-.02Z" style="fill:#fff;"/><path d="M36.3,84.76c-.19,.05-.34,.1-.51,.14,0-.1,0-.15,.01-.18,.14-.17,.29-.26,.49,.03Z" style="fill:#fff;"/><path d="M46.46,98.63c-.11,.1-.22,.21-.39,.37-.07-.39,.01-.52,.39-.37Z" style="fill:#fff;"/><path d="M63.6,78.41c-.57,.15-1.08,.37-1.35,.96-.05,.11-.24,.15-.36,.23-.04-.03-.09-.06-.13-.09,.05-.14,.07-.31,.16-.43,.53-.76,1.07-1.5,1.6-2.26,.07-.1,.1-.22,.15-.33-.04-.03-.08-.06-.12-.09-.2,.25-.43,.48-.61,.74-.31,.45-.56,.94-.89,1.36-.3,.38-.69,.69-1.13,1.12-.2-.6-.36-1.07-.55-1.65,.33-.27,.73-.62,1.15-.95,.08-.07,.21-.12,.31-.11,.84,.1,1.11-.62,1.69-1.06-.34-.32-.59-.57-.85-.8-.16-.14-.25-.28-.09-.46,.16-.18,.32-.09,.46,.06,.29,.32,.57,.64,.87,.94,.1,.1,.25,.21,.38,.23,1.01,.12,1.82,.63,2.56,1.29,.18,.16,.36,.27,.61,.14,.19-.1,.39-.17,.54,.06,.17,.25-.02,.42-.18,.58-.04,.05-.11,.07-.26,.16-.38-.25-.8-.49-1.18-.8-.48-.39-1-.69-1.6-.85-.18-.05-.38-.03-.7-.06,.24,.62,.47,1.14,.25,1.7-.11,.27-.17,.57-.33,.8-.15,.22-.38,.38-.6,.54-.2,.15-.42,.26-.64,.37-.06,.03-.17-.02-.26-.03-.02-.4,.3-.49,.52-.66,.25-.18,.59-.27,.59-.67,.24-.35,.34-.73,.23-1.2-.09,.07-.14,.1-.18,.14-.29,.35-.06,.71-.04,1.07Zm-2.32,.48c.35-.55,.64-1.01,1-1.58-1.01,.4-1.19,.69-1,1.58Z"/><path d="M64.68,73.97c.14-.5,.23-.92,.38-1.32,.14-.38,.16-.73,0-1.11-.24-.58-.09-.98,.46-1.3,.34-.19,.68-.4,1.23-.35-.16,.27-.28,.46-.49,.81,.33-.14,.52-.22,.73-.31,.8,.82,.71,1.76,.25,2.67-.2,.39-.65,.66-1.01,.97-.06,.05-.2,.02-.32,.02-.07-.46,.28-.58,.5-.77,.65-.55,.76-1.22,.57-2.1-.27,.34-.42,.6-.21,.95,.13,.22,.01,.37-.16,.52-.44,.38-.86,.77-1.27,1.17-.1,.1-.11,.29-.18,.42-.13,.26-.28,.5-.41,.73-.33-.08-.6-.14-.87-.23-.16-.06-.33-.15-.45-.26-.05-.05-.06-.22-.02-.29,.05-.07,.24-.16,.27-.13,.4,.35,.7-.04,1.01-.09Zm1.34-1.98s-.09-.03-.14-.05c-.18,.39-.36,.78-.54,1.17,.45-.27,.71-.62,.67-1.12Zm-.56-.79c.07,.03,.14,.06,.21,.09,.09-.18,.18-.36,.27-.54-.06-.03-.11-.06-.17-.09-.1,.18-.21,.36-.31,.53Z"/><path d="M67.84,81.44c.42-1.6,.64-3.15,1.74-4.39,.53-.6,1.04-1.19,1.77-1.53,.13-.06,.41-.07,.46,0,.16,.23-.05,.38-.25,.44-.53,.15-.84,.57-1.21,.94-1.18,1.19-1.61,2.68-1.89,4.26-.02,.09-.02,.18-.04,.27-.06,.18-.07,.47-.35,.39-.13-.04-.19-.29-.24-.39Z"/><path d="M63.17,71.54c-.12-.12-.24-.25-.41-.43,.21-.19,.41-.36,.63-.55,.34,.63,.29,1.19-.05,1.56-.19,.2-.38,.25-.58,.05-.18-.17-.36-.35-.5-.56-.06-.08-.02-.24-.02-.36,.12,.02,.26,.02,.35,.08,.11,.07,.15,.23,.26,.31,.07,.05,.19,.02,.29,.03l.05-.14Z"/><path d="M56.25,73.5c-.18,.13-.34,.31-.54,.38-.12,.04-.3-.07-.45-.12,.07-.12,.11-.28,.21-.35,.14-.1,.33-.17,.5-.17,.09,0,.18,.18,.28,.27h.01Z"/><path d="M59.17,69.14c-.41-.27-.4-.48-.21-.66,.09-.09,.26-.11,.4-.16,.01,.14,.06,.28,.03,.41-.04,.15-.14,.28-.21,.41Z"/><path d="M68.45,76.8c-.1,.11-.18,.24-.23,.23-.1-.02-.27-.11-.28-.18-.01-.09,.11-.2,.17-.3,.1,.07,.2,.15,.34,.25Z"/><path d="M65.25,85.64c-.24-.63,.38-1.05,.12-1.7-.12,.36-.18,.62-.29,.85-.06,.13-.23,.33-.32,.32-.25-.04-.19-.24-.12-.43,.09-.23,.19-.46,.25-.7,.13-.53,.5-.69,.98-.71,.17,.68-.1,1.78-.63,2.36Z"/><path d="M39.68,76.25c-.14,.04-.3,.07-.43,.14-.18,.1-.32,.27-.51,.33-.33,.11-.51-.03-.47-.45,1-.03,.99-.89,1.23-1.53,.06-.17-.11-.41-.14-.62-.02-.13,.03-.27,.05-.41,.13,.05,.34,.07,.38,.16,.12,.27,.18,.58,.27,.88,.3-.05,.19-.26,.22-.42,.03-.12,.17-.2,.27-.3,.07,.1,.16,.2,.2,.31,.09,.23,.15,.47,.22,.71,.06,.03,.12,.06,.18,.1-.12,.06-.26,.09-.34,.18-.12,.13-.3,.32-.27,.44,.22,.91-.79,1.01-1.04,1.6-.01,.03-.27,.03-.28,0-.05-.1-.07-.28-.02-.35,.18-.2,.4-.36,.61-.53-.04-.08-.08-.15-.12-.23Zm.17-.33q.39-.51,.03-.77c-.04,.25-.31,.44-.03,.77Z"/><path d="M33.53,81.3c-.35,.3-.54,.5-.77,.64-.1,.06-.27,0-.41-.01,.03-.12,.03-.25,.08-.36,.03-.08,.12-.14,.2-.18,.81-.45,1.38-1.15,2-1.8,.18-.19,.42-.33,.67-.42,.21-.08,.53-.06,.52,.23,0,.17-.25,.43-.44,.48-.17,.05-.38-.07-.53,.13-.25,.34-.57,.65-.72,1.02-.22,.53-.28,1.1,.27,1.54,.18,.14,.13,.36-.06,.45-.1,.05-.32-.01-.39-.1-.35-.43-.52-.92-.43-1.62Z"/><path d="M36.31,78.79c.65-.3,1.15-.03,1.49,.23,.42,.32,.82,.5,1.31,.5-.05,.47-.26,.64-.62,.52-.17-.05-.33-.15-.46-.27-.34-.3-.67-.58-1.17-.58-.16,0-.32-.22-.55-.39Z"/><path d="M35.78,81.41c-.02,.22-.35,.49-.59,.47-.25-.02-.57-.41-.56-.68,.01-.25,.3-.53,.54-.52,.25,.01,.63,.47,.61,.73Z"/><path d="M38.89,74.91c-.03,.26-.21,.4-.49,.42-.27,.02-.6-.3-.6-.54,0-.22,.3-.56,.5-.57,.23,0,.59,.39,.59,.69Z"/><path d="M35.84,85.74c-.09,.39-.15,.69-.24,.97-.03,.08-.15,.15-.25,.18-.05,.01-.15-.09-.18-.16-.12-.35,.14-.79,.67-.99Z"/><path d="M61.27,78.89c-.19-.89,0-1.18,1-1.58-.36,.57-.65,1.03-1,1.58Z" style="fill:#fff;"/><path d="M63.6,78.41c-.02-.36-.25-.72,.04-1.07,.04-.04,.09-.07,.18-.14,.12,.47,.01,.85-.23,1.2h0Z" style="fill:#fff;"/><path d="M66.03,72c.04,.5-.22,.85-.67,1.12,.18-.39,.36-.78,.54-1.17,.05,.02,.09,.03,.14,.05Z" style="fill:#fff;"/><path d="M65.46,71.21c.1-.18,.21-.36,.31-.53,.06,.03,.11,.06,.17,.09-.09,.18-.18,.36-.27,.54-.07-.03-.14-.06-.21-.09Z" style="fill:#fff;"/><path d="M39.86,75.92c-.28-.33-.01-.52,.03-.77q.35,.26-.03,.77Z" style="fill:#fff;"/></svg>